<svg xmlns="http://www.w3.org/2000/svg" xmlns:xlink="http://www.w3.org/1999/xlink" width="574.101" height="318.847" viewBox="0 0 574.101 318.847">
  <defs>
    <linearGradient id="linear-gradient" x1="0.5" x2="0.5" y2="1" gradientUnits="objectBoundingBox">
      <stop offset="0" stop-color="#02bbd6"/>
      <stop offset="1" stop-color="#00bbd6"/>
    </linearGradient>
    <linearGradient id="linear-gradient-2" x1="0.516" y1="0.76" x2="0.568" y2="-0.647" gradientUnits="objectBoundingBox">
      <stop offset="0" stop-color="#7fddea"/>
      <stop offset="0.463" stop-color="#78d2de"/>
      <stop offset="1" stop-color="#406f75"/>
    </linearGradient>
    <linearGradient id="linear-gradient-3" x1="0.043" y1="0.249" x2="1.644" y2="1.22" gradientUnits="objectBoundingBox">
      <stop offset="0" stop-color="#7fddea"/>
      <stop offset="0.695" stop-color="#6ebfca"/>
      <stop offset="1" stop-color="#406f75"/>
    </linearGradient>
    <linearGradient id="linear-gradient-4" x1="0.5" x2="-1.035" y2="1.64" gradientUnits="objectBoundingBox">
      <stop offset="0" stop-color="#7fddea"/>
      <stop offset="0.394" stop-color="#74cad6"/>
      <stop offset="1" stop-color="#406f75"/>
    </linearGradient>
  </defs>
  <g id="about-us-image" transform="translate(-668.899 -1029.153)">
    <g id="Rectangle_343" data-name="Rectangle 343" transform="translate(730 1054)" fill="none" stroke="rgba(4,154,175,0.3)" stroke-width="5" opacity="0.998">
      <rect width="513" height="294" stroke="none"/>
      <rect x="2.5" y="2.5" width="508" height="289" fill="none"/>
    </g>
    <rect id="Rectangle_355" data-name="Rectangle 355" width="512" height="296" transform="translate(715 1033)" fill="#fff"/>
    <g id="Floor" transform="translate(808 1134.969)">
      <ellipse id="Floor-2" data-name="Floor" cx="251.919" cy="94.193" rx="251.919" ry="94.193" transform="translate(-92)" fill="#f5f5f5"/>
    </g>
    <g id="Shadows" transform="translate(883.033 1236.059)">
      <ellipse id="Shadow" cx="29.997" cy="17.319" rx="29.997" ry="17.319" transform="translate(86.041 10.255)" fill="#e1e1e1"/>
      <path id="Shadow-2" data-name="Shadow" d="M174.5-1c96.372,0,174.5,8.754,174.5,18.319S270.869,34.638,174.5,34.638,0,26.884,0,17.319,78.125-1,174.5-1Z" transform="translate(-142.959 -56.745)" fill="#e1e1e1"/>
      <ellipse id="Shadow-3" data-name="Shadow" cx="29.997" cy="17.319" rx="29.997" ry="17.319" transform="translate(191.041 13.255)" fill="#e1e1e1"/>
      <ellipse id="Shadow-4" data-name="Shadow" cx="29.997" cy="17.319" rx="29.997" ry="17.319" transform="translate(239.083 -31)" fill="#e1e1e1"/>
      <ellipse id="Shadow-5" data-name="Shadow" cx="29.997" cy="17.319" rx="29.997" ry="17.319" transform="translate(0 36.224)" fill="#e1e1e1"/>
    </g>
    <g id="car" transform="translate(18 -329)">
      <g id="whell" transform="translate(852.729 1494.732) rotate(120)">
        <g id="Ellipse_19" data-name="Ellipse 19" transform="matrix(0.985, -0.174, 0.174, 0.985, 0, 9.047)" fill="#fff" stroke="#484848" stroke-width="10">
          <circle cx="26.049" cy="26.049" r="26.049" stroke="none"/>
          <circle cx="26.049" cy="26.049" r="21.049" fill="none"/>
        </g>
        <g id="Ellipse_20" data-name="Ellipse 20" transform="matrix(0.985, -0.174, 0.174, 0.985, 26.308, 27.468)" fill="#fff" stroke="#484848" stroke-width="1">
          <circle cx="3.34" cy="3.34" r="3.34" stroke="none"/>
          <circle cx="3.34" cy="3.34" r="2.84" fill="none"/>
        </g>
        <g id="Path_85" data-name="Path 85" transform="matrix(0.545, -0.839, 0.839, 0.545, 29.4, 26.321)" fill="#fff">
          <path d="M 5.332319736480713 3.007597208023071 C 4.95566987991333 3.007597208023071 3.954039812088013 2.907707214355469 2.906469821929932 2.685647249221802 C 2.126843929290771 2.520379066467285 1.638354897499084 2.356209754943848 1.339395880699158 2.228443145751953 C 1.650181293487549 2.046966075897217 2.160327911376953 1.805981397628784 2.946929931640625 1.545217275619507 C 4.0688796043396 1.173277258872986 5.033589839935303 0.9999973177909851 5.332319736480713 0.9999973177909851 C 5.885819911956787 0.9999973177909851 6.336119651794434 1.450297236442566 6.336119651794434 2.003797292709351 C 6.336119651794434 2.557297229766846 5.885819911956787 3.007597208023071 5.332319736480713 3.007597208023071 Z" stroke="none"/>
          <path d="M 5.332319736480713 -2.86102294921875e-06 C 6.438989639282227 -2.86102294921875e-06 7.336119651794434 0.8971273899078369 7.336119651794434 2.003797292709351 C 7.336119651794434 3.110467433929443 6.438989639282227 4.00759744644165 5.332319736480713 4.00759744644165 C 4.225659847259521 4.00759744644165 0 3.392947196960449 0 2.286277294158936 C 0 1.179617404937744 4.225659847259521 -2.86102294921875e-06 5.332319736480713 -2.86102294921875e-06 Z" stroke="none" fill="#484848"/>
        </g>
        <g id="Path_88" data-name="Path 88" transform="matrix(0.799, 0.602, -0.602, 0.799, 34.027, 29.879)" fill="#fff">
          <path d="M 5.332319736480713 3.007597208023071 C 4.95566987991333 3.007597208023071 3.954039812088013 2.907707214355469 2.906469821929932 2.685647249221802 C 2.126843929290771 2.520379066467285 1.638354897499084 2.356209754943848 1.339395880699158 2.228443145751953 C 1.650181293487549 2.046966075897217 2.160327911376953 1.805981397628784 2.946929931640625 1.545217275619507 C 4.0688796043396 1.173277258872986 5.033589839935303 0.9999973177909851 5.332319736480713 0.9999973177909851 C 5.885819911956787 0.9999973177909851 6.336119651794434 1.450297236442566 6.336119651794434 2.003797292709351 C 6.336119651794434 2.557297229766846 5.885819911956787 3.007597208023071 5.332319736480713 3.007597208023071 Z" stroke="none"/>
          <path d="M 5.332319736480713 -2.86102294921875e-06 C 6.438989639282227 -2.86102294921875e-06 7.336119651794434 0.8971273899078369 7.336119651794434 2.003797292709351 C 7.336119651794434 3.110467433929443 6.438989639282227 4.00759744644165 5.332319736480713 4.00759744644165 C 4.225659847259521 4.00759744644165 0 3.392947196960449 0 2.286277294158936 C 0 1.179617404937744 4.225659847259521 -2.86102294921875e-06 5.332319736480713 -2.86102294921875e-06 Z" stroke="none" fill="#484848"/>
        </g>
        <g id="Path_86" data-name="Path 86" transform="matrix(-0.777, -0.629, 0.629, -0.777, 26.446, 30.814)" fill="#fff">
          <path d="M 5.332319736480713 3.007597208023071 C 4.95566987991333 3.007597208023071 3.954039812088013 2.907707214355469 2.906469821929932 2.685647249221802 C 2.126843929290771 2.520379066467285 1.638354897499084 2.356209754943848 1.339395880699158 2.228443145751953 C 1.650181293487549 2.046966075897217 2.160327911376953 1.805981397628784 2.946929931640625 1.545217275619507 C 4.0688796043396 1.173277258872986 5.033589839935303 0.9999973177909851 5.332319736480713 0.9999973177909851 C 5.885819911956787 0.9999973177909851 6.336119651794434 1.450297236442566 6.336119651794434 2.003797292709351 C 6.336119651794434 2.557297229766846 5.885819911956787 3.007597208023071 5.332319736480713 3.007597208023071 Z" stroke="none"/>
          <path d="M 5.332319736480713 -2.86102294921875e-06 C 6.438989639282227 -2.86102294921875e-06 7.336119651794434 0.8971273899078369 7.336119651794434 2.003797292709351 C 7.336119651794434 3.110467433929443 6.438989639282227 4.00759744644165 5.332319736480713 4.00759744644165 C 4.225659847259521 4.00759744644165 0 3.392947196960449 0 2.286277294158936 C 0 1.179617404937744 4.225659847259521 -2.86102294921875e-06 5.332319736480713 -2.86102294921875e-06 Z" stroke="none" fill="#484848"/>
        </g>
        <g id="Path_87" data-name="Path 87" transform="matrix(-0.656, 0.755, -0.755, -0.656, 30.111, 33.509)" fill="#fff">
          <path d="M 5.332319736480713 3.007597208023071 C 4.95566987991333 3.007597208023071 3.954039812088013 2.907707214355469 2.906469821929932 2.685647249221802 C 2.126843929290771 2.520379066467285 1.638354897499084 2.356209754943848 1.339395880699158 2.228443145751953 C 1.650181293487549 2.046966075897217 2.160327911376953 1.805981397628784 2.946929931640625 1.545217275619507 C 4.0688796043396 1.173277258872986 5.033589839935303 0.9999973177909851 5.332319736480713 0.9999973177909851 C 5.885819911956787 0.9999973177909851 6.336119651794434 1.450297236442566 6.336119651794434 2.003797292709351 C 6.336119651794434 2.557297229766846 5.885819911956787 3.007597208023071 5.332319736480713 3.007597208023071 Z" stroke="none"/>
          <path d="M 5.332319736480713 -2.86102294921875e-06 C 6.438989639282227 -2.86102294921875e-06 7.336119651794434 0.8971273899078369 7.336119651794434 2.003797292709351 C 7.336119651794434 3.110467433929443 6.438989639282227 4.00759744644165 5.332319736480713 4.00759744644165 C 4.225659847259521 4.00759744644165 0 3.392947196960449 0 2.286277294158936 C 0 1.179617404937744 4.225659847259521 -2.86102294921875e-06 5.332319736480713 -2.86102294921875e-06 Z" stroke="none" fill="#484848"/>
        </g>
        <g id="Ellipse_25" data-name="Ellipse 25" transform="translate(29.509 29.509)" fill="#fff" stroke="#484848" stroke-width="1">
          <circle cx="0.668" cy="0.668" r="0.668" stroke="none"/>
          <circle cx="0.668" cy="0.668" r="0.168" fill="none"/>
        </g>
      </g>
      <g id="whell-2" data-name="whell" transform="translate(1048.257 1494.732) rotate(120)">
        <g id="Ellipse_19-2" data-name="Ellipse 19" transform="matrix(0.985, -0.174, 0.174, 0.985, 0, 9.047)" fill="#fff" stroke="#484848" stroke-width="10">
          <circle cx="26.049" cy="26.049" r="26.049" stroke="none"/>
          <circle cx="26.049" cy="26.049" r="21.049" fill="none"/>
        </g>
        <g id="Ellipse_20-2" data-name="Ellipse 20" transform="matrix(0.985, -0.174, 0.174, 0.985, 26.308, 27.468)" fill="#fff" stroke="#484848" stroke-width="1">
          <circle cx="3.34" cy="3.34" r="3.34" stroke="none"/>
          <circle cx="3.34" cy="3.34" r="2.84" fill="none"/>
        </g>
        <g id="Path_85-2" data-name="Path 85" transform="matrix(0.545, -0.839, 0.839, 0.545, 29.4, 26.321)" fill="#fff">
          <path d="M 5.332319736480713 3.007597208023071 C 4.95566987991333 3.007597208023071 3.954039812088013 2.907707214355469 2.906469821929932 2.685647249221802 C 2.126843929290771 2.520379066467285 1.638354897499084 2.356209754943848 1.339395880699158 2.228443145751953 C 1.650181293487549 2.046966075897217 2.160327911376953 1.805981397628784 2.946929931640625 1.545217275619507 C 4.0688796043396 1.173277258872986 5.033589839935303 0.9999973177909851 5.332319736480713 0.9999973177909851 C 5.885819911956787 0.9999973177909851 6.336119651794434 1.450297236442566 6.336119651794434 2.003797292709351 C 6.336119651794434 2.557297229766846 5.885819911956787 3.007597208023071 5.332319736480713 3.007597208023071 Z" stroke="none"/>
          <path d="M 5.332319736480713 -2.86102294921875e-06 C 6.438989639282227 -2.86102294921875e-06 7.336119651794434 0.8971273899078369 7.336119651794434 2.003797292709351 C 7.336119651794434 3.110467433929443 6.438989639282227 4.00759744644165 5.332319736480713 4.00759744644165 C 4.225659847259521 4.00759744644165 0 3.392947196960449 0 2.286277294158936 C 0 1.179617404937744 4.225659847259521 -2.86102294921875e-06 5.332319736480713 -2.86102294921875e-06 Z" stroke="none" fill="#484848"/>
        </g>
        <g id="Path_88-2" data-name="Path 88" transform="matrix(0.799, 0.602, -0.602, 0.799, 34.027, 29.879)" fill="#fff">
          <path d="M 5.332319736480713 3.007597208023071 C 4.95566987991333 3.007597208023071 3.954039812088013 2.907707214355469 2.906469821929932 2.685647249221802 C 2.126843929290771 2.520379066467285 1.638354897499084 2.356209754943848 1.339395880699158 2.228443145751953 C 1.650181293487549 2.046966075897217 2.160327911376953 1.805981397628784 2.946929931640625 1.545217275619507 C 4.0688796043396 1.173277258872986 5.033589839935303 0.9999973177909851 5.332319736480713 0.9999973177909851 C 5.885819911956787 0.9999973177909851 6.336119651794434 1.450297236442566 6.336119651794434 2.003797292709351 C 6.336119651794434 2.557297229766846 5.885819911956787 3.007597208023071 5.332319736480713 3.007597208023071 Z" stroke="none"/>
          <path d="M 5.332319736480713 -2.86102294921875e-06 C 6.438989639282227 -2.86102294921875e-06 7.336119651794434 0.8971273899078369 7.336119651794434 2.003797292709351 C 7.336119651794434 3.110467433929443 6.438989639282227 4.00759744644165 5.332319736480713 4.00759744644165 C 4.225659847259521 4.00759744644165 0 3.392947196960449 0 2.286277294158936 C 0 1.179617404937744 4.225659847259521 -2.86102294921875e-06 5.332319736480713 -2.86102294921875e-06 Z" stroke="none" fill="#484848"/>
        </g>
        <g id="Path_86-2" data-name="Path 86" transform="matrix(-0.777, -0.629, 0.629, -0.777, 26.446, 30.814)" fill="#fff">
          <path d="M 5.332319736480713 3.007597208023071 C 4.95566987991333 3.007597208023071 3.954039812088013 2.907707214355469 2.906469821929932 2.685647249221802 C 2.126843929290771 2.520379066467285 1.638354897499084 2.356209754943848 1.339395880699158 2.228443145751953 C 1.650181293487549 2.046966075897217 2.160327911376953 1.805981397628784 2.946929931640625 1.545217275619507 C 4.0688796043396 1.173277258872986 5.033589839935303 0.9999973177909851 5.332319736480713 0.9999973177909851 C 5.885819911956787 0.9999973177909851 6.336119651794434 1.450297236442566 6.336119651794434 2.003797292709351 C 6.336119651794434 2.557297229766846 5.885819911956787 3.007597208023071 5.332319736480713 3.007597208023071 Z" stroke="none"/>
          <path d="M 5.332319736480713 -2.86102294921875e-06 C 6.438989639282227 -2.86102294921875e-06 7.336119651794434 0.8971273899078369 7.336119651794434 2.003797292709351 C 7.336119651794434 3.110467433929443 6.438989639282227 4.00759744644165 5.332319736480713 4.00759744644165 C 4.225659847259521 4.00759744644165 0 3.392947196960449 0 2.286277294158936 C 0 1.179617404937744 4.225659847259521 -2.86102294921875e-06 5.332319736480713 -2.86102294921875e-06 Z" stroke="none" fill="#484848"/>
        </g>
        <g id="Path_87-2" data-name="Path 87" transform="matrix(-0.656, 0.755, -0.755, -0.656, 30.111, 33.509)" fill="#fff">
          <path d="M 5.332319736480713 3.007597208023071 C 4.95566987991333 3.007597208023071 3.954039812088013 2.907707214355469 2.906469821929932 2.685647249221802 C 2.126843929290771 2.520379066467285 1.638354897499084 2.356209754943848 1.339395880699158 2.228443145751953 C 1.650181293487549 2.046966075897217 2.160327911376953 1.805981397628784 2.946929931640625 1.545217275619507 C 4.0688796043396 1.173277258872986 5.033589839935303 0.9999973177909851 5.332319736480713 0.9999973177909851 C 5.885819911956787 0.9999973177909851 6.336119651794434 1.450297236442566 6.336119651794434 2.003797292709351 C 6.336119651794434 2.557297229766846 5.885819911956787 3.007597208023071 5.332319736480713 3.007597208023071 Z" stroke="none"/>
          <path d="M 5.332319736480713 -2.86102294921875e-06 C 6.438989639282227 -2.86102294921875e-06 7.336119651794434 0.8971273899078369 7.336119651794434 2.003797292709351 C 7.336119651794434 3.110467433929443 6.438989639282227 4.00759744644165 5.332319736480713 4.00759744644165 C 4.225659847259521 4.00759744644165 0 3.392947196960449 0 2.286277294158936 C 0 1.179617404937744 4.225659847259521 -2.86102294921875e-06 5.332319736480713 -2.86102294921875e-06 Z" stroke="none" fill="#484848"/>
        </g>
        <g id="Ellipse_25-2" data-name="Ellipse 25" transform="translate(29.509 29.509)" fill="#fff" stroke="#484848" stroke-width="1">
          <circle cx="0.668" cy="0.668" r="0.668" stroke="none"/>
          <circle cx="0.668" cy="0.668" r="0.168" fill="none"/>
        </g>
      </g>
      <g id="Path_82" data-name="Path 82" transform="translate(761.726 1468.069)" fill="url(#linear-gradient)">
        <path d="M 199.0207061767578 35.38447189331055 L 81.16707611083984 35.38447189331055 C 81.16611480712891 35.19162368774414 81.14204406738281 34.89091491699219 81.08261871337891 34.41422271728516 C 81.00481414794922 33.79022216796875 80.84442901611328 32.76713943481445 80.52214813232422 31.43666648864746 C 79.95109558105469 29.07916641235352 79.08762359619141 26.68016624450684 78.02506256103516 24.49902725219727 C 76.596923828125 21.56741523742676 74.79137420654297 18.95352745056152 72.65859222412109 16.72997093200684 C 70.05014801025391 14.01052761077881 66.93853759765625 11.86649990081787 63.41020584106445 10.35738849639893 C 59.29439926147461 8.597026824951172 54.54576110839844 7.675138473510742 49.29620361328125 7.617304801940918 C 49.1251220703125 7.615443706512451 48.95067596435547 7.614471435546875 48.7813720703125 7.614471435546875 C 42.0812873840332 7.614471435546875 36.23254013061523 9.083915710449219 31.3975944519043 11.98199939727783 C 27.52706527709961 14.30197143554688 24.29620552062988 17.53610992431641 21.79470443725586 21.59452629089355 C 20.56756591796875 23.5854434967041 18.86339950561523 26.86697196960449 17.71362113952637 31.19405555725098 C 17.15227890014648 33.30656051635742 16.93915748596191 34.87027740478516 16.87880325317383 35.38447189331055 L -20.79998970031738 35.38447189331055 L -20.79998970031738 6.435360431671143 L 199.0207061767578 6.435360431671143 L 199.0207061767578 35.38447189331055 Z" stroke="none"/>
        <path d="M -20.60002136230469 6.635360717773438 L -20.60002136230469 35.18447113037109 L 16.70114135742188 35.18447113037109 C 16.78294372558594 34.54005813598633 17.0040283203125 33.08565139770508 17.52030944824219 31.14269256591797 C 18.67637634277344 26.79205513000488 20.39022827148438 23.491943359375 21.62442016601562 21.48958206176758 C 24.14292907714844 17.40361022949219 27.396484375 14.1470832824707 31.29475402832031 11.81044387817383 C 36.16123962402344 8.893501281738281 42.04457092285156 7.414470672607422 48.7813720703125 7.414470672607422 C 48.95143127441406 7.414470672607422 49.12661743164062 7.415416717529297 49.29843139648438 7.417331695556641 C 54.57456970214844 7.475444793701172 59.34903717041016 8.402805328369141 63.48923492431641 10.17366600036621 C 67.04251098632812 11.6934986114502 70.17623138427734 13.85294342041016 72.80339813232422 16.59202766418457 C 74.95059204101562 18.8306941986084 76.76803588867188 21.46177673339844 78.20526123046875 24.41222190856934 C 79.27395629882812 26.60610961914062 80.14240264892578 29.01911163330078 80.71670532226562 31.39036178588867 C 81.04112243652344 32.72975158691406 81.20267486572266 33.76069259643555 81.28109741210938 34.38972091674805 C 81.32304382324219 34.72621154785156 81.34907531738281 34.98437118530273 81.36029815673828 35.18447113037109 L 198.8206787109375 35.18447113037109 L 198.8206787109375 6.635360717773438 L -20.60002136230469 6.635360717773438 M -21.00001525878906 6.235359191894531 L 199.2206726074219 6.235359191894531 L 199.2206726074219 35.58447265625 C 199.2206726074219 35.58447265625 112.4951400756836 35.58447265625 80.94979858398438 35.58447265625 C 81.20570373535156 35.44918441772461 78.83943939208984 8.142662048339844 49.29400634765625 7.817306518554688 C 49.1236572265625 7.8154296875 48.949951171875 7.814472198486328 48.7813720703125 7.814472198486328 C 19.56843566894531 7.814472198486328 17.0582275390625 35.58447265625 17.0582275390625 35.58447265625 L -21.00001525878906 35.58447265625 L -21.00001525878906 6.235359191894531 Z M 80.94578552246094 35.58447265625 C 80.94771575927734 35.58447265625 80.9478759765625 35.58447265625 80.94979858398438 35.58447265625 C 80.94915771484375 35.58481216430664 80.94851684570312 35.58497619628906 80.94783782958984 35.58497619628906 C 80.94718170166016 35.58497619628906 80.94647979736328 35.58480453491211 80.94578552246094 35.58447265625 Z" stroke="none" fill="#212121"/>
      </g>
      <g id="Path_295" data-name="Path 295" transform="translate(740.726 1358.153)" fill="#7fddea">
        <path d="M 220.0207061767578 113.1556701660156 L 0.199990451335907 113.1556701660156 L 0.199990451335907 0.2000040411949158 L 220.0207061767578 0.2000040411949158 L 220.0207061767578 113.1556701660156 Z" stroke="none"/>
        <path d="M 0.399993896484375 0.4000015258789062 L 0.399993896484375 112.9556732177734 L 219.8207092285156 112.9556732177734 L 219.8207092285156 0.4000015258789062 L 0.399993896484375 0.4000015258789062 M -1.52587890625e-05 7.62939453125e-06 L 220.2207183837891 7.62939453125e-06 L 220.2207183837891 113.3556671142578 L -1.52587890625e-05 113.3556671142578 L -1.52587890625e-05 7.62939453125e-06 Z" stroke="none"/>
      </g>
      <g id="Rectangle_152" data-name="Rectangle 152" transform="translate(733 1490)" fill="#fff" stroke="#212121" stroke-width="0.4">
        <rect width="22" height="16" rx="2" stroke="none"/>
        <rect x="0.2" y="0.2" width="21.6" height="15.6" rx="1.8" fill="none"/>
      </g>
      <g id="Rectangle_153" data-name="Rectangle 153" transform="translate(738 1469)" fill="#fff" stroke="#212121" stroke-width="0.4">
        <rect width="6" height="13" rx="1" stroke="none"/>
        <rect x="0.2" y="0.2" width="5.6" height="12.6" rx="0.8" fill="none"/>
      </g>
      <line id="Line_29" data-name="Line 29" x2="113.297" transform="translate(846.982 1493.635)" fill="none" stroke="#049aaf" stroke-width="1"/>
      <g id="Path_83" data-name="Path 83" transform="translate(966.291 1399.456)" fill="#fff">
        <path d="M 81.48777008056641 103.9974594116211 L 72.07334136962891 103.9974594116211 C 72.01390838623047 103.4532775878906 71.79705047607422 101.7381591796875 71.21697235107422 99.41249847412109 C 70.56711578369141 96.80707550048828 69.31463623046875 92.87530517578125 67.03834533691406 88.94033813476562 C 64.47678375244141 84.51222229003906 61.16814422607422 80.9832763671875 57.20431518554688 78.45149993896484 C 52.25093078613281 75.28768920898438 46.25878524780273 73.68350219726562 39.39431762695312 73.68350219726562 C 30.58178329467773 73.68350219726562 23.56600952148438 76.30791473388672 18.5418758392334 81.48384857177734 C 16.53782272338867 83.54844665527344 14.85070323944092 86.02832794189453 13.52739715576172 88.85459136962891 C 12.47000980377197 91.1129150390625 11.64123630523682 93.59623718261719 11.06408977508545 96.235595703125 C 10.21840381622314 100.1030731201172 10.16698551177979 103.1908493041992 10.16971492767334 103.9974594116211 L 4.007596492767334 103.9974594116211 C 1.908076763153076 103.9974594116211 0.1999967098236084 102.2893829345703 0.1999967098236084 100.1898651123047 L 0.1999967098236084 4.007595062255859 C 0.1999967098236084 1.908088207244873 1.908076763153076 0.2000081837177277 4.007596492767334 0.2000081837177277 L 58.9548225402832 0.2000081837177277 C 60.74186325073242 0.2000081837177277 61.44900894165039 1.554981470108032 62.34429168701172 3.270434856414795 C 62.48607635498047 3.542101621627808 62.63267517089844 3.823008298873901 62.78715515136719 4.103954792022705 C 63.66333389282227 5.69747257232666 84.48025512695312 45.03205490112305 85.29547882080078 48.29423904418945 C 85.31172943115234 51.57814025878906 85.29551696777344 99.70286560058594 85.29535675048828 100.1897964477539 C 85.29535675048828 102.2893829345703 83.5872802734375 103.9974594116211 81.48777008056641 103.9974594116211 Z" stroke="none"/>
        <path d="M 4.007583618164062 0.399993896484375 C 2.018356323242188 0.399993896484375 0.399993896484375 2.018356323242188 0.399993896484375 4.007591247558594 L 0.399993896484375 100.1898651123047 C 0.399993896484375 102.179084777832 2.018356323242188 103.7974472045898 4.007583618164062 103.7974472045898 L 9.968788146972656 103.7974472045898 C 9.973579406738281 102.7555923461914 10.06790924072266 99.85501098632812 10.86870574951172 96.19287109375 C 11.44902038574219 93.53902435302734 12.28258514404297 91.04152679443359 13.34626007080078 88.76979064941406 C 14.67902374267578 85.92333984375 16.3787841796875 83.42512512207031 18.39835357666016 81.34455871582031 C 23.46158218383789 76.12834167480469 30.52565002441406 73.48350524902344 39.39431762695312 73.48350524902344 C 46.29754257202148 73.48350524902344 52.3259162902832 75.09827423095703 57.31196975708008 78.282958984375 C 61.30304718017578 80.83211517333984 64.63371276855469 84.38408660888672 67.21146392822266 88.84017944335938 C 69.49942016601562 92.79531860351562 70.75804901123047 96.74618530273438 71.41102600097656 99.36408996582031 C 71.94686126708984 101.5123748779297 72.17182922363281 103.1116485595703 72.25253295898438 103.7974472045898 L 81.48775482177734 103.7974472045898 C 83.47699737548828 103.7974472045898 85.09535980224609 102.179084777832 85.09535980224609 100.1897277832031 C 85.09551239013672 99.70396423339844 85.11165618896484 51.80828857421875 85.09559631347656 48.31983184814453 C 84.22795104980469 45.02954483032227 64.14444732666016 6.987571716308594 62.61190414428711 4.2003173828125 C 62.45638275146484 3.917472839355469 62.30926513671875 3.635581970214844 62.16699600219727 3.362968444824219 C 61.30303955078125 1.707557678222656 60.62063598632812 0.399993896484375 58.9548225402832 0.399993896484375 L 4.007583618164062 0.399993896484375 M 4.007583618164062 -7.62939453125e-06 L 58.9548225402832 -7.62939453125e-06 C 61.16815948486328 -7.62939453125e-06 61.84927749633789 1.983100891113281 62.96240997314453 4.007591247558594 C 64.07555389404297 6.032073974609375 84.76274108886719 45.14271545410156 85.49535369873047 48.26986312866211 C 85.51199340820312 51.37731552124023 85.49535369873047 100.1898651123047 85.49535369873047 100.1898651123047 C 85.49535369873047 102.4031982421875 83.70108795166016 104.1974487304688 81.48775482177734 104.1974487304688 L 71.89260864257812 104.1974487304688 C 71.89260864257812 104.1974487304688 69.31902313232422 73.88349914550781 39.39431762695312 73.88349914550781 C 9.469612121582031 73.88349914550781 10.37204742431641 104.1974487304688 10.37204742431641 104.1974487304688 L 4.007583618164062 104.1974487304688 C 1.79425048828125 104.1974487304688 0 102.4031982421875 0 100.1898651123047 L 0 4.007591247558594 C 0 1.794258117675781 1.79425048828125 -7.62939453125e-06 4.007583618164062 -7.62939453125e-06 Z" stroke="none" fill="#212121"/>
      </g>
      <g id="Path_84" data-name="Path 84" transform="translate(990.336 1406.135)" fill="rgba(1,187,214,0.08)">
        <path d="M 44.08354187011719 38.54008102416992 L 4.007593631744385 38.54008102416992 C 1.908083438873291 38.54008102416992 0.200003445148468 36.83200454711914 0.200003445148468 34.73248291015625 L 0.200003445148468 4.007592678070068 C 0.200003445148468 1.908082842826843 1.908083438873291 0.2000028043985367 4.007593631744385 0.2000028043985367 L 29.91150283813477 0.2000028043985367 C 32.01753234863281 0.2000028043985367 32.88831329345703 1.957882761955261 33.7332649230957 4.081532955169678 L 33.73524475097656 4.086503028869629 L 33.73748397827148 4.091362953186035 L 47.89892959594727 34.79328918457031 C 48.08702087402344 35.84626770019531 47.65900802612305 36.63150024414062 47.26493453979492 37.10602188110352 C 46.53035354614258 37.99058151245117 45.31131362915039 38.54008102416992 44.08354187011719 38.54008102416992 Z" stroke="none"/>
        <path d="M 4.007595062255859 0.4000015258789062 C 2.018363952636719 0.4000015258789062 0.4000053405761719 2.018363952636719 0.4000053405761719 4.007591247558594 L 0.4000053405761719 34.73248291015625 C 0.4000053405761719 36.72172164916992 2.018363952636719 38.34008407592773 4.007595062255859 38.34008407592773 L 44.08354187011719 38.34008407592773 C 45.25340270996094 38.34008407592773 46.41349411010742 37.81826400756836 47.1110725402832 36.97825241088867 C 47.47484970092773 36.54021072387695 47.86981201171875 35.81839752197266 47.70638656616211 34.85334777832031 L 33.55587387084961 4.175132751464844 L 33.55138397216797 4.165412902832031 L 33.54743194580078 4.155464172363281 C 33.08880233764648 3.002773284912109 32.66960144042969 2.100574493408203 32.11443328857422 1.444141387939453 C 31.5119743347168 0.731781005859375 30.81197357177734 0.4000015258789062 29.91150283813477 0.4000015258789062 L 4.007595062255859 0.4000015258789062 M 4.007595062255859 3.814697265625e-06 L 29.91150283813477 3.814697265625e-06 C 32.12483215332031 3.814697265625e-06 33.05124282836914 1.826374053955078 33.91909408569336 4.007591247558594 L 48.09113311767578 34.73248291015625 C 48.51772308349609 37.01546096801758 46.296875 38.74008178710938 44.08354187011719 38.74008178710938 L 4.007595062255859 38.74008178710938 C 1.794261932373047 38.74008178710938 3.814697265625e-06 36.94582366943359 3.814697265625e-06 34.73248291015625 L 3.814697265625e-06 4.007591247558594 C 3.814697265625e-06 1.794261932373047 1.794261932373047 3.814697265625e-06 4.007595062255859 3.814697265625e-06 Z" stroke="none" fill="#212121"/>
      </g>
      <path id="Path_549" data-name="Path 549" d="M0,0H18.7" transform="translate(991.004 1452.223)" fill="none" stroke="#959090" stroke-width="1"/>
      <g id="Rectangle_154" data-name="Rectangle 154" transform="translate(1042 1454)" fill="#fff" stroke="#212121" stroke-width="0.4">
        <rect width="13" height="20" rx="2" stroke="none"/>
        <rect x="0.2" y="0.2" width="12.6" height="19.6" rx="1.8" fill="none"/>
      </g>
      <g id="Rectangle_155" data-name="Rectangle 155" transform="translate(1047 1487)" fill="#fff" stroke="#212121" stroke-width="0.4">
        <rect width="8" height="19" rx="2" stroke="none"/>
        <rect x="0.2" y="0.2" width="7.6" height="18.6" rx="1.8" fill="none"/>
      </g>
      <g id="Layer_2" data-name="Layer 2" transform="translate(899.824 1373.375)">
        <path id="Path_89" data-name="Path 89" d="M23.148,248.795a2.813,2.813,0,0,1-2.822,2.906H18v-5.81h2.325A2.813,2.813,0,0,1,23.148,248.795Zm-1.278,0a1.488,1.488,0,0,0-1.544-1.623h-1v3.253h1A1.5,1.5,0,0,0,21.869,248.795Z" transform="translate(-18 -218.604)"/>
        <path id="Path_90" data-name="Path 90" d="M67.669,258.376v4.15H66.42v-.391a1.556,1.556,0,0,1-1.236.507,2.2,2.2,0,0,1,0-4.382,1.555,1.555,0,0,1,1.236.505v-.389Zm-1.248,2.075a.988.988,0,1,0-.987,1.012A.946.946,0,0,0,66.42,260.451Z" transform="translate(-57.558 -229.43)"/>
        <path id="Path_91" data-name="Path 91" d="M107.179,259.19l-1.535,4.15h-1.408l-1.535-4.15h1.373l.862,2.631.864-2.631Z" transform="translate(-92.128 -230.244)"/>
        <path id="Path_92" data-name="Path 92" d="M142.979,259.19l-1.419,4.026A2.2,2.2,0,0,1,139.194,265v-1.162a.924.924,0,0,0,1.037-.688l-1.651-3.959h1.373l.921,2.539.78-2.539Z" transform="translate(-123.529 -230.244)"/>
        <path id="Path_93" data-name="Path 93" d="M180.468,259.181l-1.328,4.15h-1.162l-.664-2.217-.664,2.217h-1.162l-1.328-4.15h1.328l.6,2.223.647-2.224h1.162l.648,2.224.6-2.224Z" transform="translate(-154.668 -230.235)"/>
        <path id="Path_94" data-name="Path 94" d="M230.139,258.376v4.15H228.89v-.391a1.557,1.557,0,0,1-1.237.507,2.2,2.2,0,0,1,0-4.382,1.556,1.556,0,0,1,1.237.505v-.389Zm-1.248,2.075a.988.988,0,1,0-.987,1.012.947.947,0,0,0,.987-1.012Z" transform="translate(-199.748 -229.43)"/>
        <path id="Path_95" data-name="Path 95" d="M269.486,259.19l-1.421,4.026A2.206,2.206,0,0,1,265.694,265v-1.162a.926.926,0,0,0,1.039-.688l-1.653-3.959h1.373l.922,2.539.78-2.539Z" transform="translate(-234.239 -230.244)"/>
        <path id="Path_96" data-name="Path 96" d="M56.6,27.29H42.7V28.8l4.394.406c.084,3.253.084,6.524.084,9.769V40.4c0,3.675,0,7.009-.084,10.219l-4.394.407v1.507H54.15a23.317,23.317,0,0,0,2.5-1.685,36.12,36.12,0,0,0,2.746-2.571c2.188-2.164.589-3.282-.271-3.908s-4.152-2.02-5.407-3.28c-3.489-3.509,3.745-4.7,4.354-4.793-.5.051-5.475.6-6.642,2.505v-.015c0-3.3,0-6.567.089-9.764h4.294c6.976,0,11.03,3.806,11.03,10.926a13.111,13.111,0,0,1-.781,4.672,10.808,10.808,0,0,0-.836-.735c-.648-.519-5.424-2.965-7.317-3.926s-1.86-1.3-1.809-1.9,2-1.769,2-1.769A15.589,15.589,0,0,0,55,37.46c-1.339.728-1.459,1.589-.828,2.525s4.244,2.784,4.244,2.784,4.726,1.846,4.179,4.244a7.112,7.112,0,0,1-1.842,2.89,23.19,23.19,0,0,1-2.871,2.538h.08a18.2,18.2,0,0,0,8.987-3,11.17,11.17,0,0,0,4.819-9.486C71.781,31.735,65.559,27.29,56.6,27.29ZM52.258,41.682c.922.941,1.248,1.256,3.612,3.384,1.5,1.349-1.71,3.982-4.264,5.742h-.1a.067.067,0,0,1,0-.022c-.087-3.263-.089-6.592-.089-10.21A4.632,4.632,0,0,0,52.258,41.682Z" transform="translate(-39.617 -27.29)"/>
      </g>
      <path id="Path_97" data-name="Path 97" d="M.042,10.35,35.964-.054l3.421,7.487L.042,18.365Z" transform="translate(991.686 1420.812)" fill="#fff"/>
      <path id="Path_98" data-name="Path 98" d="M.042,15.334,34.566,4.759l.746,1.562L.042,16.749Z" transform="translate(991.686 1413.077)" fill="#fff"/>
      <line id="Line_128" data-name="Line 128" x2="37.783" y2="0.205" transform="translate(666.615 1481.684)" fill="none" stroke="#e1e1e1" stroke-width="1"/>
      <path id="Path_296" data-name="Path 296" d="M-21.905,0h53.32" transform="translate(672.805 1493.857)" fill="none" stroke="#e1e1e1" stroke-width="1"/>
    </g>
    <g id="Character_3" data-name="Character 3" transform="translate(1124.92 1053.834)">
      <g id="Group_184" data-name="Group 184" transform="translate(0)">
        <g id="Group_176" data-name="Group 176" transform="translate(0 41.056)">
          <path id="Path_401" data-name="Path 401" d="M370.934,241.017c5.312-17.242,10.482-28.6,5.216-32.112h0c-4.906.908-7.1,3.335-8.146,9.8-1.094,6.784-3.367,16.232-4.694,21.688a64.358,64.358,0,0,1-4.9,13.167,2.787,2.787,0,0,1-1.448,1.275,15.714,15.714,0,0,0-3.759,2.431c-1.045.747-1.816.83-1.768,1.144a1.38,1.38,0,0,0,1.641,1.011,10.041,10.041,0,0,0,2.285-.734,11.374,11.374,0,0,1-2.862,4.179c-2.568,2.147-2.184,4.3,1.951,4.546,1.48.09,4.911-1.26,8.09-6.676a53.413,53.413,0,0,0,2.833-6.244C367.6,248.949,369.871,244.467,370.934,241.017Z" transform="translate(-350.888 -208.697)" fill="#ffbea7"/>
          <path id="Path_402" data-name="Path 402" d="M382.5,208.622s-4.089-.213-6.564,2.518-5.37,19.06-5.37,19.06,2.713,3.728,9.865,2.2Z" transform="translate(-356.3 -208.618)" fill="#7fddea"/>
          <path id="Path_403" data-name="Path 403" d="M382.5,208.622s-4.089-.213-6.564,2.518-5.37,19.06-5.37,19.06,2.713,3.728,9.865,2.2Z" transform="translate(-356.3 -208.618)" opacity="0.3"/>
        </g>
        <g id="Group_177" data-name="Group 177" transform="translate(7.698 72.084)">
          <rect id="Rectangle_356" data-name="Rectangle 356" width="5.489" height="9.787" transform="translate(32.138 84.794)" fill="#ffbea7"/>
          <path id="Path_404" data-name="Path 404" d="M384.973,363.734l-5.486.2-.275-10.357,5.761-.2Z" transform="translate(-366.377 -279.462)" fill="#ffbea7"/>
          <path id="Path_405" data-name="Path 405" d="M403.481,251.477c0,5.46-.8,49.394-.8,49.394.128,1.571,1.542,4.467,1.236,10.5-.416,8.2-.971,29.734-.971,29.734a6.967,6.967,0,0,1-6.111.126s-5.192-29.832-6.176-37.954c-.858-7.089-2.314-30.955-2.314-30.955l-2.976,27.75a33.791,33.791,0,0,1,.68,9.086c-.256,3.757-2.021,23.322-2.021,23.322a7.239,7.239,0,0,1-6.338.505s-3.123-29.467-3.186-32.913c-.073-3.93,1.825-48.656,1.825-48.656Z" transform="translate(-365.081 -251.418)" fill="#2b454e"/>
          <path id="Path_406" data-name="Path 406" d="M402.544,377.68v-.818c-.526.238-1.746,5.087-3.923,7.156-1.731,1.645-4.093,3.545-4.694,5.378-.625,1.907,3.289,2.96,4.906,2.662,1.88-.347,5.138-1.725,5.955-3s1.2-3.163,1.865-4.1,2.2-1.982,2.556-3.066a7.182,7.182,0,0,0-.315-3c-.254-1.011-.53-2.122-.861-2.027,0,.123,0,.623,0,.623a4.234,4.234,0,0,1-2.745.966C404.485,378.484,402.538,378.318,402.544,377.68Z" transform="translate(-370.406 -285.92)" fill="#1a2e35"/>
          <path id="Path_407" data-name="Path 407" d="M374.559,365.361c-.285.01-.517.429-1.145,1.137a12.038,12.038,0,0,1-3.229,2.42c-2.056,1.071-6.052,2.721-7.86,3.569-1.13.53-1.077,1.952.091,2.761s3.987,1.391,7.373.6c1.844-.429,4.245-2.2,5.765-2.107s4.363.073,5.485-.733.673-2.525.356-4c-.346-1.614-.779-4.129-1.291-4.018v.556c-.66,1.041-4.065,1.464-5.515.7Z" transform="translate(-361.508 -282.655)" fill="#1a2e35"/>
          <path id="Path_408" data-name="Path 408" d="M390.693,278.523a20.1,20.1,0,0,1-7.644-4.565s1.475,2.877,5.86,5.553l-.938,24.782Z" transform="translate(-367.433 -257.618)" fill="#1a2e35"/>
        </g>
        <g id="Group_178" data-name="Group 178" transform="translate(18.253 40.896)">
          <path id="Path_409" data-name="Path 409" d="M401.056,209.865s4.3.393,3.991,8.576l-.95,13.035.027,19.561c-4.036,4.574-21.931,4.239-28.057-.366,0,0,.694-23.15,1.108-32.057.294-6.333,1.751-9.521,7.975-10.219l7.654.336Z" transform="translate(-376.067 -208.396)" fill="#7fddea"/>
          <path id="Path_410" data-name="Path 410" d="M392.467,216.344l-.985,6.872-2.3-.043,2.59.409Z" transform="translate(-379.675 -210.582)" opacity="0.3"/>
          <path id="Path_501" data-name="Path 501" d="M43.746,27.29H42.7V27.4l.331.031c.006.245.006.491.006.735v.108c0,.276,0,.527-.006.769l-.331.031v.113h.862a1.754,1.754,0,0,0,.188-.127,2.718,2.718,0,0,0,.207-.193c.165-.163.044-.247-.02-.294a2.963,2.963,0,0,1-.407-.247c-.263-.264.282-.354.328-.361-.038,0-.412.045-.5.188h0c0-.248,0-.494.007-.735h.323a.747.747,0,0,1,.83.822.986.986,0,0,1-.059.352.813.813,0,0,0-.063-.055c-.049-.039-.408-.223-.551-.3s-.14-.1-.136-.143.151-.133.151-.133a1.173,1.173,0,0,0-.233.088c-.1.055-.11.12-.062.19a1.452,1.452,0,0,0,.319.209s.356.139.314.319a.535.535,0,0,1-.139.217,1.745,1.745,0,0,1-.216.191h.006a1.37,1.37,0,0,0,.676-.226.84.84,0,0,0,.363-.714C44.888,27.624,44.42,27.29,43.746,27.29Zm-.327,1.083c.069.071.094.094.272.255.113.1-.129.3-.321.432h-.007a.005.005,0,0,1,0,0c-.007-.245-.007-.5-.007-.768A.348.348,0,0,0,43.419,28.373Z" transform="translate(-22.451 -17.862) rotate(3)"/>
        </g>
        <g id="Group_181" data-name="Group 181" transform="translate(19.165 12.643)">
          <path id="Path_411" data-name="Path 411" d="M395.4,181.756a8.347,8.347,0,0,1-8.172,8.512c-4.513,0-7.969-3.815-8.172-8.512-.36-8.312,3.659-8.511,8.172-8.511A8.347,8.347,0,0,1,395.4,181.756Z" transform="translate(-377.795 -170.475)" fill="#1a2e35"/>
          <g id="Group_179" data-name="Group 179">
            <path id="Path_412" data-name="Path 412" d="M406.782,190.808a71.829,71.829,0,0,1-1.756,7.141,2.675,2.675,0,0,1-1.541,1.294l.088-4.314Z" transform="translate(-384.52 -175.306)" fill="#1a2e35"/>
            <path id="Path_413" data-name="Path 413" d="M405.565,178.683s.9-.225,1.853,1.266c.818,1.279,1,4.152-.281,7.52l-2.36.282Z" transform="translate(-384.876 -171.967)" fill="#1a2e35"/>
            <path id="Path_414" data-name="Path 414" d="M397.414,186.323c.473.294,1.149-.652,1.733-1.289a2.015,2.015,0,0,1,3.441.581c.969,2.126-.839,4.935-2.34,5.426-2.586.845-2.974-.882-2.974-.882l-.2,9.715c-3.433,5.31-11.209,5.118-8.413-.257l.007-2.956a15.66,15.66,0,0,1-3.486.186c-1.9-.306-3.1-1.869-3.675-4.013-.926-3.444-1.278-6.224-.492-13,.862-7.423,9.151-7.5,13.628-4.566S397.414,186.323,397.414,186.323Z" transform="translate(-378.221 -170.536)" fill="#ffbea7"/>
            <path id="Path_415" data-name="Path 415" d="M400.576,206.214a12.454,12.454,0,0,1-3.362,4.212,9.514,9.514,0,0,1-4.068,1.729,9.019,9.019,0,0,1,2.87,3.222c.856,1.889,6.9-3.31,6.842-7,0,0-.948-3.705-2.246-3.943Z" transform="translate(-381.676 -179.054)" fill="#1a2e35"/>
            <path id="Path_416" data-name="Path 416" d="M391.592,212.437s-1.862-.926-1.027-4.021l.007-2.956-.816.109a7.16,7.16,0,0,0-1.962,3.4c-.187.847-.646,5.136.173,5.989C388.71,215.733,389.923,212.667,391.592,212.437Z" transform="translate(-380.122 -179.336)" fill="#1a2e35"/>
            <path id="Path_417" data-name="Path 417" d="M393.34,177.117a1.21,1.21,0,0,1,.64.042c.7.319.853,2.5.977,3.135.415,2.126.76,5.731,1.561,5.747.239,0,1.143-1.56,1.733-2.119.816-.774-.236-7.782-.236-7.782a3.425,3.425,0,0,0-.788-3.544c-1.469-1.685-3.78-2.057-5.89-2.173-2.487-.137-5.012.051-7.462-.492a20.641,20.641,0,0,0-2.337-.5.286.286,0,0,0-.213.036c-.08.065-.069.188-.048.29a7.56,7.56,0,0,0,.776,2.1,19.153,19.153,0,0,1-4.3-.845.416.416,0,0,0-.245-.027c-.165.052-.193.27-.183.441.1,1.76.933,4.408,2.361,5.443a8.235,8.235,0,0,0,4.242,1.338C387.774,178.305,390.16,177.494,393.34,177.117Z" transform="translate(-377.325 -169.424)" fill="#1a2e35"/>
            <path id="Path_418" data-name="Path 418" d="M405.789,178.234l2.863-1.6a1.549,1.549,0,0,0-2.167-.747A1.816,1.816,0,0,0,405.789,178.234Z" transform="translate(-385.105 -171.148)" fill="#1a2e35"/>
            <path id="Path_419" data-name="Path 419" d="M391.739,204.008a31.572,31.572,0,0,0,5.729-1.712,5,5,0,0,0,2.052-2.114,7.1,7.1,0,0,1-1.165,2.493c-1.085,1.446-6.615,2.51-6.615,2.51Z" transform="translate(-381.289 -177.884)" fill="#ff9875"/>
          </g>
          <g id="Group_180" data-name="Group 180" transform="translate(3.464 10.011)">
            <path id="Path_420" data-name="Path 420" d="M393.146,189.325a.853.853,0,1,0,.85-.923A.885.885,0,0,0,393.146,189.325Z" transform="translate(-385.141 -184.655)" fill="#1a2e35"/>
            <path id="Path_421" data-name="Path 421" d="M395.031,184.39l1.82,1.047a1.162,1.162,0,0,0-.424-1.509A1,1,0,0,0,395.031,184.39Z" transform="translate(-385.659 -183.388)" fill="#1a2e35"/>
            <path id="Path_422" data-name="Path 422" d="M391.532,198.118l-1.942.759a1.01,1.01,0,0,0,1.319.671A1.146,1.146,0,0,0,391.532,198.118Z" transform="translate(-384.163 -187.327)" fill="#ff9875"/>
            <path id="Path_423" data-name="Path 423" d="M382.305,185.015l1.659-1.331a.98.98,0,0,0-1.443-.231A1.178,1.178,0,0,0,382.305,185.015Z" transform="translate(-382.103 -183.233)" fill="#1a2e35"/>
            <path id="Path_424" data-name="Path 424" d="M383.387,188.978a.853.853,0,1,0,.85-.924A.884.884,0,0,0,383.387,188.978Z" transform="translate(-382.456 -184.559)" fill="#1a2e35"/>
            <path id="Path_425" data-name="Path 425" d="M388.472,188.346l-.1,5.373-3.049-.7Z" transform="translate(-382.989 -184.64)" fill="#ff9875"/>
          </g>
        </g>
        <g id="Group_183" data-name="Group 183" transform="translate(41.669)">
          <path id="Path_426" data-name="Path 426" d="M421.816,195.643c1.224-1.625,3.7,1.982,4.851,4.468s1.163,3.894.225,4.88-2.717.388-4.5-1.967S421.117,196.843,421.816,195.643Z" transform="translate(-411.891 -163.881)" fill="#00dfbf"/>
          <path id="Path_427" data-name="Path 427" d="M421.816,195.643c1.224-1.625,3.7,1.982,4.851,4.468s1.163,3.894.225,4.88-2.717.388-4.5-1.967S421.117,196.843,421.816,195.643Z" transform="translate(-411.891 -163.881)" opacity="0.5"/>
          <g id="Group_182" data-name="Group 182" transform="translate(0.687)">
            <path id="Path_428" data-name="Path 428" d="M427.177,184.23c-4.324,10.177-10.4,15.868-13.122,22.4-3.565-.243-6.34-8.841-3.686-12.519,0,0,10.428-11.287,11.372-15.723.837-3.938,1.964-10.433,1.865-13.758a2.282,2.282,0,0,0-.641-1.475c-1.094-1.178-1.1-2.123-1.8-3.423-.548-1.014-1.148-1.393-.977-1.621a1.31,1.31,0,0,1,1.775-.131,6.668,6.668,0,0,1,1.346,1.291,7.472,7.472,0,0,0-.615-3.814c-1.214-2.737-.918-4.134,2.777-3.159,2.315.611,3.769,2.54,4.116,8.106a55.018,55.018,0,0,1,.04,6.951c-.4,4.284-.659,8.748-1.185,12.3A18.752,18.752,0,0,1,427.177,184.23Z" transform="translate(-409.315 -151.984)" fill="#ffbea7"/>
          </g>
          <path id="Path_429" data-name="Path 429" d="M409.054,206.268l9.2-10.51s-1.092,2.563,1.3,6.291,3.815,3.085,3.815,3.085-5.428,7.924-6.884,10.577-2.965,4.888-2.965,4.888a1.738,1.738,0,0,1-1.716.937C410.453,221.536,406.877,215.549,409.054,206.268Z" transform="translate(-408.367 -164.024)" fill="#7fddea"/>
          <path id="Path_430" data-name="Path 430" d="M409.054,206.268l9.2-10.51s-1.092,2.563,1.3,6.291,3.815,3.085,3.815,3.085-5.428,7.924-6.884,10.577-2.965,4.888-2.965,4.888a1.738,1.738,0,0,1-1.716.937C410.453,221.536,406.877,215.549,409.054,206.268Z" transform="translate(-408.367 -164.024)" opacity="0.3"/>
        </g>
      </g>
    </g>
    <g id="Character_2" data-name="Character 2" transform="translate(967.525 1110.463)">
      <g id="Group_205" data-name="Group 205">
        <g id="Group_187" data-name="Group 187" transform="translate(33.985 28.135)">
          <g id="Group_185" data-name="Group 185" transform="translate(7.854 13.106)">
            <path id="Path_431" data-name="Path 431" d="M304.019,242.846l4.331,5.766-4.651,5.331-5.994-7.01Z" transform="translate(-297.704 -242.846)" fill="#ff9090"/>
          </g>
          <g id="Group_186" data-name="Group 186">
            <path id="Path_432" data-name="Path 432" d="M286.871,224.767c3.777.177,5.577.761,7.554,3.09,1.931,2.273,11.867,16.631,11.867,16.631s-1.748,4.9-5.573,4.483l-6.955-7.17Z" transform="translate(-286.871 -224.767)" fill="#375a64"/>
          </g>
        </g>
        <g id="Group_190" data-name="Group 190" transform="translate(13.796 61.998)">
          <g id="Group_188" data-name="Group 188" transform="translate(0.401 63.973)">
            <path id="Path_433" data-name="Path 433" d="M260.9,389.893a27.866,27.866,0,0,0-.434,4.548c-.052,2.761-.56,3.74-.626,6.005a6.676,6.676,0,0,0,1.421,5.012c1.05,1.455,3.807,2.776,4.972.316,1.18-2.489,1.016-4.071.643-6.61-.385-2.625-.434-4.075-.658-6.077-.2-1.765-.432-3.106-.432-3.106Z" transform="translate(-259.647 -368.021)" fill="#1a2e35"/>
            <path id="Path_434" data-name="Path 434" d="M268.668,359.888l-9.093-.165c.135,6.071,1.1,16.176,1.257,21.872.03,1.072-.027,8.331.377,10.536.608,3.314,4.542,2.867,4.751.884s-.253-10.458-.241-11.332c-.035-3.653,1.678-13.186,2.575-19.743C268.338,361.618,268.627,360.2,268.668,359.888Z" transform="translate(-259.575 -359.723)" fill="#ffbea7"/>
          </g>
          <g id="Group_189" data-name="Group 189" transform="translate(21.054 63.973)">
            <path id="Path_435" data-name="Path 435" d="M290.091,383.377s-.47.027-.544.41c-.088.456-.108,1.176-.3,1.924a10.9,10.9,0,0,0-.325,3.6c.158.847,2.093,2.11,3.416,2.332a10.28,10.28,0,0,1,4.228,2.505,10.146,10.146,0,0,0,5.879,2.312c2.21-.016,3.749-.736,4.477-1.918.76-1.235-.663-1.327-3.188-2.964-.573-.372-1.226-.793-1.96-1.272-4-2.613-5.464-4.013-6.6-6.626Z" transform="translate(-288.286 -366.229)" fill="#1a2e35"/>
            <path id="Path_436" data-name="Path 436" d="M294.991,375.449c-.067-1.879.9-15.726.9-15.726l-7.823.881c1.849,11.038,2,14.8,1.788,16.4h0a1.605,1.605,0,0,0-.049.463c.008,2.144,2.428,3.3,4.316,4.73a17.4,17.4,0,0,0,4.909,3.07c1.453.494,4.139.682,4.485-.2a60.379,60.379,0,0,1-7.251-6.05A4.627,4.627,0,0,1,294.991,375.449Z" transform="translate(-288.064 -359.723)" fill="#ffbea7"/>
          </g>
          <path id="Path_437" data-name="Path 437" d="M261.532,272.842c-4.267,9.32.154,42.151.154,42.151-.128,1.512-1.857,4.488-2.5,11.145-.761,7.865,1.406,28.92,1.406,28.92a5.033,5.033,0,0,0,5.091.109s5.506-30.937,6.492-38.757c.861-6.825,2.513-21.831,2.513-21.831l4.7,21.794a40.568,40.568,0,0,0-1.488,6.736c-.446,4.6,4.034,27.685,4.034,27.685a6.328,6.328,0,0,0,5.073-.1s1.985-29.824,2.4-35.366c.7-9.305-1.773-38.342-3.48-43.85Z" transform="translate(-259.021 -271.478)" fill="#7fddea"/>
          <path id="Path_438" data-name="Path 438" d="M261.532,272.842c-4.267,9.32.154,42.151.154,42.151-.128,1.512-1.857,4.488-2.5,11.145-.761,7.865,1.406,28.92,1.406,28.92a5.033,5.033,0,0,0,5.091.109s5.506-30.937,6.492-38.757c.861-6.825,2.513-21.831,2.513-21.831l4.7,21.794a40.568,40.568,0,0,0-1.488,6.736c-.446,4.6,4.034,27.685,4.034,27.685a6.328,6.328,0,0,0,5.073-.1s1.985-29.824,2.4-35.366c.7-9.305-1.773-38.342-3.48-43.85Z" transform="translate(-259.021 -271.478)" opacity="0.5"/>
          <path id="Path_439" data-name="Path 439" d="M280.629,298.649l1.385-8.656s5.861-1.214,8.519-3.713a15.16,15.16,0,0,1-6.93,4.6l-1.556,6.665,2.72,20.18Z" transform="translate(-264.965 -275.549)" opacity="0.2"/>
        </g>
        <g id="Group_195" data-name="Group 195" transform="translate(14.958)">
          <g id="Group_194" data-name="Group 194">
            <path id="Path_440" data-name="Path 440" d="M265.5,229.267l5.806,1.512v-12.27h0c-3.206-.835-5.806,1.014-5.806,4.131Z" transform="translate(-261.967 -194.856)" fill="#7fddea"/>
            <path id="Path_441" data-name="Path 441" d="M265.5,229.267l5.806,1.512v-12.27h0c-3.206-.835-5.806,1.014-5.806,4.131Z" transform="translate(-261.967 -194.856)" opacity="0.6"/>
            <path id="Path_442" data-name="Path 442" d="M276.286,211.355l-2.083-.048a11.768,11.768,0,0,1-11.241-12.235h0a12.829,12.829,0,0,1,12.5-13.114h0a12.788,12.788,0,0,1,12.592,12.979l-.017.744A11.715,11.715,0,0,1,276.286,211.355Z" transform="translate(-261.267 -185.958)" fill="#7fddea"/>
            <path id="Path_443" data-name="Path 443" d="M276.286,211.355l-2.083-.048a11.768,11.768,0,0,1-11.241-12.235h0a12.829,12.829,0,0,1,12.5-13.114h0a12.788,12.788,0,0,1,12.592,12.979l-.017.744A11.715,11.715,0,0,1,276.286,211.355Z" transform="translate(-261.267 -185.958)" opacity="0.6"/>
            <path id="Path_444" data-name="Path 444" d="M266.4,189.664a1.569,1.569,0,0,0-2.009-1.129l.556,2.143a1.618,1.618,0,0,0-.418-.365,1.548,1.548,0,0,0-2.182.7l2.827,1.666a1.844,1.844,0,0,0,.188-.927A1.788,1.788,0,0,0,266.4,189.664Z" transform="translate(-261.098 -186.645)" fill="#00dfbf"/>
            <path id="Path_445" data-name="Path 445" d="M266.4,189.664a1.569,1.569,0,0,0-2.009-1.129l.556,2.143a1.618,1.618,0,0,0-.418-.365,1.548,1.548,0,0,0-2.182.7l2.827,1.666a1.844,1.844,0,0,0,.188-.927A1.788,1.788,0,0,0,266.4,189.664Z" transform="translate(-261.098 -186.645)" opacity="0.6"/>
            <g id="Group_191" data-name="Group 191" transform="translate(0 27.904)">
              <path id="Path_446" data-name="Path 446" d="M269.352,225.18a53.43,53.43,0,0,0-5.805,1.116c2.247,5.512-1.279,14.026-1.279,14.026l3.326,10.241c-2.294,4.706-4.192,7.041-4.969,10.866,2.115,4.133,17.057,8.079,26.783.544,0,0-.315-10.463-1.554-16.559,3.186-6.215,2.666-8.037,2.016-10.2-1.513-5.04-4.572-6.978-8.219-10.53l-2.2-.231Z" transform="translate(-260.625 -224.449)" fill="#2b454e"/>
            </g>
            <path id="Path_447" data-name="Path 447" d="M265.979,256.7c1.8-1.852,5.63-2.379,5.63-2.379l-3.511-2-3.937-9.495a21.728,21.728,0,0,0,2.366-10.449l-2.258-.542c.273,5.022-2,10.523-2,10.523l3.326,10.241c-2.294,4.706-4.192,7.041-4.969,10.866,1.447,2.829,8.906,5.568,16.588,4.6C266.92,267.371,264.242,258.483,265.979,256.7Z" transform="translate(-260.625 -198.575)" fill="#1a2e35"/>
            <g id="Group_192" data-name="Group 192" transform="translate(15.752 69.529)">
              <path id="Path_448" data-name="Path 448" d="M282.353,281.913c.14-.013.28-.03.42-.046A2.8,2.8,0,0,0,282.353,281.913Z" transform="translate(-282.353 -281.867)" fill="#e7e7e7"/>
            </g>
            <g id="Group_193" data-name="Group 193" transform="translate(4.969 6.434)">
              <path id="Path_449" data-name="Path 449" d="M284.623,194.833c1.248,1.145,2.808,3.633,2.682,10.9-.106,6.159-2.015,7.691-2.974,8.135s-2.818.188-4.624-.116l-.022,2.551s2.381,2.64,2.233,4.337-3.388,2.4-5.73.756a22.042,22.042,0,0,1-4.335-4.386l-.025-7.749s-1.057,1.08-2.866-.55c-1.493-1.346-2.005-3.625-.853-4.856a2.538,2.538,0,0,1,4.125.833,23.491,23.491,0,0,0,7.916-2.331A7.851,7.851,0,0,0,284.623,194.833Z" transform="translate(-267.479 -194.833)" fill="#ffbea7"/>
              <path id="Path_450" data-name="Path 450" d="M283.78,207.633a.746.746,0,1,1-.785-.763A.777.777,0,0,1,283.78,207.633Z" transform="translate(-271.554 -198.144)" fill="#1a2e35"/>
              <path id="Path_451" data-name="Path 451" d="M284.711,215.042l1.935.631a.992.992,0,0,1-1.253.729A1.115,1.115,0,0,1,284.711,215.042Z" transform="translate(-272.207 -200.392)" fill="#ff9875"/>
              <path id="Path_452" data-name="Path 452" d="M293.29,203.607l-1.756-.6a.859.859,0,0,1,1.117-.621A1.029,1.029,0,0,1,293.29,203.607Z" transform="translate(-274.095 -196.898)" fill="#1a2e35"/>
              <path id="Path_453" data-name="Path 453" d="M274.044,207.416l-.02,2.605a1.223,1.223,0,0,0,1.27-1.243A1.345,1.345,0,0,0,274.044,207.416Z" transform="translate(-269.279 -198.294)" fill="#00dfbf"/>
              <path id="Path_454" data-name="Path 454" d="M274.044,207.416l-.02,2.605a1.223,1.223,0,0,0,1.27-1.243A1.345,1.345,0,0,0,274.044,207.416Z" transform="translate(-269.279 -198.294)" opacity="0.6"/>
              <path id="Path_455" data-name="Path 455" d="M292.554,207.281a.746.746,0,1,1-.785-.763A.777.777,0,0,1,292.554,207.281Z" transform="translate(-273.967 -198.047)" fill="#1a2e35"/>
              <path id="Path_456" data-name="Path 456" d="M287.415,206.115l-.019,5.047,2.352-.773Z" transform="translate(-272.957 -197.936)" fill="#ff9875"/>
              <path id="Path_457" data-name="Path 457" d="M281.9,219.789c-1.9-.249-5.821-1.4-6.438-3.006a4.192,4.192,0,0,0,1.382,2.048c1.174,1.037,5.046,2.2,5.046,2.2Z" transform="translate(-269.676 -200.87)" fill="#ff9875"/>
            </g>
          </g>
        </g>
        <g id="Group_196" data-name="Group 196" transform="translate(0 29.514)">
          <path id="Path_458" data-name="Path 458" d="M249.751,261.029s4.652,6.609,5.452,7.473,1.345.576,2.209.192a25.324,25.324,0,0,1,3.234-1.056c1.422-.352,1.728.961.32,1.9-1.019.677-2.184.973-1.7,1.529a10.866,10.866,0,0,0,3.393,2.081c3.433,1.353,3.168,2.033,2.536,3.146-.55.969-2.155,3.057-8.3.591a26.6,26.6,0,0,1-7.785-5.774c-2.429-2.691-6.216-7.512-6.216-7.512Z" transform="translate(-240.792 -236.12)" fill="#ffbea7"/>
          <path id="Path_459" data-name="Path 459" d="M258.766,226.669c-1.685.112-4.85.518-8.823,7.115-3.485,5.785-8.884,13.636-9.888,16.443-.405,1.132,1.178,3.492,3.211,5.9a10.047,10.047,0,0,0,6.623-3.579,13.137,13.137,0,0,0-1.282-2.329l8.151-9.295a13.276,13.276,0,0,0,3.744-6.547C261.2,230.406,260.979,227.257,258.766,226.669Z" transform="translate(-239.991 -226.669)" fill="#375a64"/>
        </g>
        <g id="Group_204" data-name="Group 204" transform="translate(38.775 41.723)">
          <g id="Group_197" data-name="Group 197" transform="translate(0 0.302)">
            <path id="Path_460" data-name="Path 460" d="M319.1,243.928l-20.091,5.292-5.53,22.732,19.1-5.548Z" transform="translate(-293.478 -243.928)" fill="#7fddea"/>
            <path id="Path_461" data-name="Path 461" d="M319.1,243.928l-20.091,5.292-5.53,22.732,19.1-5.548Z" transform="translate(-293.478 -243.928)" opacity="0.25"/>
          </g>
          <g id="Group_198" data-name="Group 198" transform="translate(16.543 16.399)" opacity="0.1">
            <path id="Path_462" data-name="Path 462" d="M316.3,266.133a3.982,3.982,0,0,0,3.757,2.245l.146-.5Z" transform="translate(-316.297 -266.133)"/>
          </g>
          <g id="Group_199" data-name="Group 199" transform="translate(11.011 2.816)" opacity="0.1">
            <path id="Path_463" data-name="Path 463" d="M317.224,248.492s.075-.343.166-.766-1.087-.441-2.634-.04l-2.96.767c-1.546.4-2.873,1.069-2.965,1.493l-.165.766Z" transform="translate(-308.666 -247.397)"/>
          </g>
          <g id="Group_200" data-name="Group 200" transform="translate(10.652)">
            <path id="Path_464" data-name="Path 464" d="M318.632,244.543c.058-.265-.42-.333-1.067-.155l-1.172.324s.349-1.657-2.252-1.078a4.075,4.075,0,0,0-3.169,2.461l-1.251.355c-.691.2-1.318.569-1.4.832l-.149.477,10.349-2.725S318.574,244.808,318.632,244.543Z" transform="translate(-308.172 -243.512)" fill="#2b454e"/>
          </g>
          <g id="Group_201" data-name="Group 201" transform="translate(12.811 1.532)">
            <path id="Path_465" data-name="Path 465" d="M318.025,245.943c-.948.228-1.343.354-1.484,1.007-.162.745-.228,1.292-.228,1.292l-4.58,1.211s.221-.944.292-1.311-.086-.589-.814-.4l-.062-.291,7.177-1.828Z" transform="translate(-311.149 -245.625)" fill="#2b454e"/>
          </g>
          <g id="Group_202" data-name="Group 202" transform="translate(11.286 2.889)">
            <path id="Path_466" data-name="Path 466" d="M317.6,248.592l.166-.766c.091-.423-1.087-.441-2.634-.041l-2.96.768c-1.546.4-2.874,1.069-2.965,1.492l-.165.767Z" transform="translate(-309.046 -247.496)" fill="#2b454e"/>
          </g>
          <g id="Group_203" data-name="Group 203" transform="translate(16.12 7.151)">
            <path id="Path_467" data-name="Path 467" d="M323.1,253.824s-.751,2.571-.923,3.183-2.423,1.713-3.9,2.119-3.093.887-2.394,2.952c.645,1.9,3.075,2.338,4.312,2.284a4.573,4.573,0,0,0,3.6-3.143c.851-2.431.392-5.028.731-6.448S323.838,252.977,323.1,253.824Z" transform="translate(-315.713 -253.376)" fill="#ffbea7"/>
          </g>
        </g>
      </g>
    </g>
    <g id="Character_1" data-name="Character 1" transform="translate(883.958 1134.963)">
      <g id="Group_216" data-name="Group 216">
        <g id="Group_206" data-name="Group 206" transform="translate(29.895 23.827)">
          <path id="Path_468" data-name="Path 468" d="M205.81,254.22c-2.756-2.777-3.74-1.7-4.089,1.348a13.722,13.722,0,0,1-.919,3.72,6.849,6.849,0,0,0-.518-1.836,1.341,1.341,0,0,0-1.635-.805c-.27.113.063.758.021,1.936-.054,1.511-.542,2.346-.189,3.95a2.565,2.565,0,0,1-.27,1.769c-1.486,2.75-6.23,7.844-9.572,11.508-2.955-2.67-9.565-8.641-12.729-11.493-4.341-3.911-5.757-5.675-9.955-5.387a11.276,11.276,0,0,1,3.572,2.14c1.945,1.646,1.483,11.064,1.483,11.064s14.442,10.357,15.927,11.342c.218.145.441.275.662.394a3.554,3.554,0,0,0,4.327-.831c3.084-3.525,7.576-10.46,10.175-14.065a44.023,44.023,0,0,0,3.14-5.467C207.819,258.415,207.537,255.959,205.81,254.22Z" transform="translate(-165.955 -252.618)" fill="#ffbea7"/>
          <path id="Path_469" data-name="Path 469" d="M166.545,260.92a7.223,7.223,0,0,1,5.809,1.423c2.478,1.881,13.022,11.577,13.022,11.577a9.426,9.426,0,0,1-5.072,8.2l-12.961-9.14Z" transform="translate(-166.117 -254.866)" fill="#7fddea"/>
          <path id="Path_470" data-name="Path 470" d="M166.545,260.92a7.223,7.223,0,0,1,5.809,1.423c2.478,1.881,13.022,11.577,13.022,11.577a9.426,9.426,0,0,1-5.072,8.2l-12.961-9.14Z" transform="translate(-166.117 -254.866)" opacity="0.3"/>
        </g>
        <g id="Group_207" data-name="Group 207" transform="translate(11.085 61.069)">
          <rect id="Rectangle_357" data-name="Rectangle 357" width="5.489" height="9.787" transform="translate(1.249 84.794)" fill="#ffbea7"/>
          <path id="Path_471" data-name="Path 471" d="M167.982,416.307l5.486.2.275-10.357-5.761-.2Z" transform="translate(-147.702 -332.035)" fill="#ffbea7"/>
          <path id="Path_472" data-name="Path 472" d="M140.484,304.05c0,5.46.8,49.394.8,49.394-.128,1.571-1.542,4.467-1.236,10.5.416,8.2.971,29.734.971,29.734a6.967,6.967,0,0,0,6.111.126s5.192-29.832,6.176-37.954c.858-7.089,2.314-30.955,2.314-30.955l2.976,27.75a33.792,33.792,0,0,0-.68,9.086c.256,3.757,2.021,23.322,2.021,23.322a7.24,7.24,0,0,0,6.338.505s3.122-29.467,3.185-32.913c.072-3.93-1.825-48.656-1.825-48.656Z" transform="translate(-140.007 -303.991)" fill="#2b454e"/>
          <path id="Path_473" data-name="Path 473" d="M146.745,430.252v-.817c.525.238,1.746,5.087,3.923,7.156,1.731,1.645,4.093,3.545,4.694,5.378.625,1.907-3.289,2.96-4.906,2.662-1.88-.347-5.138-1.725-5.955-3s-1.2-3.163-1.865-4.1-2.2-1.982-2.555-3.066a7.182,7.182,0,0,1,.315-3c.254-1.011.53-2.122.861-2.027,0,.122,0,.623,0,.623a4.238,4.238,0,0,0,2.745.966C144.8,431.056,146.752,430.89,146.745,430.252Z" transform="translate(-140.007 -338.493)" fill="#1a2e35"/>
          <path id="Path_474" data-name="Path 474" d="M172.9,417.934c.285.01.517.429,1.145,1.137a12.037,12.037,0,0,0,3.229,2.42c2.056,1.071,6.052,2.72,7.86,3.569,1.13.53,1.077,1.952-.091,2.76s-3.987,1.392-7.373.6c-1.844-.43-4.245-2.2-5.765-2.109s-4.363.073-5.485-.732-.673-2.525-.356-4c.346-1.613.779-4.128,1.291-4.018v.556c.66,1.04,4.066,1.464,5.515.7Z" transform="translate(-147.074 -335.228)" fill="#1a2e35"/>
          <path id="Path_475" data-name="Path 475" d="M161.548,331.1a20.094,20.094,0,0,0,7.644-4.565s-1.475,2.877-5.86,5.553l.938,24.782Z" transform="translate(-145.932 -310.191)" fill="#1a2e35"/>
        </g>
        <g id="Group_208" data-name="Group 208" transform="translate(10.411 29.88)">
          <path id="Path_476" data-name="Path 476" d="M143.084,262.438s-4.3.393-3.991,8.576l.95,13.035-.09,19.561c4.037,4.574,21.931,4.239,28.058-.366,0,0-.631-23.15-1.045-32.057-.294-6.333-1.751-9.521-7.975-10.219l-7.654.336Z" transform="translate(-139.078 -260.969)" fill="#7fddea"/>
          <path id="Path_477" data-name="Path 477" d="M161.429,268.917l.985,6.872,2.3-.043-2.59.409Z" transform="translate(-145.225 -263.155)" opacity="0.3"/>
        </g>
        <g id="Group_209" data-name="Group 209" transform="translate(0 31.303)">
          <path id="Path_478" data-name="Path 478" d="M125.51,291.19c2.227-17.9,7.349-26.8,13.593-27.85l-.442,11.455a100.794,100.794,0,0,0-5.944,18.954c-.821,4.408-1.772,12.07-1.525,15.837a2.788,2.788,0,0,0,.8,1.757,15.713,15.713,0,0,1,2.431,3.759c.647,1.109,1.315,1.5,1.143,1.768a1.381,1.381,0,0,1-1.912.249,10.055,10.055,0,0,1-1.783-1.607,11.375,11.375,0,0,0,.9,4.985c1.461,3.012,1.218,4.6-2.828,3.713-2.535-.556-4.363-3.23-5.042-9.474a54.442,54.442,0,0,1-.125-7C125.016,301.769,125.064,294.773,125.51,291.19Z" transform="translate(-124.717 -263.044)" fill="#ffbea7"/>
          <path id="Path_479" data-name="Path 479" d="M139.962,262.932c-3.243-.012-6.2.557-8.554,5.088-2.256,4.346-3.992,13.551-4.867,16.556,0,0,4.735,2.8,9.089,2.731l3.069-10.646S140.77,271.691,139.962,262.932Z" transform="translate(-125.219 -262.932)" fill="#7fddea"/>
          <path id="Path_480" data-name="Path 480" d="M139.962,262.932c-3.243-.012-6.2.557-8.554,5.088-2.256,4.346-3.992,13.551-4.867,16.556,0,0,4.735,2.8,9.089,2.731l3.069-10.646S140.77,271.691,139.962,262.932Z" transform="translate(-125.219 -262.932)" opacity="0.3"/>
        </g>
        <g id="Group_212" data-name="Group 212" transform="translate(13.855)">
          <path id="Path_481" data-name="Path 481" d="M154.278,234.278a8.179,8.179,0,1,0,8.172-8.511A8.347,8.347,0,0,0,154.278,234.278Z" transform="translate(-146.703 -221.406)" fill="#1a2e35"/>
          <g id="Group_210" data-name="Group 210">
            <path id="Path_482" data-name="Path 482" d="M147.108,243.381a71.829,71.829,0,0,0,1.756,7.141,2.675,2.675,0,0,0,1.541,1.294l-.088-4.314Z" transform="translate(-144.731 -226.251)" fill="#1a2e35"/>
            <path id="Path_483" data-name="Path 483" d="M148.328,231.256s-.9-.225-1.853,1.266c-.818,1.279-1,4.152.281,7.52l2.36.282Z" transform="translate(-144.378 -222.913)" fill="#1a2e35"/>
            <path id="Path_484" data-name="Path 484" d="M149.275,238.9c-.473.294-1.149-.652-1.733-1.289a2.015,2.015,0,0,0-3.441.581c-.969,2.127.839,4.936,2.34,5.427,2.585.845,2.974-.882,2.974-.882l.2,9.715c3.433,5.31,11.209,5.118,8.413-.257l-.007-2.956a15.663,15.663,0,0,0,3.486.186c1.9-.306,3.1-1.869,3.675-4.013.926-3.443,1.278-6.224.492-13-.862-7.423-9.151-7.5-13.628-4.566S149.275,238.9,149.275,238.9Z" transform="translate(-143.829 -221.482)" fill="#ffbea7"/>
            <path id="Path_485" data-name="Path 485" d="M150.88,258.787A12.454,12.454,0,0,0,154.242,263a9.525,9.525,0,0,0,4.068,1.729,9.019,9.019,0,0,0-2.87,3.222c-.856,1.888-6.9-3.31-6.842-7,0,0,.948-3.705,2.246-3.943Z" transform="translate(-145.14 -229.999)" fill="#1a2e35"/>
            <path id="Path_486" data-name="Path 486" d="M161.995,265.01s1.862-.926,1.027-4.021l-.007-2.956.816.109a7.161,7.161,0,0,1,1.962,3.4c.187.847.646,5.136-.172,5.988C164.877,268.305,163.664,265.24,161.995,265.01Z" transform="translate(-148.825 -230.281)" fill="#1a2e35"/>
            <path id="Path_487" data-name="Path 487" d="M150.566,238c-.239.005-1.143-1.559-1.733-2.118-.816-.774.236-7.782.236-7.782a3.425,3.425,0,0,1,.788-3.544c1.119-1.282,2.988-1.425,6.18-1.947a34.439,34.439,0,0,0,3.784-.682,22.8,22.8,0,0,0,3.783-1.841,1.863,1.863,0,0,1,1.28-.3,1.252,1.252,0,0,1,.814.926,3.677,3.677,0,0,1,.024,1.285,2.086,2.086,0,0,1,2.94.105,3,3,0,0,1,.459,3.1,5.5,5.5,0,0,1-2.142,2.449c-4.012,2.708-8.746,1.957-13.237,1.425a1.21,1.21,0,0,0-.64.042c-.7.319-.853,2.5-.977,3.135C151.711,234.376,151.366,237.979,150.566,238Z" transform="translate(-145.12 -219.752)" fill="#1a2e35"/>
            <path id="Path_488" data-name="Path 488" d="M148.2,230.807l-2.863-1.6a1.549,1.549,0,0,1,2.167-.747A1.816,1.816,0,0,1,148.2,230.807Z" transform="translate(-144.243 -222.093)" fill="#1a2e35"/>
            <path id="Path_489" data-name="Path 489" d="M160.45,256.581a31.593,31.593,0,0,1-5.729-1.712,5,5,0,0,1-2.051-2.114,7.1,7.1,0,0,0,1.165,2.493c1.085,1.446,6.615,2.51,6.615,2.51Z" transform="translate(-146.261 -228.829)" fill="#ff9875"/>
          </g>
          <g id="Group_211" data-name="Group 211" transform="translate(9.252 11.781)">
            <path id="Path_490" data-name="Path 490" d="M160.638,241.55a.853.853,0,1,1-.851-.923A.885.885,0,0,1,160.638,241.55Z" transform="translate(-157.236 -237.274)" fill="#1a2e35"/>
            <path id="Path_491" data-name="Path 491" d="M158.532,236.6l-1.82,1.046a1.162,1.162,0,0,1,.424-1.509A1,1,0,0,1,158.532,236.6Z" transform="translate(-156.591 -236.002)" fill="#1a2e35"/>
            <path id="Path_492" data-name="Path 492" d="M162.849,250.691l1.942.759a1.01,1.01,0,0,1-1.319.671A1.146,1.146,0,0,1,162.849,250.691Z" transform="translate(-158.296 -240.043)" fill="#ff9875"/>
            <path id="Path_493" data-name="Path 493" d="M172.28,237.622l-1.912-.932a.981.981,0,0,1,1.356-.544A1.178,1.178,0,0,1,172.28,237.622Z" transform="translate(-160.38 -236.014)" fill="#1a2e35"/>
            <path id="Path_494" data-name="Path 494" d="M170.621,241.55a.853.853,0,1,1-.85-.923A.884.884,0,0,1,170.621,241.55Z" transform="translate(-159.982 -237.274)" fill="#1a2e35"/>
            <path id="Path_495" data-name="Path 495" d="M164.618,240.992l.1,5.373,3.049-.7Z" transform="translate(-158.799 -237.375)" fill="#ff9875"/>
          </g>
        </g>
        <g id="Group_215" data-name="Group 215" transform="translate(18.593 13.405)">
          <g id="Group_213" data-name="Group 213" transform="translate(4.091)">
            <path id="Path_496" data-name="Path 496" d="M158.516,238.673a2.125,2.125,0,0,0,0,4.249h.387a2.125,2.125,0,0,0,0-4.249Zm-2.509,2.124a2.535,2.535,0,0,1,2.509-2.555h.387a2.556,2.556,0,0,1,0,5.112h-.387A2.536,2.536,0,0,1,156.007,240.8Z" transform="translate(-156.007 -238.242)" fill="#1a2e35"/>
          </g>
          <g id="Group_214" data-name="Group 214" transform="translate(11.739)">
            <path id="Path_497" data-name="Path 497" d="M169.066,238.673a2.125,2.125,0,0,0,0,4.249h.387a2.125,2.125,0,0,0,0-4.249Zm-2.509,2.124a2.536,2.536,0,0,1,2.509-2.555h.387a2.556,2.556,0,0,1,0,5.112h-.387A2.536,2.536,0,0,1,166.557,240.8Z" transform="translate(-166.557 -238.242)" fill="#1a2e35"/>
          </g>
          <path id="Path_498" data-name="Path 498" d="M163.282,240.646a1.645,1.645,0,0,1,1.325-.688,1.335,1.335,0,0,1,1.156.444l.337-.26a1.72,1.72,0,0,0-1.515-.615,2.047,2.047,0,0,0-1.664.894Z" transform="translate(-153.818 -238.595)" fill="#1a2e35"/>
          <rect id="Rectangle_358" data-name="Rectangle 358" width="4.324" height="0.431" transform="translate(0 2.031)" fill="#1a2e35"/>
        </g>
        <path id="Path_500" data-name="Path 500" d="M43.98,27.29H42.7v.139l.4.037c.008.3.008.6.008.9V28.5c0,.338,0,.645-.008.941l-.4.037v.139h1.054a2.147,2.147,0,0,0,.23-.155,3.327,3.327,0,0,0,.253-.237c.2-.2.054-.3-.025-.36a3.626,3.626,0,0,1-.5-.3c-.321-.323.345-.433.4-.441-.046,0-.5.055-.611.231h0c0-.3,0-.6.008-.9h.4a.914.914,0,0,1,1.016,1.006,1.207,1.207,0,0,1-.072.43.994.994,0,0,0-.077-.068c-.06-.048-.5-.273-.674-.361s-.171-.12-.167-.175.185-.163.185-.163a1.436,1.436,0,0,0-.285.108c-.123.067-.134.146-.076.232a1.776,1.776,0,0,0,.391.256s.435.17.385.391a.655.655,0,0,1-.17.266,2.135,2.135,0,0,1-.264.234h.007a1.676,1.676,0,0,0,.827-.277,1.028,1.028,0,0,0,.444-.873C45.377,27.7,44.8,27.29,43.98,27.29Zm-.4,1.325c.085.087.115.116.333.312.138.124-.157.367-.393.529h-.009a.006.006,0,0,1,0,0c-.008-.3-.008-.607-.008-.94A.426.426,0,0,0,43.58,28.615Z" transform="matrix(0.998, -0.07, 0.07, 0.998, -11.675, 14.325)"/>
      </g>
    </g>
    <g id="box" transform="translate(588 970)">
      <g id="boxBack" transform="translate(495.869 263.471)">
        <path id="Path_26" data-name="Path 26" d="M33.385-22.764l20.259,5.884Z" transform="translate(-13.229 22.764)" fill="#7fddea" stroke="#72c6d1" stroke-width="1"/>
        <path id="Path_77" data-name="Path 77" d="M-4479.834,8965.674v-22.23l20.217-5.742,20.09,5.975.331,22Z" transform="translate(4479.834 -8937.679)" stroke="#72c6d1" stroke-width="1" fill="url(#linear-gradient-2)"/>
      </g>
      <g id="boxFront" transform="translate(495.869 269.324)">
        <path id="Path_22" data-name="Path 22" d="M-1.08-2.317l20.5-5.542V19.922L-.883,25.4Z" transform="translate(21.15 7.961)" stroke="#72c6d1" stroke-width="1" fill="url(#linear-gradient-3)"/>
        <path id="Path_25" data-name="Path 25" d="M-1.436-4.295,19.028-9.808Z" transform="translate(21.441 9.919)" fill="#7fddea" stroke="#72c6d1" stroke-width="1"/>
        <path id="Path_23" data-name="Path 23" d="M34.166-15.417,54.423-9.791l.207,27.736L34.166,12.393Z" transform="translate(-34.166 15.417)" stroke="#72c6d1" stroke-width="1" opacity="0.997" fill="url(#linear-gradient-4)"/>
        <path id="Path_24" data-name="Path 24" d="M27.247-16.255l20.333,5.62Z" transform="translate(-27.155 16.284)" fill="#7fddea" stroke="#72c6d1" stroke-width="1"/>
      </g>
      <path id="Path_499" data-name="Path 499" d="M13498.867-2077.84l10.234,2.872,10.234,2.873" transform="translate(-12993 2344.162)" fill="none" stroke="#72c6d1" stroke-width="1"/>
    </g>
    <g id="box-2" data-name="box" transform="translate(590 942)">
      <g id="boxBack-2" data-name="boxBack" transform="translate(495.869 263.471)">
        <path id="Path_26-2" data-name="Path 26" d="M33.385-22.764l20.259,5.884Z" transform="translate(-13.229 22.764)" fill="#7fddea" stroke="#72c6d1" stroke-width="1"/>
        <path id="Path_77-2" data-name="Path 77" d="M-4479.834,8965.674v-22.23l20.217-5.742,20.09,5.975.331,22Z" transform="translate(4479.834 -8937.679)" stroke="#72c6d1" stroke-width="1" fill="url(#linear-gradient-2)"/>
      </g>
      <g id="boxFront-2" data-name="boxFront" transform="translate(495.869 269.324)">
        <path id="Path_22-2" data-name="Path 22" d="M-1.08-2.317l20.5-5.542V19.922L-.883,25.4Z" transform="translate(21.15 7.961)" stroke="#72c6d1" stroke-width="1" fill="url(#linear-gradient-3)"/>
        <path id="Path_25-2" data-name="Path 25" d="M-1.436-4.295,19.028-9.808Z" transform="translate(21.441 9.919)" fill="#7fddea" stroke="#72c6d1" stroke-width="1"/>
        <path id="Path_23-2" data-name="Path 23" d="M34.166-15.417,54.423-9.791l.207,27.736L34.166,12.393Z" transform="translate(-34.166 15.417)" stroke="#72c6d1" stroke-width="1" opacity="0.997" fill="url(#linear-gradient-4)"/>
        <path id="Path_24-2" data-name="Path 24" d="M27.247-16.255l20.333,5.62Z" transform="translate(-27.155 16.284)" fill="#7fddea" stroke="#72c6d1" stroke-width="1"/>
      </g>
      <path id="Path_499-2" data-name="Path 499" d="M13498.867-2077.84l10.234,2.872,10.234,2.873" transform="translate(-12993 2344.162)" fill="none" stroke="#72c6d1" stroke-width="1"/>
    </g>
    <g id="box-3" data-name="box" transform="translate(587 914)">
      <g id="boxBack-3" data-name="boxBack" transform="translate(495.869 263.471)">
        <path id="Path_26-3" data-name="Path 26" d="M33.385-22.764l20.259,5.884Z" transform="translate(-13.229 22.764)" fill="#7fddea" stroke="#72c6d1" stroke-width="1"/>
        <path id="Path_77-3" data-name="Path 77" d="M-4479.834,8965.674v-22.23l20.217-5.742,20.09,5.975.331,22Z" transform="translate(4479.834 -8937.679)" stroke="#72c6d1" stroke-width="1" fill="url(#linear-gradient-2)"/>
      </g>
      <g id="boxFront-3" data-name="boxFront" transform="translate(495.869 269.324)">
        <path id="Path_22-3" data-name="Path 22" d="M-1.08-2.317l20.5-5.542V19.922L-.883,25.4Z" transform="translate(21.15 7.961)" stroke="#72c6d1" stroke-width="1" fill="url(#linear-gradient-3)"/>
        <path id="Path_25-3" data-name="Path 25" d="M-1.436-4.295,19.028-9.808Z" transform="translate(21.441 9.919)" fill="#7fddea" stroke="#72c6d1" stroke-width="1"/>
        <path id="Path_23-3" data-name="Path 23" d="M34.166-15.417,54.423-9.791l.207,27.736L34.166,12.393Z" transform="translate(-34.166 15.417)" stroke="#72c6d1" stroke-width="1" opacity="0.997" fill="url(#linear-gradient-4)"/>
        <path id="Path_24-3" data-name="Path 24" d="M27.247-16.255l20.333,5.62Z" transform="translate(-27.155 16.284)" fill="#7fddea" stroke="#72c6d1" stroke-width="1"/>
      </g>
      <path id="Path_499-3" data-name="Path 499" d="M13498.867-2077.84l10.234,2.872,10.234,2.873" transform="translate(-12993 2344.162)" fill="none" stroke="#72c6d1" stroke-width="1"/>
    </g>
  </g>
</svg>
