<svg xmlns="http://www.w3.org/2000/svg" width="236.474" height="121.722" viewBox="0 0 236.474 121.722">
  <g id="carBody2" transform="translate(-755.5 -1357.383)">
    <g id="Path_295" data-name="Path 295" transform="translate(755.5 1357.383)" fill="#7fddea">
      <path d="M 235.9737548828125 121.2216949462891 L 0.499995082616806 121.2216949462891 L 0.499995082616806 0.5000163316726685 L 235.9737548828125 0.5000163316726685 L 235.9737548828125 121.2216949462891 Z" stroke="none"/>
      <path d="M 1 0.9999923706054688 L 1 120.7216873168945 L 235.4737548828125 120.7216873168945 L 235.4737548828125 0.9999923706054688 L 1 0.9999923706054688 M 0 -7.62939453125e-06 L 236.4737548828125 -7.62939453125e-06 L 236.4737548828125 121.7216873168945 L 0 121.7216873168945 L 0 -7.62939453125e-06 Z" stroke="none" fill="#212121"/>
    </g>
    <g id="Layer_2" data-name="Layer 2" transform="translate(826.476 1371.58)">
      <path id="Path_89" data-name="Path 89" d="M31.808,253.681a7.547,7.547,0,0,1-7.57,7.795H18V245.89h6.238A7.546,7.546,0,0,1,31.808,253.681Zm-3.429,0a3.991,3.991,0,0,0-4.142-4.353H21.559v8.725h2.679A4.015,4.015,0,0,0,28.379,253.681Z" transform="translate(-18 -172.698)"/>
      <path id="Path_90" data-name="Path 90" d="M75.187,258.571V269.7H71.838v-1.048a4.174,4.174,0,0,1-3.315,1.359,5.907,5.907,0,0,1,0-11.755,4.172,4.172,0,0,1,3.315,1.356v-1.045Zm-3.348,5.565a2.649,2.649,0,1,0-2.648,2.715A2.538,2.538,0,0,0,71.838,264.136Z" transform="translate(-48.066 -180.926)"/>
      <path id="Path_91" data-name="Path 91" d="M114.713,259.19,110.6,270.323h-3.777L102.7,259.19h3.683l2.314,7.058,2.317-7.058Z" transform="translate(-74.341 -181.545)"/>
      <path id="Path_92" data-name="Path 92" d="M150.379,259.19l-3.807,10.8c-1.246,3.539-3.228,4.942-6.345,4.785v-3.117a2.478,2.478,0,0,0,2.782-1.845l-4.43-10.621h3.683l2.471,6.81,2.093-6.81Z" transform="translate(-98.207 -181.545)"/>
      <path id="Path_93" data-name="Path 93" d="M191.082,259.183l-3.562,11.133H184.4l-1.781-5.946-1.781,5.946h-3.117l-3.562-11.133h3.562l1.6,5.963,1.734-5.966h3.117l1.738,5.966,1.6-5.966Z" transform="translate(-121.874 -181.538)"/>
      <path id="Path_94" data-name="Path 94" d="M237.657,258.571V269.7h-3.348v-1.048a4.176,4.176,0,0,1-3.318,1.359,5.907,5.907,0,0,1,0-11.755,4.174,4.174,0,0,1,3.318,1.356v-1.045Zm-3.348,5.565a2.654,2.654,0,1,0,.01,0Z" transform="translate(-156.138 -180.926)"/>
      <path id="Path_95" data-name="Path 95" d="M276.9,259.19l-3.81,10.8c-1.249,3.539-3.231,4.942-6.362,4.785v-3.117a2.484,2.484,0,0,0,2.786-1.845L265.08,259.19h3.683l2.474,6.81,2.093-6.81Z" transform="translate(-182.352 -181.545)"/>
      <path id="Path_96" data-name="Path 96" d="M80,27.29H42.7v4.038l11.786,1.088c.224,8.725.224,17.5.224,26.2v3.84c0,9.857,0,18.8-.224,27.412L42.7,90.963V95H73.413a62.548,62.548,0,0,0,6.7-4.52,96.889,96.889,0,0,0,7.366-6.9c5.869-5.806,1.58-8.8-.727-10.483s-11.136-5.417-14.5-8.8c-9.358-9.412,10.045-12.6,11.679-12.857-1.339.137-14.685,1.6-17.816,6.72v-.04c0-8.843,0-17.615.238-26.19H77.863c18.713,0,29.588,10.209,29.588,29.307a35.17,35.17,0,0,1-2.1,12.532,29,29,0,0,0-2.243-1.972c-1.738-1.393-14.548-7.952-19.627-10.53s-4.989-3.492-4.852-5.1,5.377-4.744,5.377-4.744a41.817,41.817,0,0,0-8.3,3.137c-3.593,1.952-3.914,4.262-2.22,6.773s11.384,7.467,11.384,7.467S97.547,73.763,96.081,80.2c-.576,2.518-2.638,5.3-4.942,7.751a62.206,62.206,0,0,1-7.7,6.807h.214c9.442-.82,17.746-3.549,24.107-8.059,8.036-5.712,12.927-14.277,12.927-25.446C120.707,39.213,104.016,27.29,80,27.29Zm-11.658,38.6c2.474,2.525,3.348,3.368,9.69,9.077,4.018,3.619-4.587,10.681-11.438,15.4h-.265a.18.18,0,0,1,0-.06c-.234-8.752-.238-17.682-.238-27.388A12.424,12.424,0,0,0,68.337,65.895Z" transform="translate(-34.43 -27.29)"/>
    </g>
  </g>
</svg>
