<svg xmlns="http://www.w3.org/2000/svg" xmlns:xlink="http://www.w3.org/1999/xlink" width="161" height="387.38" viewBox="0 0 161 387.38">
  <defs>
    <linearGradient id="linear-gradient" x1="0.5" x2="0.5" y2="1" gradientUnits="objectBoundingBox">
      <stop offset="0" stop-color="#01bbd6" stop-opacity="0.404"/>
      <stop offset="1" stop-color="#049aaf"/>
    </linearGradient>
    <linearGradient id="linear-gradient-2" x1="0.016" y1="2.911" x2="0.063" y2="0.563" gradientUnits="objectBoundingBox">
      <stop offset="0" stop-color="#01bbd6"/>
      <stop offset="1" stop-color="#01bbd6" stop-opacity="0.502"/>
    </linearGradient>
  </defs>
  <g id="fullbox3" transform="translate(-600 -328.62)">
    <ellipse id="Ellipse_4" data-name="Ellipse 4" cx="80.5" cy="22" rx="80.5" ry="22" transform="translate(600 672)" opacity="0.997" fill="url(#linear-gradient)"/>
    <g id="box" transform="translate(608.005 615.62)">
      <g id="boxBack" transform="translate(0.293 16.255)">
        <path id="Path_27" data-name="Path 27" d="M-16.027-19.729l55.208-9.2-16.8-8.141L-32.413-27.5Z" transform="translate(32.413 37.072)" fill="#fff" stroke="#01bbd6" stroke-width="2"/>
        <path id="Path_26" data-name="Path 26" d="M33.385-33.952,88.8-24.473l17.171-7.753-55.3-8.967Z" transform="translate(38.04 42.076)" fill="#fff" stroke="#01bbd6" stroke-width="2"/>
        <path id="Path_77" data-name="Path 77" d="M-4479.834,8982.766v-35.813l55.3-9.251,54.951,9.626.9,35.438Z" transform="translate(4496.129 -8929.541)" fill="#fff" stroke="#01bbd6" stroke-width="2"/>
      </g>
      <g id="figure" transform="translate(72.754 -287)" opacity="0">
        <g id="r1" transform="translate(35.836 3.109)">
          <g id="fon">
            <g id="Rectangle_217" data-name="Rectangle 217" transform="translate(0.693 1.549)" fill="#fff" stroke="#fff" stroke-width="2">
              <rect width="15.555" height="30.29" stroke="none"/>
              <rect x="1" y="1" width="13.555" height="28.29" fill="none"/>
            </g>
            <path id="Path_122" data-name="Path 122" d="M0,0V27.985" transform="translate(8.353 2.612)" fill="#fff" stroke="#fff" stroke-width="2"/>
            <g id="Path_75" data-name="Path 75" transform="translate(-13.265 -194.35)" fill="#fff" stroke-linecap="round">
              <path d="M 21.6102180480957 196.0326538085938 L 19.53665161132812 195.697265625 L 21.60629653930664 195.3634643554688 L 23.67986297607422 195.6988525390625 L 21.6102180480957 196.0326538085938 Z" stroke="none"/>
              <path d="M 21.60652732849121 194.3504943847656 L 29.95137786865234 195.7002563476562 L 21.60998725891113 197.0456237792969 L 13.26513671875 195.6958618164062 L 21.60652732849121 194.3504943847656 Z" stroke="none" fill="#fff"/>
            </g>
          </g>
          <g id="Rectangle_217-2" data-name="Rectangle 217" transform="translate(1.103 1.549)" fill="#0a9db2" stroke="#fff" stroke-width="2">
            <rect width="13.917" height="29.472" rx="2" stroke="none"/>
            <rect x="1" y="1" width="11.917" height="27.472" rx="1" fill="none"/>
          </g>
          <path id="Path_122-2" data-name="Path 122" d="M0,0V27.844" transform="translate(8.39 2.608)" fill="#0a9db2" stroke="#fff" stroke-width="2"/>
          <g id="Path_75-2" data-name="Path 75" transform="translate(-12.467 -194.117)" fill="#0a9db2" stroke-linecap="round">
            <path d="M 20.84989166259766 195.787109375 L 19.53662109375 195.5746917724609 L 20.84628486633301 195.3634490966797 L 22.15955543518066 195.5758666992188 L 20.84989166259766 195.787109375 Z" stroke="none"/>
            <path d="M 20.84651374816895 194.3504943847656 L 28.43105316162109 195.5772705078125 L 20.84966278076172 196.8000640869141 L 13.26513290405273 195.5733032226562 L 20.84651374816895 194.3504943847656 Z" stroke="none" fill="#fff"/>
          </g>
        </g>
        <g id="r3" transform="translate(12.73 0)">
          <g id="fon-2" data-name="fon">
            <g id="Rectangle_217-3" data-name="Rectangle 217" transform="translate(0.467 1.793)" fill="#fff" stroke="#fff" stroke-width="2">
              <rect width="15.555" height="33.156" stroke="none"/>
              <rect x="1" y="1" width="13.555" height="31.156" fill="none"/>
            </g>
            <path id="Path_122-3" data-name="Path 122" d="M0,0V31.669" transform="translate(8.353 2.612)" fill="#fff" stroke="#fff" stroke-width="2"/>
            <g id="Path_75-3" data-name="Path 75" transform="translate(-13.265 -194.35)" fill="#fff" stroke-linecap="round">
              <path d="M 21.6102180480957 196.0326538085938 L 19.53665161132812 195.697265625 L 21.60629653930664 195.3634643554688 L 23.67986297607422 195.6988525390625 L 21.6102180480957 196.0326538085938 Z" stroke="none"/>
              <path d="M 21.60652732849121 194.3504943847656 L 29.95137786865234 195.7002563476562 L 21.60998725891113 197.0456237792969 L 13.26513671875 195.6958618164062 L 21.60652732849121 194.3504943847656 Z" stroke="none" fill="#fff"/>
            </g>
          </g>
          <g id="Rectangle_217-4" data-name="Rectangle 217" transform="translate(1.695 1.793)" fill="#0a9db2" stroke="#fff" stroke-width="2">
            <rect width="13.508" height="33.156" rx="2" stroke="none"/>
            <rect x="1" y="1" width="11.508" height="31.156" rx="1" fill="none"/>
          </g>
          <path id="Path_122-4" data-name="Path 122" d="M0,0V31.528" transform="translate(8.39 2.608)" fill="#0a9db2" stroke="#fff" stroke-width="2"/>
          <g id="Path_75-4" data-name="Path 75" transform="translate(-12.467 -194.117)" fill="#0a9db2" stroke-linecap="round">
            <path d="M 20.84989166259766 195.787109375 L 19.53662109375 195.5746917724609 L 20.84628486633301 195.3634490966797 L 22.15955543518066 195.5758666992188 L 20.84989166259766 195.787109375 Z" stroke="none"/>
            <path d="M 20.84651374816895 194.3504943847656 L 28.43105316162109 195.5772705078125 L 20.84966278076172 196.8000640869141 L 13.26513290405273 195.5733032226562 L 20.84651374816895 194.3504943847656 Z" stroke="none" fill="#fff"/>
          </g>
        </g>
        <g id="r2" transform="translate(0 6.962)">
          <g id="fon-3" data-name="fon">
            <g id="Rectangle_217-5" data-name="Rectangle 217" transform="translate(0.917 1.38)" fill="#fff" stroke="#fff" stroke-width="2">
              <rect width="14.736" height="33.974" stroke="none"/>
              <rect x="1" y="1" width="12.736" height="31.974" fill="none"/>
            </g>
            <path id="Path_122-5" data-name="Path 122" d="M0,0V31.669" transform="translate(8.353 2.612)" fill="#fff" stroke="#fff" stroke-width="2"/>
            <g id="Path_75-5" data-name="Path 75" transform="translate(-13.265 -194.35)" fill="#fff" stroke-linecap="round">
              <path d="M 21.6102180480957 196.0326538085938 L 19.53665161132812 195.697265625 L 21.60629653930664 195.3634643554688 L 23.67986297607422 195.6988525390625 L 21.6102180480957 196.0326538085938 Z" stroke="none"/>
              <path d="M 21.60652732849121 194.3504943847656 L 29.95137786865234 195.7002563476562 L 21.60998725891113 197.0456237792969 L 13.26513671875 195.6958618164062 L 21.60652732849121 194.3504943847656 Z" stroke="none" fill="#fff"/>
            </g>
          </g>
          <g id="Rectangle_217-6" data-name="Rectangle 217" transform="translate(1.326 1.38)" fill="#0a9db2" stroke="#fff" stroke-width="2">
            <rect width="13.917" height="33.565" rx="2" stroke="none"/>
            <rect x="1" y="1" width="11.917" height="31.565" rx="1" fill="none"/>
          </g>
          <path id="Path_122-6" data-name="Path 122" d="M0,0V31.528" transform="translate(8.39 2.608)" fill="#0a9db2" stroke="#fff" stroke-width="2"/>
          <g id="Path_75-6" data-name="Path 75" transform="translate(-12.467 -194.117)" fill="#0a9db2" stroke-linecap="round">
            <path d="M 20.84989166259766 195.787109375 L 19.53662109375 195.5746917724609 L 20.84628486633301 195.3634490966797 L 22.15955543518066 195.5758666992188 L 20.84989166259766 195.787109375 Z" stroke="none"/>
            <path d="M 20.84651374816895 194.3504943847656 L 28.43105316162109 195.5772705078125 L 20.84966278076172 196.8000640869141 L 13.26513290405273 195.5733032226562 L 20.84651374816895 194.3504943847656 Z" stroke="none" fill="#fff"/>
          </g>
        </g>
        <g id="o1" transform="translate(23.069 12.026)">
          <g id="fon-4" data-name="fon" transform="translate(0 0)">
            <g id="Path_78" data-name="Path 78" transform="translate(0.072 1.998)" fill="#fff">
              <path d="M 12.70315647125244 21.41199111938477 C 12.59700584411621 21.41199111938477 12.49033641815186 21.41184997558594 12.38235569000244 21.41156959533691 C 8.32835578918457 21.40110969543457 5.216695785522461 21.20491027832031 3.133795976638794 20.82843971252441 C 1.744452834129333 20.57732391357422 1.170484185218811 20.3089427947998 0.9543060064315796 20.17423248291016 L 0.9543060064315796 1.000000476837158 L 24.11019515991211 1.000000476837158 L 24.11019515991211 20.12820816040039 C 23.68858528137207 20.41965103149414 21.59902763366699 21.41199111938477 12.70315647125244 21.41199111938477 Z" stroke="none"/>
              <path d="M 1.954305648803711 2 L 1.954305648803711 19.51955795288086 C 2.183197021484375 19.59492492675781 2.50715446472168 19.68411827087402 2.957286834716797 19.7762508392334 C 4.963466644287109 20.18685150146484 8.135385513305664 20.40060043334961 12.38491630554199 20.41157150268555 C 12.49203586578369 20.41184043884277 12.59794616699219 20.41197967529297 12.70324611663818 20.41197967529297 C 19.56034278869629 20.41197967529297 22.19238662719727 19.81358909606934 23.11018562316895 19.49308586120605 L 23.11018562316895 2 L 1.954305648803711 2 M -0.04569435119628906 0 L 25.11018562316895 0 L 25.11018562316895 20.2647705078125 C 25.11018562316895 20.2647705078125 25.97861671447754 22.41197967529297 12.70324325561523 22.41197967529297 C 12.59624290466309 22.41197967529297 12.48862171173096 22.41184234619141 12.37977600097656 22.41156005859375 C -1.233423233032227 22.37643051147461 -0.04569435119628906 20.2647705078125 -0.04569435119628906 20.2647705078125 L -0.04569435119628906 0 Z" stroke="none" fill="#fff"/>
            </g>
            <ellipse id="Ellipse_17" data-name="Ellipse 17" cx="12.28" cy="2.047" rx="12.28" ry="2.047" transform="translate(0.361)" fill="#fff" stroke="#fff" stroke-width="2"/>
            <path id="Path_123" data-name="Path 123" d="M.66,17.821s.246.6,2.695,1.113a29.5,29.5,0,0,0,4.626.471" transform="translate(-0.245 -12.013)" fill="none" stroke="#fff" stroke-width="2"/>
            <path id="Path_124" data-name="Path 124" d="M.66,17.821s.246.6,2.695,1.113a29.5,29.5,0,0,0,4.626.471" transform="translate(-0.245 -8.203)" fill="none" stroke="#fff" stroke-width="2"/>
          </g>
          <g id="Path_78-2" data-name="Path 78" transform="translate(0.77 2.237)" fill="#0a9db2">
            <path d="M 11.96430683135986 20.76174545288086 C 11.86437606811523 20.76174545288086 11.76387596130371 20.76160430908203 11.66221618652344 20.7613353729248 C 3.474102735519409 20.73955917358398 1.408681511878967 19.86668014526367 0.952786386013031 19.58231163024902 L 0.952786386013031 1.000005125999451 L 22.65362548828125 1.000005125999451 L 22.65362548828125 19.53776359558105 C 22.24514198303223 19.8194637298584 20.25815773010254 20.76174545288086 11.96430683135986 20.76174545288086 Z" stroke="none"/>
            <path d="M 1.952785491943359 1.999994277954102 L 1.952785491943359 18.92502403259277 C 2.293497085571289 19.03541564941406 2.850282669067383 19.17713737487793 3.728265762329102 19.31160545349121 C 5.618175506591797 19.60104560852051 8.288435935974121 19.75235557556152 11.66482639312744 19.76134490966797 C 11.76559638977051 19.76160430908203 11.86514663696289 19.76174545288086 11.96422672271729 19.76174545288086 C 18.28473281860352 19.76174545288086 20.76687049865723 19.20583152770996 21.65362548828125 18.90030097961426 L 21.65362548828125 1.999994277954102 L 1.952785491943359 1.999994277954102 M -0.04721450805664062 -5.7220458984375e-06 L 23.65362548828125 -5.7220458984375e-06 L 23.65362548828125 19.67682456970215 C 23.65362548828125 19.67682456970215 24.47172737121582 21.76174354553223 11.9642219543457 21.76174354553223 C 11.86341094970703 21.76174354553223 11.76210594177246 21.7616081237793 11.65955638885498 21.7613353729248 C -1.166244506835938 21.72721481323242 -0.04721450805664062 19.67682456970215 -0.04721450805664062 19.67682456970215 L -0.04721450805664062 -5.7220458984375e-06 Z" stroke="none" fill="#fff"/>
          </g>
          <ellipse id="Ellipse_17-2" data-name="Ellipse 17" cx="11.666" cy="1.842" rx="11.666" ry="1.842" transform="translate(0.77 0.409)" fill="#0a9db2" stroke="#fff" stroke-width="2"/>
          <path id="Path_123-2" data-name="Path 123" d="M.66,17.821s.227.587,2.491,1.1a25.677,25.677,0,0,0,4.276.464" transform="translate(0.421 -11.91)" fill="none" stroke="#fff" stroke-width="2"/>
          <path id="Path_124-2" data-name="Path 124" d="M.66,17.821s.227.587,2.491,1.1a25.677,25.677,0,0,0,4.276.464" transform="translate(0.421 -8.21)" fill="none" stroke="#fff" stroke-width="2"/>
        </g>
        <g id="_02" data-name="02" transform="translate(8.285 22.669)">
          <g id="fon-5" data-name="fon" transform="translate(0 0)">
            <g id="Path_79" data-name="Path 79" transform="translate(0.307 2.342)" fill="#fff">
              <path d="M 12.61477756500244 21.37766265869141 C 12.50937747955322 21.37766265869141 12.40341758728027 21.37752342224121 12.29619789123535 21.37724304199219 C 3.5809645652771 21.35463523864746 1.422411561012268 20.43854331970215 0.9541277289390564 20.1449031829834 L 0.9541277289390564 1.000003457069397 L 23.93591690063477 1.000003457069397 L 23.93591690063477 20.09820556640625 C 23.51737213134766 20.38857460021973 21.44291687011719 21.37766265869141 12.61477756500244 21.37766265869141 Z" stroke="none"/>
              <path d="M 1.954128265380859 2.000003814697266 L 1.954128265380859 19.49039077758789 C 2.311141967773438 19.60781669616699 2.906486511230469 19.7609806060791 3.862617492675781 19.90589332580566 C 5.864646911621094 20.2093334197998 8.702987670898438 20.36792373657227 12.29878807067871 20.37725257873535 C 12.40513801574707 20.37752342224121 12.51022815704346 20.37766265869141 12.61477756500244 20.37766265869141 C 19.41029739379883 20.37766265869141 22.02323913574219 19.78276443481445 22.93591690063477 19.46362495422363 L 22.93591690063477 2.000003814697266 L 1.954128265380859 2.000003814697266 M -0.04587173461914062 3.814697265625e-06 L 24.93591690063477 3.814697265625e-06 L 24.93591690063477 20.23374366760254 C 24.93591690063477 20.23374366760254 25.79827499389648 22.37766265869141 12.61478137969971 22.37766265869141 C 12.50852203369141 22.37766265869141 12.40170001983643 22.37752342224121 12.29360771179199 22.37724304199219 C -1.225372314453125 22.3421630859375 -0.04587173461914062 20.23374366760254 -0.04587173461914062 20.23374366760254 L -0.04587173461914062 3.814697265625e-06 Z" stroke="none" fill="#fff"/>
            </g>
            <ellipse id="Ellipse_18" data-name="Ellipse 18" cx="12.28" cy="2.456" rx="12.28" ry="2.456" fill="#fff" stroke="#fff" stroke-width="2"/>
            <line id="Line_32" data-name="Line 32" y1="1.691" x2="4.307" transform="translate(12.835 0.632)" fill="none" stroke="#fff" stroke-width="2"/>
            <line id="Line_33" data-name="Line 33" x2="10.049" y2="0.845" transform="translate(13.146 2.323)" fill="none" stroke="#fff" stroke-width="2"/>
          </g>
          <g id="Path_79-2" data-name="Path 79" transform="translate(1.005 2.547)" fill="#0a9db2">
            <path d="M 11.87401390075684 20.76174545288086 C 11.7748441696167 20.76174545288086 11.67510414123535 20.76160430908203 11.57422351837158 20.7613353729248 C 3.451498985290527 20.73956871032715 1.403955459594727 19.86797142028809 0.9526036977767944 19.58455467224121 L 0.9526036977767944 1.000005125999451 L 22.47562408447266 1.000005125999451 L 22.47562408447266 19.54002380371094 C 22.07156181335449 19.8206844329834 20.10244560241699 20.76174545288086 11.87401390075684 20.76174545288086 Z" stroke="none"/>
            <path d="M 1.952604293823242 1.999994277954102 L 1.952604293823242 18.92841529846191 C 2.290481567382812 19.03825759887695 2.841987609863281 19.17917251586914 3.710943222045898 19.31297492980957 C 5.584884643554688 19.60152435302734 8.23137378692627 19.75237464904785 11.57685375213623 19.76134490966797 C 11.67684364318848 19.76160430908203 11.77563381195068 19.76174545288086 11.87392330169678 19.76174545288086 C 18.13398361206055 19.76174545288086 20.59541130065918 19.20825958251953 21.47562408447266 18.90386199951172 L 21.47562408447266 1.999994277954102 L 1.952604293823242 1.999994277954102 M -0.04739570617675781 -5.7220458984375e-06 L 23.47562408447266 -5.7220458984375e-06 L 23.47562408447266 19.67682456970215 C 23.47562408447266 19.67682456970215 24.28759574890137 21.76174354553223 11.87392425537109 21.76174354553223 C 11.77386856079102 21.76174354553223 11.67332458496094 21.7616081237793 11.57154369354248 21.7613353729248 C -1.158025741577148 21.72721481323242 -0.04739570617675781 19.67682456970215 -0.04739570617675781 19.67682456970215 L -0.04739570617675781 -5.7220458984375e-06 Z" stroke="none" fill="#fff"/>
          </g>
          <ellipse id="Ellipse_18-2" data-name="Ellipse 18" cx="11.257" cy="2.047" rx="11.257" ry="2.047" transform="translate(1.637 0.819)" fill="#0a9db2" stroke="#fff" stroke-width="2"/>
          <line id="Line_32-2" data-name="Line 32" y1="1.644" x2="4.188" transform="translate(12.716 0.884)" fill="none" stroke="#fff" stroke-width="2"/>
          <line id="Line_33-2" data-name="Line 33" x2="9.772" y2="0.822" transform="translate(12.716 2.528)" fill="none" stroke="#fff" stroke-width="2"/>
        </g>
      </g>
      <g id="boxFront" transform="translate(0 33.38)">
        <path id="Path_121" data-name="Path 121" d="M16.782-.081l2.954-.628L71.348,7.509,122.321-.417l1.9.417,2.329,20.426L16.308,17.191Z" transform="translate(0.394 0.709)" fill="#fff"/>
        <path id="Path_22" data-name="Path 22" d="M-1.08,1.069,54.98-7.859V36.9L-.54,45.714Z" transform="translate(72.566 8.451)" fill="#fff" stroke="#01bbd6" stroke-width="2"/>
        <path id="Path_25" data-name="Path 25" d="M-1.436-.926,54.537-9.808,71.314-2.161,15.889,6.681Z" transform="translate(72.743 10.415)" fill="#fff" stroke="#01bbd6" stroke-width="2"/>
        <path id="Path_23" data-name="Path 23" d="M34.166-15.417,89.574-6.353l.567,44.681L34.166,29.384Z" transform="translate(-17.577 15.844)" fill="#fff" stroke="#01bbd6" stroke-width="2" opacity="0.997"/>
        <path id="Path_24" data-name="Path 24" d="M18.842-16.255,74.456-7.2,58.28.514,2-8.524Z" transform="translate(-2.001 16.73)" fill="#fff" stroke="#01bbd6" stroke-width="2"/>
        <g id="boxShadow" transform="translate(16.34 9.782)">
          <path id="Path_39" data-name="Path 39" d="M.313,6.754V.808l16.45,7.121L55.868,1.956l-.457,5.973L16.763,14.17Z" transform="translate(55.529 -0.67)" fill="url(#linear-gradient-2)"/>
          <path id="Path_40" data-name="Path 40" d="M35.67-5.611,75.623.942l15.662-7.6V-.434L75.108,7.281,35.67.671Z" transform="translate(-35.67 6.662)" fill="url(#linear-gradient-2)"/>
        </g>
      </g>
    </g>
  </g>
</svg>
