<svg xmlns="http://www.w3.org/2000/svg" width="86.001" height="130.999" viewBox="0 0 86.001 130.999">
  <g id="g-2019" transform="translate(2.245 1.997)">
    <ellipse id="Ellipse_44" data-name="Ellipse 44" cx="41.001" cy="40.999" rx="41.001" ry="40.999" transform="translate(-0.245 0.003)" fill="#059aaf" stroke="#049aaf" stroke-width="4"/>
    <line id="Line_124" data-name="Line 124" y1="41.425" transform="translate(41.101 81.88)" fill="none" stroke="#049aaf" stroke-width="4"/>
    <ellipse id="Ellipse_45" data-name="Ellipse 45" cx="4.5" cy="4" rx="4.5" ry="4" transform="translate(36.756 121.002)" fill="#049aaf"/>
    <g id="Icon_ionic-ios-business" data-name="Icon ionic-ios-business" transform="translate(16.158 14.813)">
      <path id="Path_286" data-name="Path 286" d="M10.957,7.007H34.872A1.962,1.962,0,0,0,36.829,5.05h0a1.962,1.962,0,0,0-1.957-1.957H10.957A1.962,1.962,0,0,0,9,5.05H9A1.962,1.962,0,0,0,10.957,7.007Z" transform="translate(1.229)" fill="#f2f2f2"/>
      <path id="Path_287" data-name="Path 287" d="M39.58,7.031H8.707a1.963,1.963,0,0,0-.217,3.913V43.557A2.617,2.617,0,0,0,11.1,46.166h9.566a.872.872,0,0,0,.87-.87V40.948a.872.872,0,0,1,.87-.87h3.479a.872.872,0,0,1,.87.87V45.3a.872.872,0,0,0,.87.87h9.566A2.617,2.617,0,0,0,39.8,43.557V10.945a1.963,1.963,0,0,0-.217-3.913ZM17.186,35.73a.872.872,0,0,1-.87.87H14.577a.872.872,0,0,1-.87-.87V33.991a.872.872,0,0,1,.87-.87h1.739a.872.872,0,0,1,.87.87Zm0-6.957a.872.872,0,0,1-.87.87H14.577a.872.872,0,0,1-.87-.87V27.033a.872.872,0,0,1,.87-.87h1.739a.872.872,0,0,1,.87.87Zm0-6.957a.872.872,0,0,1-.87.87H14.577a.872.872,0,0,1-.87-.87V20.076a.872.872,0,0,1,.87-.87h1.739a.872.872,0,0,1,.87.87Zm0-6.957a.872.872,0,0,1-.87.87H14.577a.872.872,0,0,1-.87-.87V13.119a.872.872,0,0,1,.87-.87h1.739a.872.872,0,0,1,.87.87Zm8.7,20.872a.872.872,0,0,1-.87.87H23.273a.872.872,0,0,1-.87-.87V33.991a.872.872,0,0,1,.87-.87h1.739a.872.872,0,0,1,.87.87Zm0-6.957a.872.872,0,0,1-.87.87H23.273a.872.872,0,0,1-.87-.87V27.033a.872.872,0,0,1,.87-.87h1.739a.872.872,0,0,1,.87.87Zm0-6.957a.872.872,0,0,1-.87.87H23.273a.872.872,0,0,1-.87-.87V20.076a.872.872,0,0,1,.87-.87h1.739a.872.872,0,0,1,.87.87Zm0-6.957a.872.872,0,0,1-.87.87H23.273a.872.872,0,0,1-.87-.87V13.119a.872.872,0,0,1,.87-.87h1.739a.872.872,0,0,1,.87.87Zm8.7,20.872a.872.872,0,0,1-.87.87H31.97a.872.872,0,0,1-.87-.87V33.991a.872.872,0,0,1,.87-.87h1.739a.872.872,0,0,1,.87.87Zm0-6.957a.872.872,0,0,1-.87.87H31.97a.872.872,0,0,1-.87-.87V27.033a.872.872,0,0,1,.87-.87h1.739a.872.872,0,0,1,.87.87Zm0-6.957a.872.872,0,0,1-.87.87H31.97a.872.872,0,0,1-.87-.87V20.076a.872.872,0,0,1,.87-.87h1.739a.872.872,0,0,1,.87.87Zm0-6.957a.872.872,0,0,1-.87.87H31.97a.872.872,0,0,1-.87-.87V13.119a.872.872,0,0,1,.87-.87h1.739a.872.872,0,0,1,.87.87Z" transform="translate(0 2.15)" fill="#f2f2f2"/>
    </g>
  </g>
</svg>
