<svg xmlns="http://www.w3.org/2000/svg" xmlns:xlink="http://www.w3.org/1999/xlink" width="81" height="94" viewBox="0 0 81 94">
  <defs>
    <filter id="Rectangle_340" x="0" y="0" width="81" height="81" filterUnits="userSpaceOnUse">
      <feOffset dy="3" input="SourceAlpha"/>
      <feGaussianBlur stdDeviation="3" result="blur"/>
      <feFlood flood-opacity="0.161"/>
      <feComposite operator="in" in2="blur"/>
      <feComposite in="SourceGraphic"/>
    </filter>
    <filter id="Polygon_2" x="24" y="63" width="34" height="31" filterUnits="userSpaceOnUse">
      <feOffset dy="3" input="SourceAlpha"/>
      <feGaussianBlur stdDeviation="3" result="blur-2"/>
      <feFlood flood-opacity="0.161"/>
      <feComposite operator="in" in2="blur-2"/>
      <feComposite in="SourceGraphic"/>
    </filter>
  </defs>
  <g id="icons-2" transform="translate(9 6)">
    <g transform="matrix(1, 0, 0, 1, -9, -6)" filter="url(#Rectangle_340)">
      <rect id="Rectangle_340-2" data-name="Rectangle 340" width="63" height="63" transform="translate(9 6)" fill="#01bbd6"/>
    </g>
    <g transform="matrix(1, 0, 0, 1, -9, -6)" filter="url(#Polygon_2)">
      <path id="Polygon_2-2" data-name="Polygon 2" d="M8,0l8,13H0Z" transform="translate(49 82) rotate(180)" fill="#01bbd6"/>
    </g>
    <g id="Group_149" data-name="Group 149" transform="translate(-354.481 -137.834)">
      <g id="Group_148" data-name="Group 148" transform="translate(361.811 153.397)">
        <path id="Path_307" data-name="Path 307" d="M421.835,214.7c-1.449,2.029-3.018,2.16-6.784.773.044-1.141.406-2.32.034-3.181-.383-.886-1.482-1.462-2.606-2.481-.3-1.64-.761-2.183-2.859-2.873a3.092,3.092,0,0,0-2.047-3.163,2.452,2.452,0,0,0-3.061,1.195,8.166,8.166,0,0,0-2.256-1.606,8.254,8.254,0,0,0-2.845.334l-1.695-2.052,6.126-10.879,5.07,1.54c-.363.535-.748,1.078-1.107,1.636a22.035,22.035,0,0,0-1.443,2.337c-.92,1.921-.029,3.122,2.091,2.92a7.355,7.355,0,0,0,4.98-3c1.148-1.37,2.113-1.555,3.7-.744a78.718,78.718,0,0,1,13.883,9.292c1.19.97,1.433,1.847.791,2.746-.6.843-1.679.936-2.886.217-2.19-1.306-4.361-2.644-6.567-3.921a2.943,2.943,0,0,0-1.148-.114c.21.325.345.769.642.955,1.856,1.162,3.749,2.266,5.629,3.391,1.283.768,1.493,1.257.962,2.224a2.072,2.072,0,0,1-2.735.651c-1.605-.883-3.182-1.819-4.77-2.734a3.287,3.287,0,0,0-.83-.462,4.071,4.071,0,0,0-1.036.03c.168.27.272.645.515.792,1.635.99,3.313,1.911,4.945,2.905.352.214.879.794.805.939a3.167,3.167,0,0,1-1.26,1.53,2.88,2.88,0,0,1-1.937-.213c-1.287-.524-2.5-1.238-3.775-1.784a4.615,4.615,0,0,0-1.455-.118,4.731,4.731,0,0,0,.976.975C419.172,213.449,420.5,214.055,421.835,214.7Z" transform="translate(-392.202 -185.728)" fill="#fff"/>
        <path id="Path_308" data-name="Path 308" d="M465.361,197.845c-1,.894-1.815,2.078-2.921,2.5-1.361.515-2.081-1.112-3.042-1.808a85.437,85.437,0,0,0-12.2-7.719,3.415,3.415,0,0,0-4.194.928,7.1,7.1,0,0,1-4.11,2.9,6.006,6.006,0,0,1-1.6-.106,4.682,4.682,0,0,1,.31-1.657c1.129-1.781,2.316-3.531,3.592-5.209a2.927,2.927,0,0,1,1.629-.859,26.166,26.166,0,0,1,12.654.3,4.979,4.979,0,0,0,2.587.08c1.044-.312,1.38.106,1.812.891C461.671,191.36,463.531,194.6,465.361,197.845Z" transform="translate(-422.298 -182.238)" fill="#fff"/>
        <path id="Path_309" data-name="Path 309" d="M382.563,169.724c1.25.768,2.408,1.444,3.514,2.2a.924.924,0,0,1,.159.881c-2.546,4.58-5.127,9.139-7.793,13.864-1.252-.767-2.436-1.463-3.576-2.224a.848.848,0,0,1-.131-.807C377.3,179.027,379.9,174.437,382.563,169.724Z" transform="translate(-374.687 -169.724)" fill="#fff"/>
        <path id="Path_310" data-name="Path 310" d="M533.472,169.78c2.377,4.21,4.662,8.253,6.943,12.3,1.217,2.158,1.214,2.16-.934,3.471-.574.35-1.149.7-1.83,1.11-.221-.329-.43-.6-.6-.894-2.347-4.152-4.662-8.321-7.05-12.448-.511-.883-.354-1.311.5-1.755C531.477,171.051,532.4,170.43,533.472,169.78Z" transform="translate(-492.594 -169.767)" fill="#fff"/>
        <path id="Path_311" data-name="Path 311" d="M418.516,256.356c-.467-.36-1.106-.638-1.373-1.121a1.9,1.9,0,0,1-.046-1.631c.979-1.535,2.094-2.987,3.2-4.441a1.332,1.332,0,0,1,2.009-.2,1.606,1.606,0,0,1,.609,2.284c-1.012,1.562-2.167,3.034-3.3,4.511C419.413,256.007,419.01,256.094,418.516,256.356Z" transform="translate(-406.818 -229.715)" fill="#fff"/>
        <path id="Path_312" data-name="Path 312" d="M437.265,265.127a7.627,7.627,0,0,1-.52,1.2c-.728,1.045-1.49,2.066-2.242,3.1a1.345,1.345,0,0,1-2.069.378c-.736-.522-1.258-1.285-.727-2.145a30.043,30.043,0,0,1,2.747-3.75,1.555,1.555,0,0,1,1.476-.2A5.977,5.977,0,0,1,437.265,265.127Z" transform="translate(-417.89 -241.128)" fill="#fff"/>
        <path id="Path_313" data-name="Path 313" d="M450.895,277.175c.353.274,1.011.55,1.243,1.032a2.3,2.3,0,0,1-.019,1.739,11.613,11.613,0,0,1-1.44,2.026,1.319,1.319,0,0,1-1.882.4c-.746-.428-1.335-1.161-.95-1.946a18.572,18.572,0,0,1,2.106-2.982C450.067,277.3,450.391,277.31,450.895,277.175Z" transform="translate(-430.238 -251.448)" fill="#fff"/>
        <path id="Path_314" data-name="Path 314" d="M409.347,248.732a16.881,16.881,0,0,1-2.356,2.546c-.284.206-1.354-.228-1.687-.66a2.584,2.584,0,0,1-.2-1.848c.087-.459.563-.846.873-1.259.456-.608,1.084-.962,1.748-.509A11.5,11.5,0,0,1,409.347,248.732Z" transform="translate(-397.764 -228.343)" fill="#fff"/>
      </g>
    </g>
  </g>
</svg>
