<svg xmlns="http://www.w3.org/2000/svg" xmlns:xlink="http://www.w3.org/1999/xlink" width="81" height="94" viewBox="0 0 81 94">
  <defs>
    <filter id="Rectangle_340" x="0" y="0" width="81" height="81" filterUnits="userSpaceOnUse">
      <feOffset dy="3" input="SourceAlpha"/>
      <feGaussianBlur stdDeviation="3" result="blur"/>
      <feFlood flood-opacity="0.161"/>
      <feComposite operator="in" in2="blur"/>
      <feComposite in="SourceGraphic"/>
    </filter>
    <filter id="Polygon_2" x="24" y="63" width="34" height="31" filterUnits="userSpaceOnUse">
      <feOffset dy="3" input="SourceAlpha"/>
      <feGaussianBlur stdDeviation="3" result="blur-2"/>
      <feFlood flood-opacity="0.161"/>
      <feComposite operator="in" in2="blur-2"/>
      <feComposite in="SourceGraphic"/>
    </filter>
  </defs>
  <g id="Group_96" data-name="Group 96" transform="translate(-527 -3966)">
    <g transform="matrix(1, 0, 0, 1, 527, 3966)" filter="url(#Rectangle_340)">
      <rect id="Rectangle_340-2" data-name="Rectangle 340" width="63" height="63" transform="translate(9 6)" fill="#01bbd6"/>
    </g>
    <g transform="matrix(1, 0, 0, 1, 527, 3966)" filter="url(#Polygon_2)">
      <path id="Polygon_2-2" data-name="Polygon 2" d="M8,0l8,13H0Z" transform="translate(49 82) rotate(180)" fill="#01bbd6"/>
    </g>
    <g id="sEpcOl" transform="translate(291.756 3950.861)">
      <g id="Group_155" data-name="Group 155" transform="translate(254.244 31.139)">
        <g id="Group_154" data-name="Group 154" transform="translate(0)">
          <path id="Path_337" data-name="Path 337" d="M298.7,65.6q3.174,0,6.347,0a3.423,3.423,0,0,1,2.486,1.021c1.807,1.792,3.6,3.6,5.4,5.4q2.564,2.564,5.131,5.126c1.957,1.957,3.927,3.9,5.863,5.879a3.58,3.58,0,0,1-.037,5.012c-1.806,1.827-3.631,3.637-5.448,5.454q-3.442,3.443-6.881,6.89a4.254,4.254,0,0,1-2.054,1.315,3.516,3.516,0,0,1-3.423-.945c-1.954-1.927-3.885-3.877-5.826-5.818l-8-8c-.838-.838-1.685-1.668-2.513-2.516a3.473,3.473,0,0,1-1.03-2.507q0-6.313,0-12.626a3.587,3.587,0,0,1,2.629-3.552,3.76,3.76,0,0,1,1.009-.13c2.116-.011,4.232-.006,6.347-.006Zm9.958,18.945c-.4-.395-.78-.739-1.13-1.108a4.532,4.532,0,1,0-6.674,6.129q3.794,3.8,7.6,7.6c.055.055.114.106.179.167.067-.062.126-.112.181-.167q3.755-3.755,7.507-7.513a4.4,4.4,0,0,0,1.281-4.031,4.478,4.478,0,0,0-4.282-3.725,4.387,4.387,0,0,0-3.391,1.353C309.5,83.669,309.081,84.1,308.657,84.54Zm-10.9-12.625a2.709,2.709,0,1,0-2.69,2.721A2.691,2.691,0,0,0,297.752,71.915Z" transform="translate(-285.089 -61.969)" fill="#fff"/>
        </g>
      </g>
    </g>
  </g>
</svg>
