<svg xmlns="http://www.w3.org/2000/svg" xmlns:xlink="http://www.w3.org/1999/xlink" width="422" height="263.5" viewBox="0 0 422 263.5">
  <defs>
    <filter id="Rectangle_340" x="341" y="0" width="81" height="81" filterUnits="userSpaceOnUse">
      <feOffset dy="3" input="SourceAlpha"/>
      <feGaussianBlur stdDeviation="3" result="blur"/>
      <feFlood flood-opacity="0.161"/>
      <feComposite operator="in" in2="blur"/>
      <feComposite in="SourceGraphic"/>
    </filter>
    <filter id="Path_551" x="365" y="63" width="34" height="31" filterUnits="userSpaceOnUse">
      <feOffset dy="3" input="SourceAlpha"/>
      <feGaussianBlur stdDeviation="3" result="blur-2"/>
      <feFlood flood-opacity="0.161"/>
      <feComposite operator="in" in2="blur-2"/>
      <feComposite in="SourceGraphic"/>
    </filter>
  </defs>
  <g id="Group_103" data-name="Group 103" transform="translate(350 6)">
    <g transform="matrix(1, 0, 0, 1, -350, -6)" filter="url(#Rectangle_340)">
      <rect id="Rectangle_340-2" data-name="Rectangle 340" width="63" height="63" transform="translate(350 6)" fill="#01bbd6"/>
    </g>
    <g transform="matrix(1, 0, 0, 1, -350, -6)" filter="url(#Path_551)">
      <path id="Path_551-2" data-name="Path 551" d="M8,0l8,13H0Z" transform="translate(390 82) rotate(180)" fill="#01bbd6"/>
    </g>
    <g id="YyxOH8.tif" transform="translate(-363.48 -133.834)">
      <g id="Group_151" data-name="Group 151" transform="translate(375.484 144.065)">
        <g id="Group_150" data-name="Group 150" transform="translate(0.018 0)">
          <path id="Path_316" data-name="Path 316" d="M371.564,213.179c1.382-.8,2.563-1.873,3.875-2.765.429-.292.165-.522.017-.772-.768-1.291-1.545-2.577-2.362-3.938,1.611-.411,3.143-.8,4.673-1.192a.614.614,0,0,1,.769.353,5.582,5.582,0,0,0,.626.938.839.839,0,0,1,.079,1.081,13.732,13.732,0,1,0,25.779,7.994,13.9,13.9,0,0,0-1.286-7.575,1.143,1.143,0,0,1,.107-1.342c1.054-1.48,1.039-1.493,2.81-1.04.969.248,1.937.5,3.011.783-.783,1.313-1.515,2.612-2.324,3.861-.324.5-.224.722.219,1.034,1.2.848,2.373,1.744,3.628,2.674-1.265.941-2.454,1.858-3.68,2.722-.435.306-.45.532-.177.963.786,1.243,1.522,2.518,2.338,3.88-1.5.387-2.927.768-4.36,1.114-.476.115-.727.182-.6.832.3,1.462.438,2.956.65,4.5-1.522-.234-2.942-.442-4.357-.676-.544-.09-.849-.021-.976.633-.237,1.225-.654,2.416-.888,3.642-.14.736-.374.6-.839.306-1.089-.681-2.2-1.323-3.309-1.975-.228-.134-.463-.391-.716-.025A43.184,43.184,0,0,0,391.571,233h-.377c-.7-1.3-1.713-2.375-2.533-3.588-.289-.428-.527-.472-.969-.187-1.1.713-2.253,1.356-3.37,2.052-.408.254-.567.211-.678-.286-.273-1.219-.678-2.412-.884-3.64-.137-.817-.512-.835-1.162-.719-1.2.213-2.427.309-3.621.556-.658.136-.578-.169-.519-.571.193-1.3.348-2.609.594-3.9.094-.492.017-.62-.476-.731-1.477-.334-2.936-.748-4.479-1.151.816-1.358,1.591-2.644,2.359-3.934.149-.25.407-.479-.019-.771-1.308-.9-2.506-1.949-3.874-2.763Z" transform="translate(-371.564 -192.447)" fill="#fff"/>
          <path id="Path_318" data-name="Path 318" d="M439.041,142.787c-1.812,2.717-3.612,5.443-5.439,8.15q-6.516,9.65-13.049,19.289c-.3.443-.471.8-.921.072q-6.135-9.95-12.317-19.871a2.471,2.471,0,0,1-.148-.342l.163-.162c1.589,1.561,3.185,3.114,4.764,4.684,2.382,2.369,4.771,4.732,7.114,7.139.538.552.827.6,1.381.011q8.056-8.512,16.166-16.973c.693-.725,1.411-1.427,2.117-2.139Z" transform="translate(-400.41 -142.346)" fill="#fff"/>
          <path id="Path_319" data-name="Path 319" d="M412.944,222.6a2.628,2.628,0,0,1,.706,2.813,10.477,10.477,0,1,0,20.37.3,2.543,2.543,0,0,1,.761-2.807c2.183,3.726,1.6,10.15-2.688,13.993a12.076,12.076,0,0,1-16.648-.05C411.11,232.891,410.631,226.469,412.944,222.6Z" transform="translate(-403.981 -207.127)" fill="#fff"/>
          <path id="Path_320" data-name="Path 320" d="M431.883,148.71c.143.087.3.185.463.281,1.074.643,2.167,1.258,3.216,1.941.489.319.731.215,1.04-.228.753-1.081,1.566-2.12,2.331-3.192.257-.36.407-.37.669,0,.744,1.048,1.547,2.055,2.274,3.115.349.51.63.628,1.181.262.99-.657,2.047-1.213,3.048-1.855.526-.338.811-.506.941.347a18.662,18.662,0,0,0,.75,3,1.01,1.01,0,0,1-.354,1.3,1.6,1.6,0,0,0-.308.355,1.391,1.391,0,0,1-2.07.478,13.115,13.115,0,0,0-12.27.3c-.45.233-.648.136-1-.168a2.363,2.363,0,0,1-.856-3.086,13.815,13.815,0,0,0,.615-2.448C431.6,148.936,431.593,148.721,431.883,148.71Z" transform="translate(-419.451 -146.067)" fill="#fff"/>
          <path id="Path_321" data-name="Path 321" d="M451.168,186.61a11.784,11.784,0,0,1,5.264,1.163c.4.183.511.3.164.712a1.32,1.32,0,0,1-1.8.474,10.05,10.05,0,0,0-7.684.127,1.491,1.491,0,0,1-1.748-.8c-.1-.395.282-.374.459-.462A11.38,11.38,0,0,1,451.168,186.61Z" transform="translate(-431.346 -177.963)" fill="#fff"/>
          <path id="Path_322" data-name="Path 322" d="M406.18,179.507l.283.282-.162.162-.2-.359Z" transform="translate(-399.543 -172.211)" fill="#fff"/>
          <path id="Path_323" data-name="Path 323" d="M575.226,141.181c.04-.078.1-.162.184-.087.025.021-.033.14-.052.214Q575.293,141.244,575.226,141.181Z" transform="translate(-536.572 -141.065)" fill="#fff"/>
          <path id="Path_324" data-name="Path 324" d="M574.538,141.8l-.155.2-.169-.141.192-.184Q574.473,141.74,574.538,141.8Z" transform="translate(-535.752 -141.561)" fill="#fff"/>
          <path id="Path_325" data-name="Path 325" d="M405.753,179.146l-.081-.188.163.1Z" transform="translate(-399.199 -171.766)" fill="#fff"/>
        </g>
      </g>
    </g>
    <line id="Line_149" data-name="Line 149" y1="48" transform="translate(-349.5 209.5)" fill="none" stroke="#707070" stroke-width="1"/>
  </g>
</svg>
