<svg xmlns="http://www.w3.org/2000/svg" width="28.113" height="28.165" viewBox="0 0 28.113 28.165">
  <path id="Icon_feather-phone" data-name="Icon feather-phone" d="M29.278,22.588v3.939a2.626,2.626,0,0,1-2.862,2.626,25.981,25.981,0,0,1-11.33-4.03,25.6,25.6,0,0,1-7.877-7.877A25.982,25.982,0,0,1,3.178,5.862,2.626,2.626,0,0,1,5.791,3H9.73a2.626,2.626,0,0,1,2.626,2.258,16.857,16.857,0,0,0,.919,3.689,2.626,2.626,0,0,1-.591,2.77l-1.667,1.667a21.006,21.006,0,0,0,7.877,7.877l1.667-1.667A2.626,2.626,0,0,1,23.331,19a16.857,16.857,0,0,0,3.689.919,2.626,2.626,0,0,1,2.258,2.665Z" transform="translate(-2.167 -2)" fill="none" stroke="#868686" stroke-linecap="round" stroke-linejoin="round" stroke-width="2"/>
</svg>
