<svg xmlns="http://www.w3.org/2000/svg" width="220" height="220" viewBox="0 0 220 220">
  <g id="Group_133" data-name="Group 133" transform="translate(-108 -4577)">
    <g id="BPZetw.tif" transform="translate(37.735 4439.265)">
      <g id="Group_126" data-name="Group 126" transform="translate(128.908 172.841)">
        <g id="Group_125" data-name="Group 125">
          <path id="Path_234" data-name="Path 234" d="M150.89,301.968c-.526.487-.893.8-1.23,1.141-4.079,4.146-8.175,8.277-12.216,12.46-.989,1.023-1.993,1.6-3.319.819-1.342-.794-1.245-2.02-.867-3.332q7.346-25.5,14.666-51.008c.041-.144.067-.292.1-.436a19.361,19.361,0,0,1-2.713-1.242,5.843,5.843,0,0,1-2.7-4.988c-.051-1.668-.156-3.337-.146-5a1.646,1.646,0,0,0-1.331-1.842c-1.535-.483-3.026-1.117-4.515-1.736a6.3,6.3,0,0,1-3.616-8.23c.69-1.9,1.5-3.751,2.1-5.671a2.246,2.246,0,0,0-.379-1.816c-1.2-1.428-2.57-2.717-3.851-4.081-2.7-2.87-2.619-6.414.191-9.147.906-.881,1.8-1.778,2.778-2.58a1.276,1.276,0,0,0,.346-1.818c-.592-1.224-1.1-2.491-1.6-3.757a6.217,6.217,0,0,1,3.071-8.065c1.534-.765,3.1-1.474,4.7-2.088.981-.377,1.468-.855,1.339-1.977-.156-1.353-.146-2.725-.22-4.088a6.3,6.3,0,0,1,5.67-6.833c1.957-.222,3.927-.409,5.893-.442,1.078-.018,1.46-.5,1.768-1.4.5-1.479,1.114-2.921,1.7-4.369a6.107,6.107,0,0,1,8.019-3.689c1.86.636,3.7,1.331,5.509,2.106a1.654,1.654,0,0,0,2.12-.454c1.2-1.232,2.473-2.389,3.721-3.572a6.564,6.564,0,0,1,9.6.207c.912.947,1.758,1.966,2.74,2.833a1.811,1.811,0,0,0,1.5.306c1.669-.553,3.25-1.4,4.939-1.863a5.982,5.982,0,0,1,7.239,3.481,47.236,47.236,0,0,1,1.931,4.438c.38,1.115,1.008,1.295,2.042,1.2a46.933,46.933,0,0,1,4.7-.2,6.327,6.327,0,0,1,6.375,6.323c.05,1.769.111,3.542.293,5.3a1.841,1.841,0,0,0,.89,1.269c1.51.69,3.1,1.205,4.641,1.83a6.3,6.3,0,0,1,3.752,8.519c-.694,1.84-1.449,3.661-2.044,5.532a2.05,2.05,0,0,0,.337,1.673c1.317,1.531,2.765,2.95,4.154,4.421a5.683,5.683,0,0,1-.218,8.261c-1.311,1.256-2.645,2.487-3.991,3.749.679,1.608,1.343,3.13,1.968,4.667a6.214,6.214,0,0,1-3.428,8.511c-1.518.682-3.072,1.293-4.547,2.059a1.805,1.805,0,0,0-.819,1.307c-.041,1.411.133,2.827.173,4.242.122,4.276-2.17,6.809-6.458,7.172-.2.017-.392.046-.775.091.946,3.384,1.861,6.705,2.8,10.019q6.119,21.526,12.25,43.049c.359,1.262.371,2.483-.942,3.179-1.248.661-2.289.159-3.237-.813-4.024-4.129-8.09-8.218-12.121-12.339a9.7,9.7,0,0,1-.949-1.364l-.457.264q-1.556,6.961-3.112,13.922c-.352,1.575-.7,3.151-1.05,4.725-.267,1.195-.662,2.264-2.18,2.264a2.452,2.452,0,0,1-2.522-2.142c-1.494-5.339-3.03-10.666-4.553-16-3.265-11.433-6.532-22.865-9.865-34.534-3.3,3.714-6.868,4.729-10.963,1.2-1.39,4.829-2.735,9.508-4.083,14.187q-5,17.364-10,34.727c-.056.194-.095.393-.163.582a2.5,2.5,0,0,1-2.409,1.953c-1.365,0-1.929-1-2.2-2.138-.664-2.8-1.256-5.609-1.88-8.414C152.473,309.055,151.707,305.629,150.89,301.968Zm-10.826-86.355a9.054,9.054,0,0,1-1.051,1.64c-1.3,1.341-2.689,2.6-4.036,3.9-1.621,1.565-1.614,2.1.073,3.677,1.623,1.522,3.214,3.084,4.908,4.523a2.991,2.991,0,0,1,.885,3.9c-1.008,2.365-1.894,4.782-2.868,7.163a1.649,1.649,0,0,0,1.086,2.491c2.254.881,4.485,1.821,6.726,2.736a2.447,2.447,0,0,1,1.7,2.421c.041,2.427.165,4.852.246,7.278.053,1.6.5,2.108,2.08,2.083,2.173-.035,4.348-.112,6.517-.252a2.842,2.842,0,0,1,3.121,2.062c.809,2.065,1.7,4.1,2.552,6.147a1.768,1.768,0,0,0,2.667,1.075c1.893-.832,3.834-1.56,5.689-2.467a2.517,2.517,0,0,1,3.257.616c1.378,1.411,2.817,2.763,4.164,4.2.991,1.059,1.863.973,2.84.017,1.806-1.769,3.675-3.477,5.452-5.274a2.833,2.833,0,0,1,3.3-.722c2.358.892,4.719,1.774,7.065,2.7,1.536.6,2.163.386,2.811-1.166.855-2.048,1.749-4.084,2.486-6.175a3.038,3.038,0,0,1,3.214-2.2c2.275-.016,4.551-.063,6.826-.115a1.681,1.681,0,0,0,1.873-2c-.091-2.223-.052-4.452-.172-6.673a2.753,2.753,0,0,1,1.936-3.036c2.017-.795,4.012-1.646,6-2.5,1.675-.719,1.9-1.3,1.211-2.932-.8-1.9-1.6-3.816-2.435-5.706a2.376,2.376,0,0,1,.616-3q2.28-2.114,4.494-4.3c1.088-1.075,1.069-1.757-.044-2.8-1.807-1.7-3.6-3.413-5.469-5.034a2.885,2.885,0,0,1-.879-3.644c.956-2.333,1.892-4.674,2.825-7.016.655-1.644.406-2.233-1.249-2.927-2.139-.9-4.277-1.8-6.435-2.65a2.4,2.4,0,0,1-1.7-2.4c-.053-2.376-.174-4.751-.244-7.127-.056-1.873-.479-2.273-2.389-2.218-2.123.061-4.249.055-6.368.176a2.64,2.64,0,0,1-2.9-1.891c-.758-1.924-1.58-3.822-2.38-5.729-.829-1.976-1.431-2.23-3.352-1.412-1.81.77-3.627,1.523-5.419,2.332a2.37,2.37,0,0,1-3-.6c-1.346-1.442-2.718-2.859-4.086-4.279-1.256-1.3-1.869-1.334-3.157-.106-1.684,1.605-3.394,3.188-5,4.867a3.166,3.166,0,0,1-4.067.81c-2.1-.974-4.283-1.778-6.429-2.658-1.847-.758-2.316-.554-3.071,1.352-.78,1.969-1.659,3.906-2.307,5.918a3.049,3.049,0,0,1-3.375,2.351c-2.171-.024-4.345.139-6.518.223-1.485.057-2.084.643-2.081,2.142q.006,2.958.1,5.916c.093,2.819-.018,3.02-2.562,4.09-1.859.782-3.722,1.558-5.573,2.359a1.754,1.754,0,0,0-1.041,2.671c.841,1.833,1.61,3.7,2.393,5.559C139.715,214.447,139.841,214.936,140.064,215.613Zm.627,90.828.478.265a14.863,14.863,0,0,1,1.021-1.3c2.821-2.9,5.636-5.8,8.5-8.662,1.775-1.773,3.692-1.216,4.25,1.195.364,1.571.658,3.157,1,4.734q.955,4.417,1.929,8.831l.321-.006L170.7,269.2c-1.712.721-3.046,1.318-4.406,1.849a6.188,6.188,0,0,1-8.044-3.147c-.684-1.4-1.3-2.846-1.905-4.284-.379-.9-.645-1.69-1.969-1.626-1.343.065-1.215,1.057-1.424,1.774q-4.726,16.256-9.382,32.532C142.6,299.679,141.651,303.061,140.691,306.441Zm48.432-38.6,12.545,43.68c1.279-4.569,2.221-9.055,3.167-13.54a2.628,2.628,0,0,1,1.822-2.364c1.18-.331,1.913.291,2.643,1.039,1.73,1.773,3.45,3.557,5.216,5.293,1.491,1.466,3.042,2.871,4.691,4.42l-13.046-45.416-.471-.018a12.091,12.091,0,0,0-.569,1.1c-.6,1.5-1.16,3.01-1.763,4.505A6.1,6.1,0,0,1,195,270.194C193.166,269.492,191.356,268.739,189.123,267.843Z" transform="translate(-128.908 -172.841)" fill="#049aaf"/>
          <path id="Path_238" data-name="Path 238" d="M221.255,296.822a33.071,33.071,0,1,1,32.92-32.868A33.225,33.225,0,0,1,221.255,296.822Zm.047-61.4c-15.113-.141-28.086,12.69-28.405,27.731a28.619,28.619,0,0,0,28.114,29.07c15.117.175,28.168-12.779,28.475-27.869C249.808,248.5,236.608,235.284,221.3,235.424Z" transform="translate(-170.184 -213.099)" fill="#049aaf"/>
          <path id="Path_240" data-name="Path 240" d="M228.859,308.532c.653-3.763,1.276-7.6,2-11.412a3.129,3.129,0,0,0-1.016-3.307c-2.763-2.521-5.434-5.15-8.019-7.853a3.052,3.052,0,0,1-.779-2.479,2.987,2.987,0,0,1,2.038-1.622c3.727-.644,7.485-1.113,11.241-1.569a2.647,2.647,0,0,0,2.39-1.667c1.562-3.39,3.275-6.711,4.881-10.082a2.658,2.658,0,0,1,2.352-1.845,2.592,2.592,0,0,1,2.43,1.728c1.787,3.451,3.663,6.858,5.41,10.329a2.424,2.424,0,0,0,2.044,1.5c3.8.495,7.614.949,11.391,1.6a3.274,3.274,0,0,1,2.226,1.612,3.011,3.011,0,0,1-.814,2.486c-2.7,2.808-5.512,5.5-8.327,8.192a2.249,2.249,0,0,0-.789,2.358q1.14,5.866,1.957,11.791a2.808,2.808,0,0,1-.88,2.3,3.113,3.113,0,0,1-2.625.226c-3.641-1.738-7.174-3.7-10.788-5.5a2.433,2.433,0,0,0-1.9.006c-3.572,1.77-7.083,3.66-10.637,5.467C230.7,311.779,228.757,310.625,228.859,308.532Zm4.966-3.887c2.843-1.458,5.452-2.754,8.02-4.129a3.721,3.721,0,0,1,3.853,0c2.59,1.4,5.246,2.688,8.074,4.122-.3-1.835-.585-3.415-.81-5-.96-6.784-1.812-4.982,2.949-9.912,1.207-1.25,2.409-2.506,3.759-3.911-3.3-.462-6.283-.981-9.286-1.256a3.218,3.218,0,0,1-2.972-2.107c-1.193-2.633-2.5-5.212-3.858-8.008-1.394,2.856-2.685,5.475-3.953,8.107a3.269,3.269,0,0,1-2.8,1.98c-3.03.353-6.047.824-9.284,1.276.485.508.813.872,1.162,1.213q2.819,2.754,5.649,5.5a2.934,2.934,0,0,1,.953,2.967C234.7,298.428,234.324,301.417,233.825,304.645Z" transform="translate(-193 -238.165)" fill="#049aaf"/>
        </g>
      </g>
    </g>
    <g id="Ellipse_40" data-name="Ellipse 40" transform="translate(108 4577)" fill="none" stroke="#049aaf" stroke-width="5">
      <circle cx="110" cy="110" r="110" stroke="none"/>
      <circle cx="110" cy="110" r="107.5" fill="none"/>
    </g>
  </g>
</svg>
