<svg xmlns="http://www.w3.org/2000/svg" width="220" height="220" viewBox="0 0 220 220">
  <g id="Group_132" data-name="Group 132" transform="translate(-360 -4567)">
    <g id="Group_130" data-name="Group 130" transform="translate(303.42 4196.365)">
      <g id="Group_129" data-name="Group 129" transform="translate(102.376 416.678)">
        <path id="Path_253" data-name="Path 253" d="M271.363,515.112c.364,9.312.631,19.577-5.266,28.541a45.591,45.591,0,0,1-8.806,10.213c-6.885,5.654-14.164,10.847-21.475,15.954-4.76,3.324-10.332,3.677-14.975.361-8.963-6.4-17.9-12.968-25.991-20.407-7.438-6.843-10.091-16.282-10.049-26.376q.043-10.677.065-21.353a13.6,13.6,0,0,1,7.454-12.591c9.351-5.266,18.653-10.622,28.012-15.873,5.115-2.871,10.2-3.121,15.471-.018q13.484,7.934,27.225,15.426c5.643,3.061,8.448,7.514,8.346,13.9C271.314,506.669,271.363,510.454,271.363,515.112Zm-42.178,44.58a37.4,37.4,0,0,0,36.458-39.869c-1.256-20.964-19.676-36.453-40.885-34.917-19.837,1.436-36.008,20.456-34.254,40.288S210.348,561.173,229.185,559.691Z" transform="translate(-143.701 -444.079)" fill="#049aaf"/>
        <path id="Path_254" data-name="Path 254" d="M193.283,417.071v22.343c-3.754-.506-5.669-2.17-5.389-6.165.244-3.457.051-6.946.051-10.858H131.537c-1.44,13.718-9.3,21.749-23.582,23.449v78H126.2c5.446,0,10.915.307,16.331-.1,4.4-.33,7.481,1.108,9.878,5.113H102.432c0-9.074,0-18.249,0-27.424,0-18.473.089-36.946-.056-55.418a9.734,9.734,0,0,1,3.224-7.934c6.265-5.93,12.1-12.32,18.416-18.19a11.6,11.6,0,0,1,7.018-3.055c18.912-.24,37.829-.133,56.744-.1C189.554,416.731,191.33,416.944,193.283,417.071Z" transform="translate(-102.376 -416.678)" fill="#049aaf"/>
        <path id="Path_255" data-name="Path 255" d="M102.762,657.582v-7.529c2.252-.306,4.529-1.647,5.664,1.962.183.583,2.4.727,3.679.732,15.426.069,30.856-.1,46.274.25,3.028.07,6.011,2.11,9.015,3.242l-.514,1.344Z" transform="translate(-102.569 -533.437)" fill="#049aaf"/>
        <path id="Path_256" data-name="Path 256" d="M191.715,446.362c4.82,0,9.652-.183,14.453.118,1.337.084,2.584,1.6,3.873,2.46-1.17.844-2.325,2.4-3.511,2.419-9.791.2-19.59.215-29.379,0-1.57-.034-3.108-1.5-4.661-2.309,1.59-.932,3.128-2.543,4.778-2.668,4.792-.362,9.628-.129,14.448-.129Z" transform="translate(-137.529 -431.468)" fill="#049aaf"/>
        <path id="Path_257" data-name="Path 257" d="M300.484,417.42v29.126c-4.063-.605-5.711-2.615-5.3-6.717a65.2,65.2,0,0,0,.024-10.439c-.167-2.709,1.209-5.987-2.569-7.733-.576-.266-.234-2.522-.34-4.237Z" transform="translate(-197.594 -417.05)" fill="#049aaf"/>
        <path id="Path_258" data-name="Path 258" d="M186.5,472.4c3.635,0,7.286-.189,10.894.118,1.14.1,2.166,1.537,3.244,2.363-1.14.94-2.251,2.65-3.424,2.693-6.8.245-13.62.27-20.413-.055-1.425-.068-2.765-1.913-4.144-2.939,1.433-.728,2.816-1.932,4.308-2.085A92.044,92.044,0,0,1,186.5,472.4Z" transform="translate(-137.614 -444.574)" fill="#049aaf"/>
        <path id="Path_259" data-name="Path 259" d="M150.353,503.5a66.488,66.488,0,0,1-8.11-.113c-.983-.121-2.677-1.784-2.527-2.3.337-1.156,1.59-2.847,2.537-2.891,5.4-.252,10.833-.206,16.239.05.989.047,1.911,1.528,2.864,2.347-.96,1-1.811,2.678-2.9,2.851a52.148,52.148,0,0,1-8.1.136Z" transform="translate(-121.093 -457.465)" fill="#049aaf"/>
        <path id="Path_260" data-name="Path 260" d="M148.52,529.442a36.414,36.414,0,0,1-6.325-.1c-1.045-.183-2.584-1.422-2.645-2.274-.064-.893,1.32-2.657,2.166-2.718a102.8,102.8,0,0,1,13.093-.113c.934.052,1.78,1.678,2.667,2.579-1.022.873-1.932,2.243-3.091,2.506C152.517,529.745,150.483,529.436,148.52,529.442Z" transform="translate(-121.013 -470.527)" fill="#049aaf"/>
        <path id="Path_261" data-name="Path 261" d="M148.326,576.251c1.953,0,3.972-.3,5.834.11,1.171.258,2.107,1.584,3.148,2.431-.991.866-1.931,2.4-2.982,2.48a82.91,82.91,0,0,1-12.136.026c-1-.072-1.893-1.681-2.835-2.584,1.037-.828,1.973-2.127,3.134-2.376a28.321,28.321,0,0,1,5.835-.107Z" transform="translate(-120.917 -496.621)" fill="#049aaf"/>
        <path id="Path_262" data-name="Path 262" d="M147.963,607.457a31.211,31.211,0,0,1-5.871-.095c-1.081-.207-1.968-1.429-2.942-2.194.873-1.04,1.679-2.9,2.629-2.979a81.04,81.04,0,0,1,12.66-.04c1,.076,1.876,1.9,2.809,2.922-.98.793-1.872,2.079-2.959,2.274A36.853,36.853,0,0,1,147.963,607.457Z" transform="translate(-120.813 -509.554)" fill="#049aaf"/>
        <path id="Path_263" data-name="Path 263" d="M147.755,555.652a27.754,27.754,0,0,1-5.863-.119c-1-.22-1.733-1.657-2.586-2.546.89-.79,1.744-2.211,2.676-2.264a107.982,107.982,0,0,1,12.679.028c.906.056,1.727,1.515,2.588,2.328-.9.839-1.706,2.233-2.717,2.4a41.448,41.448,0,0,1-6.776.114Z" transform="translate(-120.892 -483.799)" fill="#049aaf"/>
        <path id="Path_265" data-name="Path 265" d="M220.583,546.815l12.492,14.417,30.968-32.746,9.2,7.931L233.555,576.41c-4.893-4.8-9.7-9.513-14.507-14.236-.43-.423-.777-.928-1.2-1.361C211.157,553.926,211.292,552.876,220.583,546.815Z" transform="translate(-157.927 -472.735)" fill="#049aaf"/>
      </g>
    </g>
    <g id="Ellipse_41" data-name="Ellipse 41" transform="translate(360 4567)" fill="none" stroke="#049aaf" stroke-width="5">
      <circle cx="110" cy="110" r="110" stroke="none"/>
      <circle cx="110" cy="110" r="107.5" fill="none"/>
    </g>
  </g>
</svg>
