<svg id="Group_135" data-name="Group 135" xmlns="http://www.w3.org/2000/svg" width="56" height="56" viewBox="0 0 56 56">
  <rect id="Rectangle_347" data-name="Rectangle 347" width="56" height="56" rx="7" fill="#049aaf"/>
  <path id="Icon_zocial-email" data-name="Icon zocial-email" d="M.072,27.1V6.306q0-.036.108-.686L12.42,16.091.216,27.825A3.06,3.06,0,0,1,.072,27.1ZM1.7,4.176a1.556,1.556,0,0,1,.614-.108H35.274a2.044,2.044,0,0,1,.65.108L23.648,14.683l-1.625,1.3L18.81,18.618,15.6,15.983l-1.625-1.3Zm.036,25.057L14.044,17.427,18.81,21.29l4.766-3.863L35.888,29.233a1.734,1.734,0,0,1-.614.108H2.31a1.635,1.635,0,0,1-.578-.108ZM25.2,16.091,37.4,5.621a2.155,2.155,0,0,1,.108.686V27.1a2.767,2.767,0,0,1-.108.722Z" transform="translate(9.542 11.125)" fill="#fff"/>
</svg>
