<svg xmlns="http://www.w3.org/2000/svg" width="56" height="56" viewBox="0 0 56 56">
  <g id="Group_136" data-name="Group 136" transform="translate(0.126)">
    <rect id="Rectangle_348" data-name="Rectangle 348" width="56" height="56" rx="7" transform="translate(-0.126)" fill="#049aaf"/>
    <path id="Icon_simple-wechat" data-name="Icon simple-wechat" d="M45.68,23.837a12.833,12.833,0,0,0-6-6.114,16.517,16.517,0,0,0-14.8.058,12.274,12.274,0,0,0-6.557,8.076,10.372,10.372,0,0,0,1.32,7.686,14.171,14.171,0,0,0,9.646,6.3,17.764,17.764,0,0,0,8.418-.553c1.634.633,3.089,1.657,4.673,2.418-.409-1.372-.846-2.728-1.312-4.079a13.19,13.19,0,0,0,4.354-4.81A10.43,10.43,0,0,0,45.68,23.837ZM26.423,5.47A19.628,19.628,0,0,0,10.345,4.218a16.362,16.362,0,0,0-8.433,6.636A12.445,12.445,0,0,0,.361,20.4a14.612,14.612,0,0,0,6.33,8.563c-.582,1.649-1.135,3.3-1.659,4.958,1.892-.99,3.784-2.024,5.678-3.029a21.077,21.077,0,0,0,7.1,1.005,11.95,11.95,0,0,1-.495-5.726,12.15,12.15,0,0,1,3.869-6.9,16.781,16.781,0,0,1,12.605-4.135,14.688,14.688,0,0,0-7.42-9.663h.052Zm3.363,19.382a1.91,1.91,0,1,1-2.445-2.466,1.932,1.932,0,0,1,2.445,2.466Zm9.3.179a1.952,1.952,0,0,1-3.058.524,2.906,2.906,0,0,1-.668-1.416,2.148,2.148,0,0,1,1.8-1.853,1.945,1.945,0,0,1,1.892,2.748h.029ZM25.207,12.507a2.807,2.807,0,1,1,0-.023Zm-11.757.473a2.385,2.385,0,1,1-3.107-2.819A2.4,2.4,0,0,1,13.45,12.981Z" transform="translate(4.785 5.492)" fill="#fff"/>
  </g>
</svg>
