<svg id="whell" xmlns="http://www.w3.org/2000/svg" width="67.593" height="67.593" viewBox="0 0 67.593 67.593">
  <g id="Ellipse_19" data-name="Ellipse 19" transform="matrix(0.985, -0.174, 0.174, 0.985, 0, 10.132)" fill="#fff" stroke="#212121" stroke-width="10">
    <circle cx="29.174" cy="29.174" r="29.174" stroke="none"/>
    <circle cx="29.174" cy="29.174" r="24.174" fill="none"/>
  </g>
  <g id="Ellipse_20" data-name="Ellipse 20" transform="matrix(0.985, -0.174, 0.174, 0.985, 29.464, 30.763)" fill="#fff" stroke="#212121" stroke-width="1">
    <circle cx="3.74" cy="3.74" r="3.74" stroke="none"/>
    <circle cx="3.74" cy="3.74" r="3.24" fill="none"/>
  </g>
  <g id="Path_85" data-name="Path 85" transform="matrix(0.545, -0.839, 0.839, 0.545, 32.926, 29.478)" fill="#fff">
    <path d="M 5.971865177154541 3.488256216049194 C 5.53595495223999 3.488256216049194 4.384055137634277 3.372786283493042 3.18797492980957 3.116076231002808 C 2.137002229690552 2.890515327453613 1.556806445121765 2.666724681854248 1.247895479202271 2.511451005935669 C 1.570047974586487 2.296147108078003 2.178784132003784 1.979214072227478 3.221225023269653 1.630486369132996 C 4.506955146789551 1.200376272201538 5.622654914855957 0.9999963045120239 5.971865177154541 0.9999963045120239 C 6.657885074615479 0.9999963045120239 7.215994834899902 1.558106303215027 7.215994834899902 2.244126319885254 C 7.215994834899902 2.930146217346191 6.657885074615479 3.488256216049194 5.971865177154541 3.488256216049194 Z" stroke="none"/>
    <path d="M 5.973151206970215 2 C 5.789326667785645 2.003185272216797 5.186038017272949 2.101763725280762 4.386112213134766 2.321231603622437 C 5.111385345458984 2.435546636581421 5.713885307312012 2.488256454467773 5.971864700317383 2.488256454467773 C 6.106474876403809 2.488256454467773 6.215985298156738 2.378736257553101 6.215985298156738 2.244126319885254 C 6.215985298156738 2.109943628311157 6.107173919677734 2.000692129135132 5.973151206970215 2 M 5.971864700317383 -3.814697265625e-06 C 7.211255073547363 -3.814697265625e-06 8.215985298156738 1.004726409912109 8.215985298156738 2.244126319885254 C 8.215985298156738 3.483526229858398 7.211255073547363 4.488256454467773 5.971864700317383 4.488256454467773 C 4.732464790344238 4.488256454467773 -4.76837158203125e-06 3.799886226654053 -4.76837158203125e-06 2.560486316680908 C -4.76837158203125e-06 1.321096420288086 4.732464790344238 -3.814697265625e-06 5.971864700317383 -3.814697265625e-06 Z" stroke="none" fill="#212121"/>
  </g>
  <g id="Path_88" data-name="Path 88" transform="matrix(0.799, 0.602, -0.602, 0.799, 38.108, 33.463)" fill="#fff">
    <path d="M 5.971865177154541 3.488256216049194 C 5.53595495223999 3.488256216049194 4.384055137634277 3.372786283493042 3.18797492980957 3.116076231002808 C 2.137002229690552 2.890515327453613 1.556806445121765 2.666724681854248 1.247895479202271 2.511451005935669 C 1.570047974586487 2.296147108078003 2.178784132003784 1.979214072227478 3.221225023269653 1.630486369132996 C 4.506955146789551 1.200376272201538 5.622654914855957 0.9999963045120239 5.971865177154541 0.9999963045120239 C 6.657885074615479 0.9999963045120239 7.215994834899902 1.558106303215027 7.215994834899902 2.244126319885254 C 7.215994834899902 2.930146217346191 6.657885074615479 3.488256216049194 5.971865177154541 3.488256216049194 Z" stroke="none"/>
    <path d="M 5.973151206970215 2 C 5.789326667785645 2.003185272216797 5.186038017272949 2.101763725280762 4.386112213134766 2.321231603622437 C 5.111385345458984 2.435546636581421 5.713885307312012 2.488256454467773 5.971864700317383 2.488256454467773 C 6.106474876403809 2.488256454467773 6.215985298156738 2.378736257553101 6.215985298156738 2.244126319885254 C 6.215985298156738 2.109943628311157 6.107173919677734 2.000692129135132 5.973151206970215 2 M 5.971864700317383 -3.814697265625e-06 C 7.211255073547363 -3.814697265625e-06 8.215985298156738 1.004726409912109 8.215985298156738 2.244126319885254 C 8.215985298156738 3.483526229858398 7.211255073547363 4.488256454467773 5.971864700317383 4.488256454467773 C 4.732464790344238 4.488256454467773 -4.76837158203125e-06 3.799886226654053 -4.76837158203125e-06 2.560486316680908 C -4.76837158203125e-06 1.321096420288086 4.732464790344238 -3.814697265625e-06 5.971864700317383 -3.814697265625e-06 Z" stroke="none" fill="#212121"/>
  </g>
  <g id="Path_86" data-name="Path 86" transform="matrix(-0.777, -0.629, 0.629, -0.777, 29.618, 34.51)" fill="#fff">
    <path d="M 5.971865177154541 3.488256216049194 C 5.53595495223999 3.488256216049194 4.384055137634277 3.372786283493042 3.18797492980957 3.116076231002808 C 2.137002229690552 2.890515327453613 1.556806445121765 2.666724681854248 1.247895479202271 2.511451005935669 C 1.570047974586487 2.296147108078003 2.178784132003784 1.979214072227478 3.221225023269653 1.630486369132996 C 4.506955146789551 1.200376272201538 5.622654914855957 0.9999963045120239 5.971865177154541 0.9999963045120239 C 6.657885074615479 0.9999963045120239 7.215994834899902 1.558106303215027 7.215994834899902 2.244126319885254 C 7.215994834899902 2.930146217346191 6.657885074615479 3.488256216049194 5.971865177154541 3.488256216049194 Z" stroke="none"/>
    <path d="M 5.973151206970215 2 C 5.789326667785645 2.003185272216797 5.186038017272949 2.101763725280762 4.386112213134766 2.321231603622437 C 5.111385345458984 2.435546636581421 5.713885307312012 2.488256454467773 5.971864700317383 2.488256454467773 C 6.106474876403809 2.488256454467773 6.215985298156738 2.378736257553101 6.215985298156738 2.244126319885254 C 6.215985298156738 2.109943628311157 6.107173919677734 2.000692129135132 5.973151206970215 2 M 5.971864700317383 -3.814697265625e-06 C 7.211255073547363 -3.814697265625e-06 8.215985298156738 1.004726409912109 8.215985298156738 2.244126319885254 C 8.215985298156738 3.483526229858398 7.211255073547363 4.488256454467773 5.971864700317383 4.488256454467773 C 4.732464790344238 4.488256454467773 -4.76837158203125e-06 3.799886226654053 -4.76837158203125e-06 2.560486316680908 C -4.76837158203125e-06 1.321096420288086 4.732464790344238 -3.814697265625e-06 5.971864700317383 -3.814697265625e-06 Z" stroke="none" fill="#212121"/>
  </g>
  <g id="Path_87" data-name="Path 87" transform="matrix(-0.656, 0.755, -0.755, -0.656, 33.723, 37.528)" fill="#fff">
    <path d="M 5.971865177154541 3.488256216049194 C 5.53595495223999 3.488256216049194 4.384055137634277 3.372786283493042 3.18797492980957 3.116076231002808 C 2.137002229690552 2.890515327453613 1.556806445121765 2.666724681854248 1.247895479202271 2.511451005935669 C 1.570047974586487 2.296147108078003 2.178784132003784 1.979214072227478 3.221225023269653 1.630486369132996 C 4.506955146789551 1.200376272201538 5.622654914855957 0.9999963045120239 5.971865177154541 0.9999963045120239 C 6.657885074615479 0.9999963045120239 7.215994834899902 1.558106303215027 7.215994834899902 2.244126319885254 C 7.215994834899902 2.930146217346191 6.657885074615479 3.488256216049194 5.971865177154541 3.488256216049194 Z" stroke="none"/>
    <path d="M 5.973151206970215 2 C 5.789326667785645 2.003185272216797 5.186038017272949 2.101763725280762 4.386112213134766 2.321231603622437 C 5.111385345458984 2.435546636581421 5.713885307312012 2.488256454467773 5.971864700317383 2.488256454467773 C 6.106474876403809 2.488256454467773 6.215985298156738 2.378736257553101 6.215985298156738 2.244126319885254 C 6.215985298156738 2.109943628311157 6.107173919677734 2.000692129135132 5.973151206970215 2 M 5.971864700317383 -3.814697265625e-06 C 7.211255073547363 -3.814697265625e-06 8.215985298156738 1.004726409912109 8.215985298156738 2.244126319885254 C 8.215985298156738 3.483526229858398 7.211255073547363 4.488256454467773 5.971864700317383 4.488256454467773 C 4.732464790344238 4.488256454467773 -4.76837158203125e-06 3.799886226654053 -4.76837158203125e-06 2.560486316680908 C -4.76837158203125e-06 1.321096420288086 4.732464790344238 -3.814697265625e-06 5.971864700317383 -3.814697265625e-06 Z" stroke="none" fill="#212121"/>
  </g>
  <g id="Ellipse_25" data-name="Ellipse 25" transform="translate(33.048 33.048)" fill="#fff" stroke="#212121" stroke-width="1">
    <circle cx="0.748" cy="0.748" r="0.748" stroke="none"/>
    <circle cx="0.748" cy="0.748" r="0.248" fill="none"/>
  </g>
</svg>
