<svg xmlns="http://www.w3.org/2000/svg" xmlns:xlink="http://www.w3.org/1999/xlink" width="716.241" height="405.38" viewBox="0 0 716.241 405.38">
  <defs>
    <linearGradient id="linear-gradient" x1="0.5" x2="0.5" y2="1" gradientUnits="objectBoundingBox">
      <stop offset="0" stop-color="#01bbd6" stop-opacity="0.404"/>
      <stop offset="1" stop-color="#049aaf"/>
    </linearGradient>
    <linearGradient id="linear-gradient-2" x1="0.016" y1="2.911" x2="0.063" y2="0.563" gradientUnits="objectBoundingBox">
      <stop offset="0" stop-color="#01bbd6"/>
      <stop offset="1" stop-color="#01bbd6" stop-opacity="0.502"/>
    </linearGradient>
  </defs>
  <g id="boxes" transform="translate(-318 -273)">
    <g id="fullbox3" transform="translate(273.24 -37.62)">
      <ellipse id="Ellipse_4" data-name="Ellipse 4" cx="80.5" cy="22" rx="80.5" ry="22" transform="translate(600 672)" opacity="0.997" fill="url(#linear-gradient)"/>
      <g id="box" transform="translate(608.005 615.62)">
        <g id="boxBack" transform="translate(0.293 16.255)">
          <path id="Path_27" data-name="Path 27" d="M-16.027-19.729l55.208-9.2-16.8-8.141L-32.413-27.5Z" transform="translate(32.413 37.072)" fill="#fff" stroke="#01bbd6" stroke-width="2"/>
          <path id="Path_26" data-name="Path 26" d="M33.385-33.952,88.8-24.473l17.171-7.753-55.3-8.967Z" transform="translate(38.04 42.076)" fill="#fff" stroke="#01bbd6" stroke-width="2"/>
          <path id="Path_77" data-name="Path 77" d="M-4479.834,8982.766v-35.813l55.3-9.251,54.951,9.626.9,35.438Z" transform="translate(4496.129 -8929.541)" fill="#fff" stroke="#01bbd6" stroke-width="2"/>
        </g>
        <g id="figure" transform="translate(72.754 -287)" opacity="0">
          <g id="r1" transform="translate(35.836 3.109)">
            <g id="fon">
              <g id="Rectangle_217" data-name="Rectangle 217" transform="translate(0.693 1.549)" fill="#fff" stroke="#fff" stroke-width="2">
                <rect width="15.555" height="30.29" stroke="none"/>
                <rect x="1" y="1" width="13.555" height="28.29" fill="none"/>
              </g>
              <path id="Path_122" data-name="Path 122" d="M0,0V27.985" transform="translate(8.353 2.612)" fill="#fff" stroke="#fff" stroke-width="2"/>
              <g id="Path_75" data-name="Path 75" transform="translate(-13.265 -194.35)" fill="#fff" stroke-linecap="round">
                <path d="M 21.6102180480957 196.0326538085938 L 19.53665161132812 195.697265625 L 21.60629653930664 195.3634643554688 L 23.67986297607422 195.6988525390625 L 21.6102180480957 196.0326538085938 Z" stroke="none"/>
                <path d="M 21.60652732849121 194.3504943847656 L 29.95137786865234 195.7002563476562 L 21.60998725891113 197.0456237792969 L 13.26513671875 195.6958618164062 L 21.60652732849121 194.3504943847656 Z" stroke="none" fill="#fff"/>
              </g>
            </g>
            <g id="Rectangle_217-2" data-name="Rectangle 217" transform="translate(1.103 1.549)" fill="#0a9db2" stroke="#fff" stroke-width="2">
              <rect width="13.917" height="29.472" rx="2" stroke="none"/>
              <rect x="1" y="1" width="11.917" height="27.472" rx="1" fill="none"/>
            </g>
            <path id="Path_122-2" data-name="Path 122" d="M0,0V27.844" transform="translate(8.39 2.608)" fill="#0a9db2" stroke="#fff" stroke-width="2"/>
            <g id="Path_75-2" data-name="Path 75" transform="translate(-12.467 -194.117)" fill="#0a9db2" stroke-linecap="round">
              <path d="M 20.84989166259766 195.787109375 L 19.53662109375 195.5746917724609 L 20.84628486633301 195.3634490966797 L 22.15955543518066 195.5758666992188 L 20.84989166259766 195.787109375 Z" stroke="none"/>
              <path d="M 20.84651374816895 194.3504943847656 L 28.43105316162109 195.5772705078125 L 20.84966278076172 196.8000640869141 L 13.26513290405273 195.5733032226562 L 20.84651374816895 194.3504943847656 Z" stroke="none" fill="#fff"/>
            </g>
          </g>
          <g id="r3" transform="translate(12.73 0)">
            <g id="fon-2" data-name="fon">
              <g id="Rectangle_217-3" data-name="Rectangle 217" transform="translate(0.467 1.793)" fill="#fff" stroke="#fff" stroke-width="2">
                <rect width="15.555" height="33.156" stroke="none"/>
                <rect x="1" y="1" width="13.555" height="31.156" fill="none"/>
              </g>
              <path id="Path_122-3" data-name="Path 122" d="M0,0V31.669" transform="translate(8.353 2.612)" fill="#fff" stroke="#fff" stroke-width="2"/>
              <g id="Path_75-3" data-name="Path 75" transform="translate(-13.265 -194.35)" fill="#fff" stroke-linecap="round">
                <path d="M 21.6102180480957 196.0326538085938 L 19.53665161132812 195.697265625 L 21.60629653930664 195.3634643554688 L 23.67986297607422 195.6988525390625 L 21.6102180480957 196.0326538085938 Z" stroke="none"/>
                <path d="M 21.60652732849121 194.3504943847656 L 29.95137786865234 195.7002563476562 L 21.60998725891113 197.0456237792969 L 13.26513671875 195.6958618164062 L 21.60652732849121 194.3504943847656 Z" stroke="none" fill="#fff"/>
              </g>
            </g>
            <g id="Rectangle_217-4" data-name="Rectangle 217" transform="translate(1.695 1.793)" fill="#0a9db2" stroke="#fff" stroke-width="2">
              <rect width="13.508" height="33.156" rx="2" stroke="none"/>
              <rect x="1" y="1" width="11.508" height="31.156" rx="1" fill="none"/>
            </g>
            <path id="Path_122-4" data-name="Path 122" d="M0,0V31.528" transform="translate(8.39 2.608)" fill="#0a9db2" stroke="#fff" stroke-width="2"/>
            <g id="Path_75-4" data-name="Path 75" transform="translate(-12.467 -194.117)" fill="#0a9db2" stroke-linecap="round">
              <path d="M 20.84989166259766 195.787109375 L 19.53662109375 195.5746917724609 L 20.84628486633301 195.3634490966797 L 22.15955543518066 195.5758666992188 L 20.84989166259766 195.787109375 Z" stroke="none"/>
              <path d="M 20.84651374816895 194.3504943847656 L 28.43105316162109 195.5772705078125 L 20.84966278076172 196.8000640869141 L 13.26513290405273 195.5733032226562 L 20.84651374816895 194.3504943847656 Z" stroke="none" fill="#fff"/>
            </g>
          </g>
          <g id="r2" transform="translate(0 6.962)">
            <g id="fon-3" data-name="fon">
              <g id="Rectangle_217-5" data-name="Rectangle 217" transform="translate(0.917 1.38)" fill="#fff" stroke="#fff" stroke-width="2">
                <rect width="14.736" height="33.974" stroke="none"/>
                <rect x="1" y="1" width="12.736" height="31.974" fill="none"/>
              </g>
              <path id="Path_122-5" data-name="Path 122" d="M0,0V31.669" transform="translate(8.353 2.612)" fill="#fff" stroke="#fff" stroke-width="2"/>
              <g id="Path_75-5" data-name="Path 75" transform="translate(-13.265 -194.35)" fill="#fff" stroke-linecap="round">
                <path d="M 21.6102180480957 196.0326538085938 L 19.53665161132812 195.697265625 L 21.60629653930664 195.3634643554688 L 23.67986297607422 195.6988525390625 L 21.6102180480957 196.0326538085938 Z" stroke="none"/>
                <path d="M 21.60652732849121 194.3504943847656 L 29.95137786865234 195.7002563476562 L 21.60998725891113 197.0456237792969 L 13.26513671875 195.6958618164062 L 21.60652732849121 194.3504943847656 Z" stroke="none" fill="#fff"/>
              </g>
            </g>
            <g id="Rectangle_217-6" data-name="Rectangle 217" transform="translate(1.326 1.38)" fill="#0a9db2" stroke="#fff" stroke-width="2">
              <rect width="13.917" height="33.565" rx="2" stroke="none"/>
              <rect x="1" y="1" width="11.917" height="31.565" rx="1" fill="none"/>
            </g>
            <path id="Path_122-6" data-name="Path 122" d="M0,0V31.528" transform="translate(8.39 2.608)" fill="#0a9db2" stroke="#fff" stroke-width="2"/>
            <g id="Path_75-6" data-name="Path 75" transform="translate(-12.467 -194.117)" fill="#0a9db2" stroke-linecap="round">
              <path d="M 20.84989166259766 195.787109375 L 19.53662109375 195.5746917724609 L 20.84628486633301 195.3634490966797 L 22.15955543518066 195.5758666992188 L 20.84989166259766 195.787109375 Z" stroke="none"/>
              <path d="M 20.84651374816895 194.3504943847656 L 28.43105316162109 195.5772705078125 L 20.84966278076172 196.8000640869141 L 13.26513290405273 195.5733032226562 L 20.84651374816895 194.3504943847656 Z" stroke="none" fill="#fff"/>
            </g>
          </g>
          <g id="o1" transform="translate(23.069 12.026)">
            <g id="fon-4" data-name="fon" transform="translate(0 0)">
              <g id="Path_78" data-name="Path 78" transform="translate(0.072 1.998)" fill="#fff">
                <path d="M 12.70315647125244 21.41199111938477 C 12.59700584411621 21.41199111938477 12.49033641815186 21.41184997558594 12.38235569000244 21.41156959533691 C 8.32835578918457 21.40110969543457 5.216695785522461 21.20491027832031 3.133795976638794 20.82843971252441 C 1.744452834129333 20.57732391357422 1.170484185218811 20.3089427947998 0.9543060064315796 20.17423248291016 L 0.9543060064315796 1.000000476837158 L 24.11019515991211 1.000000476837158 L 24.11019515991211 20.12820816040039 C 23.68858528137207 20.41965103149414 21.59902763366699 21.41199111938477 12.70315647125244 21.41199111938477 Z" stroke="none"/>
                <path d="M 1.954305648803711 2 L 1.954305648803711 19.51955795288086 C 2.183197021484375 19.59492492675781 2.50715446472168 19.68411827087402 2.957286834716797 19.7762508392334 C 4.963466644287109 20.18685150146484 8.135385513305664 20.40060043334961 12.38491630554199 20.41157150268555 C 12.49203586578369 20.41184043884277 12.59794616699219 20.41197967529297 12.70324611663818 20.41197967529297 C 19.56034278869629 20.41197967529297 22.19238662719727 19.81358909606934 23.11018562316895 19.49308586120605 L 23.11018562316895 2 L 1.954305648803711 2 M -0.04569435119628906 0 L 25.11018562316895 0 L 25.11018562316895 20.2647705078125 C 25.11018562316895 20.2647705078125 25.97861671447754 22.41197967529297 12.70324325561523 22.41197967529297 C 12.59624290466309 22.41197967529297 12.48862171173096 22.41184234619141 12.37977600097656 22.41156005859375 C -1.233423233032227 22.37643051147461 -0.04569435119628906 20.2647705078125 -0.04569435119628906 20.2647705078125 L -0.04569435119628906 0 Z" stroke="none" fill="#fff"/>
              </g>
              <ellipse id="Ellipse_17" data-name="Ellipse 17" cx="12.28" cy="2.047" rx="12.28" ry="2.047" transform="translate(0.361)" fill="#fff" stroke="#fff" stroke-width="2"/>
              <path id="Path_123" data-name="Path 123" d="M.66,17.821s.246.6,2.695,1.113a29.5,29.5,0,0,0,4.626.471" transform="translate(-0.245 -12.013)" fill="none" stroke="#fff" stroke-width="2"/>
              <path id="Path_124" data-name="Path 124" d="M.66,17.821s.246.6,2.695,1.113a29.5,29.5,0,0,0,4.626.471" transform="translate(-0.245 -8.203)" fill="none" stroke="#fff" stroke-width="2"/>
            </g>
            <g id="Path_78-2" data-name="Path 78" transform="translate(0.77 2.237)" fill="#0a9db2">
              <path d="M 11.96430683135986 20.76174545288086 C 11.86437606811523 20.76174545288086 11.76387596130371 20.76160430908203 11.66221618652344 20.7613353729248 C 3.474102735519409 20.73955917358398 1.408681511878967 19.86668014526367 0.952786386013031 19.58231163024902 L 0.952786386013031 1.000005125999451 L 22.65362548828125 1.000005125999451 L 22.65362548828125 19.53776359558105 C 22.24514198303223 19.8194637298584 20.25815773010254 20.76174545288086 11.96430683135986 20.76174545288086 Z" stroke="none"/>
              <path d="M 1.952785491943359 1.999994277954102 L 1.952785491943359 18.92502403259277 C 2.293497085571289 19.03541564941406 2.850282669067383 19.17713737487793 3.728265762329102 19.31160545349121 C 5.618175506591797 19.60104560852051 8.288435935974121 19.75235557556152 11.66482639312744 19.76134490966797 C 11.76559638977051 19.76160430908203 11.86514663696289 19.76174545288086 11.96422672271729 19.76174545288086 C 18.28473281860352 19.76174545288086 20.76687049865723 19.20583152770996 21.65362548828125 18.90030097961426 L 21.65362548828125 1.999994277954102 L 1.952785491943359 1.999994277954102 M -0.04721450805664062 -5.7220458984375e-06 L 23.65362548828125 -5.7220458984375e-06 L 23.65362548828125 19.67682456970215 C 23.65362548828125 19.67682456970215 24.47172737121582 21.76174354553223 11.9642219543457 21.76174354553223 C 11.86341094970703 21.76174354553223 11.76210594177246 21.7616081237793 11.65955638885498 21.7613353729248 C -1.166244506835938 21.72721481323242 -0.04721450805664062 19.67682456970215 -0.04721450805664062 19.67682456970215 L -0.04721450805664062 -5.7220458984375e-06 Z" stroke="none" fill="#fff"/>
            </g>
            <ellipse id="Ellipse_17-2" data-name="Ellipse 17" cx="11.666" cy="1.842" rx="11.666" ry="1.842" transform="translate(0.77 0.409)" fill="#0a9db2" stroke="#fff" stroke-width="2"/>
            <path id="Path_123-2" data-name="Path 123" d="M.66,17.821s.227.587,2.491,1.1a25.677,25.677,0,0,0,4.276.464" transform="translate(0.421 -11.91)" fill="none" stroke="#fff" stroke-width="2"/>
            <path id="Path_124-2" data-name="Path 124" d="M.66,17.821s.227.587,2.491,1.1a25.677,25.677,0,0,0,4.276.464" transform="translate(0.421 -8.21)" fill="none" stroke="#fff" stroke-width="2"/>
          </g>
          <g id="_02" data-name="02" transform="translate(8.285 22.669)">
            <g id="fon-5" data-name="fon" transform="translate(0 0)">
              <g id="Path_79" data-name="Path 79" transform="translate(0.307 2.342)" fill="#fff">
                <path d="M 12.61477756500244 21.37766265869141 C 12.50937747955322 21.37766265869141 12.40341758728027 21.37752342224121 12.29619789123535 21.37724304199219 C 3.5809645652771 21.35463523864746 1.422411561012268 20.43854331970215 0.9541277289390564 20.1449031829834 L 0.9541277289390564 1.000003457069397 L 23.93591690063477 1.000003457069397 L 23.93591690063477 20.09820556640625 C 23.51737213134766 20.38857460021973 21.44291687011719 21.37766265869141 12.61477756500244 21.37766265869141 Z" stroke="none"/>
                <path d="M 1.954128265380859 2.000003814697266 L 1.954128265380859 19.49039077758789 C 2.311141967773438 19.60781669616699 2.906486511230469 19.7609806060791 3.862617492675781 19.90589332580566 C 5.864646911621094 20.2093334197998 8.702987670898438 20.36792373657227 12.29878807067871 20.37725257873535 C 12.40513801574707 20.37752342224121 12.51022815704346 20.37766265869141 12.61477756500244 20.37766265869141 C 19.41029739379883 20.37766265869141 22.02323913574219 19.78276443481445 22.93591690063477 19.46362495422363 L 22.93591690063477 2.000003814697266 L 1.954128265380859 2.000003814697266 M -0.04587173461914062 3.814697265625e-06 L 24.93591690063477 3.814697265625e-06 L 24.93591690063477 20.23374366760254 C 24.93591690063477 20.23374366760254 25.79827499389648 22.37766265869141 12.61478137969971 22.37766265869141 C 12.50852203369141 22.37766265869141 12.40170001983643 22.37752342224121 12.29360771179199 22.37724304199219 C -1.225372314453125 22.3421630859375 -0.04587173461914062 20.23374366760254 -0.04587173461914062 20.23374366760254 L -0.04587173461914062 3.814697265625e-06 Z" stroke="none" fill="#fff"/>
              </g>
              <ellipse id="Ellipse_18" data-name="Ellipse 18" cx="12.28" cy="2.456" rx="12.28" ry="2.456" fill="#fff" stroke="#fff" stroke-width="2"/>
              <line id="Line_32" data-name="Line 32" y1="1.691" x2="4.307" transform="translate(12.835 0.632)" fill="none" stroke="#fff" stroke-width="2"/>
              <line id="Line_33" data-name="Line 33" x2="10.049" y2="0.845" transform="translate(13.146 2.323)" fill="none" stroke="#fff" stroke-width="2"/>
            </g>
            <g id="Path_79-2" data-name="Path 79" transform="translate(1.005 2.547)" fill="#0a9db2">
              <path d="M 11.87401390075684 20.76174545288086 C 11.7748441696167 20.76174545288086 11.67510414123535 20.76160430908203 11.57422351837158 20.7613353729248 C 3.451498985290527 20.73956871032715 1.403955459594727 19.86797142028809 0.9526036977767944 19.58455467224121 L 0.9526036977767944 1.000005125999451 L 22.47562408447266 1.000005125999451 L 22.47562408447266 19.54002380371094 C 22.07156181335449 19.8206844329834 20.10244560241699 20.76174545288086 11.87401390075684 20.76174545288086 Z" stroke="none"/>
              <path d="M 1.952604293823242 1.999994277954102 L 1.952604293823242 18.92841529846191 C 2.290481567382812 19.03825759887695 2.841987609863281 19.17917251586914 3.710943222045898 19.31297492980957 C 5.584884643554688 19.60152435302734 8.23137378692627 19.75237464904785 11.57685375213623 19.76134490966797 C 11.67684364318848 19.76160430908203 11.77563381195068 19.76174545288086 11.87392330169678 19.76174545288086 C 18.13398361206055 19.76174545288086 20.59541130065918 19.20825958251953 21.47562408447266 18.90386199951172 L 21.47562408447266 1.999994277954102 L 1.952604293823242 1.999994277954102 M -0.04739570617675781 -5.7220458984375e-06 L 23.47562408447266 -5.7220458984375e-06 L 23.47562408447266 19.67682456970215 C 23.47562408447266 19.67682456970215 24.28759574890137 21.76174354553223 11.87392425537109 21.76174354553223 C 11.77386856079102 21.76174354553223 11.67332458496094 21.7616081237793 11.57154369354248 21.7613353729248 C -1.158025741577148 21.72721481323242 -0.04739570617675781 19.67682456970215 -0.04739570617675781 19.67682456970215 L -0.04739570617675781 -5.7220458984375e-06 Z" stroke="none" fill="#fff"/>
            </g>
            <ellipse id="Ellipse_18-2" data-name="Ellipse 18" cx="11.257" cy="2.047" rx="11.257" ry="2.047" transform="translate(1.637 0.819)" fill="#0a9db2" stroke="#fff" stroke-width="2"/>
            <line id="Line_32-2" data-name="Line 32" y1="1.644" x2="4.188" transform="translate(12.716 0.884)" fill="none" stroke="#fff" stroke-width="2"/>
            <line id="Line_33-2" data-name="Line 33" x2="9.772" y2="0.822" transform="translate(12.716 2.528)" fill="none" stroke="#fff" stroke-width="2"/>
          </g>
        </g>
        <g id="boxFront" transform="translate(0 33.38)">
          <path id="Path_121" data-name="Path 121" d="M16.782-.081l2.954-.628L71.348,7.509,122.321-.417l1.9.417,2.329,20.426L16.308,17.191Z" transform="translate(0.394 0.709)" fill="#fff"/>
          <path id="Path_22" data-name="Path 22" d="M-1.08,1.069,54.98-7.859V36.9L-.54,45.714Z" transform="translate(72.566 8.451)" fill="#fff" stroke="#01bbd6" stroke-width="2"/>
          <path id="Path_25" data-name="Path 25" d="M-1.436-.926,54.537-9.808,71.314-2.161,15.889,6.681Z" transform="translate(72.743 10.415)" fill="#fff" stroke="#01bbd6" stroke-width="2"/>
          <path id="Path_23" data-name="Path 23" d="M34.166-15.417,89.574-6.353l.567,44.681L34.166,29.384Z" transform="translate(-17.577 15.844)" fill="#fff" stroke="#01bbd6" stroke-width="2" opacity="0.997"/>
          <path id="Path_24" data-name="Path 24" d="M18.842-16.255,74.456-7.2,58.28.514,2-8.524Z" transform="translate(-2.001 16.73)" fill="#fff" stroke="#01bbd6" stroke-width="2"/>
          <g id="boxShadow" transform="translate(16.34 9.782)">
            <path id="Path_39" data-name="Path 39" d="M.313,6.754V.808l16.45,7.121L55.868,1.956l-.457,5.973L16.763,14.17Z" transform="translate(55.529 -0.67)" fill="url(#linear-gradient-2)"/>
            <path id="Path_40" data-name="Path 40" d="M35.67-5.611,75.623.942l15.662-7.6V-.434L75.108,7.281,35.67.671Z" transform="translate(-35.67 6.662)" fill="url(#linear-gradient-2)"/>
          </g>
        </g>
      </g>
    </g>
    <g id="fullbox2" transform="translate(5.24 -37.62)">
      <ellipse id="Ellipse_4-2" data-name="Ellipse 4" cx="80.5" cy="22" rx="80.5" ry="22" transform="translate(600 672)" opacity="0.997" fill="url(#linear-gradient)"/>
      <g id="box-2" data-name="box" transform="translate(608.005 615.62)">
        <g id="boxBack-2" data-name="boxBack" transform="translate(0.293 16.255)">
          <path id="Path_27-2" data-name="Path 27" d="M-16.027-19.729l55.208-9.2-16.8-8.141L-32.413-27.5Z" transform="translate(32.413 37.072)" fill="#fff" stroke="#01bbd6" stroke-width="2"/>
          <path id="Path_26-2" data-name="Path 26" d="M33.385-33.952,88.8-24.473l17.171-7.753-55.3-8.967Z" transform="translate(38.04 42.076)" fill="#fff" stroke="#01bbd6" stroke-width="2"/>
          <path id="Path_77-2" data-name="Path 77" d="M-4479.834,8982.766v-35.813l55.3-9.251,54.951,9.626.9,35.438Z" transform="translate(4496.129 -8929.541)" fill="#fff" stroke="#01bbd6" stroke-width="2"/>
        </g>
        <g id="figure-2" data-name="figure" transform="translate(23.754 -305)" opacity="0">
          <g id="r1-2" data-name="r1" transform="translate(40.497 3.514)">
            <g id="fon-6" data-name="fon">
              <g id="Rectangle_217-7" data-name="Rectangle 217" transform="translate(0.783 1.75)" fill="#fff" stroke="#fff" stroke-width="2">
                <rect width="17.578" height="34.231" stroke="none"/>
                <rect x="1" y="1" width="15.578" height="32.231" fill="none"/>
              </g>
              <path id="Path_122-7" data-name="Path 122" d="M0,0V31.625" transform="translate(9.44 2.951)" fill="#fff" stroke="#fff" stroke-width="2"/>
              <g id="Path_75-7" data-name="Path 75" transform="translate(-13.265 -194.35)" fill="#fff" stroke-linecap="round">
                <path d="M 22.69571876525879 196.3832550048828 L 19.53661346435547 195.8722839355469 L 22.69133949279785 195.3634490966797 L 25.85044479370117 195.8744201660156 L 22.69571876525879 196.3832550048828 Z" stroke="none"/>
                <path d="M 22.69156837463379 194.3504943847656 L 32.12191772460938 195.8758239746094 L 22.69548988342285 197.3962097167969 L 13.26514053344727 195.8708801269531 L 22.69156837463379 194.3504943847656 Z" stroke="none" fill="#fff"/>
              </g>
            </g>
            <g id="Rectangle_217-8" data-name="Rectangle 217" transform="translate(1.246 1.75)" fill="#0a9db2" stroke="#fff" stroke-width="2">
              <rect width="15.728" height="33.305" rx="2" stroke="none"/>
              <rect x="1" y="1" width="13.728" height="31.305" rx="1" fill="none"/>
            </g>
            <path id="Path_122-8" data-name="Path 122" d="M0,0V31.466" transform="translate(9.482 2.947)" fill="#0a9db2" stroke="#fff" stroke-width="2"/>
            <g id="Path_75-8" data-name="Path 75" transform="translate(-12.363 -194.086)" fill="#0a9db2" stroke-linecap="round">
              <path d="M 21.83649063110352 196.1057586669922 L 19.53660202026367 195.7337493896484 L 21.83247375488281 195.3634490966797 L 24.13236236572266 195.7354583740234 L 21.83649063110352 196.1057586669922 Z" stroke="none"/>
              <path d="M 21.83270263671875 194.3504943847656 L 30.40383148193359 195.7368469238281 L 21.83626174926758 197.1187133789062 L 13.26513290405273 195.7323608398438 L 21.83270263671875 194.3504943847656 Z" stroke="none" fill="#fff"/>
            </g>
          </g>
          <g id="r3-2" data-name="r3" transform="translate(14.386 0)">
            <g id="fon-7" data-name="fon">
              <g id="Rectangle_217-9" data-name="Rectangle 217" transform="translate(0.527 2.026)" fill="#fff" stroke="#fff" stroke-width="2">
                <rect width="17.578" height="37.469" stroke="none"/>
                <rect x="1" y="1" width="15.578" height="35.469" fill="none"/>
              </g>
              <path id="Path_122-9" data-name="Path 122" d="M0,0V35.788" transform="translate(9.44 2.951)" fill="#fff" stroke="#fff" stroke-width="2"/>
              <g id="Path_75-9" data-name="Path 75" transform="translate(-13.265 -194.35)" fill="#fff" stroke-linecap="round">
                <path d="M 22.69571876525879 196.3832550048828 L 19.53661346435547 195.8722839355469 L 22.69133949279785 195.3634490966797 L 25.85044479370117 195.8744201660156 L 22.69571876525879 196.3832550048828 Z" stroke="none"/>
                <path d="M 22.69156837463379 194.3504943847656 L 32.12191772460938 195.8758239746094 L 22.69548988342285 197.3962097167969 L 13.26514053344727 195.8708801269531 L 22.69156837463379 194.3504943847656 Z" stroke="none" fill="#fff"/>
              </g>
            </g>
            <g id="Rectangle_217-10" data-name="Rectangle 217" transform="translate(1.915 2.026)" fill="#0a9db2" stroke="#fff" stroke-width="2">
              <rect width="15.265" height="37.469" rx="2" stroke="none"/>
              <rect x="1" y="1" width="13.265" height="35.469" rx="1" fill="none"/>
            </g>
            <path id="Path_122-10" data-name="Path 122" d="M0,0V35.63" transform="translate(9.482 2.947)" fill="#0a9db2" stroke="#fff" stroke-width="2"/>
            <g id="Path_75-10" data-name="Path 75" transform="translate(-12.363 -194.086)" fill="#0a9db2" stroke-linecap="round">
              <path d="M 21.83649063110352 196.1057586669922 L 19.53660202026367 195.7337493896484 L 21.83247375488281 195.3634490966797 L 24.13236236572266 195.7354583740234 L 21.83649063110352 196.1057586669922 Z" stroke="none"/>
              <path d="M 21.83270263671875 194.3504943847656 L 30.40383148193359 195.7368469238281 L 21.83626174926758 197.1187133789062 L 13.26513290405273 195.7323608398438 L 21.83270263671875 194.3504943847656 Z" stroke="none" fill="#fff"/>
            </g>
          </g>
          <g id="r2-2" data-name="r2" transform="translate(0 7.868)">
            <g id="fon-8" data-name="fon">
              <g id="Rectangle_217-11" data-name="Rectangle 217" transform="translate(1.036 1.559)" fill="#fff" stroke="#fff" stroke-width="2">
                <rect width="16.653" height="38.394" stroke="none"/>
                <rect x="1" y="1" width="14.653" height="36.394" fill="none"/>
              </g>
              <path id="Path_122-11" data-name="Path 122" d="M0,0V35.788" transform="translate(9.44 2.951)" fill="#fff" stroke="#fff" stroke-width="2"/>
              <g id="Path_75-11" data-name="Path 75" transform="translate(-13.265 -194.35)" fill="#fff" stroke-linecap="round">
                <path d="M 22.69571876525879 196.3832550048828 L 19.53661346435547 195.8722839355469 L 22.69133949279785 195.3634490966797 L 25.85044479370117 195.8744201660156 L 22.69571876525879 196.3832550048828 Z" stroke="none"/>
                <path d="M 22.69156837463379 194.3504943847656 L 32.12191772460938 195.8758239746094 L 22.69548988342285 197.3962097167969 L 13.26514053344727 195.8708801269531 L 22.69156837463379 194.3504943847656 Z" stroke="none" fill="#fff"/>
              </g>
            </g>
            <g id="Rectangle_217-12" data-name="Rectangle 217" transform="translate(1.499 1.559)" fill="#0a9db2" stroke="#fff" stroke-width="2">
              <rect width="15.728" height="37.931" rx="2" stroke="none"/>
              <rect x="1" y="1" width="13.728" height="35.931" rx="1" fill="none"/>
            </g>
            <path id="Path_122-12" data-name="Path 122" d="M0,0V35.63" transform="translate(9.482 2.947)" fill="#0a9db2" stroke="#fff" stroke-width="2"/>
            <g id="Path_75-12" data-name="Path 75" transform="translate(-12.363 -194.086)" fill="#0a9db2" stroke-linecap="round">
              <path d="M 21.83649063110352 196.1057586669922 L 19.53660202026367 195.7337493896484 L 21.83247375488281 195.3634490966797 L 24.13236236572266 195.7354583740234 L 21.83649063110352 196.1057586669922 Z" stroke="none"/>
              <path d="M 21.83270263671875 194.3504943847656 L 30.40383148193359 195.7368469238281 L 21.83626174926758 197.1187133789062 L 13.26513290405273 195.7323608398438 L 21.83270263671875 194.3504943847656 Z" stroke="none" fill="#fff"/>
            </g>
          </g>
          <g id="o1-2" data-name="o1" transform="translate(26.07 13.59)">
            <g id="fon-9" data-name="fon" transform="translate(0 0)">
              <g id="Path_78-3" data-name="Path 78" transform="translate(0.072 2.258)" fill="#fff">
                <path d="M 14.36492919921875 24.32733154296875 C 14.24486923217773 24.32733154296875 14.12420845031738 24.32718276977539 14.00206851959229 24.32686233520508 C 3.729301691055298 24.30034828186035 1.413824796676636 23.1920108795166 0.9577188491821289 22.86996078491211 L 0.9577188491821289 1.000001907348633 L 27.38587951660156 1.000001907348633 L 27.38587951660156 22.81316566467285 C 26.9892463684082 23.12653923034668 24.78823852539062 24.32733154296875 14.36492919921875 24.32733154296875 Z" stroke="none"/>
                <path d="M 1.957708358764648 2.000001907348633 L 1.957708358764648 22.24427032470703 C 2.344263076782227 22.38640403747559 3.040187835693359 22.58434867858887 4.235837936401367 22.77074241638184 C 6.533618927001953 23.12895202636719 9.820318222045898 23.31606292724609 14.00468921661377 23.32686233520508 C 14.12593841552734 23.32717132568359 14.24582862854004 23.32732200622559 14.36501884460449 23.32732200622559 C 22.54593276977539 23.32732200622559 25.4554271697998 22.57521057128906 26.38587951660156 22.20992851257324 L 26.38587951660156 2.000001907348633 L 1.957708358764648 2.000001907348633 M -0.04229164123535156 1.9073486328125e-06 L 28.38587951660156 1.9073486328125e-06 L 28.38587951660156 22.90081214904785 C 28.38587951660156 22.90081214904785 29.36725425720215 25.32732582092285 14.36502361297607 25.32732582092285 C 14.24410533905029 25.32732582092285 14.12249279022217 25.32716941833496 13.99948883056641 25.32685279846191 C -1.384511947631836 25.28714179992676 -0.04229164123535156 22.90081214904785 -0.04229164123535156 22.90081214904785 L -0.04229164123535156 1.9073486328125e-06 Z" stroke="none" fill="#fff"/>
              </g>
              <ellipse id="Ellipse_17-3" data-name="Ellipse 17" cx="13.877" cy="2.313" rx="13.877" ry="2.313" transform="translate(0.408)" fill="#fff" stroke="#fff" stroke-width="2"/>
              <path id="Path_123-3" data-name="Path 123" d="M.66,17.821s.278.674,3.045,1.258a33.331,33.331,0,0,0,5.227.532" transform="translate(-0.191 -11.257)" fill="none" stroke="#fff" stroke-width="2"/>
              <path id="Path_124-3" data-name="Path 124" d="M.66,17.821s.278.674,3.045,1.258a33.331,33.331,0,0,0,5.227.532" transform="translate(-0.191 -6.952)" fill="none" stroke="#fff" stroke-width="2"/>
            </g>
            <g id="Path_78-4" data-name="Path 78" transform="translate(0.861 2.528)" fill="#0a9db2">
              <path d="M 13.52999305725098 23.59249877929688 C 13.41694355010986 23.59249877929688 13.30323314666748 23.59234809875488 13.18824291229248 23.59203910827637 C 3.597068071365356 23.5665283203125 1.396372437477112 22.5111083984375 0.9560031294822693 22.20018577575684 L 0.9560031294822693 0.9999990463256836 L 25.73984336853027 0.9999990463256836 L 25.73984336853027 22.14598083496094 C 25.35592079162598 22.44914054870605 23.26179313659668 23.59249877929688 13.52999305725098 23.59249877929688 Z" stroke="none"/>
              <path d="M 1.956003189086914 1.999998092651367 L 1.956003189086914 21.57263565063477 C 2.324367523193359 21.70649147033691 2.973478317260742 21.88969421386719 4.067302703857422 22.06276893615723 C 6.221343994140625 22.40359878540039 9.290962219238281 22.58166885375977 13.19093322753906 22.59204864501953 C 13.30502319335938 22.59235000610352 13.41783332824707 22.59249877929688 13.52999305725098 22.59249877929688 C 21.08946228027344 22.59249877929688 23.83938217163086 21.89040184020996 24.73984336853027 21.54085731506348 L 24.73984336853027 1.999998092651367 L 1.956003189086914 1.999998092651367 M -0.04399681091308594 -1.9073486328125e-06 L 26.73984336853027 -1.9073486328125e-06 L 26.73984336853027 22.23637962341309 C 26.73984336853027 22.23637962341309 27.66447448730469 24.59250068664551 13.52999210357666 24.59250068664551 C 13.4160680770874 24.59250068664551 13.30147266387939 24.59234809875488 13.18558311462402 24.59203910827637 C -1.308586120605469 24.55348968505859 -0.04399681091308594 22.23637962341309 -0.04399681091308594 22.23637962341309 L -0.04399681091308594 -1.9073486328125e-06 Z" stroke="none" fill="#fff"/>
            </g>
            <ellipse id="Ellipse_17-4" data-name="Ellipse 17" cx="13.183" cy="2.082" rx="13.183" ry="2.082" transform="translate(0.871 0.463)" fill="#0a9db2" stroke="#fff" stroke-width="2"/>
            <path id="Path_123-4" data-name="Path 123" d="M.66,17.821s.257.663,2.815,1.238a29.018,29.018,0,0,0,4.832.524" transform="translate(0.562 -11.141)" fill="none" stroke="#fff" stroke-width="2"/>
            <path id="Path_124-4" data-name="Path 124" d="M.66,17.821s.257.663,2.815,1.238a29.018,29.018,0,0,0,4.832.524" transform="translate(0.562 -6.959)" fill="none" stroke="#fff" stroke-width="2"/>
          </g>
          <g id="_02-2" data-name="02" transform="translate(9.363 25.617)">
            <g id="fon-10" data-name="fon" transform="translate(0 0)">
              <g id="Path_79-3" data-name="Path 79" transform="translate(0.337 2.647)" fill="#fff">
                <path d="M 14.26512145996094 24.28853988647461 C 14.14590072631836 24.28853988647461 14.02599143981934 24.28838920593262 13.90471076965332 24.2880687713623 C 3.709115743637085 24.2616138458252 1.410305619239807 23.15668296813965 0.9575210809707642 22.83576393127441 L 0.9575210809707642 0.9999993443489075 L 27.18893051147461 0.9999993443489075 L 27.18893051147461 22.77913284301758 C 26.79548263549805 23.09128952026367 24.61097717285156 24.28853988647461 14.26512145996094 24.28853988647461 Z" stroke="none"/>
                <path d="M 1.957511901855469 2 L 1.957511901855469 22.21068572998047 C 2.341531753540039 22.35208320617676 3.031894683837891 22.54880142211914 4.216220855712891 22.73410987854004 C 6.496641159057617 23.09092903137207 9.757190704345703 23.27730941772461 13.90735149383545 23.28807830810547 C 14.02774143218994 23.28838920593262 14.14677143096924 23.28853988647461 14.26512145996094 23.28853988647461 C 22.3751049041748 23.28853988647461 25.26379585266113 22.5403938293457 26.18893051147461 22.17656707763672 L 26.18893051147461 2 L 1.957511901855469 2 M -0.04248809814453125 0 L 28.18893051147461 0 L 28.18893051147461 22.8657398223877 C 28.18893051147461 22.8657398223877 29.16352462768555 25.28854370117188 14.26512241363525 25.28854370117188 C 14.14504051208496 25.28854370117188 14.02426433563232 25.28838729858398 13.9021110534668 25.2880687713623 C -1.375419616699219 25.2484188079834 -0.04248809814453125 22.8657398223877 -0.04248809814453125 22.8657398223877 L -0.04248809814453125 0 Z" stroke="none" fill="#fff"/>
              </g>
              <ellipse id="Ellipse_18-3" data-name="Ellipse 18" cx="13.877" cy="2.775" rx="13.877" ry="2.775" fill="#fff" stroke="#fff" stroke-width="2"/>
              <line id="Line_32-3" data-name="Line 32" y1="1.911" x2="4.867" transform="translate(14.504 0.714)" fill="none" stroke="#fff" stroke-width="2"/>
              <line id="Line_33-3" data-name="Line 33" x2="11.356" y2="0.955" transform="translate(14.856 2.625)" fill="none" stroke="#fff" stroke-width="2"/>
            </g>
            <g id="Path_79-4" data-name="Path 79" transform="translate(1.126 2.879)" fill="#0a9db2">
              <path d="M 13.42795085906982 23.59249877929688 C 13.31576061248779 23.59249877929688 13.20292091369629 23.59234809875488 13.08880043029785 23.59203910827637 C 3.571364164352417 23.5665340423584 1.391103982925415 22.5122013092041 0.9557905793190002 22.20246124267578 L 0.9557905793190002 0.9999990463256836 L 25.5386905670166 0.9999990463256836 L 25.5386905670166 22.14826774597168 C 25.15962791442871 22.4500846862793 23.0859317779541 23.59249877929688 13.42795085906982 23.59249877929688 Z" stroke="none"/>
              <path d="M 1.955791473388672 1.999998092651367 L 1.955791473388672 21.57625389099121 C 2.321149826049805 21.70951843261719 2.964475631713867 21.89185333251953 4.047630310058594 22.06419944763184 C 6.183731079101562 22.40409851074219 9.226520538330078 22.58168983459473 13.09151077270508 22.59204864501953 C 13.20472049713135 22.59235000610352 13.31666088104248 22.59249877929688 13.42795085906982 22.59249877929688 C 20.91782760620117 22.59249877929688 23.64510154724121 21.89298820495605 24.5386905670166 21.54465293884277 L 24.5386905670166 1.999998092651367 L 1.955791473388672 1.999998092651367 M -0.04420852661132812 -1.9073486328125e-06 L 26.5386905670166 -1.9073486328125e-06 L 26.5386905670166 22.23637962341309 C 26.5386905670166 22.23637962341309 27.45638656616211 24.59250068664551 13.42794609069824 24.59250068664551 C 13.31487560272217 24.59250068664551 13.20114040374756 24.59234809875488 13.08612060546875 24.59203910827637 C -1.299308776855469 24.55348968505859 -0.04420852661132812 22.23637962341309 -0.04420852661132812 22.23637962341309 L -0.04420852661132812 -1.9073486328125e-06 Z" stroke="none" fill="#fff"/>
            </g>
            <ellipse id="Ellipse_18-4" data-name="Ellipse 18" cx="12.721" cy="2.313" rx="12.721" ry="2.313" transform="translate(1.85 0.925)" fill="#0a9db2" stroke="#fff" stroke-width="2"/>
            <line id="Line_32-4" data-name="Line 32" y1="1.858" x2="4.733" transform="translate(14.37 0.999)" fill="none" stroke="#fff" stroke-width="2"/>
            <line id="Line_33-4" data-name="Line 33" x2="11.044" y2="0.929" transform="translate(14.37 2.857)" fill="none" stroke="#fff" stroke-width="2"/>
          </g>
        </g>
        <g id="boxFront-2" data-name="boxFront" transform="translate(0 33.38)">
          <path id="Path_121-2" data-name="Path 121" d="M16.782-.081l2.954-.628L71.348,7.509,122.321-.417l1.9.417,2.329,20.426L16.308,17.191Z" transform="translate(0.394 0.709)" fill="#fff"/>
          <path id="Path_22-2" data-name="Path 22" d="M-1.08,1.069,54.98-7.859V36.9L-.54,45.714Z" transform="translate(72.566 8.451)" fill="#fff" stroke="#01bbd6" stroke-width="2"/>
          <path id="Path_25-2" data-name="Path 25" d="M-1.436-.926,54.537-9.808,71.314-2.161,15.889,6.681Z" transform="translate(72.743 10.415)" fill="#fff" stroke="#01bbd6" stroke-width="2"/>
          <path id="Path_23-2" data-name="Path 23" d="M34.166-15.417,89.574-6.353l.567,44.681L34.166,29.384Z" transform="translate(-17.577 15.844)" fill="#fff" stroke="#01bbd6" stroke-width="2" opacity="0.997"/>
          <path id="Path_24-2" data-name="Path 24" d="M18.842-16.255,74.456-7.2,58.28.514,2-8.524Z" transform="translate(-2.001 16.73)" fill="#fff" stroke="#01bbd6" stroke-width="2"/>
          <g id="boxShadow-2" data-name="boxShadow" transform="translate(16.34 9.782)">
            <path id="Path_39-2" data-name="Path 39" d="M.313,6.754V.808l16.45,7.121L55.868,1.956l-.457,5.973L16.763,14.17Z" transform="translate(55.529 -0.67)" fill="url(#linear-gradient-2)"/>
            <path id="Path_40-2" data-name="Path 40" d="M35.67-5.611,75.623.942l15.662-7.6V-.434L75.108,7.281,35.67.671Z" transform="translate(-35.67 6.662)" fill="url(#linear-gradient-2)"/>
          </g>
        </g>
      </g>
    </g>
    <g id="fullbox1" transform="translate(-262.76 -37.62)">
      <ellipse id="Ellipse_4-3" data-name="Ellipse 4" cx="80.5" cy="22" rx="80.5" ry="22" transform="translate(600 672)" opacity="0.997" fill="url(#linear-gradient)"/>
      <g id="box-3" data-name="box" transform="translate(608.005 615.62)">
        <g id="boxBack-3" data-name="boxBack" transform="translate(0.293 16.255)">
          <path id="Path_27-3" data-name="Path 27" d="M-16.027-19.729l55.208-9.2-16.8-8.141L-32.413-27.5Z" transform="translate(32.413 37.072)" fill="#fff" stroke="#01bbd6" stroke-width="2"/>
          <path id="Path_26-3" data-name="Path 26" d="M33.385-33.952,88.8-24.473l17.171-7.753-55.3-8.967Z" transform="translate(38.04 42.076)" fill="#fff" stroke="#01bbd6" stroke-width="2"/>
          <path id="Path_77-3" data-name="Path 77" d="M-4479.834,8982.766v-35.813l55.3-9.251,54.951,9.626.9,35.438Z" transform="translate(4496.129 -8929.541)" fill="#fff" stroke="#01bbd6" stroke-width="2"/>
        </g>
        <g id="figure-3" data-name="figure" transform="translate(-27.246 -223)" opacity="0">
          <g id="r1-3" data-name="r1" transform="translate(43.396 3.765)">
            <g id="fon-11" data-name="fon">
              <g id="Rectangle_217-13" data-name="Rectangle 217" transform="translate(0.84 1.875)" fill="#fff" stroke="#fff" stroke-width="2">
                <rect width="18.836" height="36.681" stroke="none"/>
                <rect x="1" y="1" width="16.836" height="34.681" fill="none"/>
              </g>
              <path id="Path_122-13" data-name="Path 122" d="M0,0V33.889" transform="translate(10.115 3.163)" fill="#fff" stroke="#fff" stroke-width="2"/>
              <g id="Path_75-13" data-name="Path 75" transform="translate(-13.265 -194.35)" fill="#fff" stroke-linecap="round">
                <path d="M 23.37066650390625 196.6012573242188 L 19.53659248352051 195.9810943603516 L 23.36601638793945 195.3634490966797 L 27.20009613037109 195.9836120605469 L 23.37066650390625 196.6012573242188 Z" stroke="none"/>
                <path d="M 23.36624717712402 194.3504943847656 L 33.4715576171875 195.9850158691406 L 23.37043762207031 197.6142120361328 L 13.26513671875 195.9797058105469 L 23.36624717712402 194.3504943847656 Z" stroke="none" fill="#fff"/>
              </g>
            </g>
            <g id="Rectangle_217-14" data-name="Rectangle 217" transform="translate(1.335 1.875)" fill="#0a9db2" stroke="#fff" stroke-width="2">
              <rect width="16.853" height="35.689" rx="2" stroke="none"/>
              <rect x="1" y="1" width="14.853" height="33.689" rx="1" fill="none"/>
            </g>
            <path id="Path_122-14" data-name="Path 122" d="M0,0V33.719" transform="translate(10.16 3.158)" fill="#0a9db2" stroke="#fff" stroke-width="2"/>
            <g id="Path_75-14" data-name="Path 75" transform="translate(-12.299 -194.067)" fill="#0a9db2" stroke-linecap="round">
              <path d="M 22.4499454498291 196.3038787841797 L 19.53661918640137 195.8326568603516 L 22.44567489624023 195.3634490966797 L 25.35900497436523 195.8346862792969 L 22.4499454498291 196.3038787841797 Z" stroke="none"/>
              <path d="M 22.4459056854248 194.3504943847656 L 31.63049507141113 195.8360900878906 L 22.44971466064453 197.3168334960938 L 13.26513481140137 195.8312683105469 L 22.4459056854248 194.3504943847656 Z" stroke="none" fill="#fff"/>
            </g>
          </g>
          <g id="r3-3" data-name="r3" transform="translate(15.416 0)">
            <g id="fon-12" data-name="fon">
              <g id="Rectangle_217-15" data-name="Rectangle 217" transform="translate(0.565 2.171)" fill="#fff" stroke="#fff" stroke-width="2">
                <rect width="18.836" height="40.15" stroke="none"/>
                <rect x="1" y="1" width="16.836" height="38.15" fill="none"/>
              </g>
              <path id="Path_122-15" data-name="Path 122" d="M0,0V38.35" transform="translate(10.115 3.163)" fill="#fff" stroke="#fff" stroke-width="2"/>
              <g id="Path_75-15" data-name="Path 75" transform="translate(-13.265 -194.35)" fill="#fff" stroke-linecap="round">
                <path d="M 23.37066650390625 196.6012573242188 L 19.53659248352051 195.9810943603516 L 23.36601638793945 195.3634490966797 L 27.20009613037109 195.9836120605469 L 23.37066650390625 196.6012573242188 Z" stroke="none"/>
                <path d="M 23.36624717712402 194.3504943847656 L 33.4715576171875 195.9850158691406 L 23.37043762207031 197.6142120361328 L 13.26513671875 195.9797058105469 L 23.36624717712402 194.3504943847656 Z" stroke="none" fill="#fff"/>
              </g>
            </g>
            <g id="Rectangle_217-16" data-name="Rectangle 217" transform="translate(2.052 2.171)" fill="#0a9db2" stroke="#fff" stroke-width="2">
              <rect width="16.358" height="40.15" rx="2" stroke="none"/>
              <rect x="1" y="1" width="14.358" height="38.15" rx="1" fill="none"/>
            </g>
            <path id="Path_122-16" data-name="Path 122" d="M0,0V38.18" transform="translate(10.16 3.158)" fill="#0a9db2" stroke="#fff" stroke-width="2"/>
            <g id="Path_75-16" data-name="Path 75" transform="translate(-12.299 -194.067)" fill="#0a9db2" stroke-linecap="round">
              <path d="M 22.4499454498291 196.3038787841797 L 19.53661918640137 195.8326568603516 L 22.44567489624023 195.3634490966797 L 25.35900497436523 195.8346862792969 L 22.4499454498291 196.3038787841797 Z" stroke="none"/>
              <path d="M 22.4459056854248 194.3504943847656 L 31.63049507141113 195.8360900878906 L 22.44971466064453 197.3168334960938 L 13.26513481140137 195.8312683105469 L 22.4459056854248 194.3504943847656 Z" stroke="none" fill="#fff"/>
            </g>
          </g>
          <g id="r2-3" data-name="r2" transform="translate(0 8.431)">
            <g id="fon-13" data-name="fon">
              <g id="Rectangle_217-17" data-name="Rectangle 217" transform="translate(1.111 1.671)" fill="#fff" stroke="#fff" stroke-width="2">
                <rect width="17.845" height="41.142" stroke="none"/>
                <rect x="1" y="1" width="15.845" height="39.142" fill="none"/>
              </g>
              <path id="Path_122-17" data-name="Path 122" d="M0,0V38.35" transform="translate(10.115 3.163)" fill="#fff" stroke="#fff" stroke-width="2"/>
              <g id="Path_75-17" data-name="Path 75" transform="translate(-13.265 -194.35)" fill="#fff" stroke-linecap="round">
                <path d="M 23.37066650390625 196.6012573242188 L 19.53659248352051 195.9810943603516 L 23.36601638793945 195.3634490966797 L 27.20009613037109 195.9836120605469 L 23.37066650390625 196.6012573242188 Z" stroke="none"/>
                <path d="M 23.36624717712402 194.3504943847656 L 33.4715576171875 195.9850158691406 L 23.37043762207031 197.6142120361328 L 13.26513671875 195.9797058105469 L 23.36624717712402 194.3504943847656 Z" stroke="none" fill="#fff"/>
              </g>
            </g>
            <g id="Rectangle_217-18" data-name="Rectangle 217" transform="translate(1.606 1.671)" fill="#0a9db2" stroke="#fff" stroke-width="2">
              <rect width="16.853" height="40.646" rx="2" stroke="none"/>
              <rect x="1" y="1" width="14.853" height="38.646" rx="1" fill="none"/>
            </g>
            <path id="Path_122-18" data-name="Path 122" d="M0,0V38.18" transform="translate(10.16 3.158)" fill="#0a9db2" stroke="#fff" stroke-width="2"/>
            <g id="Path_75-18" data-name="Path 75" transform="translate(-12.299 -194.067)" fill="#0a9db2" stroke-linecap="round">
              <path d="M 22.4499454498291 196.3038787841797 L 19.53661918640137 195.8326568603516 L 22.44567489624023 195.3634490966797 L 25.35900497436523 195.8346862792969 L 22.4499454498291 196.3038787841797 Z" stroke="none"/>
              <path d="M 22.4459056854248 194.3504943847656 L 31.63049507141113 195.8360900878906 L 22.44971466064453 197.3168334960938 L 13.26513481140137 195.8312683105469 L 22.4459056854248 194.3504943847656 Z" stroke="none" fill="#fff"/>
            </g>
          </g>
          <g id="o1-3" data-name="o1" transform="translate(27.936 14.563)">
            <g id="fon-14" data-name="fon" transform="translate(0 0)">
              <g id="Path_78-5" data-name="Path 78" transform="translate(0.072 2.419)" fill="#fff">
                <path d="M 15.39830207824707 26.14008140563965 C 15.26958274841309 26.14008140563965 15.1401424407959 26.13991165161133 15.009202003479 26.13957214355469 C 3.799493312835693 26.11063766479492 1.406427621841431 24.88210678100586 0.9598323106765747 24.5437126159668 L 0.9598323106765747 24.53989219665527 L 0.9598323106765747 1.000001549720764 L 29.42268180847168 1.000001549720764 L 29.42268180847168 24.47677230834961 C 29.24004364013672 24.62696266174316 28.626953125 25.01265907287598 26.86326217651367 25.3692512512207 C 24.33343315124512 25.8807315826416 20.4760627746582 26.14008140563965 15.39830207824707 26.14008140563965 Z" stroke="none"/>
                <path d="M 1.959831237792969 2.000001907348633 L 1.959831237792969 23.93519020080566 C 2.359167098999023 24.09159469604492 3.110197067260742 24.3179931640625 4.450679779052734 24.53072166442871 C 6.922719955444336 24.92302131652832 10.47599029541016 25.12787246704102 15.01178073883057 25.13958168029785 C 15.14185047149658 25.13991165161133 15.27043056488037 25.14008140563965 15.39830017089844 25.14008140563965 C 24.42105865478516 25.14008140563965 27.48969650268555 24.28737831115723 28.42267990112305 23.89605712890625 L 28.42267990112305 2.000001907348633 L 1.959831237792969 2.000001907348633 M -0.04016876220703125 1.9073486328125e-06 L 30.42267990112305 1.9073486328125e-06 L 30.42267990112305 24.53989219665527 C 30.42267990112305 24.53989219665527 31.47428512573242 27.14007949829102 15.3982982635498 27.14007949829102 C 15.26872539520264 27.14007949829102 15.13842868804932 27.13991165161133 15.00662040710449 27.13957214355469 C -1.478460311889648 27.09702110290527 -0.04016876220703125 24.53989219665527 -0.04016876220703125 24.53989219665527 L -0.04016876220703125 1.9073486328125e-06 Z" stroke="none" fill="#fff"/>
              </g>
              <ellipse id="Ellipse_17-5" data-name="Ellipse 17" cx="14.871" cy="2.478" rx="14.871" ry="2.478" transform="translate(0.437)" fill="#fff" stroke="#fff" stroke-width="2"/>
              <path id="Path_123-5" data-name="Path 123" d="M.66,17.821s.3.722,3.263,1.348a35.717,35.717,0,0,0,5.6.57" transform="translate(-0.158 -10.788)" fill="none" stroke="#fff" stroke-width="2"/>
              <path id="Path_124-5" data-name="Path 124" d="M.66,17.821s.3.722,3.263,1.348a35.717,35.717,0,0,0,5.6.57" transform="translate(-0.158 -6.175)" fill="none" stroke="#fff" stroke-width="2"/>
            </g>
            <g id="Path_78-6" data-name="Path 78" transform="translate(0.917 2.709)" fill="#0a9db2">
              <path d="M 14.50343036651611 25.3526611328125 C 14.38224029541016 25.3526611328125 14.26041030883789 25.35250282287598 14.13712024688721 25.3521728515625 C 3.661762237548828 25.32430267333984 1.388261318206787 24.15254020690918 0.9580004215240479 23.82601356506348 L 0.9580004215240479 1.000002026557922 L 27.65884017944336 1.000002026557922 L 27.65884017944336 23.76189231872559 C 27.48305892944336 23.90654373168945 26.90232086181641 24.27268981933594 25.2564811706543 24.61250114440918 C 22.8776912689209 25.10364151000977 19.25984954833984 25.3526611328125 14.50343036651611 25.3526611328125 Z" stroke="none"/>
              <path d="M 1.958000183105469 2.000001907348633 L 1.958000183105469 23.21586608886719 C 2.339443206787109 23.36368560791016 3.041788101196289 23.57393836975098 4.271860122680664 23.77217102050781 C 6.590129852294922 24.14578247070312 9.910181045532227 24.34092140197754 14.1397705078125 24.3521728515625 C 14.26217079162598 24.35249137878418 14.38320064544678 24.35265159606934 14.50352001190186 24.35265159606934 C 22.85168647766113 24.35265159606934 25.75526237487793 23.55466651916504 26.65884017944336 23.17950248718262 L 26.65884017944336 2.000001907348633 L 1.958000183105469 2.000001907348633 M -0.04199981689453125 1.9073486328125e-06 L 28.65884017944336 1.9073486328125e-06 L 28.65884017944336 23.82790184020996 C 28.65884017944336 23.82790184020996 29.64965057373047 26.3526554107666 14.50352191925049 26.3526554107666 C 14.38144302368164 26.3526554107666 14.25864505767822 26.35249328613281 14.13446044921875 26.3521614074707 C -1.397100448608398 26.31085205078125 -0.04199981689453125 23.82790184020996 -0.04199981689453125 23.82790184020996 L -0.04199981689453125 1.9073486328125e-06 Z" stroke="none" fill="#fff"/>
            </g>
            <ellipse id="Ellipse_17-6" data-name="Ellipse 17" cx="14.127" cy="2.231" rx="14.127" ry="2.231" transform="translate(0.933 0.496)" fill="#0a9db2" stroke="#fff" stroke-width="2"/>
            <path id="Path_123-6" data-name="Path 123" d="M.66,17.821s.275.711,3.017,1.327a31.094,31.094,0,0,0,5.178.561" transform="translate(0.649 -10.663)" fill="none" stroke="#fff" stroke-width="2"/>
            <path id="Path_124-6" data-name="Path 124" d="M.66,17.821s.275.711,3.017,1.327a31.094,31.094,0,0,0,5.178.561" transform="translate(0.649 -6.182)" fill="none" stroke="#fff" stroke-width="2"/>
          </g>
          <g id="_02-3" data-name="02" transform="translate(10.033 27.451)">
            <g id="fon-15" data-name="fon" transform="translate(0 0)">
              <g id="Path_79-5" data-name="Path 79" transform="translate(0.356 2.837)" fill="#fff">
                <path d="M 15.29128360748291 26.09851837158203 C 15.1634635925293 26.09851837158203 15.03489303588867 26.09834861755371 14.90487289428711 26.09800910949707 C 9.706333160400391 26.08451843261719 5.800853252410889 25.81691932678223 3.296893119812012 25.3026294708252 C 1.739502906799316 24.98274612426758 1.152418494224548 24.65044975280762 0.9596231579780579 24.50797080993652 L 0.9596231579780579 24.5023078918457 L 0.9596231579780579 0.9999986290931702 L 29.21164321899414 0.9999986290931702 L 29.21164321899414 24.44021034240723 C 29.03061866760254 24.58970832824707 28.42255973815918 24.97393798828125 26.67262268066406 25.3294792175293 C 24.16104316711426 25.83977890014648 20.33180236816406 26.09851837158203 15.29128360748291 26.09851837158203 Z" stroke="none"/>
                <path d="M 1.959623336791992 1.999998092651367 L 1.959623336791992 23.89791679382324 C 2.249164581298828 24.01140403747559 2.732372283935547 24.16580390930176 3.498083114624023 24.32306861877441 C 5.936832427978516 24.8239688873291 9.775503158569336 25.08469772338867 14.90746307373047 25.09801864624023 C 15.03662300109863 25.09834861755371 15.16433334350586 25.09851837158203 15.29128360748291 25.09851837158203 C 24.23725128173828 25.09851837158203 27.28409385681152 24.25005912780762 28.21164321899414 23.86025619506836 L 28.21164321899414 1.999998092651367 L 1.959623336791992 1.999998092651367 M -0.04037666320800781 -1.9073486328125e-06 L 30.21164321899414 -1.9073486328125e-06 L 30.21164321899414 24.5023078918457 C 30.21164321899414 24.5023078918457 31.25601387023926 27.0985164642334 15.29128646850586 27.0985164642334 C 15.1626091003418 27.0985164642334 15.03316879272461 27.09834861755371 14.90227317810059 27.09800910949707 C -1.468717575073242 27.05552864074707 -0.04037666320800781 24.5023078918457 -0.04037666320800781 24.5023078918457 L -0.04037666320800781 -1.9073486328125e-06 Z" stroke="none" fill="#fff"/>
              </g>
              <ellipse id="Ellipse_18-5" data-name="Ellipse 18" cx="14.871" cy="2.974" rx="14.871" ry="2.974" fill="#fff" stroke="#fff" stroke-width="2"/>
              <line id="Line_32-5" data-name="Line 32" y1="2.048" x2="5.215" transform="translate(15.542 0.765)" fill="none" stroke="#fff" stroke-width="2"/>
              <line id="Line_33-5" data-name="Line 33" x2="12.169" y2="1.024" transform="translate(15.919 2.813)" fill="none" stroke="#fff" stroke-width="2"/>
            </g>
            <g id="Path_79-6" data-name="Path 79" transform="translate(1.202 3.085)" fill="#0a9db2">
              <path d="M 14.3940896987915 25.3526611328125 C 14.2738094329834 25.3526611328125 14.15290927886963 25.35250282287598 14.03055953979492 25.3521728515625 C 3.635509014129639 25.32430839538574 1.383123159408569 24.15366554260254 0.9577797055244446 23.82829856872559 L 0.9577797055244446 23.82791137695312 L 0.9577797055244446 1.000002026557922 L 27.44328880310059 1.000002026557922 L 27.44328880310059 23.7641773223877 C 27.26986885070801 23.90805625915527 26.69531631469727 24.27335739135742 25.06323051452637 24.61285209655762 C 22.70326042175293 25.10376167297363 19.11363983154297 25.3526611328125 14.3940896987915 25.3526611328125 Z" stroke="none"/>
              <path d="M 1.957778930664062 2.000001907348633 L 1.957778930664062 23.21961402893066 C 2.336105346679688 23.36681747436523 3.03230094909668 23.57615661621094 4.250730514526367 23.77364158630371 C 6.549829483032227 24.14629173278809 9.841150283813477 24.34093284606934 14.03322982788086 24.3521728515625 C 14.15467929840088 24.35249137878418 14.27477931976318 24.35265159606934 14.39416980743408 24.35265159606934 C 22.66765594482422 24.35265159606934 25.5470027923584 23.55728340148926 26.44327926635742 23.18341636657715 L 26.44327926635742 2.000001907348633 L 1.957778930664062 2.000001907348633 M -0.0422210693359375 1.9073486328125e-06 L 28.44327926635742 1.9073486328125e-06 L 28.44327926635742 23.82790184020996 C 28.44327926635742 23.82790184020996 29.42667198181152 26.3526554107666 14.39417171478271 26.3526554107666 C 14.27300930023193 26.3526554107666 14.15113258361816 26.35249328613281 14.02787971496582 26.3521614074707 C -1.38715934753418 26.31085205078125 -0.0422210693359375 23.82790184020996 -0.0422210693359375 23.82790184020996 L -0.0422210693359375 1.9073486328125e-06 Z" stroke="none" fill="#fff"/>
            </g>
            <ellipse id="Ellipse_18-6" data-name="Ellipse 18" cx="13.631" cy="2.478" rx="13.631" ry="2.478" transform="translate(1.983 0.991)" fill="#0a9db2" stroke="#fff" stroke-width="2"/>
            <line id="Line_32-6" data-name="Line 32" y1="1.991" x2="5.072" transform="translate(15.399 1.07)" fill="none" stroke="#fff" stroke-width="2"/>
            <line id="Line_33-6" data-name="Line 33" x2="11.834" y2="0.996" transform="translate(15.399 3.062)" fill="none" stroke="#fff" stroke-width="2"/>
          </g>
        </g>
        <g id="boxFront-3" data-name="boxFront" transform="translate(0 33.38)">
          <path id="Path_121-3" data-name="Path 121" d="M16.782-.081l2.954-.628L71.348,7.509,122.321-.417l1.9.417,2.329,20.426L16.308,17.191Z" transform="translate(0.394 0.709)" fill="#fff"/>
          <path id="Path_22-3" data-name="Path 22" d="M-1.08,1.069,54.98-7.859V36.9L-.54,45.714Z" transform="translate(72.566 8.451)" fill="#fff" stroke="#01bbd6" stroke-width="2"/>
          <path id="Path_25-3" data-name="Path 25" d="M-1.436-.926,54.537-9.808,71.314-2.161,15.889,6.681Z" transform="translate(72.743 10.415)" fill="#fff" stroke="#01bbd6" stroke-width="2"/>
          <path id="Path_23-3" data-name="Path 23" d="M34.166-15.417,89.574-6.353l.567,44.681L34.166,29.384Z" transform="translate(-17.577 15.844)" fill="#fff" stroke="#01bbd6" stroke-width="2" opacity="0.997"/>
          <path id="Path_24-3" data-name="Path 24" d="M18.842-16.255,74.456-7.2,58.28.514,2-8.524Z" transform="translate(-2.001 16.73)" fill="#fff" stroke="#01bbd6" stroke-width="2"/>
          <g id="boxShadow-3" data-name="boxShadow" transform="translate(16.34 9.782)">
            <path id="Path_39-3" data-name="Path 39" d="M.313,6.754V.808l16.45,7.121L55.868,1.956l-.457,5.973L16.763,14.17Z" transform="translate(55.529 -0.67)" fill="url(#linear-gradient-2)"/>
            <path id="Path_40-3" data-name="Path 40" d="M35.67-5.611,75.623.942l15.662-7.6V-.434L75.108,7.281,35.67.671Z" transform="translate(-35.67 6.662)" fill="url(#linear-gradient-2)"/>
          </g>
        </g>
      </g>
    </g>
  </g>
</svg>
