<svg xmlns="http://www.w3.org/2000/svg" xmlns:xlink="http://www.w3.org/1999/xlink" width="503.598" height="210.609" viewBox="0 0 503.598 210.609">
  <defs>
    <linearGradient id="linear-gradient" x1="0.5" x2="0.5" y2="1" gradientUnits="objectBoundingBox">
      <stop offset="0" stop-color="#02bbd6"/>
      <stop offset="1" stop-color="#00bbd6"/>
    </linearGradient>
    <filter id="Line_31" x="102.601" y="191.609" width="400.998" height="19" filterUnits="userSpaceOnUse">
      <feOffset dy="3" input="SourceAlpha"/>
      <feGaussianBlur stdDeviation="3" result="blur"/>
      <feFlood flood-opacity="0.537"/>
      <feComposite operator="in" in2="blur"/>
      <feComposite in="SourceGraphic"/>
    </filter>
  </defs>
  <g id="car" transform="translate(-650.899 -1358.153)">
    <g id="whell" transform="translate(796.973 1489.687)">
      <g id="Ellipse_19" data-name="Ellipse 19" transform="matrix(0.985, -0.174, 0.174, 0.985, 0, 10.132)" fill="#fff" stroke="#212121" stroke-width="10">
        <circle cx="29.174" cy="29.174" r="29.174" stroke="none"/>
        <circle cx="29.174" cy="29.174" r="24.174" fill="none"/>
      </g>
      <g id="Ellipse_20" data-name="Ellipse 20" transform="matrix(0.985, -0.174, 0.174, 0.985, 29.464, 30.763)" fill="#fff" stroke="#212121" stroke-width="1">
        <circle cx="3.74" cy="3.74" r="3.74" stroke="none"/>
        <circle cx="3.74" cy="3.74" r="3.24" fill="none"/>
      </g>
      <g id="Path_85" data-name="Path 85" transform="matrix(0.545, -0.839, 0.839, 0.545, 32.926, 29.478)" fill="#fff">
        <path d="M 5.971865177154541 3.488256216049194 C 5.53595495223999 3.488256216049194 4.384055137634277 3.372786283493042 3.18797492980957 3.116076231002808 C 2.137002229690552 2.890515327453613 1.556806445121765 2.666724681854248 1.247895479202271 2.511451005935669 C 1.570047974586487 2.296147108078003 2.178784132003784 1.979214072227478 3.221225023269653 1.630486369132996 C 4.506955146789551 1.200376272201538 5.622654914855957 0.9999963045120239 5.971865177154541 0.9999963045120239 C 6.657885074615479 0.9999963045120239 7.215994834899902 1.558106303215027 7.215994834899902 2.244126319885254 C 7.215994834899902 2.930146217346191 6.657885074615479 3.488256216049194 5.971865177154541 3.488256216049194 Z" stroke="none"/>
        <path d="M 5.973151206970215 2 C 5.789326667785645 2.003185272216797 5.186038017272949 2.101763725280762 4.386112213134766 2.321231603622437 C 5.111385345458984 2.435546636581421 5.713885307312012 2.488256454467773 5.971864700317383 2.488256454467773 C 6.106474876403809 2.488256454467773 6.215985298156738 2.378736257553101 6.215985298156738 2.244126319885254 C 6.215985298156738 2.109943628311157 6.107173919677734 2.000692129135132 5.973151206970215 2 M 5.971864700317383 -3.814697265625e-06 C 7.211255073547363 -3.814697265625e-06 8.215985298156738 1.004726409912109 8.215985298156738 2.244126319885254 C 8.215985298156738 3.483526229858398 7.211255073547363 4.488256454467773 5.971864700317383 4.488256454467773 C 4.732464790344238 4.488256454467773 -4.76837158203125e-06 3.799886226654053 -4.76837158203125e-06 2.560486316680908 C -4.76837158203125e-06 1.321096420288086 4.732464790344238 -3.814697265625e-06 5.971864700317383 -3.814697265625e-06 Z" stroke="none" fill="#212121"/>
      </g>
      <g id="Path_88" data-name="Path 88" transform="matrix(0.799, 0.602, -0.602, 0.799, 38.108, 33.463)" fill="#fff">
        <path d="M 5.971865177154541 3.488256216049194 C 5.53595495223999 3.488256216049194 4.384055137634277 3.372786283493042 3.18797492980957 3.116076231002808 C 2.137002229690552 2.890515327453613 1.556806445121765 2.666724681854248 1.247895479202271 2.511451005935669 C 1.570047974586487 2.296147108078003 2.178784132003784 1.979214072227478 3.221225023269653 1.630486369132996 C 4.506955146789551 1.200376272201538 5.622654914855957 0.9999963045120239 5.971865177154541 0.9999963045120239 C 6.657885074615479 0.9999963045120239 7.215994834899902 1.558106303215027 7.215994834899902 2.244126319885254 C 7.215994834899902 2.930146217346191 6.657885074615479 3.488256216049194 5.971865177154541 3.488256216049194 Z" stroke="none"/>
        <path d="M 5.973151206970215 2 C 5.789326667785645 2.003185272216797 5.186038017272949 2.101763725280762 4.386112213134766 2.321231603622437 C 5.111385345458984 2.435546636581421 5.713885307312012 2.488256454467773 5.971864700317383 2.488256454467773 C 6.106474876403809 2.488256454467773 6.215985298156738 2.378736257553101 6.215985298156738 2.244126319885254 C 6.215985298156738 2.109943628311157 6.107173919677734 2.000692129135132 5.973151206970215 2 M 5.971864700317383 -3.814697265625e-06 C 7.211255073547363 -3.814697265625e-06 8.215985298156738 1.004726409912109 8.215985298156738 2.244126319885254 C 8.215985298156738 3.483526229858398 7.211255073547363 4.488256454467773 5.971864700317383 4.488256454467773 C 4.732464790344238 4.488256454467773 -4.76837158203125e-06 3.799886226654053 -4.76837158203125e-06 2.560486316680908 C -4.76837158203125e-06 1.321096420288086 4.732464790344238 -3.814697265625e-06 5.971864700317383 -3.814697265625e-06 Z" stroke="none" fill="#212121"/>
      </g>
      <g id="Path_86" data-name="Path 86" transform="matrix(-0.777, -0.629, 0.629, -0.777, 29.618, 34.51)" fill="#fff">
        <path d="M 5.971865177154541 3.488256216049194 C 5.53595495223999 3.488256216049194 4.384055137634277 3.372786283493042 3.18797492980957 3.116076231002808 C 2.137002229690552 2.890515327453613 1.556806445121765 2.666724681854248 1.247895479202271 2.511451005935669 C 1.570047974586487 2.296147108078003 2.178784132003784 1.979214072227478 3.221225023269653 1.630486369132996 C 4.506955146789551 1.200376272201538 5.622654914855957 0.9999963045120239 5.971865177154541 0.9999963045120239 C 6.657885074615479 0.9999963045120239 7.215994834899902 1.558106303215027 7.215994834899902 2.244126319885254 C 7.215994834899902 2.930146217346191 6.657885074615479 3.488256216049194 5.971865177154541 3.488256216049194 Z" stroke="none"/>
        <path d="M 5.973151206970215 2 C 5.789326667785645 2.003185272216797 5.186038017272949 2.101763725280762 4.386112213134766 2.321231603622437 C 5.111385345458984 2.435546636581421 5.713885307312012 2.488256454467773 5.971864700317383 2.488256454467773 C 6.106474876403809 2.488256454467773 6.215985298156738 2.378736257553101 6.215985298156738 2.244126319885254 C 6.215985298156738 2.109943628311157 6.107173919677734 2.000692129135132 5.973151206970215 2 M 5.971864700317383 -3.814697265625e-06 C 7.211255073547363 -3.814697265625e-06 8.215985298156738 1.004726409912109 8.215985298156738 2.244126319885254 C 8.215985298156738 3.483526229858398 7.211255073547363 4.488256454467773 5.971864700317383 4.488256454467773 C 4.732464790344238 4.488256454467773 -4.76837158203125e-06 3.799886226654053 -4.76837158203125e-06 2.560486316680908 C -4.76837158203125e-06 1.321096420288086 4.732464790344238 -3.814697265625e-06 5.971864700317383 -3.814697265625e-06 Z" stroke="none" fill="#212121"/>
      </g>
      <g id="Path_87" data-name="Path 87" transform="matrix(-0.656, 0.755, -0.755, -0.656, 33.723, 37.528)" fill="#fff">
        <path d="M 5.971865177154541 3.488256216049194 C 5.53595495223999 3.488256216049194 4.384055137634277 3.372786283493042 3.18797492980957 3.116076231002808 C 2.137002229690552 2.890515327453613 1.556806445121765 2.666724681854248 1.247895479202271 2.511451005935669 C 1.570047974586487 2.296147108078003 2.178784132003784 1.979214072227478 3.221225023269653 1.630486369132996 C 4.506955146789551 1.200376272201538 5.622654914855957 0.9999963045120239 5.971865177154541 0.9999963045120239 C 6.657885074615479 0.9999963045120239 7.215994834899902 1.558106303215027 7.215994834899902 2.244126319885254 C 7.215994834899902 2.930146217346191 6.657885074615479 3.488256216049194 5.971865177154541 3.488256216049194 Z" stroke="none"/>
        <path d="M 5.973151206970215 2 C 5.789326667785645 2.003185272216797 5.186038017272949 2.101763725280762 4.386112213134766 2.321231603622437 C 5.111385345458984 2.435546636581421 5.713885307312012 2.488256454467773 5.971864700317383 2.488256454467773 C 6.106474876403809 2.488256454467773 6.215985298156738 2.378736257553101 6.215985298156738 2.244126319885254 C 6.215985298156738 2.109943628311157 6.107173919677734 2.000692129135132 5.973151206970215 2 M 5.971864700317383 -3.814697265625e-06 C 7.211255073547363 -3.814697265625e-06 8.215985298156738 1.004726409912109 8.215985298156738 2.244126319885254 C 8.215985298156738 3.483526229858398 7.211255073547363 4.488256454467773 5.971864700317383 4.488256454467773 C 4.732464790344238 4.488256454467773 -4.76837158203125e-06 3.799886226654053 -4.76837158203125e-06 2.560486316680908 C -4.76837158203125e-06 1.321096420288086 4.732464790344238 -3.814697265625e-06 5.971864700317383 -3.814697265625e-06 Z" stroke="none" fill="#212121"/>
      </g>
      <g id="Ellipse_25" data-name="Ellipse 25" transform="translate(33.048 33.048)" fill="#fff" stroke="#212121" stroke-width="1">
        <circle cx="0.748" cy="0.748" r="0.748" stroke="none"/>
        <circle cx="0.748" cy="0.748" r="0.248" fill="none"/>
      </g>
    </g>
    <g id="whell-2" data-name="whell" transform="translate(1015.952 1489.687)">
      <g id="Ellipse_19-2" data-name="Ellipse 19" transform="matrix(0.985, -0.174, 0.174, 0.985, 0, 10.132)" fill="#fff" stroke="#212121" stroke-width="10">
        <circle cx="29.174" cy="29.174" r="29.174" stroke="none"/>
        <circle cx="29.174" cy="29.174" r="24.174" fill="none"/>
      </g>
      <g id="Ellipse_20-2" data-name="Ellipse 20" transform="matrix(0.985, -0.174, 0.174, 0.985, 29.464, 30.763)" fill="#fff" stroke="#212121" stroke-width="1">
        <circle cx="3.74" cy="3.74" r="3.74" stroke="none"/>
        <circle cx="3.74" cy="3.74" r="3.24" fill="none"/>
      </g>
      <g id="Path_85-2" data-name="Path 85" transform="matrix(0.545, -0.839, 0.839, 0.545, 32.926, 29.478)" fill="#fff">
        <path d="M 5.971865177154541 3.488256216049194 C 5.53595495223999 3.488256216049194 4.384055137634277 3.372786283493042 3.18797492980957 3.116076231002808 C 2.137002229690552 2.890515327453613 1.556806445121765 2.666724681854248 1.247895479202271 2.511451005935669 C 1.570047974586487 2.296147108078003 2.178784132003784 1.979214072227478 3.221225023269653 1.630486369132996 C 4.506955146789551 1.200376272201538 5.622654914855957 0.9999963045120239 5.971865177154541 0.9999963045120239 C 6.657885074615479 0.9999963045120239 7.215994834899902 1.558106303215027 7.215994834899902 2.244126319885254 C 7.215994834899902 2.930146217346191 6.657885074615479 3.488256216049194 5.971865177154541 3.488256216049194 Z" stroke="none"/>
        <path d="M 5.973151206970215 2 C 5.789326667785645 2.003185272216797 5.186038017272949 2.101763725280762 4.386112213134766 2.321231603622437 C 5.111385345458984 2.435546636581421 5.713885307312012 2.488256454467773 5.971864700317383 2.488256454467773 C 6.106474876403809 2.488256454467773 6.215985298156738 2.378736257553101 6.215985298156738 2.244126319885254 C 6.215985298156738 2.109943628311157 6.107173919677734 2.000692129135132 5.973151206970215 2 M 5.971864700317383 -3.814697265625e-06 C 7.211255073547363 -3.814697265625e-06 8.215985298156738 1.004726409912109 8.215985298156738 2.244126319885254 C 8.215985298156738 3.483526229858398 7.211255073547363 4.488256454467773 5.971864700317383 4.488256454467773 C 4.732464790344238 4.488256454467773 -4.76837158203125e-06 3.799886226654053 -4.76837158203125e-06 2.560486316680908 C -4.76837158203125e-06 1.321096420288086 4.732464790344238 -3.814697265625e-06 5.971864700317383 -3.814697265625e-06 Z" stroke="none" fill="#212121"/>
      </g>
      <g id="Path_88-2" data-name="Path 88" transform="matrix(0.799, 0.602, -0.602, 0.799, 38.108, 33.463)" fill="#fff">
        <path d="M 5.971865177154541 3.488256216049194 C 5.53595495223999 3.488256216049194 4.384055137634277 3.372786283493042 3.18797492980957 3.116076231002808 C 2.137002229690552 2.890515327453613 1.556806445121765 2.666724681854248 1.247895479202271 2.511451005935669 C 1.570047974586487 2.296147108078003 2.178784132003784 1.979214072227478 3.221225023269653 1.630486369132996 C 4.506955146789551 1.200376272201538 5.622654914855957 0.9999963045120239 5.971865177154541 0.9999963045120239 C 6.657885074615479 0.9999963045120239 7.215994834899902 1.558106303215027 7.215994834899902 2.244126319885254 C 7.215994834899902 2.930146217346191 6.657885074615479 3.488256216049194 5.971865177154541 3.488256216049194 Z" stroke="none"/>
        <path d="M 5.973151206970215 2 C 5.789326667785645 2.003185272216797 5.186038017272949 2.101763725280762 4.386112213134766 2.321231603622437 C 5.111385345458984 2.435546636581421 5.713885307312012 2.488256454467773 5.971864700317383 2.488256454467773 C 6.106474876403809 2.488256454467773 6.215985298156738 2.378736257553101 6.215985298156738 2.244126319885254 C 6.215985298156738 2.109943628311157 6.107173919677734 2.000692129135132 5.973151206970215 2 M 5.971864700317383 -3.814697265625e-06 C 7.211255073547363 -3.814697265625e-06 8.215985298156738 1.004726409912109 8.215985298156738 2.244126319885254 C 8.215985298156738 3.483526229858398 7.211255073547363 4.488256454467773 5.971864700317383 4.488256454467773 C 4.732464790344238 4.488256454467773 -4.76837158203125e-06 3.799886226654053 -4.76837158203125e-06 2.560486316680908 C -4.76837158203125e-06 1.321096420288086 4.732464790344238 -3.814697265625e-06 5.971864700317383 -3.814697265625e-06 Z" stroke="none" fill="#212121"/>
      </g>
      <g id="Path_86-2" data-name="Path 86" transform="matrix(-0.777, -0.629, 0.629, -0.777, 29.618, 34.51)" fill="#fff">
        <path d="M 5.971865177154541 3.488256216049194 C 5.53595495223999 3.488256216049194 4.384055137634277 3.372786283493042 3.18797492980957 3.116076231002808 C 2.137002229690552 2.890515327453613 1.556806445121765 2.666724681854248 1.247895479202271 2.511451005935669 C 1.570047974586487 2.296147108078003 2.178784132003784 1.979214072227478 3.221225023269653 1.630486369132996 C 4.506955146789551 1.200376272201538 5.622654914855957 0.9999963045120239 5.971865177154541 0.9999963045120239 C 6.657885074615479 0.9999963045120239 7.215994834899902 1.558106303215027 7.215994834899902 2.244126319885254 C 7.215994834899902 2.930146217346191 6.657885074615479 3.488256216049194 5.971865177154541 3.488256216049194 Z" stroke="none"/>
        <path d="M 5.973151206970215 2 C 5.789326667785645 2.003185272216797 5.186038017272949 2.101763725280762 4.386112213134766 2.321231603622437 C 5.111385345458984 2.435546636581421 5.713885307312012 2.488256454467773 5.971864700317383 2.488256454467773 C 6.106474876403809 2.488256454467773 6.215985298156738 2.378736257553101 6.215985298156738 2.244126319885254 C 6.215985298156738 2.109943628311157 6.107173919677734 2.000692129135132 5.973151206970215 2 M 5.971864700317383 -3.814697265625e-06 C 7.211255073547363 -3.814697265625e-06 8.215985298156738 1.004726409912109 8.215985298156738 2.244126319885254 C 8.215985298156738 3.483526229858398 7.211255073547363 4.488256454467773 5.971864700317383 4.488256454467773 C 4.732464790344238 4.488256454467773 -4.76837158203125e-06 3.799886226654053 -4.76837158203125e-06 2.560486316680908 C -4.76837158203125e-06 1.321096420288086 4.732464790344238 -3.814697265625e-06 5.971864700317383 -3.814697265625e-06 Z" stroke="none" fill="#212121"/>
      </g>
      <g id="Path_87-2" data-name="Path 87" transform="matrix(-0.656, 0.755, -0.755, -0.656, 33.723, 37.528)" fill="#fff">
        <path d="M 5.971865177154541 3.488256216049194 C 5.53595495223999 3.488256216049194 4.384055137634277 3.372786283493042 3.18797492980957 3.116076231002808 C 2.137002229690552 2.890515327453613 1.556806445121765 2.666724681854248 1.247895479202271 2.511451005935669 C 1.570047974586487 2.296147108078003 2.178784132003784 1.979214072227478 3.221225023269653 1.630486369132996 C 4.506955146789551 1.200376272201538 5.622654914855957 0.9999963045120239 5.971865177154541 0.9999963045120239 C 6.657885074615479 0.9999963045120239 7.215994834899902 1.558106303215027 7.215994834899902 2.244126319885254 C 7.215994834899902 2.930146217346191 6.657885074615479 3.488256216049194 5.971865177154541 3.488256216049194 Z" stroke="none"/>
        <path d="M 5.973151206970215 2 C 5.789326667785645 2.003185272216797 5.186038017272949 2.101763725280762 4.386112213134766 2.321231603622437 C 5.111385345458984 2.435546636581421 5.713885307312012 2.488256454467773 5.971864700317383 2.488256454467773 C 6.106474876403809 2.488256454467773 6.215985298156738 2.378736257553101 6.215985298156738 2.244126319885254 C 6.215985298156738 2.109943628311157 6.107173919677734 2.000692129135132 5.973151206970215 2 M 5.971864700317383 -3.814697265625e-06 C 7.211255073547363 -3.814697265625e-06 8.215985298156738 1.004726409912109 8.215985298156738 2.244126319885254 C 8.215985298156738 3.483526229858398 7.211255073547363 4.488256454467773 5.971864700317383 4.488256454467773 C 4.732464790344238 4.488256454467773 -4.76837158203125e-06 3.799886226654053 -4.76837158203125e-06 2.560486316680908 C -4.76837158203125e-06 1.321096420288086 4.732464790344238 -3.814697265625e-06 5.971864700317383 -3.814697265625e-06 Z" stroke="none" fill="#212121"/>
      </g>
      <g id="Ellipse_25-2" data-name="Ellipse 25" transform="translate(33.048 33.048)" fill="#fff" stroke="#212121" stroke-width="1">
        <circle cx="0.748" cy="0.748" r="0.748" stroke="none"/>
        <circle cx="0.748" cy="0.748" r="0.248" fill="none"/>
      </g>
    </g>
    <g id="Path_82" data-name="Path 82" transform="translate(772.5 1482)" fill="url(#linear-gradient)">
      <path d="M 93.17284393310547 39.60449600219727 L 92.94368743896484 38.66243362426758 L 93.17515563964844 38.60506057739258 L 93.17762756347656 38.60562515258789 L 93.29410552978516 39.0753173828125 L 93.17284393310547 39.60449600219727 Z M 225.1332550048828 38.60449600219727 L 93.68724822998047 38.60449600219727 C 93.67268371582031 38.38446807861328 93.64347839355469 38.10877227783203 93.60003662109375 37.76021575927734 C 93.51206207275391 37.05452728271484 93.33084869384766 35.89802932739258 92.96703338623047 34.39580917358398 C 92.32303619384766 31.73662185668945 91.34915924072266 29.03055953979492 90.15071868896484 26.57021522521973 C 88.538818359375 23.26096534729004 86.50031280517578 20.30974578857422 84.09188079833984 17.79862213134766 C 81.14475250244141 14.72580909729004 77.62937927246094 12.30327701568604 73.64340972900391 10.59830856323242 C 69.00025177001953 8.612246513366699 63.64631652832031 7.57221508026123 57.7303466796875 7.507058620452881 C 57.53775405883789 7.504933834075928 57.34131622314453 7.503870964050293 57.15072250366211 7.503870964050293 C 49.59637832641602 7.503870964050293 42.99840927124023 9.162746429443359 37.54009628295898 12.4344654083252 C 33.16703414916992 15.05568408966064 29.5173454284668 18.70862197875977 26.6923770904541 23.29180908203125 C 25.30834579467773 25.53730964660645 23.38637733459473 29.23805809020996 22.09003448486328 34.11662292480469 C 21.52309226989746 36.25026702880859 21.27347183227539 37.85940170288086 21.1771354675293 38.60449600219727 L -20.49999809265137 38.60449600219727 L -20.49999809265137 6.735340118408203 L 225.1332550048828 6.735340118408203 L 225.1332550048828 38.60449600219727 Z" stroke="none"/>
      <path d="M -20 7.235340118408203 L -20 38.10449600219727 L 20.74205017089844 38.10449600219727 C 20.87055969238281 37.23596572875977 21.12669372558594 35.79497528076172 21.60678100585938 33.98821258544922 C 22.91874694824219 29.05080795288086 24.86503601074219 25.30359077453613 26.2667236328125 23.02946472167969 C 29.1341552734375 18.37740325927734 32.84056091308594 14.66843414306641 37.28303527832031 12.00562286376953 C 41.63319396972656 9.398139953613281 46.6920166015625 7.800457000732422 52.36856079101562 7.235340118408203 L -20 7.235340118408203 M 62.05378723144531 7.235340118408203 C 66.34527587890625 7.650524139404297 70.29568481445312 8.62249755859375 73.84031677246094 10.13871383666992 C 77.88847351074219 11.87030792236328 81.45912933349609 14.33115196228027 84.45306396484375 17.45287132263184 C 86.89753723144531 20.00165176391602 88.96581268310547 22.99568367004395 90.60050201416016 26.35180854797363 C 91.83174896240234 28.8796215057373 92.79150390625 31.54658889770508 93.453125 34.27868270874023 C 93.82241058349609 35.80355834960938 94.00666046142578 36.98005676269531 94.09622192382812 37.69852828979492 C 94.11382293701172 37.8397102355957 94.12929534912109 37.97561264038086 94.14247894287109 38.10449600219727 L 224.6332550048828 38.10449600219727 L 224.6332550048828 7.235340118408203 L 62.05378723144531 7.235340118408203 M -21 6.235340118408203 L 225.6332550048828 6.235340118408203 L 225.6332550048828 39.10449600219727 C 225.6332550048828 39.10449600219727 128.506103515625 39.10449600219727 93.17733764648438 39.10449600219727 C 93.46392822265625 38.95301818847656 90.81388092041016 8.371402740478516 57.724853515625 8.007026672363281 C 57.5340576171875 8.004924774169922 57.33950805664062 8.003856658935547 57.15072631835938 8.003856658935547 C 24.43408203125 8.003856658935547 21.62278747558594 39.10449600219727 21.62278747558594 39.10449600219727 L -21 39.10449600219727 L -21 6.235340118408203 Z M 93.17284393310547 39.10449600219727 C 93.17500305175781 39.10449600219727 93.17517852783203 39.10449600219727 93.17733764648438 39.10449600219727 C 93.17662048339844 39.10487747192383 93.1759033203125 39.10506439208984 93.17514038085938 39.10506439208984 C 93.17440795898438 39.10506439208984 93.17362213134766 39.1048698425293 93.17284393310547 39.10449600219727 Z" stroke="none" fill="#212121"/>
    </g>
    <g id="Path_295" data-name="Path 295" transform="translate(751.5 1358.153)" fill="#7fddea">
      <path d="M 246.1332550048828 126.4511871337891 L 0.5000025033950806 126.4511871337891 L 0.5000025033950806 0.4999998211860657 L 246.1332550048828 0.4999998211860657 L 246.1332550048828 126.4511871337891 Z" stroke="none"/>
      <path d="M 1 1 L 1 125.9511871337891 L 245.6332550048828 125.9511871337891 L 245.6332550048828 1 L 1 1 M 0 0 L 246.6332550048828 0 L 246.6332550048828 126.9511871337891 L 0 126.9511871337891 L 0 0 Z" stroke="none" fill="#212121"/>
    </g>
    <g id="Rectangle_152" data-name="Rectangle 152" transform="translate(743 1506)" fill="#fff" stroke="#212121" stroke-width="1">
      <rect width="24" height="18" rx="2" stroke="none"/>
      <rect x="0.5" y="0.5" width="23" height="17" rx="1.5" fill="none"/>
    </g>
    <g id="Rectangle_153" data-name="Rectangle 153" transform="translate(748 1482)" fill="#fff" stroke="#212121" stroke-width="1">
      <rect width="7" height="15" rx="1" stroke="none"/>
      <rect x="0.5" y="0.5" width="6" height="14" rx="0.5" fill="none"/>
    </g>
    <line id="Line_29" data-name="Line 29" x2="126.885" transform="translate(870.5 1509.884)" fill="none" stroke="#212121" stroke-width="1"/>
    <g id="Path_83" data-name="Path 83" transform="translate(1004.118 1404.41)" fill="#fff">
      <path d="M 91.26113128662109 116.1945571899414 L 80.96446990966797 116.1945571899414 C 80.869384765625 115.4007873535156 80.61529541015625 113.630256652832 80.02632141113281 111.268913269043 C 79.29421234130859 108.3337783813477 77.88302612304688 103.9040832519531 75.317626953125 99.46934509277344 C 72.42650604248047 94.47151184082031 68.69062805175781 90.48754119873047 64.21379852294922 87.62811279296875 C 58.6212272644043 84.05603790283203 51.86040878295898 82.24485015869141 44.11914825439453 82.24485015869141 C 34.17219543457031 82.24485015869141 26.24833297729492 85.21221923828125 20.56765556335449 91.06452941894531 C 18.30184173583984 93.3988037109375 16.39491844177246 96.20140838623047 14.89985656738281 99.39450073242188 C 13.70696449279785 101.9422073364258 12.77217960357666 104.7429122924805 12.12144088745117 107.7188186645508 C 11.23675155639648 111.7646026611328 11.12105274200439 114.9827728271484 11.11270427703857 116.1945571899414 L 4.488256454467773 116.1945571899414 C 2.289118051528931 116.1945571899414 0.4999949336051941 114.4054336547852 0.4999949336051941 112.2063140869141 L 0.4999949336051941 4.488251686096191 C 0.4999949336051941 2.289128541946411 2.289118051528931 0.5000054836273193 4.488256454467773 0.5000054836273193 L 66.02567291259766 0.5000054836273193 C 66.86669921875 0.5000054836273193 67.50186920166016 0.7790824174880981 68.08519744873047 1.404897809028625 C 68.64604187011719 2.006605386734009 69.09824371337891 2.873082399368286 69.57699584960938 3.790420770645142 C 69.73645782470703 4.095959186553955 69.90135192871094 4.411897659301758 70.07578277587891 4.729159355163574 C 71.79106903076172 7.848783016204834 94.25839233398438 50.40498352050781 95.24968719482422 54.1219596862793 C 95.26761627197266 58.08136367797852 95.24958038330078 111.6624221801758 95.24939727783203 112.2061462402344 C 95.24939727783203 114.4054336547852 93.46027374267578 116.1945571899414 91.26113128662109 116.1945571899414 Z" stroke="none"/>
      <path d="M 4.488258361816406 1.000007629394531 C 2.564826965332031 1.000007629394531 0.9999923706054688 2.5648193359375 0.9999923706054688 4.488250732421875 L 0.9999923706054688 112.2063140869141 C 0.9999923706054688 114.1297454833984 2.564826965332031 115.6945571899414 4.488258361816406 115.6945571899414 L 10.62110137939453 115.6945571899414 C 10.6585693359375 114.2044143676758 10.84145355224609 111.2317504882812 11.63298034667969 107.6120071411133 C 12.29164123535156 104.5998687744141 13.23842620849609 101.7637634277344 14.44702911376953 99.18247985839844 C 15.96570587158203 95.93895721435547 17.90427398681641 93.09051513671875 20.20888519287109 90.71626281738281 C 25.9873046875 84.76326751708984 34.0318717956543 81.74485015869141 44.11914825439453 81.74485015869141 C 51.95733261108398 81.74485015869141 58.8087043762207 83.58249664306641 64.48293304443359 87.20672607421875 C 69.02788543701172 90.10966491699219 72.81882476806641 94.15117645263672 75.75042724609375 99.21897888183594 C 78.34499359130859 103.7041320800781 79.77157592773438 108.1815872192383 80.51144409179688 111.1479110717773 C 81.01438140869141 113.1642990112305 81.27647399902344 114.760124206543 81.40410614013672 115.6945571899414 L 91.26113128662109 115.6945571899414 C 93.18456268310547 115.6945571899414 94.74939727783203 114.1297454833984 94.74939727783203 112.2059783935547 C 94.74958038330078 111.665168762207 94.76742553710938 58.65322494506836 94.74998474121094 54.1922607421875 C 94.585693359375 53.6439208984375 93.81772613525391 51.78293609619141 90.74030303955078 45.60071563720703 C 88.67793273925781 41.45761871337891 85.87308502197266 35.96347045898438 82.40367126464844 29.27086639404297 C 76.27373504638672 17.44605255126953 70.24800872802734 6.080146789550781 69.63764190673828 4.970054626464844 C 69.46059417724609 4.648048400878906 69.29442596435547 4.329666137695312 69.13373565673828 4.021759033203125 C 68.09745788574219 2.036140441894531 67.48857879638672 1.000007629394531 66.02567291259766 1.000007629394531 L 4.488258361816406 1.000007629394531 M 4.488258361816406 7.62939453125e-06 L 66.02567291259766 7.62939453125e-06 C 68.50445556640625 7.62939453125e-06 69.26728820800781 2.220962524414062 70.513916015625 4.488250732421875 C 71.76056671142578 6.755561828613281 94.92891693115234 50.55699157714844 95.74939727783203 54.05918884277344 C 95.76802825927734 57.53934478759766 95.74939727783203 112.2063140869141 95.74939727783203 112.2063140869141 C 95.74939727783203 114.6850967407227 93.73993682861328 116.6945571899414 91.26113128662109 116.6945571899414 L 80.51518249511719 116.6945571899414 C 80.51518249511719 116.6945571899414 77.63291931152344 82.74485015869141 44.11914825439453 82.74485015869141 C 10.60536193847656 82.74485015869141 11.61604309082031 116.6945571899414 11.61604309082031 116.6945571899414 L 4.488258361816406 116.6945571899414 C 2.009452819824219 116.6945571899414 -7.62939453125e-06 114.6850967407227 -7.62939453125e-06 112.2063140869141 L -7.62939453125e-06 4.488250732421875 C -7.62939453125e-06 2.009452819824219 2.009452819824219 7.62939453125e-06 4.488258361816406 7.62939453125e-06 Z" stroke="none" fill="#212121"/>
    </g>
    <g id="Path_84" data-name="Path 84" transform="translate(1031.047 1411.89)" fill="rgba(1,187,214,0.08)">
      <path d="M 49.37078094482422 42.88644027709961 L 4.48825216293335 42.88644027709961 C 2.289122104644775 42.88644027709961 0.5000022053718567 41.09732055664062 0.5000022053718567 38.898193359375 L 0.5000022053718567 4.48825216293335 C 0.5000022053718567 2.289122104644775 2.289122104644775 0.5000020265579224 4.48825216293335 0.5000020265579224 L 33.49899291992188 0.5000020265579224 C 34.49099349975586 0.5000020265579224 35.26232147216797 0.8657220602035522 35.92641067504883 1.650952100753784 C 36.54361343383789 2.38073205947876 37.01091384887695 3.386882066726685 37.52266311645508 4.673091888427734 L 37.52761077880859 4.685532093048096 L 37.53321075439453 4.697671890258789 L 53.37798309326172 39.04903030395508 C 53.55466842651367 40.10700607299805 53.12094116210938 40.89896392822266 52.72140121459961 41.38006210327148 C 51.94977188110352 42.30923080444336 50.6658935546875 42.88644027709961 49.37078094482422 42.88644027709961 Z" stroke="none"/>
      <path d="M 4.488250732421875 1.000003814697266 C 2.564823150634766 1.000003814697266 1.000003814697266 2.564823150634766 1.000003814697266 4.488250732421875 L 1.000003814697266 38.898193359375 C 1.000003814697266 40.82162094116211 2.564823150634766 42.38644027709961 4.488250732421875 42.38644027709961 L 49.37078094482422 42.38644027709961 C 50.50369262695312 42.38644027709961 51.66790390014648 41.86603164672852 52.33675384521484 41.06062316894531 C 52.66094207763672 40.67024993896484 53.01248168945312 40.03536224365234 52.89448928833008 39.19458770751953 L 37.07918167114258 4.907100677490234 L 37.0679817199707 4.882801055908203 L 37.05808258056641 4.857940673828125 C 36.04003143310547 2.299213409423828 35.21005249023438 1.000003814697266 33.49899291992188 1.000003814697266 L 4.488250732421875 1.000003814697266 M 4.488250732421875 3.814697265625e-06 L 33.49899291992188 3.814697265625e-06 C 35.977783203125 3.814697265625e-06 37.01530456542969 2.045433044433594 37.98724365234375 4.488250732421875 L 53.85903167724609 38.898193359375 C 54.3367805480957 41.45497131347656 51.84957122802734 43.38644027709961 49.37078094482422 43.38644027709961 L 4.488250732421875 43.38644027709961 C 2.00946044921875 43.38644027709961 3.814697265625e-06 41.37698364257812 3.814697265625e-06 38.898193359375 L 3.814697265625e-06 4.488250732421875 C 3.814697265625e-06 2.00946044921875 2.00946044921875 3.814697265625e-06 4.488250732421875 3.814697265625e-06 Z" stroke="none" fill="#212121"/>
    </g>
    <line id="Line_30" data-name="Line 30" x2="20.945" transform="translate(1031.795 1463.505)" fill="none" stroke="#212121" stroke-width="1"/>
    <g id="Rectangle_154" data-name="Rectangle 154" transform="translate(1089 1466)" fill="#fff" stroke="#212121" stroke-width="1">
      <rect width="14" height="22" rx="2" stroke="none"/>
      <rect x="0.5" y="0.5" width="13" height="21" rx="1.5" fill="none"/>
    </g>
    <g id="Rectangle_155" data-name="Rectangle 155" transform="translate(1094 1502)" fill="#fff" stroke="#212121" stroke-width="1">
      <rect width="10" height="22" rx="2" stroke="none"/>
      <rect x="0.5" y="0.5" width="9" height="21" rx="1.5" fill="none"/>
    </g>
    <g id="Layer_2" data-name="Layer 2" transform="translate(825.525 1372.961)">
      <path id="Path_89" data-name="Path 89" d="M32.4,254.016a7.871,7.871,0,0,1-7.9,8.13H18V245.89h6.506A7.87,7.87,0,0,1,32.4,254.016Zm-3.576,0c0-2.794-1.746-4.54-4.32-4.54H21.712v9.1h2.794C27.079,258.566,28.825,256.8,28.825,254.016Z" transform="translate(-18 -169.553)"/>
      <path id="Path_90" data-name="Path 90" d="M75.7,258.585V270.2H72.21V269.1a4.353,4.353,0,0,1-3.457,1.418,6.16,6.16,0,0,1,0-12.261,4.351,4.351,0,0,1,3.457,1.414v-1.089Zm-3.492,5.8a2.763,2.763,0,1,0-2.762,2.832A2.647,2.647,0,0,0,72.21,264.389Z" transform="translate(-47.416 -177.604)"/>
      <path id="Path_91" data-name="Path 91" d="M115.23,259.19l-4.3,11.611H107l-4.3-11.611h3.841l2.413,7.361,2.417-7.361Z" transform="translate(-73.122 -178.209)"/>
      <path id="Path_92" data-name="Path 92" d="M150.886,259.19l-3.97,11.262c-1.3,3.691-3.366,5.154-6.618,4.99v-3.251a2.585,2.585,0,0,0,2.9-1.924l-4.62-11.077h3.841l2.577,7.1,2.183-7.1Z" transform="translate(-96.473 -178.209)"/>
      <path id="Path_93" data-name="Path 93" d="M191.809,259.184l-3.716,11.611h-3.251l-1.858-6.2-1.858,6.2h-3.251l-3.715-11.611h3.715l1.673,6.219,1.809-6.223h3.251l1.812,6.223,1.673-6.223Z" transform="translate(-119.628 -178.202)"/>
      <path id="Path_94" data-name="Path 94" d="M238.172,258.585V270.2H234.68V269.1a4.356,4.356,0,0,1-3.461,1.418c-3.042,0-5.549-2.671-5.549-6.132a5.828,5.828,0,0,1,5.549-6.129,4.354,4.354,0,0,1,3.461,1.414v-1.089Zm-3.492,5.8a2.768,2.768,0,1,0,.01,0Z" transform="translate(-153.15 -177.604)"/>
      <path id="Path_95" data-name="Path 95" d="M277.407,259.19l-3.974,11.262c-1.3,3.691-3.37,5.154-6.635,4.99v-3.251a2.591,2.591,0,0,0,2.905-1.924L265.08,259.19h3.841l2.581,7.1,2.183-7.1Z" transform="translate(-178.798 -178.209)"/>
      <path id="Path_96" data-name="Path 96" d="M81.6,27.29H42.7V31.5l12.292,1.135c.234,9.1.234,18.253.234,27.329v4.005c0,10.281,0,19.608-.234,28.59L42.7,93.7v4.215H74.733A65.236,65.236,0,0,0,81.717,93.2,101.051,101.051,0,0,0,89.4,86.006c6.122-6.055,1.648-9.181-.758-10.934s-11.615-5.65-15.128-9.177c-9.76-9.816,10.476-13.144,12.18-13.41-1.4.143-15.316,1.673-18.581,7.009v-.042c0-9.223,0-18.372.248-27.315H79.374c19.517,0,30.859,10.647,30.859,30.566a36.681,36.681,0,0,1-2.186,13.071,30.244,30.244,0,0,0-2.34-2.057c-1.812-1.453-15.173-8.294-20.471-10.983s-5.2-3.642-5.06-5.315,5.608-4.948,5.608-4.948a43.614,43.614,0,0,0-8.66,3.272c-3.747,2.036-4.082,4.445-2.315,7.064S86.683,70.6,86.683,70.6,99.9,75.76,98.374,82.468c-.6,2.626-2.752,5.524-5.154,8.084a64.879,64.879,0,0,1-8.032,7.1h.223c9.848-.856,18.508-3.7,25.143-8.405,8.381-5.957,13.483-14.89,13.483-26.54C124.058,39.725,106.65,27.29,81.6,27.29ZM69.439,67.554c2.581,2.633,3.492,3.513,10.106,9.467,4.191,3.775-4.784,11.14-11.929,16.063H67.34a.187.187,0,0,1,0-.063c-.244-9.128-.248-18.442-.248-28.565A12.958,12.958,0,0,0,69.439,67.554Z" transform="translate(-34.075 -27.29)"/>
    </g>
    <path id="Path_97" data-name="Path 97" d="M.042,11.6,40.273-.054,44.1,8.331.042,20.574Z" transform="translate(1032.564 1428.321)" fill="#fff"/>
    <path id="Path_98" data-name="Path 98" d="M.042,16.6,38.707,4.759l.836,1.749L.042,18.187Z" transform="translate(1032.564 1420.235)" fill="#fff"/>
    <g transform="matrix(1, 0, 0, 1, 650.9, 1358.15)" filter="url(#Line_31)">
      <line id="Line_31-2" data-name="Line 31" x2="382.998" transform="translate(111.6 198.11)" fill="none" stroke="#212121" stroke-width="1"/>
    </g>
    <line id="Line_128" data-name="Line 128" x2="42.315" y2="0.23" transform="translate(668.5 1496.5)" fill="none" stroke="#212121" stroke-width="1"/>
    <path id="Path_296" data-name="Path 296" d="M-21.905,0H37.809" transform="translate(672.805 1510.133)" fill="none" stroke="#212121" stroke-width="1"/>
  </g>
</svg>
