<svg id="davWord" xmlns="http://www.w3.org/2000/svg" width="468.328" height="461.852" viewBox="0 0 468.328 461.852">
  <path id="Path_89" data-name="Path 89" d="M86.4,284.484c0,21.842-16.2,38.61-37.5,38.61H18v-77.2H48.9C70.193,245.89,86.4,262.657,86.4,284.484Zm-16.983,0c0-13.268-8.293-21.561-20.516-21.561H35.63v43.22H48.9C61.121,306.093,69.414,297.719,69.414,284.484Z" transform="translate(-18 116.659)"/>
  <path id="Path_90" data-name="Path 90" d="M122.574,259.8v55.145H105.989v-5.19c-3.632,4.2-9.039,6.733-16.419,6.733-14.446,0-26.37-12.688-26.37-29.123S75.125,258.26,89.57,258.26c7.38,0,12.787,2.521,16.419,6.717V259.8Zm-16.585,27.564c0-8.293-5.506-13.451-13.119-13.451s-13.119,5.174-13.119,13.451,5.506,13.45,13.119,13.45S105.989,295.643,105.989,287.367Z" transform="translate(11.764 124.804)"/>
  <path id="Path_91" data-name="Path 91" d="M162.207,259.19l-20.4,55.145H123.1L102.7,259.19h18.244l11.46,34.961,11.477-34.961Z" transform="translate(37.775 125.417)"/>
  <path id="Path_92" data-name="Path 92" d="M197.025,259.19l-18.857,53.487c-6.17,17.53-15.988,24.479-31.429,23.7V320.936c7.729,0,11.361-2.422,13.782-9.138L138.58,259.19h18.243l12.24,33.734,10.366-33.734Z" transform="translate(61.402 125.417)"/>
  <path id="Path_93" data-name="Path 93" d="M257.981,259.2l-17.647,55.145H224.893l-8.823-29.455-8.823,29.455H191.806L174.16,259.2h17.646l7.944,29.537,8.591-29.554h15.44l8.608,29.554,7.944-29.554Z" transform="translate(84.832 125.41)"/>
  <path id="Path_94" data-name="Path 94" d="M285.044,259.8v55.145H268.46v-5.19c-3.632,4.2-9.039,6.733-16.436,6.733-14.445,0-26.353-12.688-26.353-29.123s11.908-29.107,26.353-29.107c7.4,0,12.8,2.521,16.436,6.717V259.8ZM268.46,287.367c0-8.293-5.523-13.451-13.119-13.451s-13.135,5.174-13.135,13.451,5.523,13.45,13.135,13.45,13.168-5.174,13.168-13.45Z" transform="translate(118.751 124.804)"/>
  <path id="Path_95" data-name="Path 95" d="M323.625,259.19l-18.874,53.487c-6.187,17.53-16,24.479-31.511,23.7V320.936c7.728,0,11.36-2.422,13.8-9.138L265.08,259.19h18.243l12.256,33.734,10.366-33.734Z" transform="translate(144.703 125.417)"/>
  <path id="Path_96" data-name="Path 96" d="M227.441,27.29H42.7v20l58.379,5.39c1.111,43.221,1.111,86.69,1.111,129.794V201.5c0,48.826,0,93.125-1.111,135.782L42.7,342.687v20.018H194.835A309.836,309.836,0,0,0,228,340.316c10.979-8.74,20.085-18.011,36.487-34.165,29.074-28.758,7.828-43.6-3.6-51.928s-55.162-26.835-71.846-43.586c-46.355-46.621,49.755-62.426,57.849-63.687-6.634.68-72.742,7.944-88.249,33.286v-.2c0-43.8,0-87.254,1.178-129.728h57.053c92.694,0,146.562,50.568,146.562,145.169,0,23.219-3.516,44.033-10.382,62.078a143.619,143.619,0,0,0-11.112-9.768c-8.608-6.9-72.062-39.389-97.222-52.16s-24.711-17.3-24.032-25.242,26.635-23.5,26.635-23.5-23.335,5.871-41.131,15.54-19.388,21.113-11,33.551,56.389,36.985,56.389,36.985,62.791,24.529,55.527,56.389c-2.853,12.472-13.069,26.238-24.48,38.394a308.127,308.127,0,0,1-38.145,33.717h1.061c46.77-4.063,87.9-17.58,119.412-39.92C404.768,293.247,429,250.823,429,195.5,429.1,86.349,346.422,27.29,227.441,27.29ZM169.692,218.515c12.256,12.505,16.585,16.684,48,44.962,19.9,17.928-22.721,52.906-56.654,76.291h-1.31a.889.889,0,0,1,0-.3c-1.161-43.353-1.178-87.585-1.178-135.666A61.543,61.543,0,0,0,169.692,218.515Z" transform="translate(-1.735 -27.29)"/>
</svg>
