<svg xmlns="http://www.w3.org/2000/svg" xmlns:xlink="http://www.w3.org/1999/xlink" width="180.241" height="323.38" viewBox="0 0 180.241 323.38">
  <defs>
    <linearGradient id="linear-gradient" x1="0.5" x2="0.5" y2="1" gradientUnits="objectBoundingBox">
      <stop offset="0" stop-color="#01bbd6" stop-opacity="0.404"/>
      <stop offset="1" stop-color="#049aaf"/>
    </linearGradient>
    <linearGradient id="linear-gradient-2" x1="0.016" y1="2.911" x2="0.063" y2="0.563" gradientUnits="objectBoundingBox">
      <stop offset="0" stop-color="#01bbd6"/>
      <stop offset="1" stop-color="#01bbd6" stop-opacity="0.502"/>
    </linearGradient>
  </defs>
  <g id="fullbox1" transform="translate(-580.759 -392.62)">
    <ellipse id="Ellipse_4" data-name="Ellipse 4" cx="80.5" cy="22" rx="80.5" ry="22" transform="translate(600 672)" opacity="0.997" fill="url(#linear-gradient)"/>
    <g id="box" transform="translate(608.005 615.62)">
      <g id="boxBack" transform="translate(0.293 16.255)">
        <path id="Path_27" data-name="Path 27" d="M-16.027-19.729l55.208-9.2-16.8-8.141L-32.413-27.5Z" transform="translate(32.413 37.072)" fill="#fff" stroke="#01bbd6" stroke-width="2"/>
        <path id="Path_26" data-name="Path 26" d="M33.385-33.952,88.8-24.473l17.171-7.753-55.3-8.967Z" transform="translate(38.04 42.076)" fill="#fff" stroke="#01bbd6" stroke-width="2"/>
        <path id="Path_77" data-name="Path 77" d="M-4479.834,8982.766v-35.813l55.3-9.251,54.951,9.626.9,35.438Z" transform="translate(4496.129 -8929.541)" fill="#fff" stroke="#01bbd6" stroke-width="2"/>
      </g>
      <g id="figure" transform="translate(-27.246 -223)" opacity="0">
        <g id="r1" transform="translate(43.396 3.765)">
          <g id="fon">
            <g id="Rectangle_217" data-name="Rectangle 217" transform="translate(0.84 1.875)" fill="#fff" stroke="#fff" stroke-width="2">
              <rect width="18.836" height="36.681" stroke="none"/>
              <rect x="1" y="1" width="16.836" height="34.681" fill="none"/>
            </g>
            <path id="Path_122" data-name="Path 122" d="M0,0V33.889" transform="translate(10.115 3.163)" fill="#fff" stroke="#fff" stroke-width="2"/>
            <g id="Path_75" data-name="Path 75" transform="translate(-13.265 -194.35)" fill="#fff" stroke-linecap="round">
              <path d="M 23.37066650390625 196.6012573242188 L 19.53659248352051 195.9810943603516 L 23.36601638793945 195.3634490966797 L 27.20009613037109 195.9836120605469 L 23.37066650390625 196.6012573242188 Z" stroke="none"/>
              <path d="M 23.36624717712402 194.3504943847656 L 33.4715576171875 195.9850158691406 L 23.37043762207031 197.6142120361328 L 13.26513671875 195.9797058105469 L 23.36624717712402 194.3504943847656 Z" stroke="none" fill="#fff"/>
            </g>
          </g>
          <g id="Rectangle_217-2" data-name="Rectangle 217" transform="translate(1.335 1.875)" fill="#0a9db2" stroke="#fff" stroke-width="2">
            <rect width="16.853" height="35.689" rx="2" stroke="none"/>
            <rect x="1" y="1" width="14.853" height="33.689" rx="1" fill="none"/>
          </g>
          <path id="Path_122-2" data-name="Path 122" d="M0,0V33.719" transform="translate(10.16 3.158)" fill="#0a9db2" stroke="#fff" stroke-width="2"/>
          <g id="Path_75-2" data-name="Path 75" transform="translate(-12.299 -194.067)" fill="#0a9db2" stroke-linecap="round">
            <path d="M 22.4499454498291 196.3038787841797 L 19.53661918640137 195.8326568603516 L 22.44567489624023 195.3634490966797 L 25.35900497436523 195.8346862792969 L 22.4499454498291 196.3038787841797 Z" stroke="none"/>
            <path d="M 22.4459056854248 194.3504943847656 L 31.63049507141113 195.8360900878906 L 22.44971466064453 197.3168334960938 L 13.26513481140137 195.8312683105469 L 22.4459056854248 194.3504943847656 Z" stroke="none" fill="#fff"/>
          </g>
        </g>
        <g id="r3" transform="translate(15.416 0)">
          <g id="fon-2" data-name="fon">
            <g id="Rectangle_217-3" data-name="Rectangle 217" transform="translate(0.565 2.171)" fill="#fff" stroke="#fff" stroke-width="2">
              <rect width="18.836" height="40.15" stroke="none"/>
              <rect x="1" y="1" width="16.836" height="38.15" fill="none"/>
            </g>
            <path id="Path_122-3" data-name="Path 122" d="M0,0V38.35" transform="translate(10.115 3.163)" fill="#fff" stroke="#fff" stroke-width="2"/>
            <g id="Path_75-3" data-name="Path 75" transform="translate(-13.265 -194.35)" fill="#fff" stroke-linecap="round">
              <path d="M 23.37066650390625 196.6012573242188 L 19.53659248352051 195.9810943603516 L 23.36601638793945 195.3634490966797 L 27.20009613037109 195.9836120605469 L 23.37066650390625 196.6012573242188 Z" stroke="none"/>
              <path d="M 23.36624717712402 194.3504943847656 L 33.4715576171875 195.9850158691406 L 23.37043762207031 197.6142120361328 L 13.26513671875 195.9797058105469 L 23.36624717712402 194.3504943847656 Z" stroke="none" fill="#fff"/>
            </g>
          </g>
          <g id="Rectangle_217-4" data-name="Rectangle 217" transform="translate(2.052 2.171)" fill="#0a9db2" stroke="#fff" stroke-width="2">
            <rect width="16.358" height="40.15" rx="2" stroke="none"/>
            <rect x="1" y="1" width="14.358" height="38.15" rx="1" fill="none"/>
          </g>
          <path id="Path_122-4" data-name="Path 122" d="M0,0V38.18" transform="translate(10.16 3.158)" fill="#0a9db2" stroke="#fff" stroke-width="2"/>
          <g id="Path_75-4" data-name="Path 75" transform="translate(-12.299 -194.067)" fill="#0a9db2" stroke-linecap="round">
            <path d="M 22.4499454498291 196.3038787841797 L 19.53661918640137 195.8326568603516 L 22.44567489624023 195.3634490966797 L 25.35900497436523 195.8346862792969 L 22.4499454498291 196.3038787841797 Z" stroke="none"/>
            <path d="M 22.4459056854248 194.3504943847656 L 31.63049507141113 195.8360900878906 L 22.44971466064453 197.3168334960938 L 13.26513481140137 195.8312683105469 L 22.4459056854248 194.3504943847656 Z" stroke="none" fill="#fff"/>
          </g>
        </g>
        <g id="r2" transform="translate(0 8.431)">
          <g id="fon-3" data-name="fon">
            <g id="Rectangle_217-5" data-name="Rectangle 217" transform="translate(1.111 1.671)" fill="#fff" stroke="#fff" stroke-width="2">
              <rect width="17.845" height="41.142" stroke="none"/>
              <rect x="1" y="1" width="15.845" height="39.142" fill="none"/>
            </g>
            <path id="Path_122-5" data-name="Path 122" d="M0,0V38.35" transform="translate(10.115 3.163)" fill="#fff" stroke="#fff" stroke-width="2"/>
            <g id="Path_75-5" data-name="Path 75" transform="translate(-13.265 -194.35)" fill="#fff" stroke-linecap="round">
              <path d="M 23.37066650390625 196.6012573242188 L 19.53659248352051 195.9810943603516 L 23.36601638793945 195.3634490966797 L 27.20009613037109 195.9836120605469 L 23.37066650390625 196.6012573242188 Z" stroke="none"/>
              <path d="M 23.36624717712402 194.3504943847656 L 33.4715576171875 195.9850158691406 L 23.37043762207031 197.6142120361328 L 13.26513671875 195.9797058105469 L 23.36624717712402 194.3504943847656 Z" stroke="none" fill="#fff"/>
            </g>
          </g>
          <g id="Rectangle_217-6" data-name="Rectangle 217" transform="translate(1.606 1.671)" fill="#0a9db2" stroke="#fff" stroke-width="2">
            <rect width="16.853" height="40.646" rx="2" stroke="none"/>
            <rect x="1" y="1" width="14.853" height="38.646" rx="1" fill="none"/>
          </g>
          <path id="Path_122-6" data-name="Path 122" d="M0,0V38.18" transform="translate(10.16 3.158)" fill="#0a9db2" stroke="#fff" stroke-width="2"/>
          <g id="Path_75-6" data-name="Path 75" transform="translate(-12.299 -194.067)" fill="#0a9db2" stroke-linecap="round">
            <path d="M 22.4499454498291 196.3038787841797 L 19.53661918640137 195.8326568603516 L 22.44567489624023 195.3634490966797 L 25.35900497436523 195.8346862792969 L 22.4499454498291 196.3038787841797 Z" stroke="none"/>
            <path d="M 22.4459056854248 194.3504943847656 L 31.63049507141113 195.8360900878906 L 22.44971466064453 197.3168334960938 L 13.26513481140137 195.8312683105469 L 22.4459056854248 194.3504943847656 Z" stroke="none" fill="#fff"/>
          </g>
        </g>
        <g id="o1" transform="translate(27.936 14.563)">
          <g id="fon-4" data-name="fon" transform="translate(0 0)">
            <g id="Path_78" data-name="Path 78" transform="translate(0.072 2.419)" fill="#fff">
              <path d="M 15.39830207824707 26.14008140563965 C 15.26958274841309 26.14008140563965 15.1401424407959 26.13991165161133 15.009202003479 26.13957214355469 C 3.799493312835693 26.11063766479492 1.406427621841431 24.88210678100586 0.9598323106765747 24.5437126159668 L 0.9598323106765747 24.53989219665527 L 0.9598323106765747 1.000001549720764 L 29.42268180847168 1.000001549720764 L 29.42268180847168 24.47677230834961 C 29.24004364013672 24.62696266174316 28.626953125 25.01265907287598 26.86326217651367 25.3692512512207 C 24.33343315124512 25.8807315826416 20.4760627746582 26.14008140563965 15.39830207824707 26.14008140563965 Z" stroke="none"/>
              <path d="M 1.959831237792969 2.000001907348633 L 1.959831237792969 23.93519020080566 C 2.359167098999023 24.09159469604492 3.110197067260742 24.3179931640625 4.450679779052734 24.53072166442871 C 6.922719955444336 24.92302131652832 10.47599029541016 25.12787246704102 15.01178073883057 25.13958168029785 C 15.14185047149658 25.13991165161133 15.27043056488037 25.14008140563965 15.39830017089844 25.14008140563965 C 24.42105865478516 25.14008140563965 27.48969650268555 24.28737831115723 28.42267990112305 23.89605712890625 L 28.42267990112305 2.000001907348633 L 1.959831237792969 2.000001907348633 M -0.04016876220703125 1.9073486328125e-06 L 30.42267990112305 1.9073486328125e-06 L 30.42267990112305 24.53989219665527 C 30.42267990112305 24.53989219665527 31.47428512573242 27.14007949829102 15.3982982635498 27.14007949829102 C 15.26872539520264 27.14007949829102 15.13842868804932 27.13991165161133 15.00662040710449 27.13957214355469 C -1.478460311889648 27.09702110290527 -0.04016876220703125 24.53989219665527 -0.04016876220703125 24.53989219665527 L -0.04016876220703125 1.9073486328125e-06 Z" stroke="none" fill="#fff"/>
            </g>
            <ellipse id="Ellipse_17" data-name="Ellipse 17" cx="14.871" cy="2.478" rx="14.871" ry="2.478" transform="translate(0.437)" fill="#fff" stroke="#fff" stroke-width="2"/>
            <path id="Path_123" data-name="Path 123" d="M.66,17.821s.3.722,3.263,1.348a35.717,35.717,0,0,0,5.6.57" transform="translate(-0.158 -10.788)" fill="none" stroke="#fff" stroke-width="2"/>
            <path id="Path_124" data-name="Path 124" d="M.66,17.821s.3.722,3.263,1.348a35.717,35.717,0,0,0,5.6.57" transform="translate(-0.158 -6.175)" fill="none" stroke="#fff" stroke-width="2"/>
          </g>
          <g id="Path_78-2" data-name="Path 78" transform="translate(0.917 2.709)" fill="#0a9db2">
            <path d="M 14.50343036651611 25.3526611328125 C 14.38224029541016 25.3526611328125 14.26041030883789 25.35250282287598 14.13712024688721 25.3521728515625 C 3.661762237548828 25.32430267333984 1.388261318206787 24.15254020690918 0.9580004215240479 23.82601356506348 L 0.9580004215240479 1.000002026557922 L 27.65884017944336 1.000002026557922 L 27.65884017944336 23.76189231872559 C 27.48305892944336 23.90654373168945 26.90232086181641 24.27268981933594 25.2564811706543 24.61250114440918 C 22.8776912689209 25.10364151000977 19.25984954833984 25.3526611328125 14.50343036651611 25.3526611328125 Z" stroke="none"/>
            <path d="M 1.958000183105469 2.000001907348633 L 1.958000183105469 23.21586608886719 C 2.339443206787109 23.36368560791016 3.041788101196289 23.57393836975098 4.271860122680664 23.77217102050781 C 6.590129852294922 24.14578247070312 9.910181045532227 24.34092140197754 14.1397705078125 24.3521728515625 C 14.26217079162598 24.35249137878418 14.38320064544678 24.35265159606934 14.50352001190186 24.35265159606934 C 22.85168647766113 24.35265159606934 25.75526237487793 23.55466651916504 26.65884017944336 23.17950248718262 L 26.65884017944336 2.000001907348633 L 1.958000183105469 2.000001907348633 M -0.04199981689453125 1.9073486328125e-06 L 28.65884017944336 1.9073486328125e-06 L 28.65884017944336 23.82790184020996 C 28.65884017944336 23.82790184020996 29.64965057373047 26.3526554107666 14.50352191925049 26.3526554107666 C 14.38144302368164 26.3526554107666 14.25864505767822 26.35249328613281 14.13446044921875 26.3521614074707 C -1.397100448608398 26.31085205078125 -0.04199981689453125 23.82790184020996 -0.04199981689453125 23.82790184020996 L -0.04199981689453125 1.9073486328125e-06 Z" stroke="none" fill="#fff"/>
          </g>
          <ellipse id="Ellipse_17-2" data-name="Ellipse 17" cx="14.127" cy="2.231" rx="14.127" ry="2.231" transform="translate(0.933 0.496)" fill="#0a9db2" stroke="#fff" stroke-width="2"/>
          <path id="Path_123-2" data-name="Path 123" d="M.66,17.821s.275.711,3.017,1.327a31.094,31.094,0,0,0,5.178.561" transform="translate(0.649 -10.663)" fill="none" stroke="#fff" stroke-width="2"/>
          <path id="Path_124-2" data-name="Path 124" d="M.66,17.821s.275.711,3.017,1.327a31.094,31.094,0,0,0,5.178.561" transform="translate(0.649 -6.182)" fill="none" stroke="#fff" stroke-width="2"/>
        </g>
        <g id="_02" data-name="02" transform="translate(10.033 27.451)">
          <g id="fon-5" data-name="fon" transform="translate(0 0)">
            <g id="Path_79" data-name="Path 79" transform="translate(0.356 2.837)" fill="#fff">
              <path d="M 15.29128360748291 26.09851837158203 C 15.1634635925293 26.09851837158203 15.03489303588867 26.09834861755371 14.90487289428711 26.09800910949707 C 9.706333160400391 26.08451843261719 5.800853252410889 25.81691932678223 3.296893119812012 25.3026294708252 C 1.739502906799316 24.98274612426758 1.152418494224548 24.65044975280762 0.9596231579780579 24.50797080993652 L 0.9596231579780579 24.5023078918457 L 0.9596231579780579 0.9999986290931702 L 29.21164321899414 0.9999986290931702 L 29.21164321899414 24.44021034240723 C 29.03061866760254 24.58970832824707 28.42255973815918 24.97393798828125 26.67262268066406 25.3294792175293 C 24.16104316711426 25.83977890014648 20.33180236816406 26.09851837158203 15.29128360748291 26.09851837158203 Z" stroke="none"/>
              <path d="M 1.959623336791992 1.999998092651367 L 1.959623336791992 23.89791679382324 C 2.249164581298828 24.01140403747559 2.732372283935547 24.16580390930176 3.498083114624023 24.32306861877441 C 5.936832427978516 24.8239688873291 9.775503158569336 25.08469772338867 14.90746307373047 25.09801864624023 C 15.03662300109863 25.09834861755371 15.16433334350586 25.09851837158203 15.29128360748291 25.09851837158203 C 24.23725128173828 25.09851837158203 27.28409385681152 24.25005912780762 28.21164321899414 23.86025619506836 L 28.21164321899414 1.999998092651367 L 1.959623336791992 1.999998092651367 M -0.04037666320800781 -1.9073486328125e-06 L 30.21164321899414 -1.9073486328125e-06 L 30.21164321899414 24.5023078918457 C 30.21164321899414 24.5023078918457 31.25601387023926 27.0985164642334 15.29128646850586 27.0985164642334 C 15.1626091003418 27.0985164642334 15.03316879272461 27.09834861755371 14.90227317810059 27.09800910949707 C -1.468717575073242 27.05552864074707 -0.04037666320800781 24.5023078918457 -0.04037666320800781 24.5023078918457 L -0.04037666320800781 -1.9073486328125e-06 Z" stroke="none" fill="#fff"/>
            </g>
            <ellipse id="Ellipse_18" data-name="Ellipse 18" cx="14.871" cy="2.974" rx="14.871" ry="2.974" fill="#fff" stroke="#fff" stroke-width="2"/>
            <line id="Line_32" data-name="Line 32" y1="2.048" x2="5.215" transform="translate(15.542 0.765)" fill="none" stroke="#fff" stroke-width="2"/>
            <line id="Line_33" data-name="Line 33" x2="12.169" y2="1.024" transform="translate(15.919 2.813)" fill="none" stroke="#fff" stroke-width="2"/>
          </g>
          <g id="Path_79-2" data-name="Path 79" transform="translate(1.202 3.085)" fill="#0a9db2">
            <path d="M 14.3940896987915 25.3526611328125 C 14.2738094329834 25.3526611328125 14.15290927886963 25.35250282287598 14.03055953979492 25.3521728515625 C 3.635509014129639 25.32430839538574 1.383123159408569 24.15366554260254 0.9577797055244446 23.82829856872559 L 0.9577797055244446 23.82791137695312 L 0.9577797055244446 1.000002026557922 L 27.44328880310059 1.000002026557922 L 27.44328880310059 23.7641773223877 C 27.26986885070801 23.90805625915527 26.69531631469727 24.27335739135742 25.06323051452637 24.61285209655762 C 22.70326042175293 25.10376167297363 19.11363983154297 25.3526611328125 14.3940896987915 25.3526611328125 Z" stroke="none"/>
            <path d="M 1.957778930664062 2.000001907348633 L 1.957778930664062 23.21961402893066 C 2.336105346679688 23.36681747436523 3.03230094909668 23.57615661621094 4.250730514526367 23.77364158630371 C 6.549829483032227 24.14629173278809 9.841150283813477 24.34093284606934 14.03322982788086 24.3521728515625 C 14.15467929840088 24.35249137878418 14.27477931976318 24.35265159606934 14.39416980743408 24.35265159606934 C 22.66765594482422 24.35265159606934 25.5470027923584 23.55728340148926 26.44327926635742 23.18341636657715 L 26.44327926635742 2.000001907348633 L 1.957778930664062 2.000001907348633 M -0.0422210693359375 1.9073486328125e-06 L 28.44327926635742 1.9073486328125e-06 L 28.44327926635742 23.82790184020996 C 28.44327926635742 23.82790184020996 29.42667198181152 26.3526554107666 14.39417171478271 26.3526554107666 C 14.27300930023193 26.3526554107666 14.15113258361816 26.35249328613281 14.02787971496582 26.3521614074707 C -1.38715934753418 26.31085205078125 -0.0422210693359375 23.82790184020996 -0.0422210693359375 23.82790184020996 L -0.0422210693359375 1.9073486328125e-06 Z" stroke="none" fill="#fff"/>
          </g>
          <ellipse id="Ellipse_18-2" data-name="Ellipse 18" cx="13.631" cy="2.478" rx="13.631" ry="2.478" transform="translate(1.983 0.991)" fill="#0a9db2" stroke="#fff" stroke-width="2"/>
          <line id="Line_32-2" data-name="Line 32" y1="1.991" x2="5.072" transform="translate(15.399 1.07)" fill="none" stroke="#fff" stroke-width="2"/>
          <line id="Line_33-2" data-name="Line 33" x2="11.834" y2="0.996" transform="translate(15.399 3.062)" fill="none" stroke="#fff" stroke-width="2"/>
        </g>
      </g>
      <g id="boxFront" transform="translate(0 33.38)">
        <path id="Path_121" data-name="Path 121" d="M16.782-.081l2.954-.628L71.348,7.509,122.321-.417l1.9.417,2.329,20.426L16.308,17.191Z" transform="translate(0.394 0.709)" fill="#fff"/>
        <path id="Path_22" data-name="Path 22" d="M-1.08,1.069,54.98-7.859V36.9L-.54,45.714Z" transform="translate(72.566 8.451)" fill="#fff" stroke="#01bbd6" stroke-width="2"/>
        <path id="Path_25" data-name="Path 25" d="M-1.436-.926,54.537-9.808,71.314-2.161,15.889,6.681Z" transform="translate(72.743 10.415)" fill="#fff" stroke="#01bbd6" stroke-width="2"/>
        <path id="Path_23" data-name="Path 23" d="M34.166-15.417,89.574-6.353l.567,44.681L34.166,29.384Z" transform="translate(-17.577 15.844)" fill="#fff" stroke="#01bbd6" stroke-width="2" opacity="0.997"/>
        <path id="Path_24" data-name="Path 24" d="M18.842-16.255,74.456-7.2,58.28.514,2-8.524Z" transform="translate(-2.001 16.73)" fill="#fff" stroke="#01bbd6" stroke-width="2"/>
        <g id="boxShadow" transform="translate(16.34 9.782)">
          <path id="Path_39" data-name="Path 39" d="M.313,6.754V.808l16.45,7.121L55.868,1.956l-.457,5.973L16.763,14.17Z" transform="translate(55.529 -0.67)" fill="url(#linear-gradient-2)"/>
          <path id="Path_40" data-name="Path 40" d="M35.67-5.611,75.623.942l15.662-7.6V-.434L75.108,7.281,35.67.671Z" transform="translate(-35.67 6.662)" fill="url(#linear-gradient-2)"/>
        </g>
      </g>
    </g>
  </g>
</svg>
