<svg xmlns="http://www.w3.org/2000/svg" xmlns:xlink="http://www.w3.org/1999/xlink" width="161" height="405.38" viewBox="0 0 161 405.38">
  <defs>
    <linearGradient id="linear-gradient" x1="0.5" x2="0.5" y2="1" gradientUnits="objectBoundingBox">
      <stop offset="0" stop-color="#01bbd6" stop-opacity="0.404"/>
      <stop offset="1" stop-color="#049aaf"/>
    </linearGradient>
    <linearGradient id="linear-gradient-2" x1="0.016" y1="2.911" x2="0.063" y2="0.563" gradientUnits="objectBoundingBox">
      <stop offset="0" stop-color="#01bbd6"/>
      <stop offset="1" stop-color="#01bbd6" stop-opacity="0.502"/>
    </linearGradient>
  </defs>
  <g id="fullbox2" transform="translate(-600 -310.62)">
    <ellipse id="Ellipse_4" data-name="Ellipse 4" cx="80.5" cy="22" rx="80.5" ry="22" transform="translate(600 672)" opacity="0.997" fill="url(#linear-gradient)"/>
    <g id="box" transform="translate(608.005 615.62)">
      <g id="boxBack" transform="translate(0.293 16.255)">
        <path id="Path_27" data-name="Path 27" d="M-16.027-19.729l55.208-9.2-16.8-8.141L-32.413-27.5Z" transform="translate(32.413 37.072)" fill="#fff" stroke="#01bbd6" stroke-width="2"/>
        <path id="Path_26" data-name="Path 26" d="M33.385-33.952,88.8-24.473l17.171-7.753-55.3-8.967Z" transform="translate(38.04 42.076)" fill="#fff" stroke="#01bbd6" stroke-width="2"/>
        <path id="Path_77" data-name="Path 77" d="M-4479.834,8982.766v-35.813l55.3-9.251,54.951,9.626.9,35.438Z" transform="translate(4496.129 -8929.541)" fill="#fff" stroke="#01bbd6" stroke-width="2"/>
      </g>
      <g id="figure" transform="translate(23.754 -305)" opacity="0">
        <g id="r1" transform="translate(40.497 3.514)">
          <g id="fon">
            <g id="Rectangle_217" data-name="Rectangle 217" transform="translate(0.783 1.75)" fill="#fff" stroke="#fff" stroke-width="2">
              <rect width="17.578" height="34.231" stroke="none"/>
              <rect x="1" y="1" width="15.578" height="32.231" fill="none"/>
            </g>
            <path id="Path_122" data-name="Path 122" d="M0,0V31.625" transform="translate(9.44 2.951)" fill="#fff" stroke="#fff" stroke-width="2"/>
            <g id="Path_75" data-name="Path 75" transform="translate(-13.265 -194.35)" fill="#fff" stroke-linecap="round">
              <path d="M 22.69571876525879 196.3832550048828 L 19.53661346435547 195.8722839355469 L 22.69133949279785 195.3634490966797 L 25.85044479370117 195.8744201660156 L 22.69571876525879 196.3832550048828 Z" stroke="none"/>
              <path d="M 22.69156837463379 194.3504943847656 L 32.12191772460938 195.8758239746094 L 22.69548988342285 197.3962097167969 L 13.26514053344727 195.8708801269531 L 22.69156837463379 194.3504943847656 Z" stroke="none" fill="#fff"/>
            </g>
          </g>
          <g id="Rectangle_217-2" data-name="Rectangle 217" transform="translate(1.246 1.75)" fill="#0a9db2" stroke="#fff" stroke-width="2">
            <rect width="15.728" height="33.305" rx="2" stroke="none"/>
            <rect x="1" y="1" width="13.728" height="31.305" rx="1" fill="none"/>
          </g>
          <path id="Path_122-2" data-name="Path 122" d="M0,0V31.466" transform="translate(9.482 2.947)" fill="#0a9db2" stroke="#fff" stroke-width="2"/>
          <g id="Path_75-2" data-name="Path 75" transform="translate(-12.363 -194.086)" fill="#0a9db2" stroke-linecap="round">
            <path d="M 21.83649063110352 196.1057586669922 L 19.53660202026367 195.7337493896484 L 21.83247375488281 195.3634490966797 L 24.13236236572266 195.7354583740234 L 21.83649063110352 196.1057586669922 Z" stroke="none"/>
            <path d="M 21.83270263671875 194.3504943847656 L 30.40383148193359 195.7368469238281 L 21.83626174926758 197.1187133789062 L 13.26513290405273 195.7323608398438 L 21.83270263671875 194.3504943847656 Z" stroke="none" fill="#fff"/>
          </g>
        </g>
        <g id="r3" transform="translate(14.386 0)">
          <g id="fon-2" data-name="fon">
            <g id="Rectangle_217-3" data-name="Rectangle 217" transform="translate(0.527 2.026)" fill="#fff" stroke="#fff" stroke-width="2">
              <rect width="17.578" height="37.469" stroke="none"/>
              <rect x="1" y="1" width="15.578" height="35.469" fill="none"/>
            </g>
            <path id="Path_122-3" data-name="Path 122" d="M0,0V35.788" transform="translate(9.44 2.951)" fill="#fff" stroke="#fff" stroke-width="2"/>
            <g id="Path_75-3" data-name="Path 75" transform="translate(-13.265 -194.35)" fill="#fff" stroke-linecap="round">
              <path d="M 22.69571876525879 196.3832550048828 L 19.53661346435547 195.8722839355469 L 22.69133949279785 195.3634490966797 L 25.85044479370117 195.8744201660156 L 22.69571876525879 196.3832550048828 Z" stroke="none"/>
              <path d="M 22.69156837463379 194.3504943847656 L 32.12191772460938 195.8758239746094 L 22.69548988342285 197.3962097167969 L 13.26514053344727 195.8708801269531 L 22.69156837463379 194.3504943847656 Z" stroke="none" fill="#fff"/>
            </g>
          </g>
          <g id="Rectangle_217-4" data-name="Rectangle 217" transform="translate(1.915 2.026)" fill="#0a9db2" stroke="#fff" stroke-width="2">
            <rect width="15.265" height="37.469" rx="2" stroke="none"/>
            <rect x="1" y="1" width="13.265" height="35.469" rx="1" fill="none"/>
          </g>
          <path id="Path_122-4" data-name="Path 122" d="M0,0V35.63" transform="translate(9.482 2.947)" fill="#0a9db2" stroke="#fff" stroke-width="2"/>
          <g id="Path_75-4" data-name="Path 75" transform="translate(-12.363 -194.086)" fill="#0a9db2" stroke-linecap="round">
            <path d="M 21.83649063110352 196.1057586669922 L 19.53660202026367 195.7337493896484 L 21.83247375488281 195.3634490966797 L 24.13236236572266 195.7354583740234 L 21.83649063110352 196.1057586669922 Z" stroke="none"/>
            <path d="M 21.83270263671875 194.3504943847656 L 30.40383148193359 195.7368469238281 L 21.83626174926758 197.1187133789062 L 13.26513290405273 195.7323608398438 L 21.83270263671875 194.3504943847656 Z" stroke="none" fill="#fff"/>
          </g>
        </g>
        <g id="r2" transform="translate(0 7.868)">
          <g id="fon-3" data-name="fon">
            <g id="Rectangle_217-5" data-name="Rectangle 217" transform="translate(1.036 1.559)" fill="#fff" stroke="#fff" stroke-width="2">
              <rect width="16.653" height="38.394" stroke="none"/>
              <rect x="1" y="1" width="14.653" height="36.394" fill="none"/>
            </g>
            <path id="Path_122-5" data-name="Path 122" d="M0,0V35.788" transform="translate(9.44 2.951)" fill="#fff" stroke="#fff" stroke-width="2"/>
            <g id="Path_75-5" data-name="Path 75" transform="translate(-13.265 -194.35)" fill="#fff" stroke-linecap="round">
              <path d="M 22.69571876525879 196.3832550048828 L 19.53661346435547 195.8722839355469 L 22.69133949279785 195.3634490966797 L 25.85044479370117 195.8744201660156 L 22.69571876525879 196.3832550048828 Z" stroke="none"/>
              <path d="M 22.69156837463379 194.3504943847656 L 32.12191772460938 195.8758239746094 L 22.69548988342285 197.3962097167969 L 13.26514053344727 195.8708801269531 L 22.69156837463379 194.3504943847656 Z" stroke="none" fill="#fff"/>
            </g>
          </g>
          <g id="Rectangle_217-6" data-name="Rectangle 217" transform="translate(1.499 1.559)" fill="#0a9db2" stroke="#fff" stroke-width="2">
            <rect width="15.728" height="37.931" rx="2" stroke="none"/>
            <rect x="1" y="1" width="13.728" height="35.931" rx="1" fill="none"/>
          </g>
          <path id="Path_122-6" data-name="Path 122" d="M0,0V35.63" transform="translate(9.482 2.947)" fill="#0a9db2" stroke="#fff" stroke-width="2"/>
          <g id="Path_75-6" data-name="Path 75" transform="translate(-12.363 -194.086)" fill="#0a9db2" stroke-linecap="round">
            <path d="M 21.83649063110352 196.1057586669922 L 19.53660202026367 195.7337493896484 L 21.83247375488281 195.3634490966797 L 24.13236236572266 195.7354583740234 L 21.83649063110352 196.1057586669922 Z" stroke="none"/>
            <path d="M 21.83270263671875 194.3504943847656 L 30.40383148193359 195.7368469238281 L 21.83626174926758 197.1187133789062 L 13.26513290405273 195.7323608398438 L 21.83270263671875 194.3504943847656 Z" stroke="none" fill="#fff"/>
          </g>
        </g>
        <g id="o1" transform="translate(26.07 13.59)">
          <g id="fon-4" data-name="fon" transform="translate(0 0)">
            <g id="Path_78" data-name="Path 78" transform="translate(0.072 2.258)" fill="#fff">
              <path d="M 14.36492919921875 24.32733154296875 C 14.24486923217773 24.32733154296875 14.12420845031738 24.32718276977539 14.00206851959229 24.32686233520508 C 3.729301691055298 24.30034828186035 1.413824796676636 23.1920108795166 0.9577188491821289 22.86996078491211 L 0.9577188491821289 1.000001907348633 L 27.38587951660156 1.000001907348633 L 27.38587951660156 22.81316566467285 C 26.9892463684082 23.12653923034668 24.78823852539062 24.32733154296875 14.36492919921875 24.32733154296875 Z" stroke="none"/>
              <path d="M 1.957708358764648 2.000001907348633 L 1.957708358764648 22.24427032470703 C 2.344263076782227 22.38640403747559 3.040187835693359 22.58434867858887 4.235837936401367 22.77074241638184 C 6.533618927001953 23.12895202636719 9.820318222045898 23.31606292724609 14.00468921661377 23.32686233520508 C 14.12593841552734 23.32717132568359 14.24582862854004 23.32732200622559 14.36501884460449 23.32732200622559 C 22.54593276977539 23.32732200622559 25.4554271697998 22.57521057128906 26.38587951660156 22.20992851257324 L 26.38587951660156 2.000001907348633 L 1.957708358764648 2.000001907348633 M -0.04229164123535156 1.9073486328125e-06 L 28.38587951660156 1.9073486328125e-06 L 28.38587951660156 22.90081214904785 C 28.38587951660156 22.90081214904785 29.36725425720215 25.32732582092285 14.36502361297607 25.32732582092285 C 14.24410533905029 25.32732582092285 14.12249279022217 25.32716941833496 13.99948883056641 25.32685279846191 C -1.384511947631836 25.28714179992676 -0.04229164123535156 22.90081214904785 -0.04229164123535156 22.90081214904785 L -0.04229164123535156 1.9073486328125e-06 Z" stroke="none" fill="#fff"/>
            </g>
            <ellipse id="Ellipse_17" data-name="Ellipse 17" cx="13.877" cy="2.313" rx="13.877" ry="2.313" transform="translate(0.408)" fill="#fff" stroke="#fff" stroke-width="2"/>
            <path id="Path_123" data-name="Path 123" d="M.66,17.821s.278.674,3.045,1.258a33.331,33.331,0,0,0,5.227.532" transform="translate(-0.191 -11.257)" fill="none" stroke="#fff" stroke-width="2"/>
            <path id="Path_124" data-name="Path 124" d="M.66,17.821s.278.674,3.045,1.258a33.331,33.331,0,0,0,5.227.532" transform="translate(-0.191 -6.952)" fill="none" stroke="#fff" stroke-width="2"/>
          </g>
          <g id="Path_78-2" data-name="Path 78" transform="translate(0.861 2.528)" fill="#0a9db2">
            <path d="M 13.52999305725098 23.59249877929688 C 13.41694355010986 23.59249877929688 13.30323314666748 23.59234809875488 13.18824291229248 23.59203910827637 C 3.597068071365356 23.5665283203125 1.396372437477112 22.5111083984375 0.9560031294822693 22.20018577575684 L 0.9560031294822693 0.9999990463256836 L 25.73984336853027 0.9999990463256836 L 25.73984336853027 22.14598083496094 C 25.35592079162598 22.44914054870605 23.26179313659668 23.59249877929688 13.52999305725098 23.59249877929688 Z" stroke="none"/>
            <path d="M 1.956003189086914 1.999998092651367 L 1.956003189086914 21.57263565063477 C 2.324367523193359 21.70649147033691 2.973478317260742 21.88969421386719 4.067302703857422 22.06276893615723 C 6.221343994140625 22.40359878540039 9.290962219238281 22.58166885375977 13.19093322753906 22.59204864501953 C 13.30502319335938 22.59235000610352 13.41783332824707 22.59249877929688 13.52999305725098 22.59249877929688 C 21.08946228027344 22.59249877929688 23.83938217163086 21.89040184020996 24.73984336853027 21.54085731506348 L 24.73984336853027 1.999998092651367 L 1.956003189086914 1.999998092651367 M -0.04399681091308594 -1.9073486328125e-06 L 26.73984336853027 -1.9073486328125e-06 L 26.73984336853027 22.23637962341309 C 26.73984336853027 22.23637962341309 27.66447448730469 24.59250068664551 13.52999210357666 24.59250068664551 C 13.4160680770874 24.59250068664551 13.30147266387939 24.59234809875488 13.18558311462402 24.59203910827637 C -1.308586120605469 24.55348968505859 -0.04399681091308594 22.23637962341309 -0.04399681091308594 22.23637962341309 L -0.04399681091308594 -1.9073486328125e-06 Z" stroke="none" fill="#fff"/>
          </g>
          <ellipse id="Ellipse_17-2" data-name="Ellipse 17" cx="13.183" cy="2.082" rx="13.183" ry="2.082" transform="translate(0.871 0.463)" fill="#0a9db2" stroke="#fff" stroke-width="2"/>
          <path id="Path_123-2" data-name="Path 123" d="M.66,17.821s.257.663,2.815,1.238a29.018,29.018,0,0,0,4.832.524" transform="translate(0.562 -11.141)" fill="none" stroke="#fff" stroke-width="2"/>
          <path id="Path_124-2" data-name="Path 124" d="M.66,17.821s.257.663,2.815,1.238a29.018,29.018,0,0,0,4.832.524" transform="translate(0.562 -6.959)" fill="none" stroke="#fff" stroke-width="2"/>
        </g>
        <g id="_02" data-name="02" transform="translate(9.363 25.617)">
          <g id="fon-5" data-name="fon" transform="translate(0 0)">
            <g id="Path_79" data-name="Path 79" transform="translate(0.337 2.647)" fill="#fff">
              <path d="M 14.26512145996094 24.28853988647461 C 14.14590072631836 24.28853988647461 14.02599143981934 24.28838920593262 13.90471076965332 24.2880687713623 C 3.709115743637085 24.2616138458252 1.410305619239807 23.15668296813965 0.9575210809707642 22.83576393127441 L 0.9575210809707642 0.9999993443489075 L 27.18893051147461 0.9999993443489075 L 27.18893051147461 22.77913284301758 C 26.79548263549805 23.09128952026367 24.61097717285156 24.28853988647461 14.26512145996094 24.28853988647461 Z" stroke="none"/>
              <path d="M 1.957511901855469 2 L 1.957511901855469 22.21068572998047 C 2.341531753540039 22.35208320617676 3.031894683837891 22.54880142211914 4.216220855712891 22.73410987854004 C 6.496641159057617 23.09092903137207 9.757190704345703 23.27730941772461 13.90735149383545 23.28807830810547 C 14.02774143218994 23.28838920593262 14.14677143096924 23.28853988647461 14.26512145996094 23.28853988647461 C 22.3751049041748 23.28853988647461 25.26379585266113 22.5403938293457 26.18893051147461 22.17656707763672 L 26.18893051147461 2 L 1.957511901855469 2 M -0.04248809814453125 0 L 28.18893051147461 0 L 28.18893051147461 22.8657398223877 C 28.18893051147461 22.8657398223877 29.16352462768555 25.28854370117188 14.26512241363525 25.28854370117188 C 14.14504051208496 25.28854370117188 14.02426433563232 25.28838729858398 13.9021110534668 25.2880687713623 C -1.375419616699219 25.2484188079834 -0.04248809814453125 22.8657398223877 -0.04248809814453125 22.8657398223877 L -0.04248809814453125 0 Z" stroke="none" fill="#fff"/>
            </g>
            <ellipse id="Ellipse_18" data-name="Ellipse 18" cx="13.877" cy="2.775" rx="13.877" ry="2.775" fill="#fff" stroke="#fff" stroke-width="2"/>
            <line id="Line_32" data-name="Line 32" y1="1.911" x2="4.867" transform="translate(14.504 0.714)" fill="none" stroke="#fff" stroke-width="2"/>
            <line id="Line_33" data-name="Line 33" x2="11.356" y2="0.955" transform="translate(14.856 2.625)" fill="none" stroke="#fff" stroke-width="2"/>
          </g>
          <g id="Path_79-2" data-name="Path 79" transform="translate(1.126 2.879)" fill="#0a9db2">
            <path d="M 13.42795085906982 23.59249877929688 C 13.31576061248779 23.59249877929688 13.20292091369629 23.59234809875488 13.08880043029785 23.59203910827637 C 3.571364164352417 23.5665340423584 1.391103982925415 22.5122013092041 0.9557905793190002 22.20246124267578 L 0.9557905793190002 0.9999990463256836 L 25.5386905670166 0.9999990463256836 L 25.5386905670166 22.14826774597168 C 25.15962791442871 22.4500846862793 23.0859317779541 23.59249877929688 13.42795085906982 23.59249877929688 Z" stroke="none"/>
            <path d="M 1.955791473388672 1.999998092651367 L 1.955791473388672 21.57625389099121 C 2.321149826049805 21.70951843261719 2.964475631713867 21.89185333251953 4.047630310058594 22.06419944763184 C 6.183731079101562 22.40409851074219 9.226520538330078 22.58168983459473 13.09151077270508 22.59204864501953 C 13.20472049713135 22.59235000610352 13.31666088104248 22.59249877929688 13.42795085906982 22.59249877929688 C 20.91782760620117 22.59249877929688 23.64510154724121 21.89298820495605 24.5386905670166 21.54465293884277 L 24.5386905670166 1.999998092651367 L 1.955791473388672 1.999998092651367 M -0.04420852661132812 -1.9073486328125e-06 L 26.5386905670166 -1.9073486328125e-06 L 26.5386905670166 22.23637962341309 C 26.5386905670166 22.23637962341309 27.45638656616211 24.59250068664551 13.42794609069824 24.59250068664551 C 13.31487560272217 24.59250068664551 13.20114040374756 24.59234809875488 13.08612060546875 24.59203910827637 C -1.299308776855469 24.55348968505859 -0.04420852661132812 22.23637962341309 -0.04420852661132812 22.23637962341309 L -0.04420852661132812 -1.9073486328125e-06 Z" stroke="none" fill="#fff"/>
          </g>
          <ellipse id="Ellipse_18-2" data-name="Ellipse 18" cx="12.721" cy="2.313" rx="12.721" ry="2.313" transform="translate(1.85 0.925)" fill="#0a9db2" stroke="#fff" stroke-width="2"/>
          <line id="Line_32-2" data-name="Line 32" y1="1.858" x2="4.733" transform="translate(14.37 0.999)" fill="none" stroke="#fff" stroke-width="2"/>
          <line id="Line_33-2" data-name="Line 33" x2="11.044" y2="0.929" transform="translate(14.37 2.857)" fill="none" stroke="#fff" stroke-width="2"/>
        </g>
      </g>
      <g id="boxFront" transform="translate(0 33.38)">
        <path id="Path_121" data-name="Path 121" d="M16.782-.081l2.954-.628L71.348,7.509,122.321-.417l1.9.417,2.329,20.426L16.308,17.191Z" transform="translate(0.394 0.709)" fill="#fff"/>
        <path id="Path_22" data-name="Path 22" d="M-1.08,1.069,54.98-7.859V36.9L-.54,45.714Z" transform="translate(72.566 8.451)" fill="#fff" stroke="#01bbd6" stroke-width="2"/>
        <path id="Path_25" data-name="Path 25" d="M-1.436-.926,54.537-9.808,71.314-2.161,15.889,6.681Z" transform="translate(72.743 10.415)" fill="#fff" stroke="#01bbd6" stroke-width="2"/>
        <path id="Path_23" data-name="Path 23" d="M34.166-15.417,89.574-6.353l.567,44.681L34.166,29.384Z" transform="translate(-17.577 15.844)" fill="#fff" stroke="#01bbd6" stroke-width="2" opacity="0.997"/>
        <path id="Path_24" data-name="Path 24" d="M18.842-16.255,74.456-7.2,58.28.514,2-8.524Z" transform="translate(-2.001 16.73)" fill="#fff" stroke="#01bbd6" stroke-width="2"/>
        <g id="boxShadow" transform="translate(16.34 9.782)">
          <path id="Path_39" data-name="Path 39" d="M.313,6.754V.808l16.45,7.121L55.868,1.956l-.457,5.973L16.763,14.17Z" transform="translate(55.529 -0.67)" fill="url(#linear-gradient-2)"/>
          <path id="Path_40" data-name="Path 40" d="M35.67-5.611,75.623.942l15.662-7.6V-.434L75.108,7.281,35.67.671Z" transform="translate(-35.67 6.662)" fill="url(#linear-gradient-2)"/>
        </g>
      </g>
    </g>
  </g>
</svg>
