<svg xmlns="http://www.w3.org/2000/svg" width="246.633" height="126.951" viewBox="0 0 246.633 126.951">
  <g id="Group_227" data-name="Group 227" transform="translate(-751.5 -1358.153)">
    <g id="Path_295" data-name="Path 295" transform="translate(751.5 1358.153)" fill="#7fddea">
      <path d="M 246.1332550048828 126.4511871337891 L 0.5000025033950806 126.4511871337891 L 0.5000025033950806 0.4999998211860657 L 246.1332550048828 0.4999998211860657 L 246.1332550048828 126.4511871337891 Z" stroke="none"/>
      <path d="M 1 1 L 1 125.9511871337891 L 245.6332550048828 125.9511871337891 L 245.6332550048828 1 L 1 1 M 0 0 L 246.6332550048828 0 L 246.6332550048828 126.9511871337891 L 0 126.9511871337891 L 0 0 Z" stroke="none" fill="#212121"/>
    </g>
    <g id="Layer_2" data-name="Layer 2" transform="translate(825.525 1372.961)">
      <path id="Path_89" data-name="Path 89" d="M32.4,254.016a7.871,7.871,0,0,1-7.9,8.13H18V245.89h6.506A7.87,7.87,0,0,1,32.4,254.016Zm-3.576,0c0-2.794-1.746-4.54-4.32-4.54H21.712v9.1h2.794C27.079,258.566,28.825,256.8,28.825,254.016Z" transform="translate(-18 -169.553)"/>
      <path id="Path_90" data-name="Path 90" d="M75.7,258.585V270.2H72.21V269.1a4.353,4.353,0,0,1-3.457,1.418,6.16,6.16,0,0,1,0-12.261,4.351,4.351,0,0,1,3.457,1.414v-1.089Zm-3.492,5.8a2.763,2.763,0,1,0-2.762,2.832A2.647,2.647,0,0,0,72.21,264.389Z" transform="translate(-47.416 -177.604)"/>
      <path id="Path_91" data-name="Path 91" d="M115.23,259.19l-4.3,11.611H107l-4.3-11.611h3.841l2.413,7.361,2.417-7.361Z" transform="translate(-73.122 -178.209)"/>
      <path id="Path_92" data-name="Path 92" d="M150.886,259.19l-3.97,11.262c-1.3,3.691-3.366,5.154-6.618,4.99v-3.251a2.585,2.585,0,0,0,2.9-1.924l-4.62-11.077h3.841l2.577,7.1,2.183-7.1Z" transform="translate(-96.473 -178.209)"/>
      <path id="Path_93" data-name="Path 93" d="M191.809,259.184l-3.716,11.611h-3.251l-1.858-6.2-1.858,6.2h-3.251l-3.715-11.611h3.715l1.673,6.219,1.809-6.223h3.251l1.812,6.223,1.673-6.223Z" transform="translate(-119.628 -178.202)"/>
      <path id="Path_94" data-name="Path 94" d="M238.172,258.585V270.2H234.68V269.1a4.356,4.356,0,0,1-3.461,1.418c-3.042,0-5.549-2.671-5.549-6.132a5.828,5.828,0,0,1,5.549-6.129,4.354,4.354,0,0,1,3.461,1.414v-1.089Zm-3.492,5.8a2.768,2.768,0,1,0,.01,0Z" transform="translate(-153.15 -177.604)"/>
      <path id="Path_95" data-name="Path 95" d="M277.407,259.19l-3.974,11.262c-1.3,3.691-3.37,5.154-6.635,4.99v-3.251a2.591,2.591,0,0,0,2.905-1.924L265.08,259.19h3.841l2.581,7.1,2.183-7.1Z" transform="translate(-178.798 -178.209)"/>
      <path id="Path_96" data-name="Path 96" d="M81.6,27.29H42.7V31.5l12.292,1.135c.234,9.1.234,18.253.234,27.329v4.005c0,10.281,0,19.608-.234,28.59L42.7,93.7v4.215H74.733A65.236,65.236,0,0,0,81.717,93.2,101.051,101.051,0,0,0,89.4,86.006c6.122-6.055,1.648-9.181-.758-10.934s-11.615-5.65-15.128-9.177c-9.76-9.816,10.476-13.144,12.18-13.41-1.4.143-15.316,1.673-18.581,7.009v-.042c0-9.223,0-18.372.248-27.315H79.374c19.517,0,30.859,10.647,30.859,30.566a36.681,36.681,0,0,1-2.186,13.071,30.244,30.244,0,0,0-2.34-2.057c-1.812-1.453-15.173-8.294-20.471-10.983s-5.2-3.642-5.06-5.315,5.608-4.948,5.608-4.948a43.614,43.614,0,0,0-8.66,3.272c-3.747,2.036-4.082,4.445-2.315,7.064S86.683,70.6,86.683,70.6,99.9,75.76,98.374,82.468c-.6,2.626-2.752,5.524-5.154,8.084a64.879,64.879,0,0,1-8.032,7.1h.223c9.848-.856,18.508-3.7,25.143-8.405,8.381-5.957,13.483-14.89,13.483-26.54C124.058,39.725,106.65,27.29,81.6,27.29ZM69.439,67.554c2.581,2.633,3.492,3.513,10.106,9.467,4.191,3.775-4.784,11.14-11.929,16.063H67.34a.187.187,0,0,1,0-.063c-.244-9.128-.248-18.442-.248-28.565A12.958,12.958,0,0,0,69.439,67.554Z" transform="translate(-34.075 -27.29)"/>
    </g>
  </g>
</svg>
