<svg xmlns="http://www.w3.org/2000/svg" xmlns:xlink="http://www.w3.org/1999/xlink" width="1195.686" height="374.786" viewBox="0 0 1195.686 374.786">
  <defs>
    <linearGradient id="linear-gradient" x1="0.709" y1="0.877" x2="0.278" y2="0.5" gradientUnits="objectBoundingBox">
      <stop offset="0" stop-color="#049aaf"/>
      <stop offset="1" stop-color="#08a5bc"/>
    </linearGradient>
    <linearGradient id="linear-gradient-2" x1="0.642" y1="1.079" x2="0.444" y2="-0.27" gradientUnits="objectBoundingBox">
      <stop offset="0" stop-color="#049aaf"/>
      <stop offset="1" stop-color="#01bbd6"/>
    </linearGradient>
    <linearGradient id="linear-gradient-4" x1="0.642" y1="1.079" x2="0.444" y2="-0.27" gradientUnits="objectBoundingBox">
      <stop offset="0" stop-color="#049aaf"/>
      <stop offset="1" stop-color="#049aaf"/>
    </linearGradient>
  </defs>
  <g id="factories" transform="translate(-164.5 -47.214)">
    <g id="factory3" transform="translate(-44 -392)">
      <g id="Rectangle_199" data-name="Rectangle 199" transform="translate(593 655)" fill="#049aaf" stroke="#049aaf" stroke-width="1">
        <rect width="177" height="64" stroke="none"/>
        <rect x="0.5" y="0.5" width="176" height="63" fill="none"/>
      </g>
      <g id="Rectangle_200" data-name="Rectangle 200" transform="translate(593 679)" fill="#049aaf" stroke="#049aaf" stroke-width="1">
        <rect width="212" height="40" stroke="none"/>
        <rect x="0.5" y="0.5" width="211" height="39" fill="none"/>
      </g>
      <g id="Ellipse_30" data-name="Ellipse 30" transform="translate(603 642)" fill="#049aaf" stroke="#049aaf" stroke-width="1">
        <ellipse cx="20" cy="12.5" rx="20" ry="12.5" stroke="none"/>
        <ellipse cx="20" cy="12.5" rx="19.5" ry="12" fill="none"/>
      </g>
      <g id="Ellipse_31" data-name="Ellipse 31" transform="translate(661 642)" fill="#049aaf" stroke="#049aaf" stroke-width="1">
        <ellipse cx="20.5" cy="12.5" rx="20.5" ry="12.5" stroke="none"/>
        <ellipse cx="20.5" cy="12.5" rx="20" ry="12" fill="none"/>
      </g>
      <g id="Ellipse_32" data-name="Ellipse 32" transform="translate(720 642)" fill="#049aaf" stroke="#049aaf" stroke-width="1">
        <ellipse cx="20.5" cy="12.5" rx="20.5" ry="12.5" stroke="none"/>
        <ellipse cx="20.5" cy="12.5" rx="20" ry="12" fill="none"/>
      </g>
      <g id="Path_112" data-name="Path 112" transform="translate(612.846 532.567)" fill="#049aaf">
        <path d="M 22.37431526184082 121.7169570922852 L -2.268508195877075 121.7169570922852 L 1.584429383277893 0.5000054240226746 L 18.75037956237793 0.5000054240226746 L 22.37431526184082 121.7169570922852 Z" stroke="none"/>
        <path d="M 2.068792343139648 1 L -1.752368927001953 121.2169647216797 L 21.85912895202637 121.2169647216797 L 18.26510429382324 1 L 2.068792343139648 1 M 1.100069046020508 0 L 19.23565101623535 0 L 22.88946914672852 122.2169647216797 L -2.784666061401367 122.2169647216797 L 1.100069046020508 0 Z" stroke="none" fill="#049aaf"/>
      </g>
      <g id="Path_113" data-name="Path 113" transform="translate(671.711 527.403)" fill="#049aaf">
        <path d="M 21.90864753723145 126.8815536499023 L -2.269471883773804 126.8815536499023 L 1.514735341072083 0.5000063180923462 L 18.3493766784668 0.5000063180923462 L 21.90864753723145 126.8815536499023 Z" stroke="none"/>
        <path d="M 1.999979019165039 0.9999923706054688 L -1.75428581237793 126.3815383911133 L 21.39436912536621 126.3815383911133 L 17.86326217651367 0.9999923706054688 L 1.999979019165039 0.9999923706054688 M 1.029474258422852 -7.62939453125e-06 L 18.83549118041992 -7.62939453125e-06 L 22.42292594909668 127.3815383911133 L -2.784675598144531 127.3815383911133 L 1.029474258422852 -7.62939453125e-06 Z" stroke="none" fill="#049aaf"/>
      </g>
      <g id="Path_114" data-name="Path 114" transform="translate(729.785 521.764)" fill="#049aaf">
        <path d="M 23.02448081970215 132.5201873779297 L -2.269472122192383 132.5201873779297 L 1.683568596839905 0.5000103712081909 L 19.30640983581543 0.5000103712081909 L 23.02448081970215 132.5201873779297 Z" stroke="none"/>
        <path d="M 2.168813705444336 1 L -1.754283905029297 132.0201873779297 L 22.51019477844238 132.0201873779297 L 18.82030296325684 1 L 2.168813705444336 1 M 1.198314666748047 0 L 19.79253196716309 0 L 23.53875160217285 133.0201873779297 L -2.78466796875 133.0201873779297 L 1.198314666748047 0 Z" stroke="none" fill="#049aaf"/>
      </g>
      <rect id="Rectangle_201" data-name="Rectangle 201" width="6" height="19" transform="translate(615 666)" fill="#fff"/>
      <rect id="Rectangle_208" data-name="Rectangle 208" width="6" height="19" transform="translate(675 666)" fill="#fff"/>
      <rect id="Rectangle_212" data-name="Rectangle 212" width="6" height="19" transform="translate(734 666)" fill="#fff"/>
      <rect id="Rectangle_216" data-name="Rectangle 216" width="6" height="10" transform="translate(780 687)" fill="#cff0f5"/>
      <rect id="Rectangle_202" data-name="Rectangle 202" width="5" height="19" transform="translate(624 666)" fill="#cff0f5"/>
      <rect id="Rectangle_205" data-name="Rectangle 205" width="5" height="19" transform="translate(684 666)" fill="#fff"/>
      <rect id="Rectangle_209" data-name="Rectangle 209" width="6" height="19" transform="translate(742 666)" fill="#cff0f5"/>
      <rect id="Rectangle_213" data-name="Rectangle 213" width="6" height="10" transform="translate(788 687)" fill="#cff0f5"/>
      <rect id="Rectangle_203" data-name="Rectangle 203" width="5" height="20" transform="translate(624 688)" fill="#fff"/>
      <rect id="Rectangle_206" data-name="Rectangle 206" width="5" height="20" transform="translate(684 688)" fill="#cff0f5"/>
      <rect id="Rectangle_210" data-name="Rectangle 210" width="6" height="20" transform="translate(742 688)" fill="#cff0f5"/>
      <rect id="Rectangle_214" data-name="Rectangle 214" width="6" height="10" transform="translate(788 698)" fill="#fff"/>
      <rect id="Rectangle_204" data-name="Rectangle 204" width="6" height="20" transform="translate(615 688)" fill="#cff0f5"/>
      <rect id="Rectangle_207" data-name="Rectangle 207" width="6" height="20" transform="translate(675 688)" fill="#cff0f5"/>
      <rect id="Rectangle_211" data-name="Rectangle 211" width="6" height="20" transform="translate(734 688)" fill="#fff"/>
      <rect id="Rectangle_215" data-name="Rectangle 215" width="6" height="10" transform="translate(780 698)" fill="#fff"/>
      <path id="Path_115" data-name="Path 115" d="M0,6.215S5.5-.363,12.083.018s8.882,8.944,14.965,9.375A19.372,19.372,0,0,0,38.261,6.215s-4.026,7.4-11.213,7.133S17.4,4.9,11.63,4.689A41.76,41.76,0,0,0,0,6.215Z" transform="translate(739.235 508.788) rotate(-13)" fill="#049aaf"/>
      <path id="Path_117" data-name="Path 117" d="M0,6.215S5.5-.363,12.083.018s8.882,8.944,14.965,9.375A19.372,19.372,0,0,0,38.261,6.215s-4.026,7.4-11.213,7.133S17.4,4.9,11.63,4.689A41.76,41.76,0,0,0,0,6.215Z" transform="translate(679.288 511.401) rotate(-45)" fill="#049aaf"/>
      <path id="Path_119" data-name="Path 119" d="M0,6.215S5.5-.363,12.083.018s8.882,8.944,14.965,9.375A19.372,19.372,0,0,0,38.261,6.215s-4.026,7.4-11.213,7.133S17.4,4.9,11.63,4.689A41.76,41.76,0,0,0,0,6.215Z" transform="translate(627.055 503.612) rotate(9)" fill="#049aaf"/>
      <path id="Path_116" data-name="Path 116" d="M-2592.955,9083.134s2.968-3.549,6.52-3.344,4.792,4.825,8.074,5.059a10.451,10.451,0,0,0,6.05-1.715s-2.173,3.994-6.05,3.849-5.208-4.559-8.319-4.671A22.5,22.5,0,0,0-2592.955,9083.134Z" transform="translate(3333.993 -8565.199)" fill="#049aaf"/>
      <path id="Path_118" data-name="Path 118" d="M-2592.955,9083.325s3.138-3.751,6.892-3.534,5.066,5.1,8.536,5.347a11.047,11.047,0,0,0,6.4-1.812s-2.3,4.223-6.4,4.068-5.5-4.818-8.795-4.937A23.784,23.784,0,0,0-2592.955,9083.325Z" transform="translate(-3316.545 -8038.093) rotate(-41)" fill="#049aaf"/>
      <path id="Path_120" data-name="Path 120" d="M-2592.955,9082.76s2.637-3.152,5.792-2.97,4.257,4.286,7.173,4.493a9.279,9.279,0,0,0,5.374-1.523s-1.93,3.548-5.374,3.419-4.626-4.05-7.39-4.149A19.991,19.991,0,0,0-2592.955,9082.76Z" transform="translate(5340.145 -7671.603) rotate(14)" fill="#049aaf"/>
    </g>
    <g id="factory1" transform="translate(553.258 -82.241)">
      <g id="Rectangle_157" data-name="Rectangle 157" transform="translate(487.742 355.241)" fill="#049aaf" stroke="#049aaf" stroke-width="9">
        <rect width="140" height="33" rx="7" stroke="none"/>
        <rect x="4.5" y="4.5" width="131" height="24" rx="2.5" fill="none"/>
      </g>
      <g id="Path_99" data-name="Path 99" transform="translate(358.748 345.646)" fill="url(#linear-gradient)">
        <path d="M 279.3367614746094 88.11225891113281 L 17.45854568481445 88.11225891113281 C 14.13075351715088 88.11225891113281 11.00212860107422 86.81634521484375 8.649044990539551 84.46321868896484 C 6.295920372009277 82.11013031005859 5.000003814697266 78.98150634765625 5.000003814697266 75.65371704101562 L 5.000003814697266 17.45854949951172 C 5.000003814697266 14.13075828552246 6.295920372009277 11.0021333694458 8.649044990539551 8.649049758911133 C 10.93505764007568 6.362997055053711 13.95315074920654 5.074744701385498 17.17460441589355 5.003162384033203 L 204.0462188720703 28.21342468261719 L 278.720458984375 37.48825836181641 L 279.0274353027344 37.52638244628906 L 279.3367614746094 37.52638244628906 C 282.66455078125 37.52638244628906 285.7931213378906 38.82229995727539 288.146240234375 41.17538452148438 C 290.4993286132812 43.52850723266602 291.7952575683594 46.65713500976562 291.7952575683594 49.98496627807617 L 291.7952575683594 75.65371704101562 C 291.7952575683594 78.98150634765625 290.4993286132812 82.11013031005859 288.146240234375 84.4632568359375 C 285.7931213378906 86.81634521484375 282.66455078125 88.11225891113281 279.3367614746094 88.11225891113281 Z" stroke="none"/>
        <path d="M 16.96820068359375 10.01592254638672 C 13.0831298828125 10.26915740966797 9.999969482421875 13.51055145263672 9.999969482421875 17.45853424072266 L 9.999969482421875 75.65373229980469 C 9.999969482421875 79.76638031005859 13.34588623046875 83.11228179931641 17.45852661132812 83.11228179931641 L 279.3367919921875 83.11228179931641 C 283.4493713378906 83.11228179931641 286.7952270507812 79.76638031005859 286.7952270507812 75.65373229980469 L 286.7952270507812 49.98493194580078 C 286.7952270507812 45.87228393554688 283.4493713378906 42.52638244628906 279.3367919921875 42.52638244628906 L 278.7181396484375 42.52638244628906 L 278.1042175292969 42.45013427734375 L 203.429931640625 33.1752815246582 L 16.96820068359375 10.01592254638672 M 17.45852661132812 -1.52587890625e-05 L 204.6624755859375 23.25153350830078 L 279.3367919921875 32.52638244628906 C 288.9788208007812 32.52638244628906 296.7952270507812 40.3428840637207 296.7952270507812 49.98493194580078 L 296.7952270507812 75.65373229980469 C 296.7952270507812 85.29582977294922 288.9788208007812 93.11228179931641 279.3367919921875 93.11228179931641 L 17.45852661132812 93.11228179931641 C 7.81646728515625 93.11228179931641 -3.0517578125e-05 85.29582977294922 -3.0517578125e-05 75.65373229980469 L -3.0517578125e-05 17.45853424072266 C -3.0517578125e-05 7.816436767578125 7.81646728515625 -1.52587890625e-05 17.45852661132812 -1.52587890625e-05 Z" stroke="none" fill="#049aaf"/>
      </g>
      <path id="Path_106" data-name="Path 106" d="M38.853,0H371.53" transform="translate(336.5 435.28)" fill="none" stroke="#049aaf" stroke-width="7"/>
      <g id="Rectangle_158" data-name="Rectangle 158" transform="translate(499.742 339.241)" fill="#049aaf" stroke="#049aaf" stroke-width="9">
        <rect width="49" height="12" rx="6" stroke="none"/>
        <rect x="4.5" y="4.5" width="40" height="3" rx="1.5" fill="none"/>
      </g>
      <g id="Rectangle_159" data-name="Rectangle 159" transform="translate(564.742 339.241)" fill="#049aaf" stroke="#049aaf" stroke-width="9">
        <rect width="49" height="12" rx="6" stroke="none"/>
        <rect x="4.5" y="4.5" width="40" height="3" rx="1.5" fill="none"/>
      </g>
      <g id="Path_100" data-name="Path 100" transform="translate(508.116 321.241)" fill="#049aaf">
        <path d="M0,0,29.1,8.227v6.478H0Z" stroke="none"/>
        <path d="M 0 3.814697265625e-06 L 29.09757804870605 8.226740837097168 L 29.09757804870605 14.70510959625244 L 0 14.70510959625244 L 0 3.814697265625e-06 Z" stroke="none" fill="#049aaf"/>
      </g>
      <g id="Path_101" data-name="Path 101" transform="translate(574.07 288.586)" fill="#049aaf">
        <path d="M 17.59757041931152 35.86014175415039 L 11.50000762939453 35.86014175415039 L 11.50000762939453 26.02491760253906 L 17.59757041931152 31.57721328735352 L 17.59757041931152 35.86014175415039 Z" stroke="none"/>
        <path d="M -5.7220458984375e-06 1.1444091796875e-05 L 29.09758377075195 26.49554061889648 L 29.09758377075195 47.36013031005859 L -5.7220458984375e-06 47.36013031005859 L -5.7220458984375e-06 1.1444091796875e-05 Z" stroke="none" fill="#049aaf"/>
      </g>
      <g id="Path_102" data-name="Path 102" transform="translate(632.265 325.529)" fill="#049aaf">
        <path d="M 75.15370941162109 108.130973815918 L 30.19525146484375 108.130973815918 L 30.19525146484375 20.80401992797852 L 30.19525146484375 20.30401992797852 L 29.69525146484375 20.30401992797852 L 0.5000080466270447 20.30401992797852 L 0.5000080466270447 0.5000050067901611 L 75.15370941162109 0.5000050067901611 L 75.15370941162109 108.130973815918 Z" stroke="none"/>
        <path d="M 0.9999923706054688 1.000007629394531 L 0.9999923706054688 19.80401611328125 L 29.69525146484375 19.80401611328125 L 30.69525146484375 19.80401611328125 L 30.69525146484375 20.80401611328125 L 30.69525146484375 107.630973815918 L 74.65369415283203 107.630973815918 L 74.65369415283203 1.000007629394531 L 0.9999923706054688 1.000007629394531 M -7.62939453125e-06 7.62939453125e-06 L 75.65369415283203 7.62939453125e-06 L 75.65369415283203 108.630973815918 L 29.69525146484375 108.630973815918 L 29.69525146484375 20.80401611328125 L -7.62939453125e-06 20.80401611328125 L -7.62939453125e-06 7.62939453125e-06 Z" stroke="none" fill="#049aaf"/>
      </g>
      <g id="Rectangle_160" data-name="Rectangle 160" transform="translate(656.742 307.241)" fill="#049aaf" stroke="#049aaf" stroke-width="1">
        <rect width="18" height="24" stroke="none"/>
        <rect x="0.5" y="0.5" width="17" height="23" fill="none"/>
      </g>
      <g id="Rectangle_161" data-name="Rectangle 161" transform="translate(678.742 271.241)" fill="#049aaf" stroke="#049aaf" stroke-width="1">
        <rect width="22" height="50" stroke="none"/>
        <rect x="0.5" y="0.5" width="21" height="49" fill="none"/>
      </g>
      <g id="Rectangle_162" data-name="Rectangle 162" transform="translate(656.742 241.241)" fill="#049aaf" stroke="#049aaf" stroke-width="1">
        <rect width="18" height="58" stroke="none"/>
        <rect x="0.5" y="0.5" width="17" height="57" fill="none"/>
      </g>
      <g id="Rectangle_163" data-name="Rectangle 163" transform="translate(652.742 309.241)" fill="#049aaf" stroke="#049aaf" stroke-width="1">
        <rect width="52" height="8" stroke="none"/>
        <rect x="0.5" y="0.5" width="51" height="7" fill="none"/>
      </g>
      <path id="Path_103" data-name="Path 103" d="M-3048.842,9060s5.152-27.855,34.3-26.875c.415-22.36,35.717-29.983,46.649-10.951,17.254-5.649,35.861,16.1,31.989,24.259,2.357-.623,5.829-10.152,4.738-13.308s18.321,20.322-21.326,29.176c-.185,8.688-29.933,6.67-30.006-2.3-4.75,7.292-25.941,2.637-20.846-4.791-18.158,12.232-22.414,4.564-29.395-1.545S-3048.842,9060-3048.842,9060Z" transform="translate(3733.789 -8792.132)" fill="#049aaf" stroke="#049aaf" stroke-width="1"/>
      <g id="Rectangle_164" data-name="Rectangle 164" transform="translate(678.742 331.241)" fill="#d1f2f7" stroke="#049aaf" stroke-width="1">
        <rect width="22" height="14" stroke="none"/>
        <rect x="0.5" y="0.5" width="21" height="13" fill="none"/>
      </g>
      <g id="Rectangle_165" data-name="Rectangle 165" transform="translate(678.742 347.241)" fill="#d1f2f7" stroke="#049aaf" stroke-width="1">
        <rect width="22" height="14" stroke="none"/>
        <rect x="0.5" y="0.5" width="21" height="13" fill="none"/>
      </g>
      <g id="Rectangle_166" data-name="Rectangle 166" transform="translate(678.742 363.241)" fill="#d1f2f7" stroke="#049aaf" stroke-width="1">
        <rect width="22" height="13" stroke="none"/>
        <rect x="0.5" y="0.5" width="21" height="12" fill="none"/>
      </g>
      <g id="Rectangle_167" data-name="Rectangle 167" transform="translate(678.742 378.241)" fill="#fff" stroke="#049aaf" stroke-width="1">
        <rect width="22" height="14" stroke="none"/>
        <rect x="0.5" y="0.5" width="21" height="13" fill="none"/>
      </g>
      <g id="Path_104" data-name="Path 104" transform="translate(504.236 382.974)" fill="#d1f2f7">
        <path d="M 66.39435577392578 23.81092643737793 L 1.500004053115845 23.81092643737793 L 1.500004053115845 -4.497361183166504 L 66.39435577392578 7.166959285736084 L 66.39435577392578 23.81092643737793 Z" stroke="none"/>
        <path d="M 3 -2.703718185424805 L 3 22.31093597412109 L 64.89434814453125 22.31093597412109 L 64.89434814453125 8.421387672424316 L 3 -2.703718185424805 M 0 -6.291021347045898 L 67.89434814453125 5.912546157836914 L 67.89434814453125 25.31093597412109 L 0 25.31093597412109 L 0 -6.291021347045898 Z" stroke="none" fill="#049aaf"/>
      </g>
      <g id="Path_105" data-name="Path 105" transform="translate(570.19 389.505)" fill="#fff">
        <path d="M 66.39435577392578 18.65559196472168 L 1.500004053115845 18.65559196472168 L 1.500004053115845 0.729263961315155 L 66.39435577392578 2.223057508468628 L 66.39435577392578 18.65559196472168 Z" stroke="none"/>
        <path d="M 3 2.264184951782227 L 3 17.15558242797852 L 64.89434814453125 17.15558242797852 L 64.89434814453125 3.688926696777344 L 3 2.264184951782227 M 0 -0.8056602478027344 L 67.89434814453125 0.7571945190429688 L 67.89434814453125 20.15558242797852 L 0 20.15558242797852 L 0 -0.8056602478027344 Z" stroke="none" fill="#049aaf"/>
      </g>
      <g id="Rectangle_169" data-name="Rectangle 169" transform="translate(502.742 408.241)" fill="#fff" stroke="#049aaf" stroke-width="3">
        <rect width="70" height="18" stroke="none"/>
        <rect x="1.5" y="1.5" width="67" height="15" fill="none"/>
      </g>
      <g id="Rectangle_170" data-name="Rectangle 170" transform="translate(570.742 408.241)" fill="#d1f2f7" stroke="#049aaf" stroke-width="3">
        <rect width="69" height="18" stroke="none"/>
        <rect x="1.5" y="1.5" width="66" height="15" fill="none"/>
      </g>
    </g>
    <line id="Line_63" data-name="Line 63" x2="238" transform="translate(164.5 420.5)" fill="none" stroke="#059aaf" stroke-width="3"/>
    <line id="Line_64" data-name="Line 64" x2="238" transform="translate(535.5 336.5)" fill="none" stroke="#059aaf" stroke-width="3"/>
    <line id="Line_65" data-name="Line 65" x2="381" transform="translate(897.5 366.5)" fill="none" stroke="#059aaf" stroke-width="3"/>
    <g id="factory2" transform="translate(-175 -308.983)">
      <g id="Rectangle_173" data-name="Rectangle 173" transform="translate(427 509.983)" stroke="#049aaf" stroke-width="3" fill="url(#linear-gradient-2)">
        <rect width="29" height="119" stroke="none"/>
        <rect x="1.5" y="1.5" width="26" height="116" fill="none"/>
      </g>
      <g id="Rectangle_198" data-name="Rectangle 198" transform="translate(462 568.983)" stroke="#049aaf" stroke-width="3" fill="url(#linear-gradient-2)">
        <rect width="29" height="62" stroke="none"/>
        <rect x="1.5" y="1.5" width="26" height="59" fill="none"/>
      </g>
      <g id="Ellipse_26" data-name="Ellipse 26" transform="translate(390 616.983)" stroke="#049aaf" stroke-width="3" fill="url(#linear-gradient-4)">
        <ellipse cx="68.5" cy="21.5" rx="68.5" ry="21.5" stroke="none"/>
        <ellipse cx="68.5" cy="21.5" rx="67" ry="20" fill="none"/>
      </g>
      <g id="Rectangle_172" data-name="Rectangle 172" transform="translate(357 636.983)" stroke="#049aaf" stroke-width="3" fill="url(#linear-gradient-2)">
        <rect width="203" height="85" stroke="none"/>
        <rect x="1.5" y="1.5" width="200" height="82" fill="none"/>
      </g>
      <rect id="Rectangle_174" data-name="Rectangle 174" width="17" height="18" transform="translate(369 647.983)" fill="#fff"/>
      <rect id="Rectangle_182" data-name="Rectangle 182" width="17" height="17" transform="translate(369 671.983)" fill="#cce8ec"/>
      <rect id="Rectangle_190" data-name="Rectangle 190" width="17" height="17" transform="translate(369 694.983)" fill="#fff"/>
      <rect id="Rectangle_175" data-name="Rectangle 175" width="17" height="18" transform="translate(392 647.983)" fill="#fff"/>
      <rect id="Rectangle_183" data-name="Rectangle 183" width="17" height="17" transform="translate(392 671.983)" fill="#cce8ec"/>
      <rect id="Rectangle_191" data-name="Rectangle 191" width="17" height="17" transform="translate(392 694.983)" fill="#fff"/>
      <rect id="Rectangle_176" data-name="Rectangle 176" width="18" height="18" transform="translate(415 647.983)" fill="#cce8ec"/>
      <rect id="Rectangle_184" data-name="Rectangle 184" width="18" height="17" transform="translate(415 671.983)" fill="#fff"/>
      <rect id="Rectangle_192" data-name="Rectangle 192" width="18" height="17" transform="translate(415 694.983)" fill="#fff"/>
      <rect id="Rectangle_177" data-name="Rectangle 177" width="18" height="18" transform="translate(438 647.983)" fill="#fff"/>
      <rect id="Rectangle_185" data-name="Rectangle 185" width="18" height="17" transform="translate(438 671.983)" fill="#cce8ec"/>
      <rect id="Rectangle_193" data-name="Rectangle 193" width="18" height="17" transform="translate(438 694.983)" fill="#fff"/>
      <rect id="Rectangle_178" data-name="Rectangle 178" width="17" height="18" transform="translate(462 647.983)" fill="#fff"/>
      <rect id="Rectangle_186" data-name="Rectangle 186" width="17" height="17" transform="translate(462 671.983)" fill="#fff"/>
      <rect id="Rectangle_194" data-name="Rectangle 194" width="17" height="17" transform="translate(462 694.983)" fill="#cce8ec"/>
      <rect id="Rectangle_179" data-name="Rectangle 179" width="17" height="18" transform="translate(485 647.983)" fill="#fff"/>
      <rect id="Rectangle_187" data-name="Rectangle 187" width="17" height="17" transform="translate(485 671.983)" fill="#cce8ec"/>
      <rect id="Rectangle_195" data-name="Rectangle 195" width="17" height="17" transform="translate(485 694.983)" fill="#fff"/>
      <rect id="Rectangle_180" data-name="Rectangle 180" width="18" height="18" transform="translate(508 647.983)" fill="#cce8ec"/>
      <rect id="Rectangle_188" data-name="Rectangle 188" width="18" height="17" transform="translate(508 671.983)" fill="#fff"/>
      <rect id="Rectangle_196" data-name="Rectangle 196" width="18" height="17" transform="translate(508 694.983)" fill="#cce8ec"/>
      <rect id="Rectangle_181" data-name="Rectangle 181" width="18" height="18" transform="translate(531 647.983)" fill="#fff"/>
      <rect id="Rectangle_189" data-name="Rectangle 189" width="18" height="17" transform="translate(531 671.983)" fill="#cce8ec"/>
      <rect id="Rectangle_197" data-name="Rectangle 197" width="18" height="17" transform="translate(531 694.983)" fill="#cce8ec"/>
      <ellipse id="Ellipse_27" data-name="Ellipse 27" cx="6.5" cy="7" rx="6.5" ry="7" transform="translate(452 622.983)" fill="#fff"/>
      <ellipse id="Ellipse_29" data-name="Ellipse 29" cx="6.5" cy="7" rx="6.5" ry="7" transform="translate(431 622.983)" fill="#cce8ec"/>
      <circle id="Ellipse_28" data-name="Ellipse 28" cx="7" cy="7" r="7" transform="translate(473 622.983)" fill="#cce8ec"/>
      <path id="Path_107" data-name="Path 107" d="M-2540.053,9233.989c-.335-2.12,9.174-10.294,18.438-.558,16.136-1.918,23.521,9.23,9.154,14.184,2.819,9.421-19.521,9.084-18.9,3.78-1.909,5.055-18.527,4.225-18.357-3.78C-2556.905,9249.126-2571.019,9230.84-2540.053,9233.989Z" transform="translate(3008.025 -8872.564)" fill="#049aaf"/>
      <path id="Path_111" data-name="Path 111" d="M-2541.15,9233.689c-.317-2,8.649-9.7,17.384-.525,15.212-1.808,22.177,8.7,8.63,13.373,2.659,8.882-18.4,8.563-17.816,3.564-1.8,4.767-17.468,3.982-17.307-3.564C-2557.039,9247.962-2570.346,9230.719-2541.15,9233.689Z" transform="translate(3039.025 -8828.904)" fill="#049aaf"/>
      <path id="Path_110" data-name="Path 110" d="M-2547.968,9231.828c-.2-1.24,5.39-6.041,10.833-.324,9.479-1.123,13.819,5.424,5.376,8.332,1.657,5.537-11.468,5.338-11.1,2.223-1.121,2.975-10.885,2.486-10.784-2.223C-2557.868,9240.723-2566.16,9229.98-2547.968,9231.828Z" transform="translate(3040.212 -8778.854)" fill="#049aaf"/>
      <path id="Path_346" data-name="Path 346" d="M-2551.985,9230.735c-.127-.8,3.469-3.889,6.972-.209,6.1-.723,8.894,3.491,3.46,5.362,1.066,3.563-7.381,3.435-7.145,1.43-.721,1.914-7,1.6-6.94-1.43C-2558.357,9236.461-2563.693,9229.546-2551.985,9230.735Z" transform="translate(3035.212 -8728.854)" fill="#049aaf"/>
      <path id="Path_348" data-name="Path 348" d="M-2554.731,9229.988c-.079-.5,2.156-2.417,4.333-.13,3.792-.449,5.528,2.17,2.151,3.333.663,2.215-4.587,2.135-4.441.889-.448,1.189-4.354.994-4.314-.889C-2558.691,9233.547-2562.008,9229.249-2554.731,9229.988Z" transform="translate(3029.212 -8684.854)" fill="#049aaf"/>
      <path id="Path_342" data-name="Path 342" d="M-2548.262,9231.748c-.192-1.208,5.25-5.885,10.55-.316,9.232-1.095,13.459,5.282,5.236,8.115,1.614,5.394-11.169,5.2-10.812,2.165-1.092,2.9-10.6,2.421-10.5-2.165C-2557.9,9240.412-2565.979,9229.949-2548.262,9231.748Z" transform="translate(2995.021 -8826.486)" fill="#049aaf"/>
      <path id="Path_345" data-name="Path 345" d="M-2551.048,9230.992c-.144-.9,3.917-4.393,7.874-.236,6.89-.818,10.043,3.941,3.907,6.055,1.205,4.025-8.334,3.879-8.068,1.617-.815,2.16-7.911,1.8-7.838-1.617C-2558.243,9237.457-2564.269,9229.648-2551.048,9230.992Z" transform="translate(3001.212 -8782.101)" fill="#049aaf"/>
      <path id="Path_347" data-name="Path 347" d="M-2554.689,9230c-.08-.5,2.176-2.439,4.373-.131,3.827-.454,5.579,2.189,2.17,3.364.669,2.234-4.63,2.154-4.481.9-.453,1.2-4.394,1-4.354-.9C-2558.686,9233.592-2562.033,9229.254-2554.689,9230Z" transform="translate(2997.212 -8742.101)" fill="#049aaf"/>
    </g>
  </g>
</svg>
