<svg xmlns="http://www.w3.org/2000/svg" width="152.002" height="236.998" viewBox="0 0 152.002 236.998">
  <g id="g-2021" transform="translate(1.761 1.996)">
    <ellipse id="Ellipse_44" data-name="Ellipse 44" cx="74.001" cy="73.999" rx="74.001" ry="73.999" transform="translate(0.239 0.004)" fill="#059aaf" stroke="#049aaf" stroke-width="4"/>
    <line id="Line_124" data-name="Line 124" y1="75.186" transform="translate(74.597 148.611)" fill="none" stroke="#049aaf" stroke-width="4"/>
    <circle id="Ellipse_45" data-name="Ellipse 45" cx="7.5" cy="7.5" r="7.5" transform="translate(67.24 220.002)" fill="#049aaf"/>
    <g id="Icon_feather-target" data-name="Icon feather-target" transform="translate(31.242 30.503)">
      <path id="Path_289" data-name="Path 289" d="M83.657,43.328A40.328,40.328,0,1,1,43.328,3,40.328,40.328,0,0,1,83.657,43.328Z" transform="translate(0 0)" fill="none" stroke="#f2f2f2" stroke-linecap="round" stroke-linejoin="round" stroke-width="8"/>
      <path id="Path_290" data-name="Path 290" d="M57.394,33.2A24.2,24.2,0,1,1,33.2,9a24.2,24.2,0,0,1,24.2,24.2Z" transform="translate(10.131 10.131)" fill="none" stroke="#f2f2f2" stroke-linecap="round" stroke-linejoin="round" stroke-width="8"/>
      <path id="Path_291" data-name="Path 291" d="M31.131,23.066A8.066,8.066,0,1,1,23.066,15,8.066,8.066,0,0,1,31.131,23.066Z" transform="translate(20.263 20.263)" fill="none" stroke="#f2f2f2" stroke-linecap="round" stroke-linejoin="round" stroke-width="8"/>
    </g>
  </g>
</svg>
