<svg xmlns="http://www.w3.org/2000/svg" width="117.002" height="181.998" viewBox="0 0 117.002 181.998">
  <g id="g-2020" transform="translate(2.446 1.996)">
    <ellipse id="Ellipse_44" data-name="Ellipse 44" cx="56.501" cy="56.499" rx="56.501" ry="56.499" transform="translate(-0.446 0.004)" fill="#059aaf" stroke="#049aaf" stroke-width="4"/>
    <line id="Line_124" data-name="Line 124" y1="57.643" transform="translate(57.192 113.936)" fill="none" stroke="#049aaf" stroke-width="4"/>
    <ellipse id="Ellipse_45" data-name="Ellipse 45" cx="5.5" cy="6" rx="5.5" ry="6" transform="translate(51.555 168.002)" fill="#049aaf"/>
    <g id="Ellipse_46" data-name="Ellipse 46" transform="translate(25.554 60.002)" fill="none" stroke="#f2f2f2" stroke-width="4">
      <circle cx="6" cy="6" r="6" stroke="none"/>
      <circle cx="6" cy="6" r="4" fill="none"/>
    </g>
    <g id="Ellipse_47" data-name="Ellipse 47" transform="translate(28.554 39.002)" fill="none" stroke="#f2f2f2" stroke-width="3">
      <circle cx="5" cy="5" r="5" stroke="none"/>
      <circle cx="5" cy="5" r="3.5" fill="none"/>
    </g>
    <g id="Ellipse_48" data-name="Ellipse 48" transform="translate(45.554 21.002)" fill="none" stroke="#f2f2f2" stroke-width="8">
      <circle cx="10" cy="10" r="10" stroke="none"/>
      <circle cx="10" cy="10" r="6" fill="none"/>
    </g>
    <g id="Ellipse_49" data-name="Ellipse 49" transform="translate(42.554 74.002)" fill="none" stroke="#f2f2f2" stroke-width="5">
      <circle cx="7" cy="7" r="7" stroke="none"/>
      <circle cx="7" cy="7" r="4.5" fill="none"/>
    </g>
    <g id="Ellipse_50" data-name="Ellipse 50" transform="translate(67.554 66.002)" fill="none" stroke="#f2f2f2" stroke-width="6">
      <circle cx="8" cy="8" r="8" stroke="none"/>
      <circle cx="8" cy="8" r="5" fill="none"/>
    </g>
    <g id="Ellipse_51" data-name="Ellipse 51" transform="translate(70.554 39.002)" fill="none" stroke="#f2f2f2" stroke-width="7">
      <circle cx="9" cy="9" r="9" stroke="none"/>
      <circle cx="9" cy="9" r="5.5" fill="none"/>
    </g>
  </g>
</svg>
