<svg xmlns="http://www.w3.org/2000/svg" xmlns:xlink="http://www.w3.org/1999/xlink" width="81" height="94" viewBox="0 0 81 94">
  <defs>
    <filter id="Rectangle_340" x="0" y="0" width="81" height="81" filterUnits="userSpaceOnUse">
      <feOffset dy="3" input="SourceAlpha"/>
      <feGaussianBlur stdDeviation="3" result="blur"/>
      <feFlood flood-opacity="0.161"/>
      <feComposite operator="in" in2="blur"/>
      <feComposite in="SourceGraphic"/>
    </filter>
    <filter id="Polygon_2" x="24" y="63" width="34" height="31" filterUnits="userSpaceOnUse">
      <feOffset dy="3" input="SourceAlpha"/>
      <feGaussianBlur stdDeviation="3" result="blur-2"/>
      <feFlood flood-opacity="0.161"/>
      <feComposite operator="in" in2="blur-2"/>
      <feComposite in="SourceGraphic"/>
    </filter>
  </defs>
  <g id="Group_97" data-name="Group 97" transform="translate(-527 -3966)">
    <g transform="matrix(1, 0, 0, 1, 527, 3966)" filter="url(#Rectangle_340)">
      <rect id="Rectangle_340-2" data-name="Rectangle 340" width="63" height="63" transform="translate(9 6)" fill="#01bbd6"/>
    </g>
    <g transform="matrix(1, 0, 0, 1, 527, 3966)" filter="url(#Polygon_2)">
      <path id="Polygon_2-2" data-name="Polygon 2" d="M8,0l8,13H0Z" transform="translate(49 82) rotate(180)" fill="#01bbd6"/>
    </g>
    <g id="u4MCrU" transform="translate(277.656 3912.657)">
      <g id="Group_157" data-name="Group 157" transform="translate(270.083 70.083)">
        <g id="Group_156" data-name="Group 156" transform="translate(0)">
          <path id="Path_339" data-name="Path 339" d="M336.638,289.094c1.119.11,2.259.2,3.395.336a5.8,5.8,0,0,1,4.457,3.073,10.528,10.528,0,0,1,1.385,3.525,2.776,2.776,0,0,1-1.053,2.813,8.328,8.328,0,0,1-2.94,1.358,28.967,28.967,0,0,1-5.138.905,57.579,57.579,0,0,1-7.54.232,38.157,38.157,0,0,1-8.483-1.035,10.2,10.2,0,0,1-2.876-1.149,3,3,0,0,1-1.383-3.645,12.062,12.062,0,0,1,1.636-3.555,5.6,5.6,0,0,1,4.009-2.509c.888-.113,1.783-.168,2.675-.255.279-.027.556-.072.826-.107a14.766,14.766,0,0,0,2.372,3.277c.562.664,1.153,1.3,1.764,1.991l.57-2.228a1.124,1.124,0,0,0,.06-.266.374.374,0,0,0-.066-.25,1.805,1.805,0,0,1-.493-1.446h2.6a1.827,1.827,0,0,1-.491,1.444.288.288,0,0,0-.093.222c.206.826.424,1.65.654,2.529A30.867,30.867,0,0,0,336.638,289.094Z" transform="translate(-311.179 -264.817)" fill="#fff"/>
          <path id="Path_340" data-name="Path 340" d="M398.129,137.625a8.11,8.11,0,0,1-3.86,3.292,4.74,4.74,0,0,1-4.5-.741,9.956,9.956,0,0,1-2.976-3.462c-.237-.427-.439-.874-.64-1.32a.586.586,0,0,1,0-.321,7.839,7.839,0,0,0,.217-1.137c.031-1.02.008-2.042.012-3.064a2.64,2.64,0,0,0-.714-1.857.413.413,0,0,1-.1-.3,7.221,7.221,0,0,1,14.275,0,.38.38,0,0,1-.081.28,2.673,2.673,0,0,0-.732,1.925c.009,1,0,1.993.007,2.989,0,.168-.046.268-.2.315-.657.2-1.312.4-1.972.583a.435.435,0,0,1-.3-.062,2.037,2.037,0,0,0-1.09-.294c-.415.006-.83,0-1.246,0a1.969,1.969,0,0,0-.024,3.938,11.047,11.047,0,0,0,1.664-.052,3.45,3.45,0,0,0,.873-.381,1.988,1.988,0,0,1,.376-.154C397.431,137.74,397.749,137.692,398.129,137.625Z" transform="translate(-372.771 -116.776)" fill="#fff"/>
          <path id="Path_341" data-name="Path 341" d="M375.362,112.451c0,.523,0,1.046,0,1.57a1.629,1.629,0,0,1-2.333,1.494.376.376,0,0,0-.424.034,8.072,8.072,0,0,1-3.4,1.245c-.123.018-.246.038-.37.051a.728.728,0,0,0-.615.282.8.8,0,0,1-.688.288c-.414,0-.829.008-1.243-.006a.962.962,0,1,1,.032-1.923c.382,0,.764,0,1.146,0a1.03,1.03,0,0,1,.824.336.288.288,0,0,0,.211.09,8.115,8.115,0,0,0,3.494-1.131c.142-.09.191-.168.132-.337a1.386,1.386,0,0,1-.053-.442c0-1.03,0-2.059,0-3.089a1.64,1.64,0,0,1,.753-1.434.355.355,0,0,0,.126-.276,8,8,0,0,0-4.235-6.556,8.214,8.214,0,0,0-12.028,5.471,9.214,9.214,0,0,0-.156,1.108.33.33,0,0,0,.126.253,1.63,1.63,0,0,1,.754,1.432c0,1.03,0,2.059,0,3.089a1.645,1.645,0,1,1-3.291.011q-.005-1.582,0-3.164a1.543,1.543,0,0,1,.745-1.355.337.337,0,0,0,.176-.292,9.731,9.731,0,0,1,10.725-9.009,9.671,9.671,0,0,1,8.581,8.13c.049.3.061.611.108.914a.37.37,0,0,0,.138.227,1.615,1.615,0,0,1,.773,1.42C375.359,111.4,375.362,111.927,375.362,112.451Z" transform="translate(-344.804 -96.8)" fill="#fff"/>
        </g>
      </g>
    </g>
  </g>
</svg>
