<svg xmlns="http://www.w3.org/2000/svg" xmlns:xlink="http://www.w3.org/1999/xlink" width="358" height="252.583" viewBox="0 0 358 252.583">
  <defs>
    <linearGradient id="linear-gradient" x1="0.5" x2="0.5" y2="1" gradientUnits="objectBoundingBox">
      <stop offset="0" stop-color="#01bbd6" stop-opacity="0.404"/>
      <stop offset="1" stop-color="#049aaf"/>
    </linearGradient>
    <linearGradient id="linear-gradient-13" x1="0.016" y1="2.911" x2="0.063" y2="0.563" gradientUnits="objectBoundingBox">
      <stop offset="0" stop-color="#01bbd6"/>
      <stop offset="1" stop-color="#01bbd6" stop-opacity="0.482"/>
    </linearGradient>
  </defs>
  <g id="mainBox" transform="translate(-811 -257.417)">
    <ellipse id="Ellipse_4" data-name="Ellipse 4" cx="115" cy="39.5" rx="115" ry="39.5" transform="translate(868 431)" opacity="0.997" fill="url(#linear-gradient)"/>
    <g id="el" transform="translate(60.618 14.101)">
      <rect id="Rectangle_27" data-name="Rectangle 27" width="18" height="18" transform="translate(750.382 389.899)" fill="url(#linear-gradient)"/>
      <rect id="Rectangle_33" data-name="Rectangle 33" width="14" height="14" transform="translate(1079.382 441.899)" fill="url(#linear-gradient)"/>
      <rect id="Rectangle_28" data-name="Rectangle 28" width="13" height="13" transform="translate(771.382 368.899)" opacity="0.602" fill="url(#linear-gradient)"/>
      <rect id="Rectangle_34" data-name="Rectangle 34" width="8" height="8" transform="translate(1061.382 463.899)" opacity="0.602" fill="url(#linear-gradient)"/>
      <rect id="Rectangle_29" data-name="Rectangle 29" width="6" height="6" transform="translate(754.382 420.899)" opacity="0.395" fill="url(#linear-gradient)"/>
      <rect id="Rectangle_30" data-name="Rectangle 30" width="6" height="6" transform="translate(794.382 389.899)" opacity="0.395" fill="url(#linear-gradient)"/>
      <rect id="Rectangle_31" data-name="Rectangle 31" width="6" height="6" transform="translate(757.382 354.899)" opacity="0.395" fill="url(#linear-gradient)"/>
      <rect id="Rectangle_32" data-name="Rectangle 32" width="6" height="6" transform="translate(782.382 344.899)" opacity="0.395" fill="url(#linear-gradient)"/>
      <rect id="Rectangle_35" data-name="Rectangle 35" width="6" height="6" transform="translate(1065.382 429.899)" opacity="0.395" fill="url(#linear-gradient)"/>
      <rect id="Rectangle_36" data-name="Rectangle 36" width="6" height="6" transform="translate(1102.382 462.899)" opacity="0.395" fill="url(#linear-gradient)"/>
      <rect id="Rectangle_37" data-name="Rectangle 37" width="6" height="6" transform="translate(1076.382 489.899)" opacity="0.395" fill="url(#linear-gradient)"/>
    </g>
    <g id="box" transform="translate(404 56)">
      <g id="boxBack" transform="translate(471.44 242.793)">
        <path id="Path_27" data-name="Path 27" d="M-7.848,7.071,74.914-16.351,49.727-37.072-32.413-12.72Z" transform="translate(32.413 37.072)" fill="#fcfcfc" stroke="#01bbd6" stroke-width="2"/>
        <path id="Path_26" data-name="Path 26" d="M33.385-22.764,116.453,1.365l25.742-19.734-82.9-22.824Z" transform="translate(73.688 43.442)" fill="#fcfcfc" stroke="#01bbd6" stroke-width="2"/>
        <path id="Path_77" data-name="Path 77" d="M-4479.834,9052.406v-91.158l82.9-23.547,82.376,24.5,1.355,90.2Z" transform="translate(4504.262 -8916.93)" fill="#fcfcfc" stroke="#01bbd6" stroke-width="2"/>
      </g>
      <g id="figure" transform="translate(519.576 192.057)">
        <g id="r3" transform="translate(24.029 9.36)">
          <g id="fon">
            <g id="Rectangle_217" data-name="Rectangle 217" transform="translate(1.395 5.583)" fill="#fcfcfc" stroke="#fff" stroke-width="2">
              <rect width="34" height="126" stroke="none"/>
              <rect x="1" y="1" width="32" height="124" fill="none"/>
            </g>
            <path id="Path_122" data-name="Path 122" d="M0,0V118.267" transform="translate(18.373 9.753)" fill="#fcfcfc" stroke="#fff" stroke-width="2"/>
            <g id="Path_75" data-name="Path 75" transform="translate(-13.265 -194.35)" fill="#fcfcfc" stroke-linecap="round">
              <path d="M 31.6196460723877 203.3785247802734 L 17.04616737365723 199.3761291503906 L 31.61127662658691 195.3874206542969 L 46.18476486206055 199.3897857666016 L 31.6196460723877 203.3785247802734 Z" stroke="none"/>
              <path d="M 31.61091613769531 196.4243469238281 L 20.82717895507812 199.3775024414062 L 31.62002754211426 202.3416137695312 L 42.40377044677734 199.388427734375 L 31.61091613769531 196.4243469238281 M 31.61165618896484 194.3504943847656 L 49.96579742431641 199.3911590576172 L 31.61926651000977 204.4154510498047 L 13.26513671875 199.374755859375 L 31.61165618896484 194.3504943847656 Z" stroke="none" fill="#fff"/>
            </g>
          </g>
          <g id="Rectangle_217-2" data-name="Rectangle 217" transform="translate(3.395 4.583)" fill="#fcfcfc" stroke="#01bbd6" stroke-width="2">
            <rect width="30" height="125" rx="2" stroke="none"/>
            <rect x="1" y="1" width="28" height="123" rx="1" fill="none"/>
          </g>
          <path id="Path_122-2" data-name="Path 122" d="M0,0V117.742" transform="translate(18.454 9.738)" fill="#fcfcfc" stroke="#01bbd6" stroke-width="2"/>
          <g id="Path_75-2" data-name="Path 75" transform="translate(-11.51 -193.477)" fill="#fcfcfc" stroke-linecap="round">
            <path d="M 29.94735527038574 202.4614562988281 L 17.04618263244629 198.9183807373047 L 29.9396800994873 195.3874206542969 L 42.84085464477539 198.9304962158203 L 29.94735527038574 202.4614562988281 Z" stroke="none"/>
            <path d="M 29.93930625915527 196.4243469238281 L 20.82718276977539 198.9197387695312 L 29.94772911071777 201.4245300292969 L 39.05985260009766 198.9291381835938 L 29.93930625915527 196.4243469238281 M 29.9400577545166 194.3504943847656 L 46.62189865112305 198.9318695068359 L 29.94697761535645 203.4983825683594 L 13.26513671875 198.9170074462891 L 29.9400577545166 194.3504943847656 Z" stroke="none" fill="#01bbd6"/>
          </g>
        </g>
        <g id="r2" transform="translate(-3.971 35.36)">
          <g id="fon-2" data-name="fon">
            <g id="Rectangle_217-3" data-name="Rectangle 217" transform="translate(1.395 5.583)" fill="#fcfcfc" stroke="#fff" stroke-width="2">
              <rect width="34" height="126" stroke="none"/>
              <rect x="1" y="1" width="32" height="124" fill="none"/>
            </g>
            <path id="Path_122-3" data-name="Path 122" d="M0,0V118.267" transform="translate(18.373 9.753)" fill="#fcfcfc" stroke="#fff" stroke-width="2"/>
            <g id="Path_75-3" data-name="Path 75" transform="translate(-13.265 -194.35)" fill="#fcfcfc" stroke-linecap="round">
              <path d="M 31.6196460723877 203.3785247802734 L 17.04616737365723 199.3761291503906 L 31.61127662658691 195.3874206542969 L 46.18476486206055 199.3897857666016 L 31.6196460723877 203.3785247802734 Z" stroke="none"/>
              <path d="M 31.61091613769531 196.4243469238281 L 20.82717895507812 199.3775024414062 L 31.62002754211426 202.3416137695312 L 42.40377044677734 199.388427734375 L 31.61091613769531 196.4243469238281 M 31.61165618896484 194.3504943847656 L 49.96579742431641 199.3911590576172 L 31.61926651000977 204.4154510498047 L 13.26513671875 199.374755859375 L 31.61165618896484 194.3504943847656 Z" stroke="none" fill="#fff"/>
            </g>
          </g>
          <g id="Rectangle_217-4" data-name="Rectangle 217" transform="translate(3.395 4.583)" fill="#fcfcfc" stroke="#01bbd6" stroke-width="2">
            <rect width="30" height="125" rx="2" stroke="none"/>
            <rect x="1" y="1" width="28" height="123" rx="1" fill="none"/>
          </g>
          <path id="Path_122-4" data-name="Path 122" d="M0,0V117.742" transform="translate(18.454 9.738)" fill="#fcfcfc" stroke="#01bbd6" stroke-width="2"/>
          <g id="Path_75-4" data-name="Path 75" transform="translate(-11.51 -193.477)" fill="#fcfcfc" stroke-linecap="round">
            <path d="M 29.94735527038574 202.4614562988281 L 17.04618263244629 198.9183807373047 L 29.9396800994873 195.3874206542969 L 42.84085464477539 198.9304962158203 L 29.94735527038574 202.4614562988281 Z" stroke="none"/>
            <path d="M 29.93930625915527 196.4243469238281 L 20.82718276977539 198.9197387695312 L 29.94772911071777 201.4245300292969 L 39.05985260009766 198.9291381835938 L 29.93930625915527 196.4243469238281 M 29.9400577545166 194.3504943847656 L 46.62189865112305 198.9318695068359 L 29.94697761535645 203.4983825683594 L 13.26513671875 198.9170074462891 L 29.9400577545166 194.3504943847656 Z" stroke="none" fill="#01bbd6"/>
          </g>
        </g>
        <g id="o1" transform="translate(46.769 53.647)">
          <g id="fon-3" data-name="fon">
            <g id="Path_78" data-name="Path 78" transform="translate(0.072 8.085)" fill="#fcfcfc">
              <path d="M 28.02644538879395 82.69718170166016 C 27.79255676269531 82.69718170166016 27.55734634399414 82.69667053222656 27.31941223144531 82.69562530517578 C 18.99970245361328 82.65916442871094 12.45406818389893 82.01618194580078 7.864346027374268 80.78455352783203 C 3.859956979751587 79.70999908447266 2.182512760162354 78.40916442871094 1.480457067489624 77.50712585449219 C 0.8464721441268921 76.69255828857422 0.9202504754066467 76.08994293212891 0.9413352012634277 75.97769927978516 L 1.011145949363708 75.80916595458984 L 0.9857571125030518 75.67847442626953 L 0.9857571125030518 1.000006675720215 L 54.31503295898438 1.000006675720215 L 54.31503295898438 75.67847442626953 L 54.31503295898438 75.83281707763672 L 54.33753967285156 75.89680480957031 C 54.3499755859375 76.02239227294922 54.37249755859375 76.68309783935547 53.62122344970703 77.56381988525391 C 51.98584747314453 79.48097229003906 46.48606872558594 82.69718170166016 28.02644538879395 82.69718170166016 Z" stroke="none"/>
              <path d="M 1.985748291015625 1.999992370605469 L 1.985748291015625 75.678466796875 L -0.014251708984375 75.678466796875 L 1.884284973144531 76.30739593505859 C 1.884284973144531 76.30739593505859 1.900669097900391 76.25307464599609 1.905570983886719 76.23751831054688 C 1.908763885498047 76.22512817382812 1.915462493896484 76.19976806640625 1.917270660400391 76.19345092773438 C 1.918907165527344 76.18562316894531 1.923336029052734 76.16538238525391 1.924354553222656 76.16124725341797 C 1.925205230712891 76.156005859375 1.927623748779297 76.14194488525391 1.927719116210938 76.14194488525391 C 1.927734375 76.14194488525391 1.927696228027344 76.14227294921875 1.927585601806641 76.14302825927734 C 1.927585601806641 76.14308166503906 1.92816162109375 76.16499328613281 1.929496765136719 76.18156433105469 C 1.937721252441406 76.28321838378906 1.985084533691406 76.50045776367188 2.209911346435547 76.81320190429688 C 2.668697357177734 77.45143127441406 4.017158508300781 78.68243408203125 7.893646240234375 79.75605773925781 C 12.40799713134766 81.00634002685547 18.94524765014648 81.65892028808594 27.32381057739258 81.69564056396484 C 27.56026077270508 81.69667816162109 27.79394721984863 81.69718170166016 28.02639770507812 81.69718170166016 C 35.70620727539062 81.69718170166016 41.85655975341797 81.13500213623047 46.30659866333008 80.02625274658203 C 50.15758514404297 79.06678009033203 51.90040969848633 77.90927886962891 52.68432235717773 77.10721588134766 C 53.24213409423828 76.5364990234375 53.32612609863281 76.13343811035156 53.3385124206543 76.01194000244141 L 53.31503295898438 75.91336822509766 L 53.31503295898438 75.678466796875 L 53.31503295898438 1.999992370605469 L 1.985748291015625 1.999992370605469 M -0.014251708984375 -7.62939453125e-06 L 55.31503295898438 -7.62939453125e-06 L 55.31503295898438 75.678466796875 C 55.31503295898438 75.678466796875 57.22500228881836 83.69718933105469 28.02639579772949 83.69718933105469 C 27.79105377197266 83.69718933105469 27.55443572998047 83.69667053222656 27.31503486633301 83.69561767578125 C -2.626602172851562 83.56439208984375 -0.014251708984375 75.678466796875 -0.014251708984375 75.678466796875 L -0.014251708984375 -7.62939453125e-06 Z" stroke="none" fill="#fff"/>
            </g>
            <ellipse id="Ellipse_17" data-name="Ellipse 17" cx="27" cy="7" rx="27" ry="7" transform="translate(0.655 0.295)" fill="#fcfcfc" stroke="#fff" stroke-width="2"/>
            <path id="Path_123" data-name="Path 123" d="M.66,17.821s.541,2.228,5.927,4.158a39.555,39.555,0,0,0,10.174,1.759" transform="translate(0.252 4.492)" fill="none" stroke="#fff" stroke-width="2"/>
            <path id="Path_124" data-name="Path 124" d="M.66,17.821s.541,2.228,5.927,4.158a39.555,39.555,0,0,0,10.174,1.759" transform="translate(0.252 18.718)" fill="none" stroke="#fff" stroke-width="2"/>
          </g>
          <g id="Path_78-2" data-name="Path 78" transform="translate(1.607 8.978)" fill="#fcfcfc">
            <path d="M 26.40118026733398 80.26886749267578 C 26.18094635009766 80.26886749267578 25.95949172973633 80.26836395263672 25.73544692993164 80.26735687255859 C 17.83362579345703 80.23166656494141 11.63550281524658 79.59761047363281 7.313247203826904 78.38282012939453 C 3.578236103057861 77.33307647705078 2.038647174835205 76.07127380371094 1.404802680015564 75.19762420654297 C 0.8127249479293823 74.38152313232422 0.9327471852302551 73.7940673828125 0.934436023235321 73.78879547119141 L 0.9824138283729553 73.63955688476562 L 0.9824138283729553 73.4827880859375 L 0.9824138283729553 0.9999984502792358 L 51.11137008666992 0.9999984502792358 L 51.11137008666992 73.4827880859375 L 51.11137008666992 73.63277435302734 L 51.13259887695312 73.69491577148438 C 51.14458084106445 73.81985473632812 51.16620254516602 74.48538208007812 50.41339111328125 75.36363983154297 C 48.84314727783203 77.19558715820312 43.63555908203125 80.26886749267578 26.40118026733398 80.26886749267578 Z" stroke="none"/>
            <path d="M 1.982418060302734 2 L 1.982418060302734 73.4827880859375 L -0.01758193969726562 73.4827880859375 L 1.886478424072266 74.09481048583984 C 1.886478424072266 74.09481048583984 1.902214050292969 74.04094696044922 1.906959533691406 74.02541351318359 C 1.910003662109375 74.01316070556641 1.916416168212891 73.98802947998047 1.918136596679688 73.98181915283203 C 1.919677734375 73.97415161132812 1.923816680908203 73.95448303222656 1.924793243408203 73.95039367675781 C 1.925559997558594 73.94538116455078 1.927761077880859 73.93193817138672 1.9278564453125 73.93193817138672 C 1.927871704101562 73.93193817138672 1.927833557128906 73.93225860595703 1.927734375 73.93297576904297 C 1.927722930908203 73.93304443359375 1.927913665771484 73.95420837402344 1.929782867431641 73.97571563720703 C 1.938747406005859 74.07868194580078 1.987617492675781 74.29804992675781 2.214218139648438 74.61037445068359 C 2.656875610351562 75.22052001953125 3.943088531494141 76.39687347412109 7.583816528320312 77.42012023925781 C 11.81947708129883 78.61057281494141 17.9280891418457 79.23207092285156 25.7400074005127 79.26736450195312 C 25.9625129699707 79.26837921142578 26.18245315551758 79.26885986328125 26.40118217468262 79.26885986328125 C 33.55987548828125 79.26885986328125 39.30442810058594 78.73391723632812 43.47527694702148 77.67889404296875 C 47.08773803710938 76.76512145996094 48.73793792724609 75.66114044189453 49.48616027832031 74.89592742919922 C 50.03956604003906 74.3299560546875 50.12159729003906 73.92682647705078 50.13349151611328 73.80662536621094 L 50.11137008666992 73.71090698242188 L 50.11137008666992 73.4827880859375 L 50.11137008666992 2 L 1.982418060302734 2 M -0.01758193969726562 0 L 52.11137008666992 0 L 52.11137008666992 73.4827880859375 C 52.11137008666992 73.4827880859375 53.91090393066406 81.26885986328125 26.40118217468262 81.26885986328125 C 26.17945289611816 81.26885986328125 25.95648956298828 81.26835632324219 25.73093605041504 81.26734161376953 C -2.478839874267578 81.13991546630859 -0.01758193969726562 73.4827880859375 -0.01758193969726562 73.4827880859375 L -0.01758193969726562 0 Z" stroke="none" fill="#01bbd6"/>
          </g>
          <ellipse id="Ellipse_17-2" data-name="Ellipse 17" cx="25" cy="7" rx="25" ry="7" transform="translate(2.655 1.295)" fill="#fcfcfc" stroke="#01bbd6" stroke-width="2"/>
          <path id="Path_123-2" data-name="Path 123" d="M.66,17.821s.5,2.192,5.479,4.092a34.59,34.59,0,0,0,9.405,1.731" transform="translate(1.718 4.877)" fill="none" stroke="#01bbd6" stroke-width="2"/>
          <path id="Path_124-2" data-name="Path 124" d="M.66,17.821s.5,2.192,5.479,4.092a34.59,34.59,0,0,0,9.405,1.731" transform="translate(1.718 18.695)" fill="none" stroke="#01bbd6" stroke-width="2"/>
        </g>
        <g id="_02" data-name="02" transform="translate(66.987 75.141)">
          <g id="fon-4" data-name="fon">
            <g id="Path_79" data-name="Path 79" transform="translate(0.072 7.749)" fill="#fcfcfc">
              <path d="M 27.83198356628418 82.56900787353516 C 27.59972763061523 82.56900787353516 27.36616134643555 82.56849670410156 27.12990570068359 82.56745147705078 C 18.88088226318359 82.53111267089844 12.38818264007568 81.89102935791016 7.832149505615234 80.66500091552734 C 3.854549646377563 79.59461975097656 2.184505224227905 78.29799652099609 1.483927369117737 77.39875030517578 C 0.8459222912788391 76.57981872558594 0.9202700257301331 75.97285461425781 0.9413468837738037 75.86041259765625 L 1.010416269302368 75.69261169433594 L 0.9853606820106506 75.56256866455078 L 0.9853606820106506 0.9999983906745911 L 53.93169403076172 0.9999983906745911 L 53.93169403076172 75.56256866455078 L 53.93169403076172 75.71595764160156 L 53.95399856567383 75.77983856201172 C 53.96646118164062 75.90550231933594 53.98960876464844 76.57085418701172 53.23409271240234 77.45608520507812 C 51.60439300537109 79.36560821533203 46.13718414306641 82.56900787353516 27.83198356628418 82.56900787353516 Z" stroke="none"/>
              <path d="M 1.985355377197266 1.999992370605469 L 1.985355377197266 75.56256866455078 L 1.985355377197266 75.88356018066406 L 1.928627014160156 76.05573272705078 C 1.934722900390625 76.16215515136719 1.991970062255859 76.48912811279297 2.427120208740234 76.96675872802734 C 3.662544250488281 78.32276916503906 8.543117523193359 81.48554229736328 27.13433074951172 81.56746673583984 C 27.36910629272461 81.56850433349609 27.60114479064941 81.56900787353516 27.83193206787109 81.56900787353516 C 35.44784545898438 81.56900787353516 41.54865646362305 81.00917816162109 45.96488189697266 79.90509033203125 C 49.78726959228516 78.94945526123047 51.51947021484375 77.79620361328125 52.29953002929688 76.99701690673828 C 52.85990905761719 76.42289733886719 52.94305038452148 76.01668548583984 52.95510101318359 75.89505767822266 L 52.93169403076172 75.79624176025391 L 52.93169403076172 75.56256866455078 L 52.93169403076172 1.999992370605469 L 1.985355377197266 1.999992370605469 M -0.01464462280273438 -7.62939453125e-06 L 54.93169403076172 -7.62939453125e-06 L 54.93169403076172 75.56256866455078 C 54.93169403076172 75.56256866455078 56.82846069335938 83.56900787353516 27.83193588256836 83.56900787353516 C 27.59822273254395 83.56900787353516 27.36323928833008 83.56848907470703 27.1254940032959 83.56744384765625 C -2.608917236328125 83.43643188476562 -0.01464462280273438 75.56256866455078 -0.01464462280273438 75.56256866455078 L -0.01464462280273438 -7.62939453125e-06 Z" stroke="none" fill="#fff"/>
            </g>
            <ellipse id="Ellipse_18" data-name="Ellipse 18" cx="27" cy="8" rx="27" ry="8" transform="translate(0.438 -0.199)" fill="#fcfcfc" stroke="#fff" stroke-width="2"/>
            <line id="Line_32" data-name="Line 32" y1="6.315" x2="9.472" transform="translate(27.712 1.362)" fill="none" stroke="#fff" stroke-width="2"/>
            <line id="Line_33" data-name="Line 33" x2="22.102" y2="3.157" transform="translate(28.397 7.677)" fill="none" stroke="#fff" stroke-width="2"/>
          </g>
          <g id="Path_79-2" data-name="Path 79" transform="translate(1.607 8.514)" fill="#fcfcfc">
            <path d="M 26.20256614685059 80.26886749267578 C 25.98401069641113 80.26886749267578 25.76423263549805 80.26836395263672 25.54191017150879 80.26735687255859 C 17.85401153564453 80.23236846923828 11.7874002456665 79.62178802490234 7.510600090026855 78.45259094238281 C 3.764566421508789 77.42848968505859 2.17003321647644 76.18396759033203 1.492022037506104 75.32027435302734 C 0.847455620765686 74.49919891357422 0.9202039241790771 73.88424682617188 0.9405921697616577 73.77196502685547 L 1.00576651096344 73.60842132568359 L 0.9820109605789185 73.4827880859375 L 0.9820109605789185 0.9999984502792358 L 50.71986770629883 0.9999984502792358 L 50.71986770629883 73.4827880859375 L 50.71986770629883 73.63138580322266 L 50.74082946777344 73.69348907470703 C 50.75291442871094 73.81845855712891 50.77594375610352 74.49262237548828 50.01502227783203 75.37992858886719 C 48.44921112060547 77.20578765869141 43.27348709106445 80.26886749267578 26.20256614685059 80.26886749267578 Z" stroke="none"/>
            <path d="M 1.982013702392578 2 L 1.982013702392578 73.4827880859375 L 1.982013702392578 73.79408264160156 L 1.928554534912109 73.96165466308594 C 1.934185028076172 74.067626953125 1.989784240722656 74.39810943603516 2.425743103027344 74.87616729736328 C 3.605850219726562 76.17019653320312 8.221107482910156 79.18850708007812 25.5464973449707 79.26736450195312 C 25.76728439331055 79.26837921142578 25.98553276062012 79.26885986328125 26.20256805419922 79.26885986328125 C 33.29492950439453 79.26885986328125 38.98812103271484 78.73570251464844 43.12398910522461 77.68421173095703 C 46.70708465576172 76.77326202392578 48.34668350219727 75.67205810546875 49.09120178222656 74.90869140625 C 49.650146484375 74.33558654785156 49.73068618774414 73.92621612548828 49.74198913574219 73.80568695068359 L 49.7198600769043 73.70923614501953 L 49.7198600769043 73.4827880859375 L 49.7198600769043 2 L 1.982013702392578 2 M -0.01798629760742188 0 L 51.7198600769043 0 L 51.7198600769043 73.4827880859375 C 51.7198600769043 73.4827880859375 53.50590133666992 81.26885986328125 26.20257186889648 81.26885986328125 C 25.98250579833984 81.26885986328125 25.76121711730957 81.26835632324219 25.53735542297363 81.26734161376953 C -2.460773468017578 81.13991546630859 -0.01798629760742188 73.4827880859375 -0.01798629760742188 73.4827880859375 L -0.01798629760742188 0 Z" stroke="none" fill="#01bbd6"/>
          </g>
          <ellipse id="Ellipse_18-2" data-name="Ellipse 18" cx="25" cy="7" rx="25" ry="7" transform="translate(2.438 1.801)" fill="#fcfcfc" stroke="#01bbd6" stroke-width="2"/>
          <line id="Line_32-2" data-name="Line 32" y1="6.141" x2="9.212" transform="translate(27.451 2.303)" fill="none" stroke="#01bbd6" stroke-width="2"/>
          <line id="Line_33-2" data-name="Line 33" x2="21.494" y2="3.071" transform="translate(27.451 8.444)" fill="none" stroke="#01bbd6" stroke-width="2"/>
        </g>
        <g id="r1" transform="translate(19.029 68.36)">
          <g id="fon-5" data-name="fon">
            <g id="Rectangle_217-5" data-name="Rectangle 217" transform="translate(1.395 5.583)" fill="#fcfcfc" stroke="#fff" stroke-width="2">
              <rect width="34" height="126" stroke="none"/>
              <rect x="1" y="1" width="32" height="124" fill="none"/>
            </g>
            <path id="Path_122-5" data-name="Path 122" d="M0,0V118.267" transform="translate(18.373 9.753)" fill="#fcfcfc" stroke="#fff" stroke-width="2"/>
            <g id="Path_75-5" data-name="Path 75" transform="translate(-13.265 -194.35)" fill="#fcfcfc" stroke-linecap="round">
              <path d="M 31.6196460723877 203.3785247802734 L 17.04616737365723 199.3761291503906 L 31.61127662658691 195.3874206542969 L 46.18476486206055 199.3897857666016 L 31.6196460723877 203.3785247802734 Z" stroke="none"/>
              <path d="M 31.61091613769531 196.4243469238281 L 20.82717895507812 199.3775024414062 L 31.62002754211426 202.3416137695312 L 42.40377044677734 199.388427734375 L 31.61091613769531 196.4243469238281 M 31.61165618896484 194.3504943847656 L 49.96579742431641 199.3911590576172 L 31.61926651000977 204.4154510498047 L 13.26513671875 199.374755859375 L 31.61165618896484 194.3504943847656 Z" stroke="none" fill="#fff"/>
            </g>
          </g>
          <g id="Rectangle_217-6" data-name="Rectangle 217" transform="translate(3.395 4.583)" fill="#fcfcfc" stroke="#01bbd6" stroke-width="2">
            <rect width="30" height="125" rx="2" stroke="none"/>
            <rect x="1" y="1" width="28" height="123" rx="1" fill="none"/>
          </g>
          <path id="Path_122-6" data-name="Path 122" d="M0,0V117.742" transform="translate(18.454 9.738)" fill="#fcfcfc" stroke="#01bbd6" stroke-width="2"/>
          <g id="Path_75-6" data-name="Path 75" transform="translate(-11.51 -193.477)" fill="#fcfcfc" stroke-linecap="round">
            <path d="M 29.94735527038574 202.4614562988281 L 17.04618263244629 198.9183807373047 L 29.9396800994873 195.3874206542969 L 42.84085464477539 198.9304962158203 L 29.94735527038574 202.4614562988281 Z" stroke="none"/>
            <path d="M 29.93930625915527 196.4243469238281 L 20.82718276977539 198.9197387695312 L 29.94772911071777 201.4245300292969 L 39.05985260009766 198.9291381835938 L 29.93930625915527 196.4243469238281 M 29.9400577545166 194.3504943847656 L 46.62189865112305 198.9318695068359 L 29.94697761535645 203.4983825683594 L 13.26513671875 198.9170074462891 L 29.9400577545166 194.3504943847656 Z" stroke="none" fill="#01bbd6"/>
          </g>
        </g>
      </g>
      <g id="boxFront" transform="translate(471.001 286.381)">
        <path id="біла_лінія" data-name="біла лінія" d="M17.019.889l4.429-1.6L98.819,20.209,175.233.036,178.08,1.1l3.491,51.99L16.308,44.855Z" transform="translate(8.729 0.709)" fill="#fcfcfc"/>
        <path id="Path_22" data-name="Path 22" d="M-1.08,14.864,82.96-7.859V106.055L-.27,128.5Z" transform="translate(108.244 9.366)" fill="#fcfcfc" stroke="#01bbd6" stroke-width="2"/>
        <path id="Path_25" data-name="Path 25" d="M-1.436,12.8,82.473-9.808,107.624,9.656,24.536,32.162Z" transform="translate(108.333 11.353)" fill="#fcfcfc" stroke="#01bbd6" stroke-width="2"/>
        <path id="Path_23" data-name="Path 23" d="M34.166-15.417,117.228,7.652l.849,113.728L34.166,98.616Z" transform="translate(-9.298 16.506)" fill="#fcfcfc" stroke="#01bbd6" stroke-width="2" opacity="0.997"/>
        <path id="Path_24" data-name="Path 24" d="M27.247-16.255,110.619,6.792,86.369,26.428,2,3.422Z" transform="translate(-2.001 17.465)" fill="#fcfcfc" stroke="#01bbd6" stroke-width="2"/>
        <g id="boxShadow" transform="translate(24.496 24.899)">
          <path id="Path_39" data-name="Path 39" d="M.313,15.943V.808L24.973,18.933,83.6,3.729l-.685,15.2L24.973,34.818Z" transform="translate(83.4 -0.455)" fill="url(#linear-gradient-13)"/>
          <path id="Path_40" data-name="Path 40" d="M35.67-3.987,95.564,12.692,119.042-6.662V9.191L94.792,28.827,35.67,12Z" transform="translate(-35.67 6.662)" fill="url(#linear-gradient-13)"/>
        </g>
      </g>
    </g>
  </g>
</svg>
