<svg xmlns="http://www.w3.org/2000/svg" xmlns:xlink="http://www.w3.org/1999/xlink" width="467" height="469.429" viewBox="0 0 467 469.429">
  <defs>
    <linearGradient id="linear-gradient" x1="-0.935" y1="0.142" x2="4.967" y2="1.022" gradientUnits="objectBoundingBox">
      <stop offset="0" stop-color="#7fddea"/>
      <stop offset="1" stop-color="#406f75"/>
    </linearGradient>
    <linearGradient id="linear-gradient-2" x1="-0.935" y1="0.142" x2="4.962" y2="1.985" xlink:href="#linear-gradient"/>
    <linearGradient id="linear-gradient-3" x1="-0.935" y1="0.142" x2="5.402" y2="2.403" xlink:href="#linear-gradient"/>
    <linearGradient id="linear-gradient-4" x1="-0.935" y1="0.142" x2="6.27" y2="3.387" xlink:href="#linear-gradient"/>
    <linearGradient id="linear-gradient-5" x1="-0.935" y1="0.142" x2="5.438" y2="6.385" xlink:href="#linear-gradient"/>
    <linearGradient id="linear-gradient-6" x1="0.516" y1="0.76" x2="0.568" y2="-0.647" gradientUnits="objectBoundingBox">
      <stop offset="0" stop-color="#7fddea"/>
      <stop offset="0.463" stop-color="#78d2de"/>
      <stop offset="1" stop-color="#406f75"/>
    </linearGradient>
    <linearGradient id="linear-gradient-7" x1="0.043" y1="0.249" x2="1.644" y2="1.22" gradientUnits="objectBoundingBox">
      <stop offset="0" stop-color="#7fddea"/>
      <stop offset="0.305" stop-color="#6ebfca"/>
      <stop offset="1" stop-color="#406f75"/>
    </linearGradient>
    <linearGradient id="linear-gradient-8" x1="0.5" x2="-1.035" y2="1.64" gradientUnits="objectBoundingBox">
      <stop offset="0" stop-color="#7fddea"/>
      <stop offset="0.286" stop-color="#74cad6"/>
      <stop offset="1" stop-color="#406f75"/>
    </linearGradient>
    <linearGradient id="linear-gradient-9" x1="0.516" y1="0.76" x2="0.568" y2="-0.647" gradientUnits="objectBoundingBox">
      <stop offset="0" stop-color="#7fddea"/>
      <stop offset="0" stop-color="#78d2de"/>
      <stop offset="0.161" stop-color="#6fc2cd"/>
      <stop offset="1" stop-color="#406f75"/>
    </linearGradient>
    <linearGradient id="linear-gradient-10" x1="-0.42" y1="0.08" x2="1.644" y2="1.22" gradientUnits="objectBoundingBox">
      <stop offset="0" stop-color="#7fddea"/>
      <stop offset="0.212" stop-color="#6ebfca"/>
      <stop offset="1" stop-color="#406f75"/>
    </linearGradient>
    <linearGradient id="linear-gradient-11" x1="0.5" x2="-1.035" y2="1.64" gradientUnits="objectBoundingBox">
      <stop offset="0" stop-color="#7fddea"/>
      <stop offset="0" stop-color="#74cad6"/>
      <stop offset="1" stop-color="#406f75"/>
    </linearGradient>
    <linearGradient id="linear-gradient-13" x1="0.043" y1="0.249" x2="1.644" y2="1.22" gradientUnits="objectBoundingBox">
      <stop offset="0" stop-color="#7fddea"/>
      <stop offset="0.31" stop-color="#6ebfca"/>
      <stop offset="1" stop-color="#406f75"/>
    </linearGradient>
    <linearGradient id="linear-gradient-14" x1="0.5" x2="-1.035" y2="1.64" gradientUnits="objectBoundingBox">
      <stop offset="0" stop-color="#7fddea"/>
      <stop offset="0.394" stop-color="#74cad6"/>
      <stop offset="1" stop-color="#406f75"/>
    </linearGradient>
    <linearGradient id="linear-gradient-16" x1="-0.244" y1="0.162" x2="1.527" y2="0.826" gradientUnits="objectBoundingBox">
      <stop offset="0" stop-color="#7fddea"/>
      <stop offset="0.166" stop-color="#6ebfca"/>
      <stop offset="1" stop-color="#406f75"/>
    </linearGradient>
    <linearGradient id="linear-gradient-17" x1="0.5" x2="-1.035" y2="1.64" gradientUnits="objectBoundingBox">
      <stop offset="0" stop-color="#7fddea"/>
      <stop offset="0.31" stop-color="#74cad6"/>
      <stop offset="1" stop-color="#406f75"/>
    </linearGradient>
    <linearGradient id="linear-gradient-19" x1="0.043" y1="0.249" x2="1.644" y2="1.22" gradientUnits="objectBoundingBox">
      <stop offset="0" stop-color="#7fddea"/>
      <stop offset="0.345" stop-color="#6ebfca"/>
      <stop offset="1" stop-color="#406f75"/>
    </linearGradient>
    <linearGradient id="linear-gradient-20" x1="0.5" x2="-1.035" y2="1.64" gradientUnits="objectBoundingBox">
      <stop offset="0" stop-color="#7fddea"/>
      <stop offset="0.118" stop-color="#74cad6"/>
      <stop offset="1" stop-color="#406f75"/>
    </linearGradient>
    <linearGradient id="linear-gradient-22" x1="0.043" y1="0.249" x2="1.644" y2="1.22" gradientUnits="objectBoundingBox">
      <stop offset="0" stop-color="#7fddea"/>
      <stop offset="0.33" stop-color="#6ebfca"/>
      <stop offset="1" stop-color="#406f75"/>
    </linearGradient>
    <linearGradient id="linear-gradient-23" x1="0.5" x2="-1.035" y2="1.64" gradientUnits="objectBoundingBox">
      <stop offset="0" stop-color="#7fddea"/>
      <stop offset="0.241" stop-color="#74cad6"/>
      <stop offset="1" stop-color="#406f75"/>
    </linearGradient>
    <linearGradient id="linear-gradient-25" x1="0.043" y1="0.249" x2="1.644" y2="1.22" gradientUnits="objectBoundingBox">
      <stop offset="0" stop-color="#7fddea"/>
      <stop offset="0.527" stop-color="#6ebfca"/>
      <stop offset="1" stop-color="#406f75"/>
    </linearGradient>
    <linearGradient id="linear-gradient-26" x1="0.5" x2="-1.035" y2="1.64" gradientUnits="objectBoundingBox">
      <stop offset="0" stop-color="#7fddea"/>
      <stop offset="0.291" stop-color="#74cad6"/>
      <stop offset="1" stop-color="#406f75"/>
    </linearGradient>
    <linearGradient id="linear-gradient-28" x1="0.043" y1="0.249" x2="1.644" y2="1.22" gradientUnits="objectBoundingBox">
      <stop offset="0" stop-color="#7fddea"/>
      <stop offset="0.695" stop-color="#6ebfca"/>
      <stop offset="1" stop-color="#406f75"/>
    </linearGradient>
    <linearGradient id="linear-gradient-32" x1="0.5" x2="-1.035" y2="1.64" gradientUnits="objectBoundingBox">
      <stop offset="0" stop-color="#7fddea"/>
      <stop offset="0.281" stop-color="#74cad6"/>
      <stop offset="1" stop-color="#406f75"/>
    </linearGradient>
  </defs>
  <g id="mission-image" transform="translate(-176 -1520.571)">
    <g id="Rectangle_339" data-name="Rectangle 339" transform="translate(176 1694)" fill="none" stroke="rgba(4,154,175,0.3)" stroke-width="5" opacity="0.998">
      <rect width="441" height="296" stroke="none"/>
      <rect x="2.5" y="2.5" width="436" height="291" fill="none"/>
    </g>
    <rect id="Rectangle_359" data-name="Rectangle 359" width="444" height="295" transform="translate(199 1673)" fill="#fcfcfc"/>
    <g id="FON" transform="translate(241 1575.5)">
      <g id="Group_224" data-name="Group 224" transform="translate(0.961 57.984)">
        <g id="Group_223" data-name="Group 223">
          <path id="Path_515" data-name="Path 515" d="M.961,342.552c4.307-4.556,9.55-7.988,14.381-11.91,8.353-6.779,16.859-13.37,25.267-20.083a13.726,13.726,0,0,1,4.582-2.4c16.138-5.028,32.262-10.1,48.412-15.094a9.9,9.9,0,0,0,4.775-3.1c8.868-10.212,17.863-20.312,26.684-30.563a12.227,12.227,0,0,1,7.449-4.261c13.175-2.525,26.308-5.267,39.457-7.93,1.322.728,2.633,1.156,3.868-.166a4.5,4.5,0,0,1,2.789-1.083c6.012-1.22,12.009-2.525,18.049-3.576a10.175,10.175,0,0,0,5.759-3.132c7.336-7.422,14.886-14.636,22.087-22.183,3.7-3.875,7.431-7.217,13.125-7.276,2.1.46,4.222,1.081,6.05-.728l16.967-1.958c1.321,1.948,1.507.275,1.94-.607l14.143-1.745a11.82,11.82,0,0,1,1.276,6.2c-.058,12.3.021,24.592-.072,36.888a7.285,7.285,0,0,0,2.38,5.67C290,263.1,299.71,272.649,308.963,282.65c1.458,1.576,1.863,2.812.674,4.826-5.767,9.77-11.291,19.686-17.11,29.425-1.37,2.293-2.27,5.069-5,6.428q-16.323,8.129-32.6,16.354c-1.361.684-2.852,1.226-3.411,2.87Z" transform="translate(-0.961 -87.625)" fill="#d7f1f4"/>
          <path id="Path_516" data-name="Path 516" d="M314.928,342.532c.559-1.644,2.05-2.186,3.411-2.87q16.293-8.189,32.6-16.354c2.729-1.359,3.629-4.135,5-6.428,5.819-9.738,11.343-19.654,17.11-29.425,1.189-2.013.784-3.25-.674-4.826-9.253-10-18.962-19.552-28.634-29.139a7.285,7.285,0,0,1-2.38-5.67c.092-12.3.014-24.592.072-36.888a11.82,11.82,0,0,0-1.276-6.2c1.981-.458,2.677,1.188,3.619,2.3,9.4,11.106,18.805,22.205,28.106,33.393a31.04,31.04,0,0,0,7.1,5.788c8.454,5.61,16.9,11.228,25.434,16.725a11.473,11.473,0,0,1,4.767,5.724c2.847,7.249,5.933,14.4,8.92,21.6a9.26,9.26,0,0,0,2.248,3.611q13.22,11.731,26.411,23.5c.662.587,1.284,1.391,2.376,1.155,0,7.184-.1,14.37.064,21.549.049,2.117-.418,2.527-2.527,2.523Q380.8,342.473,314.928,342.532Z" transform="translate(-64.37 -87.605)" fill="#c7e6ea"/>
          <path id="Path_517" data-name="Path 517" d="M209.651,217.4c-1.235,1.322-2.546.894-3.868.166,1.265-13.151,2.7-26.289,3.713-39.459.427-5.544-1.711-10.882-2.63-16.321-1.04-6.157-2.361-12.267-3.463-18.414-.31-1.733-.845-2.4-2.828-2.97-10.33-2.96-20.529-6.373-30.789-9.575-1.492-.465-1.6-1.278-1.168-2.551q5.74-16.868,11.466-33.74a3.3,3.3,0,0,1,1.169-1.726c6.585-3.88,13.213-7.688,19.937-11.576,1.126,4.886,3.292,8.446,7.923,9.99l-.123-.006,1.322.71c1.023.5,2.071,1.95,3.031-.076l.56-.624-.054-.015q1.523-2.307,3.047-4.613a2.838,2.838,0,0,0,.349-3.325c-.9-1.768,1.255-3.822.028-5.857-.109-.18,1.053-.313,1.633-.318,6.66-.049,13.319-.053,19.978-.128a6.775,6.775,0,0,1,3.7,1.271c6.374,3.91,12.807,7.726,19.108,11.749A7.743,7.743,0,0,0,267.78,91.1c7.432-1.454,14.9-2.747,22.316-4.261,1.43-.292,3.331.622,4.044-.284,1.036-1.319.373-3.358.383-5.085.043-6.968.006-13.936.047-20.9,0-.855-.521-2.1.517-2.5,1.281-.484,1.027,1.234,1.753,1.692a13.761,13.761,0,0,1,1.207.954c-2.7-.332-1.673,1.8-1.681,2.864-.081,11.547-.049,23.1-.048,34.643,0,3.346.952,4.368,4.3,4.364a16.505,16.505,0,0,0,3-.547,27.24,27.24,0,0,1-4.577.177c-2.215-.271-2.864.54-2.822,2.68.108,5.534.035,11.071.035,16.607q0,25.374,0,50.748c0,1.534.106,3.067.163,4.6-.433.883-.619,2.556-1.94.609V88.239a30.146,30.146,0,0,1-2.859,1.353c-8.544,2.884-17.1,5.724-25.643,8.617a6.856,6.856,0,0,1-3.319.16c-6.388-.923-12.784-1.791-19.174-2.7-1.687-.239-2.92-.352-2.852,2.132.244,9.022.328,18.049.35,27.074,0,1.89.657,2.713,2.472,3.125,6.294,1.431,12.51,3.258,18.851,4.408,3.575.648,4.766,2.289,5.24,5.72,1.726,12.484,3.848,24.912,5.634,37.389.4,2.809,1.629,4,4.334,3.9-1.828,1.808-3.949,1.188-6.05.728-4.117-11.358-8.257-22.708-12.323-34.083-.549-1.535-1.409-1.632-2.819-1.436-8.215,1.138-16.427,2.345-24.675,3.166-3.1.309-4.3,1.412-4.866,4.487-2.561,13.889-5.147,27.774-10.426,41-2.731,6.842-4.95,13.888-7.359,20.858C208.592,215.291,207.57,216.693,209.651,217.4Zm-8.659-79.984.109.079-.148-.031a3.422,3.422,0,0,0-.086-1.188q-5.82-12.36-11.7-24.689c-.11-.229-.464-.342-.9-.642-2.752,4.628-5.44,9.209-8.2,13.748-.721,1.188-.419,1.778.741,2.367C187.55,130.48,194.267,133.955,200.992,137.412Z" transform="translate(-34.776 -57.984)" fill="#d7f1f4"/>
          <path id="Path_518" data-name="Path 518" d="M90.987,219.446q-22.462,0-44.922,0c-4.223,0-4.7-.425-4.187-4.57,1.27-10.195,9.3-20.339,23.6-19.036a2.836,2.836,0,0,0,3.042-1.445c4.343-6.689,10.074-11.534,18.1-13.171,12.971-2.647,25.492,2.43,31.55,14.554,2.095,4.194,3.879,7.209,9.154,8.191,6.17,1.148,10.122,5.9,12.1,11.947,1.057,3.23.786,3.525-2.582,3.527Q113.91,219.458,90.987,219.446Z" transform="translate(-9.19 -82.735)" fill="#a0c8b7"/>
          <path id="Path_519" data-name="Path 519" d="M395.144,166.889q-18.6,0-37.2,0c-3.652,0-4.079-.5-2.77-3.9,2.3-5.973,6.771-9.355,13.076-10.2,1.468-.2,2.4-.455,2.9-2.065,3.161-10.114,10.426-15.584,20.624-16.78,8.952-1.051,16.147,2.914,21.533,9.94a6.413,6.413,0,0,0,5.664,2.758c10.72.138,17.707,8.628,17.878,16.673.056,2.655-.924,3.635-3.586,3.618C420.559,166.844,407.852,166.889,395.144,166.889Z" transform="translate(-72.362 -73.29)" fill="#d7f1f4"/>
          <path id="Path_520" data-name="Path 520" d="M335.951,102.722a16.507,16.507,0,0,1-3,.547c-3.345,0-4.3-1.018-4.3-4.364,0-11.548-.034-23.1.048-34.643.008-1.066-1.02-3.2,1.681-2.864,9.983,7.144,21.544,8.465,33.309,8.937,10.26.413,20.192,1.945,28.939,7.872.762.516,1.5,1.07,2.223,1.64A14,14,0,0,1,396,81.068c-12.266-1.357-21.948,4.277-31.694,9.695-6.083,3.381-12.05,6.984-18.556,9.552A32.8,32.8,0,0,1,335.951,102.722Z" transform="translate(-67.115 -58.667)" fill="#d7f1f4"/>
          <path id="Path_521" data-name="Path 521" d="M103.564,102.055c-7.271,0-14.541.012-21.812,0-3.7-.009-4.1-.587-3.026-4.181,1.811-6.058,9-9.811,15.339-7.678,2.146.721,2.931.182,4.15-1.5,7.687-10.6,22.535-10.067,29.286.969a18.261,18.261,0,0,1,2.361,8.8c.139,2.633-.883,3.673-3.563,3.633C118.721,101.983,111.142,102.054,103.564,102.055Z" transform="translate(-9.561 -56.644)" fill="#d7f1f4"/>
          <path id="Path_522" data-name="Path 522" d="M217.054,90.661c-1.724-1.958-3.418-3.943-5.184-5.862a4.124,4.124,0,0,1-1.409-3.171c-.412-2.25,2.286-4.958-.994-6.807-.054-.031.061-.657.229-.74,1.495-.741.806-1.988.578-2.957-.343-1.459.326-1.859,1.527-1.962a32.826,32.826,0,0,0,8.579-2.21c1.177,3.239,2.347,6.482,3.535,9.717.423,1.152.918,2.289.126,3.479-2.76.215-4.184,1.518-3.714,4.455a8.449,8.449,0,0,1-.089,1.786,2.446,2.446,0,0,1-.9-2.947c.257-.726-.2-1.168-.807-1.379a1.651,1.651,0,0,0-1.705.336c-.452.425-.791.991-.3,1.6C218.219,86.107,217.34,88.4,217.054,90.661Z" transform="translate(-43.068 -59.796)" fill="#d7f1f4"/>
          <path id="Path_523" data-name="Path 523" d="M219.446,65.313a32.827,32.827,0,0,1-8.579,2.21c-1.2.1-1.87.5-1.527,1.962.228.969.917,2.215-.578,2.957-.168.083-.283.709-.229.74,3.28,1.849.583,4.558.994,6.807-.735.314-1.128-.042-1.427-.682a34.7,34.7,0,0,1-3.2-9.253c-.563-3.612,2.572-7.826,6.186-8.353a40.1,40.1,0,0,1,4.892-.371,6.818,6.818,0,0,0,5.53-2.5C222.885,61.852,221.47,63.683,219.446,65.313Z" transform="translate(-42.135 -58.155)" fill="#d7f1f4"/>
          <path id="Path_524" data-name="Path 524" d="M218.784,94.459c.286-2.257,1.164-4.554-.529-6.663-.488-.607-.148-1.173.3-1.6a1.651,1.651,0,0,1,1.705-.336c.6.211,1.064.653.807,1.379a2.446,2.446,0,0,0,.9,2.947l.006.007c.48,1.087.8,2.294,2.078,2.786q-.089,1.92-.178,3.839l.053.015-.56.625c-.96,2.025-2.008.574-3.032.075a1.543,1.543,0,0,0-1.322-.709l.123.006Q218.959,95.646,218.784,94.459Z" transform="translate(-44.797 -63.594)" fill="#d7f1f4"/>
          <path id="Path_525" data-name="Path 525" d="M222.965,89.73a8.447,8.447,0,0,0,.089-1.786c-.47-2.937.954-4.24,3.714-4.455q-.713,3.658-1.426,7.316l-2.372-1.068Z" transform="translate(-45.797 -63.135)" fill="#d7f1f4"/>
          <path id="Path_526" data-name="Path 526" d="M222.972,91.318l2.372,1.068-.294,1.719C223.772,93.612,223.452,92.4,222.972,91.318Z" transform="translate(-45.798 -64.717)" fill="#d7f1f4"/>
          <path id="Path_530" data-name="Path 530" d="M219.263,99.627a1.543,1.543,0,0,1,1.322.709Z" transform="translate(-45.049 -66.395)" fill="#8abaa6"/>
          <path id="Path_531" data-name="Path 531" d="M224.718,100.264l.56-.625Z" transform="translate(-46.151 -66.397)" fill="#8abaa6"/>
          <path id="Path_532" data-name="Path 532" d="M209.192,157.561l.148.032-.108-.079Z" transform="translate(-43.015 -78.085)" fill="#8abaa6"/>
          <path id="Path_533" data-name="Path 533" d="M51.382,27.29H42.7v.94l2.744.253c.052,2.031.052,4.074.052,6.1v.894c0,2.295,0,4.377-.052,6.381l-2.744.254v.941h7.15A14.561,14.561,0,0,0,51.409,42,22.565,22.565,0,0,0,53.124,40.4c1.366-1.352.368-2.049-.169-2.441a24.594,24.594,0,0,1-3.377-2.048c-2.179-2.191,2.338-2.934,2.719-2.993-.312.032-3.419.373-4.148,1.564v-.009c0-2.059,0-4.1.055-6.1h2.681c4.356,0,6.888,2.377,6.888,6.823a8.186,8.186,0,0,1-.488,2.918,6.739,6.739,0,0,0-.522-.459c-.4-.324-3.387-1.851-4.569-2.451s-1.161-.813-1.129-1.186,1.252-1.1,1.252-1.1a9.736,9.736,0,0,0-1.933.73c-.836.454-.911.992-.517,1.577a12.049,12.049,0,0,0,2.65,1.738s2.951,1.153,2.61,2.65a4.441,4.441,0,0,1-1.15,1.8A14.484,14.484,0,0,1,52.184,43h.05a11.368,11.368,0,0,0,5.612-1.876A6.975,6.975,0,0,0,60.855,35.2C60.86,30.066,56.974,27.29,51.382,27.29Zm-2.714,8.987c.576.588.779.784,2.256,2.113.935.843-1.068,2.486-2.663,3.586H48.2a.042.042,0,0,1,0-.014c-.055-2.037-.055-4.116-.055-6.376A2.892,2.892,0,0,0,48.668,36.277Z" transform="translate(224.481 -8.88) rotate(-3)" fill="#fcfcfc"/>
        </g>
      </g>
    </g>
    <g id="Floor" transform="translate(301 1853.027)">
      <ellipse id="Floor-2" data-name="Floor" cx="212.236" cy="58.163" rx="212.236" ry="58.163" transform="translate(-92 -9)" fill="#f5f5f5"/>
      <ellipse id="Floor-3" data-name="Floor" cx="72.736" cy="30.663" rx="72.736" ry="30.663" transform="translate(-107 56)" fill="#e1e1e1"/>
      <ellipse id="Floor-4" data-name="Floor" cx="36.236" cy="19.663" rx="36.236" ry="19.663" transform="translate(211 21)" fill="#e1e1e1"/>
      <ellipse id="Floor-5" data-name="Floor" cx="138.736" cy="20.163" rx="138.736" ry="20.163" transform="translate(-82 30)" fill="#e1e1e1"/>
    </g>
    <g id="JSm12e" transform="translate(296 1395.5)">
      <g id="Group_222" data-name="Group 222" transform="translate(53.507 176.481)">
        <g id="Group_221" data-name="Group 221">
          <path id="Path_503" data-name="Path 503" d="M100.65,189.847a25.015,25.015,0,1,1-20.3-13.288,24.484,24.484,0,0,1,18.94,11.048,1.318,1.318,0,0,1-1.161.774c-5.624-7.813-13.214-11.379-22.8-10.248C62.54,179.641,53.308,191.862,55.1,204.71a23.611,23.611,0,1,0,44.314-14.158A1.3,1.3,0,0,1,100.65,189.847Z" transform="translate(-53.507 -176.481)" fill="#d7f1f4"/>
          <path id="Path_504" data-name="Path 504" d="M213.676,201.4a30.1,30.1,0,0,1-2.36,1.283,35.7,35.7,0,0,0-4.795,2.93,38.915,38.915,0,0,0-4.831,2.865,37.282,37.282,0,0,0-4.806,2.962,26.7,26.7,0,0,0-3.381,1.91c-.434.242-.811.384-1.251.06a1.22,1.22,0,0,1-.414-1.386c.1-.434.513-.561.836-.778a14.746,14.746,0,0,0,2.959-1.981,2.335,2.335,0,0,0,.6-.171c1.424-.867,2.838-1.751,4.255-2.63a35.71,35.71,0,0,0,4.7-2.919,32.623,32.623,0,0,0,4.889-2.9,1.5,1.5,0,0,0,1.076-.707,1.318,1.318,0,0,0,1.161-.774,10.359,10.359,0,0,0,2.91-1.605c.227-.142.163-.441.163-.681,0-.882.036-1.768-.029-2.646a1.2,1.2,0,0,1,.862-1.312c.549-.236.8-.112.8.508a17.631,17.631,0,0,0,.177,3.182q0-1.554,0-3.109a4.389,4.389,0,0,1,.021-.82,1.178,1.178,0,0,1,1.194-.943c.677-.017.4.622.416.987a17.167,17.167,0,0,0,.186,2.627c0-1.11,0-2.221,0-3.331,0-.3-.089-.652.176-.863.349-.278.736-.658,1.208-.505.449.145.23.634.248.971.035.637,0,1.278.028,1.916.02.46-.276,1.08.72.991a.881.881,0,0,1,.626,1.191c-.342.577.038.593.327.751.665.366,1.342.713,2,1.086.347.2.951.331.622.887a1.088,1.088,0,0,1-1.345.5c-.334-.121-.649-.3-1.085-.5.094.514,1.075.539.533,1.165a1.2,1.2,0,0,1-1.71.236,1.631,1.631,0,0,0-.525-.113.39.39,0,0,0-.377-.3c-.026,0-.08.092-.068.115.1.2.289.149.456.17.114.341.853.449.477.92a1.227,1.227,0,0,1-1.538.451c-.789-.383-1.572-.783-2.324-1.233a1.262,1.262,0,0,0-1.658.049C215.157,200.482,214.194,200.619,213.676,201.4Zm4.446-3.054a4.8,4.8,0,0,0,1.909.842A4.064,4.064,0,0,0,218.123,198.341Zm1.712-1.1c.409.2,1.091.577,1.5.779A1.853,1.853,0,0,0,219.835,197.246Zm1.5.721a.822.822,0,0,0,.853.359A1.158,1.158,0,0,0,221.335,197.967Z" transform="translate(-166.533 -188.03)" fill="#d7f1f4"/>
          <path id="Path_506" data-name="Path 506" d="M110.425,203.3a22.329,22.329,0,1,1-23.3-11.62c9.217-1.406,16.61,2.013,22.07,9.578a32.623,32.623,0,0,1-4.889,2.9,4.233,4.233,0,0,0-.353-.627c-4.072-5.042-9.349-7.343-15.761-6.393a16.6,16.6,0,0,0-14.07,19.123c1.7,11.735,15.312,17.959,25.359,11.628a16.751,16.751,0,0,0,6.154-21.662A35.7,35.7,0,0,1,110.425,203.3Z" transform="translate(-65.642 -188.651)" fill="#d7f1f4"/>
          <path id="Path_508" data-name="Path 508" d="M150.736,258.937c1.8,4.292,1.3,8.328-1.728,11.833a11.126,11.126,0,0,1-19.469-5.919,10.977,10.977,0,0,1,6.757-11.645,11.143,11.143,0,0,1,12.934,3.266c.114.14.2.3.305.45-1.417.879-2.831,1.763-4.255,2.63a2.335,2.335,0,0,1-.6.171,5.385,5.385,0,0,0-6.093-1.408,5.563,5.563,0,1,0,5.306,9.662,5.417,5.417,0,0,0,2.037-6.078A37.282,37.282,0,0,1,150.736,258.937Z" transform="translate(-115.578 -238.493)" fill="#d7f1f4"/>
          <path id="Path_510" data-name="Path 510" d="M336.015,232.945a4.064,4.064,0,0,1,1.909.842A4.8,4.8,0,0,1,336.015,232.945Z" transform="translate(-284.425 -222.634)" fill="#d7f1f4"/>
          <path id="Path_511" data-name="Path 511" d="M345.392,226.9a1.248,1.248,0,0,1,1.227.6Z" transform="translate(-292.09 -217.687)" fill="#d7f1f4"/>
          <path id="Path_512" data-name="Path 512" d="M354.278,230.962c.373-.048.533.185.73.341C354.684,231.408,354.5,231.226,354.278,230.962Z" transform="translate(-299.353 -221.008)" fill="#d7f1f4"/>
          <path id="Path_513" data-name="Path 513" d="M348.943,239.212c-.166-.02-.361.027-.456-.17-.012-.024.043-.115.068-.115a.39.39,0,0,1,.377.3Z" transform="translate(-294.618 -227.524)" fill="#d7f1f4"/>
        </g>
      </g>
    </g>
    <g id="lamp" transform="translate(133 1456.5)">
      <g id="Group_226" data-name="Group 226" transform="translate(96.899 64.071)">
        <g id="Group_225" data-name="Group 225">
          <path id="Path_535" data-name="Path 535" d="M140.338,154.48a5.13,5.13,0,0,0-1.608-.186A39.916,39.916,0,0,1,127.9,152.1a33.638,33.638,0,0,1-6.225-2.537,43.8,43.8,0,0,1-8.056-5.215,41.886,41.886,0,0,1-4.879-4.54,45.627,45.627,0,0,1-7.485-11.094,50.29,50.29,0,0,1-2.91-7.978,45.072,45.072,0,0,1-1.316-15.361,34.956,34.956,0,0,1,1.95-9.74,60.891,60.891,0,0,1,3.121-7.483,48.58,48.58,0,0,1,3.9-6.1,45.985,45.985,0,0,1,17.678-14.014,52.474,52.474,0,0,1,6.268-2.262A45.758,45.758,0,0,1,137.8,64.29a34.97,34.97,0,0,1,8.477.079c1.545.221,3.119.283,4.642.6,1.551.324,3.084.758,4.608,1.226s2.978,1.057,4.448,1.623a30.645,30.645,0,0,1,3.331,1.612,50.832,50.832,0,0,1,7.612,5.14,36.25,36.25,0,0,1,4.345,4.2,40.815,40.815,0,0,1,3.18,3.842,43.673,43.673,0,0,1,3.784,6.119,27.069,27.069,0,0,1,2.151,4.807c.458,1.8,1.251,3.482,1.593,5.309a44.234,44.234,0,0,1,.925,5.845,33.76,33.76,0,0,1,.186,6.086c-.2,1.543-.092,3.112-.377,4.672-.38,2.084-.707,4.172-1.278,6.219a44.917,44.917,0,0,1-13.6,21.435,46.193,46.193,0,0,1-4.872,3.761,48.115,48.115,0,0,1-7.473,4.024,44.905,44.905,0,0,1-5.087,1.73A61.492,61.492,0,0,1,140.338,154.48Zm8.78-23.521c.13-.423.287-.839.384-1.268a24.315,24.315,0,0,1,6.647-12.045A19.6,19.6,0,0,0,138.75,84.6c-7.576,1.455-12.838,5.921-15.223,13.257-2.407,7.406-.74,14.111,4.62,19.8a23.476,23.476,0,0,1,5.437,8.653c.515,1.543.9,3.128,1.347,4.694.173,2.213.3,4.43.532,6.637a3.177,3.177,0,0,0,3.123,2.765c2.28.054,4.563.057,6.842,0a3.212,3.212,0,0,0,3.1-2.9C148.759,135.327,148.925,133.142,149.118,130.96ZM165.466,81.71a1.081,1.081,0,0,0-1.091-1.145,2.317,2.317,0,0,0-1.717.594,16.061,16.061,0,0,0-3.42,4.148c-.155.276-.385.611-.1.893.231.229.569.065.833-.039a15.578,15.578,0,0,0,4.738-2.879A2.388,2.388,0,0,0,165.466,81.71Zm-21.707-7.294a7.238,7.238,0,0,0-.1-.875c-.212-.964-.792-1.57-1.476-1.505-.908.086-1.128.836-1.375,1.535a1.124,1.124,0,0,0-.035.352,16.522,16.522,0,0,0,.907,5.477c.089.268.208.637.535.645.38.009.493-.381.6-.677A18.988,18.988,0,0,0,143.759,74.417ZM115.981,98.393a16.072,16.072,0,0,0,3.26-.314c.335-.079.809-.115.878-.493.074-.406-.386-.555-.688-.709a16.582,16.582,0,0,0-4.8-1.5,2.552,2.552,0,0,0-1.881.329,1.087,1.087,0,0,0-.257,1.8,2.366,2.366,0,0,0,1.2.709A8.528,8.528,0,0,0,115.981,98.393Zm6.3-19.269c-1.217.015-1.689.638-1.42,1.586a2.444,2.444,0,0,0,.883,1.295,17.4,17.4,0,0,0,4.567,2.49c.312.115.741.341,1,.012.278-.36-.052-.737-.253-1.043a17.419,17.419,0,0,0-3.382-3.719A2.349,2.349,0,0,0,122.282,79.125Zm45.625,22.535c.707-.036,1.421-.022,2.12-.119,1.082-.151,1.92-.974,1.841-1.716a1.816,1.816,0,0,0-2.1-1.22,15.313,15.313,0,0,0-5.312,1.582c-.246.123-.608.264-.558.616.055.384.454.442.757.512A16.308,16.308,0,0,0,167.907,101.66Z" transform="translate(-96.899 -64.071)" fill="#d7f1f4"/>
          <path id="Path_540" data-name="Path 540" d="M200.479,182.781c-.445-1.566-.832-3.151-1.347-4.694a23.476,23.476,0,0,0-5.437-8.653c-5.36-5.691-7.027-12.4-4.62-19.8,2.384-7.336,7.647-11.8,15.223-13.257a19.6,19.6,0,0,1,17.4,33.049,24.315,24.315,0,0,0-6.647,12.045c-.1.43-.254.846-.384,1.268C214.666,182.737,204.006,182.751,200.479,182.781Z" transform="translate(-162.447 -115.849)" fill="#ffdf43"/>
          <path id="Path_541" data-name="Path 541" d="M243.445,302.373l3.239.05c-.193,2.182-.359,4.367-.588,6.546a3.212,3.212,0,0,1-3.1,2.9c-2.279.061-4.563.057-6.842,0a3.177,3.177,0,0,1-3.123-2.765c-.23-2.207-.36-4.424-.532-6.637l10.578-.089Z" transform="translate(-194.465 -235.535)" fill="#5a5a5c"/>
          <path id="Path_542" data-name="Path 542" d="M324.786,124.011a2.388,2.388,0,0,1-.757,1.572,15.579,15.579,0,0,1-4.738,2.879c-.265.1-.6.268-.833.039-.284-.282-.055-.617.1-.893a16.06,16.06,0,0,1,3.42-4.148,2.317,2.317,0,0,1,1.716-.594A1.081,1.081,0,0,1,324.786,124.011Z" transform="translate(-256.219 -106.372)" fill="#ffdf43"/>
          <path id="Path_543" data-name="Path 543" d="M256.318,94.837a18.989,18.989,0,0,1-.94,4.95c-.108.3-.221.686-.6.677-.328-.008-.446-.377-.535-.645a16.521,16.521,0,0,1-.907-5.477,1.124,1.124,0,0,1,.035-.352c.247-.7.468-1.449,1.375-1.535.684-.065,1.264.541,1.476,1.505A7.225,7.225,0,0,1,256.318,94.837Z" transform="translate(-209.457 -84.492)" fill="#ffdf43"/>
          <path id="Path_544" data-name="Path 544" d="M155.036,178.577a8.573,8.573,0,0,1-2.291-.18,2.367,2.367,0,0,1-1.2-.709,1.087,1.087,0,0,1,.257-1.8,2.552,2.552,0,0,1,1.881-.329,16.582,16.582,0,0,1,4.8,1.5c.3.154.762.3.688.709-.069.378-.542.414-.878.493A16.152,16.152,0,0,1,155.036,178.577Z" transform="translate(-135.955 -144.254)" fill="#ffdf43"/>
          <path id="Path_545" data-name="Path 545" d="M183.569,117.741a2.349,2.349,0,0,1,1.391.621,17.419,17.419,0,0,1,3.382,3.719c.2.305.531.682.253,1.043-.254.33-.684.1-1-.012a17.4,17.4,0,0,1-4.567-2.49,2.444,2.444,0,0,1-.883-1.295C181.88,118.379,182.352,117.756,183.569,117.741Z" transform="translate(-158.186 -102.688)" fill="#ffdf43"/>
          <path id="Path_546" data-name="Path 546" d="M339.763,190.216a16.307,16.307,0,0,1-3.255-.345c-.3-.069-.7-.128-.757-.512-.05-.352.312-.493.558-.616a15.313,15.313,0,0,1,5.312-1.582,1.816,1.816,0,0,1,2.1,1.22c.08.742-.759,1.565-1.841,1.716C341.184,190.194,340.47,190.18,339.763,190.216Z" transform="translate(-268.755 -152.628)" fill="#ffdf43"/>
          <path id="Path_548" data-name="Path 548" d="M214.894,369.259v.171a.687.687,0,0,1-.05-.12C214.842,369.3,214.877,369.276,214.894,369.259Z" transform="translate(-181.764 -283.661)" fill="#e1f5fa"/>
        </g>
      </g>
    </g>
    <g id="Group_219" data-name="Group 219" transform="translate(-15 -33)">
      <g id="Group_217" data-name="Group 217" transform="translate(259 1635)">
        <rect id="Rectangle_360" data-name="Rectangle 360" width="47" height="254" transform="translate(12 48)" fill="#006776"/>
        <rect id="Rectangle_365" data-name="Rectangle 365" width="8" height="19" transform="translate(27.5)" fill="#006776"/>
        <rect id="Rectangle_361" data-name="Rectangle 361" width="46" height="201" transform="translate(56 101)" fill="#006776"/>
        <rect id="Rectangle_362" data-name="Rectangle 362" width="43" height="158" transform="translate(99 144)" fill="#006776"/>
        <rect id="Rectangle_363" data-name="Rectangle 363" width="41" height="111" transform="translate(140 191)" fill="#006776"/>
        <rect id="Rectangle_364" data-name="Rectangle 364" width="41" height="71" transform="translate(179 235)" fill="#006776"/>
        <path id="Polygon_4" data-name="Polygon 4" d="M35.5,0,71,53H0Z" fill="#006776"/>
      </g>
      <g id="Group_218" data-name="Group 218" transform="translate(251 1635)">
        <rect id="Rectangle_360-2" data-name="Rectangle 360" width="46" height="254" transform="translate(12 52)" fill="url(#linear-gradient)"/>
        <rect id="Rectangle_361-2" data-name="Rectangle 361" width="44" height="201" transform="translate(58 105)" fill="url(#linear-gradient-2)"/>
        <rect id="Rectangle_362-2" data-name="Rectangle 362" width="40" height="158" transform="translate(102 148)" fill="url(#linear-gradient-3)"/>
        <rect id="Rectangle_363-2" data-name="Rectangle 363" width="39" height="111" transform="translate(142 195)" fill="url(#linear-gradient-4)"/>
        <rect id="Rectangle_364-2" data-name="Rectangle 364" width="39" height="67" transform="translate(181 239)" fill="url(#linear-gradient-5)"/>
        <path id="Polygon_4-2" data-name="Polygon 4" d="M35.5,0,71,53H0Z" fill="#7ad4e0"/>
      </g>
      <text id="The_highest-quality" data-name="The highest-quality" transform="translate(294 1874) rotate(-90)" fill="#fcfcfc" font-size="20" font-family="HelveticaNeue, Helvetica Neue"><tspan x="0" y="0">The highest-quality</tspan></text>
    </g>
    <g id="Character_1" data-name="Character 1" transform="translate(508.958 1734.963)">
      <g id="Group_216" data-name="Group 216">
        <g id="Group_206" data-name="Group 206" transform="translate(0 23.827)">
          <path id="Path_468" data-name="Path 468" d="M167.287,254.22c2.756-2.777,3.74-1.7,4.089,1.348a13.722,13.722,0,0,0,.919,3.72,6.849,6.849,0,0,1,.518-1.836,1.341,1.341,0,0,1,1.635-.805c.27.113-.063.758-.021,1.936.054,1.511.542,2.346.189,3.95a2.565,2.565,0,0,0,.27,1.769c1.486,2.75,6.23,7.844,9.572,11.508,2.955-2.67,9.565-8.641,12.729-11.493,4.341-3.911,5.757-5.675,9.955-5.387a11.276,11.276,0,0,0-3.572,2.14c-1.945,1.646-1.483,11.064-1.483,11.064s-14.442,10.357-15.927,11.342c-.218.145-.441.275-.662.394a3.554,3.554,0,0,1-4.327-.831c-3.084-3.525-7.576-10.46-10.175-14.065a44.025,44.025,0,0,1-3.14-5.467C165.277,258.415,165.56,255.959,167.287,254.22Z" transform="translate(-165.955 -252.618)" fill="#ffbea7"/>
          <path id="Path_469" data-name="Path 469" d="M185.379,260.92a7.223,7.223,0,0,0-5.809,1.423c-2.478,1.881-13.022,11.577-13.022,11.577a9.426,9.426,0,0,0,5.072,8.2l12.961-9.14Z" transform="translate(-144.62 -254.866)" fill="#7fddea"/>
          <path id="Path_470" data-name="Path 470" d="M185.379,260.92a7.223,7.223,0,0,0-5.809,1.423c-2.478,1.881-13.022,11.577-13.022,11.577a9.426,9.426,0,0,0,5.072,8.2l12.961-9.14Z" transform="translate(-144.62 -254.866)" opacity="0.3"/>
        </g>
        <g id="Group_207" data-name="Group 207" transform="translate(21.121 61.069)">
          <rect id="Rectangle_357" data-name="Rectangle 357" width="5.489" height="9.787" transform="translate(32.138 84.795)" fill="#ffbea7"/>
          <path id="Path_471" data-name="Path 471" d="M173.743,416.307l-5.486.2-.275-10.357,5.761-.2Z" transform="translate(-155.147 -332.035)" fill="#ffbea7"/>
          <path id="Path_472" data-name="Path 472" d="M168.991,304.05c0,5.46-.8,49.395-.8,49.395.128,1.571,1.542,4.467,1.236,10.5-.416,8.2-.971,29.734-.971,29.734a6.967,6.967,0,0,1-6.111.126s-5.192-29.832-6.176-37.954c-.858-7.089-2.314-30.955-2.314-30.955l-2.976,27.75a33.792,33.792,0,0,1,.68,9.086c-.256,3.757-2.021,23.322-2.021,23.322a7.24,7.24,0,0,1-6.338.505s-3.122-29.467-3.185-32.913c-.072-3.93,1.825-48.656,1.825-48.656Z" transform="translate(-130.591 -303.991)" fill="#2b454e"/>
          <path id="Path_473" data-name="Path 473" d="M148.691,430.252v-.817c-.525.238-1.746,5.087-3.923,7.156-1.731,1.645-4.093,3.545-4.694,5.378-.625,1.907,3.289,2.96,4.906,2.662,1.88-.347,5.138-1.725,5.955-3s1.2-3.163,1.865-4.1,2.2-1.982,2.555-3.066a7.182,7.182,0,0,0-.315-3c-.254-1.011-.53-2.122-.861-2.027,0,.122,0,.623,0,.623a4.238,4.238,0,0,1-2.745.966C150.633,431.056,148.685,430.89,148.691,430.252Z" transform="translate(-116.554 -338.493)" fill="#1a2e35"/>
          <path id="Path_474" data-name="Path 474" d="M178.753,417.934c-.285.01-.517.429-1.145,1.137a12.037,12.037,0,0,1-3.229,2.42c-2.056,1.071-6.052,2.72-7.86,3.569-1.13.53-1.077,1.952.091,2.76s3.987,1.392,7.373.6c1.844-.43,4.245-2.2,5.765-2.109s4.363.073,5.485-.732.673-2.525.356-4c-.346-1.613-.779-4.128-1.291-4.018v.556c-.66,1.04-4.066,1.464-5.515.7Z" transform="translate(-165.702 -335.228)" fill="#1a2e35"/>
          <path id="Path_475" data-name="Path 475" d="M169.192,331.1a20.094,20.094,0,0,1-7.644-4.565s1.475,2.877,5.86,5.553l-.938,24.782Z" transform="translate(-145.932 -310.191)" fill="#1a2e35"/>
        </g>
        <g id="Group_208" data-name="Group 208" transform="translate(31.738 29.881)">
          <path id="Path_476" data-name="Path 476" d="M164,262.438s4.3.393,3.991,8.576l-.95,13.035.09,19.561c-4.037,4.574-21.931,4.239-28.058-.366,0,0,.631-23.15,1.045-32.057.294-6.333,1.751-9.522,7.975-10.219l7.654.336Z" transform="translate(-139.078 -260.969)" fill="#7fddea"/>
          <path id="Path_477" data-name="Path 477" d="M164.71,268.917l-.985,6.872-2.3-.043,2.59.409Z" transform="translate(-151.981 -263.155)" opacity="0.3"/>
        </g>
        <g id="Group_209" data-name="Group 209" transform="translate(56.152 31.303)">
          <path id="Path_478" data-name="Path 478" d="M138.31,291.19c-2.227-17.9-7.349-26.8-13.593-27.85l.442,11.455a100.8,100.8,0,0,1,5.944,18.955c.821,4.408,1.772,12.07,1.525,15.837a2.788,2.788,0,0,1-.8,1.757A15.713,15.713,0,0,0,129.4,315.1c-.647,1.109-1.315,1.5-1.143,1.768a1.381,1.381,0,0,0,1.912.249,10.054,10.054,0,0,0,1.783-1.607,11.375,11.375,0,0,1-.9,4.985c-1.461,3.012-1.218,4.6,2.828,3.713,2.535-.556,4.363-3.23,5.042-9.474a54.443,54.443,0,0,0,.125-7C138.8,301.769,138.756,294.773,138.31,291.19Z" transform="translate(-124.173 -263.044)" fill="#ffbea7"/>
          <path id="Path_479" data-name="Path 479" d="M126.728,262.932c3.243-.012,6.2.557,8.554,5.088,2.256,4.346,3.992,13.551,4.867,16.556,0,0-4.735,2.8-9.089,2.731l-3.069-10.646S125.92,271.691,126.728,262.932Z" transform="translate(-126.541 -262.932)" fill="#7fddea"/>
          <path id="Path_480" data-name="Path 480" d="M126.728,262.932c3.243-.012,6.2.557,8.554,5.088,2.256,4.346,3.992,13.551,4.867,16.556,0,0-4.735,2.8-9.089,2.731l-3.069-10.646S125.92,271.691,126.728,262.932Z" transform="translate(-126.541 -262.932)" opacity="0.3"/>
        </g>
        <g id="Group_212" data-name="Group 212" transform="translate(32.995)">
          <path id="Path_481" data-name="Path 481" d="M170.622,234.278a8.179,8.179,0,1,1-8.172-8.511A8.347,8.347,0,0,1,170.622,234.278Z" transform="translate(-153.965 -221.406)" fill="#1a2e35"/>
          <g id="Group_210" data-name="Group 210">
            <path id="Path_482" data-name="Path 482" d="M150.405,243.381a71.83,71.83,0,0,1-1.756,7.141,2.675,2.675,0,0,1-1.541,1.294l.088-4.314Z" transform="translate(-128.55 -226.251)" fill="#1a2e35"/>
            <path id="Path_483" data-name="Path 483" d="M146.614,231.256s.9-.225,1.853,1.266c.818,1.279,1,4.152-.281,7.52l-2.36.282Z" transform="translate(-126.332 -222.913)" fill="#1a2e35"/>
            <path id="Path_484" data-name="Path 484" d="M160.66,238.9c.473.294,1.149-.652,1.733-1.289a2.015,2.015,0,0,1,3.441.581c.969,2.127-.839,4.936-2.34,5.427-2.585.845-2.974-.882-2.974-.882l-.2,9.715c-3.433,5.31-11.209,5.118-8.413-.257l.007-2.956a15.663,15.663,0,0,1-3.486.186c-1.9-.306-3.1-1.869-3.675-4.013-.926-3.444-1.278-6.224-.492-13,.862-7.423,9.151-7.5,13.628-4.566S160.66,238.9,160.66,238.9Z" transform="translate(-141.874 -221.482)" fill="#ffbea7"/>
            <path id="Path_485" data-name="Path 485" d="M156.027,258.787A12.454,12.454,0,0,1,152.665,263a9.525,9.525,0,0,1-4.068,1.729,9.019,9.019,0,0,1,2.87,3.222c.856,1.889,6.9-3.31,6.842-7,0,0-.948-3.705-2.246-3.943Z" transform="translate(-137.535 -229.999)" fill="#1a2e35"/>
            <path id="Path_486" data-name="Path 486" d="M166.092,265.01s-1.862-.926-1.027-4.021l.007-2.956-.816.109a7.161,7.161,0,0,0-1.962,3.4c-.187.847-.646,5.136.172,5.988C163.21,268.306,164.423,265.24,166.092,265.01Z" transform="translate(-155.029 -230.281)" fill="#1a2e35"/>
            <path id="Path_487" data-name="Path 487" d="M167.309,238c.239.005,1.143-1.559,1.733-2.118.816-.774-.236-7.782-.236-7.782a3.425,3.425,0,0,0-.788-3.544c-1.119-1.282-2.988-1.425-6.18-1.947a34.435,34.435,0,0,1-3.784-.682,22.8,22.8,0,0,1-3.783-1.841,1.863,1.863,0,0,0-1.28-.3,1.252,1.252,0,0,0-.814.926,3.677,3.677,0,0,0-.024,1.285,2.086,2.086,0,0,0-2.94.105,3,3,0,0,0-.459,3.1,5.5,5.5,0,0,0,2.142,2.449c4.012,2.708,8.746,1.957,13.237,1.425a1.21,1.21,0,0,1,.64.042c.7.319.853,2.5.977,3.135C166.164,234.376,166.509,237.979,167.309,238Z" transform="translate(-148.523 -219.752)" fill="#1a2e35"/>
            <path id="Path_488" data-name="Path 488" d="M145.513,230.807l2.863-1.6a1.549,1.549,0,0,0-2.167-.747A1.816,1.816,0,0,0,145.513,230.807Z" transform="translate(-125.236 -222.093)" fill="#1a2e35"/>
            <path id="Path_489" data-name="Path 489" d="M152.67,256.581a31.592,31.592,0,0,0,5.729-1.712,5,5,0,0,0,2.051-2.114,7.1,7.1,0,0,1-1.165,2.493c-1.085,1.446-6.615,2.51-6.615,2.51Z" transform="translate(-142.628 -228.829)" fill="#ff9875"/>
          </g>
          <g id="Group_211" data-name="Group 211" transform="translate(2.999 11.781)">
            <path id="Path_490" data-name="Path 490" d="M158.937,241.55a.853.853,0,1,0,.851-.923A.885.885,0,0,0,158.937,241.55Z" transform="translate(-150.359 -237.274)" fill="#1a2e35"/>
            <path id="Path_491" data-name="Path 491" d="M156.591,236.6l1.82,1.046a1.162,1.162,0,0,0-.424-1.509A1,1,0,0,0,156.591,236.6Z" transform="translate(-146.552 -236.002)" fill="#1a2e35"/>
            <path id="Path_492" data-name="Path 492" d="M164.73,250.691l-1.942.759a1.01,1.01,0,0,0,1.319.671A1.146,1.146,0,0,0,164.73,250.691Z" transform="translate(-157.303 -240.043)" fill="#ff9875"/>
            <path id="Path_493" data-name="Path 493" d="M170.449,237.622l1.912-.932a.981.981,0,0,0-1.356-.544A1.178,1.178,0,0,0,170.449,237.622Z" transform="translate(-170.368 -236.014)" fill="#1a2e35"/>
            <path id="Path_494" data-name="Path 494" d="M168.92,241.55a.853.853,0,1,0,.85-.923A.884.884,0,0,0,168.92,241.55Z" transform="translate(-167.578 -237.274)" fill="#1a2e35"/>
            <path id="Path_495" data-name="Path 495" d="M167.766,240.992l-.1,5.373-3.049-.7Z" transform="translate(-161.605 -237.375)" fill="#ff9875"/>
          </g>
        </g>
        <g id="Group_215" data-name="Group 215" transform="translate(35.345 13.405)">
          <g id="Group_213" data-name="Group 213" transform="translate(7.648)">
            <path id="Path_496" data-name="Path 496" d="M158.9,238.673a2.125,2.125,0,0,1,0,4.249h-.387a2.125,2.125,0,0,1,0-4.249Zm2.509,2.124a2.535,2.535,0,0,0-2.509-2.555h-.387a2.556,2.556,0,0,0,0,5.112h.387A2.536,2.536,0,0,0,161.411,240.8Z" transform="translate(-156.007 -238.242)" fill="#1a2e35"/>
          </g>
          <g id="Group_214" data-name="Group 214" transform="translate(0)">
            <path id="Path_497" data-name="Path 497" d="M169.452,238.673a2.125,2.125,0,0,1,0,4.249h-.387a2.125,2.125,0,0,1,0-4.249Zm2.509,2.124a2.536,2.536,0,0,0-2.509-2.555h-.387a2.556,2.556,0,0,0,0,5.112h.387A2.536,2.536,0,0,0,171.961,240.8Z" transform="translate(-166.557 -238.242)" fill="#1a2e35"/>
          </g>
          <path id="Path_498" data-name="Path 498" d="M165.74,240.646a1.645,1.645,0,0,0-1.325-.688,1.335,1.335,0,0,0-1.156.444l-.337-.26a1.72,1.72,0,0,1,1.515-.615,2.047,2.047,0,0,1,1.664.894Z" transform="translate(-158.06 -238.595)" fill="#1a2e35"/>
          <rect id="Rectangle_358" data-name="Rectangle 358" width="4.324" height="0.431" transform="translate(12.82 2.031)" fill="#1a2e35"/>
        </g>
        <path id="Path_500" data-name="Path 500" d="M1.28,0H0V.139L.4.176c.008.3.008.6.008.9v.132c0,.338,0,.645-.008.941L0,2.186v.139H1.054a2.147,2.147,0,0,0,.23-.155,3.327,3.327,0,0,0,.253-.237c.2-.2.054-.3-.025-.36a3.626,3.626,0,0,1-.5-.3c-.321-.323.345-.433.4-.441-.046,0-.5.055-.611.231h0c0-.3,0-.6.008-.9h.4A.914.914,0,0,1,2.222,1.166a1.208,1.208,0,0,1-.072.43,1,1,0,0,0-.077-.068c-.06-.048-.5-.273-.674-.362s-.171-.12-.167-.175.185-.163.185-.163a1.435,1.435,0,0,0-.285.108C1.01,1,1,1.083,1.057,1.169a1.776,1.776,0,0,0,.391.256s.435.17.385.391a.655.655,0,0,1-.17.266,2.135,2.135,0,0,1-.264.234h.007a1.676,1.676,0,0,0,.827-.277,1.029,1.029,0,0,0,.444-.874C2.677.409,2.1,0,1.28,0ZM.88,1.325c.085.087.115.116.333.312.138.124-.157.367-.393.529H.811a.006.006,0,0,1,0,0C.8,1.863.8,1.557.8,1.223A.427.427,0,0,0,.88,1.325Z" transform="matrix(0.996, 0.087, -0.087, 0.996, 51.609, 41.362)"/>
      </g>
    </g>
    <g id="tRkwyD" transform="translate(410.129 1639.865)">
      <g id="Group_128" data-name="Group 128" transform="translate(14.399 208.162)">
        <g id="Group_127" data-name="Group 127">
          <path id="Path_242" data-name="Path 242" d="M198.236,224.053c.416.806.822,1.6,1.233,2.386q.958,1.834,1.926,3.662a.317.317,0,0,1-.008.35,8.857,8.857,0,0,1-1.769,2.1c-.225.206-.462.4-.7.608-.324-.361-.634-.709-.947-1.055q-2.58-2.844-5.162-5.686c-.067-.074-.141-.143-.212-.213a.476.476,0,0,0-.674-.1c-.593.318-1.183.642-1.778.956-.669.352-1.342.7-2.015,1.043a1.736,1.736,0,0,1-.827.229.744.744,0,0,1-.755-.586,1.076,1.076,0,0,1,.352-1.149,31.114,31.114,0,0,1,5.026-3.4,2.9,2.9,0,0,1,1.649-.39,2.728,2.728,0,0,1,1.123.349c.449.256.883.537,1.325.806.185.113.368.231.56.33a1.238,1.238,0,0,0,1.185,0C197.917,224.22,198.068,224.14,198.236,224.053Z" transform="translate(-178.7 -222.137)" fill="#ddfbff"/>
          <path id="Path_243" data-name="Path 243" d="M462.462,217.037a.494.494,0,0,1-.235.461c-.461.246-.921.494-1.387.73a.485.485,0,0,1-.653-.266c-.283-.536-.558-1.076-.836-1.614q-1.19-2.3-2.379-4.609a1.171,1.171,0,0,1-.119-.326.452.452,0,0,1,.262-.478q.626-.333,1.253-.662a.5.5,0,0,1,.761.24c.276.527.547,1.056.821,1.585q1.2,2.318,2.4,4.638A2.491,2.491,0,0,1,462.462,217.037Z" transform="translate(-436.782 -210.094)" fill="#ddfbff"/>
          <path id="Path_244" data-name="Path 244" d="M14.4,215.412c.029-.1.05-.2.087-.3q1.229-3.269,2.462-6.537a.5.5,0,0,1,.753-.352c.367.129.735.254,1.1.384a.5.5,0,0,1,.345.74q-.43,1.148-.863,2.294-.8,2.13-1.606,4.259a1,1,0,0,1-.164.286.412.412,0,0,1-.482.129c-.446-.155-.893-.308-1.338-.466A.463.463,0,0,1,14.4,215.412Z" transform="translate(-14.399 -208.162)" fill="#ddfbff"/>
          <path id="Path_245" data-name="Path 245" d="M83.908,218.465c-.169.458-.334.911-.505,1.363q-.894,2.363-1.793,4.724a.244.244,0,0,0,.047.3c.545.587,1.083,1.181,1.624,1.772.041.045.083.088.1.106l-.413.441c-.1-.105-.218-.217-.325-.336q-.752-.828-1.5-1.659a.661.661,0,0,1-.126-.728q1.173-3.1,2.342-6.21a.6.6,0,0,1,.518-.435.64.64,0,0,1,.569.308,1.185,1.185,0,0,0,.879.414,2.145,2.145,0,0,0,1.1-.286c.392-.2.771-.421,1.162-.622a2.976,2.976,0,0,1,1.468-.388,1.692,1.692,0,0,1,.964.329c.057.042.106.094.171.152-.173.1-.329.2-.49.286a.165.165,0,0,1-.133,0,1.287,1.287,0,0,0-1.053-.076,9.669,9.669,0,0,0-.992.428c-.421.2-.821.45-1.253.621A2.014,2.014,0,0,1,83.908,218.465Z" transform="translate(-77.942 -216.812)" fill="#ddfbff"/>
          <path id="Path_246" data-name="Path 246" d="M324.129,418.53a1.257,1.257,0,0,1-.3,1.2,1.445,1.445,0,0,1-1.786.361,1.687,1.687,0,0,1-.711,1.325,1.343,1.343,0,0,1-1.486.029,1.627,1.627,0,0,1-1.134,1.5,1.152,1.152,0,0,1-.962-.149c.054-.082.112-.163.163-.248s.088-.165.115-.215a2.582,2.582,0,0,0,.575-.007.953.953,0,0,0,.633-.861,1.086,1.086,0,0,0-.269-.833q-.829-.95-1.655-1.9a.378.378,0,0,1-.055-.5.23.23,0,0,1,.409-.026q1.076,1.2,2.15,2.4a1.055,1.055,0,0,0,.678.419.909.909,0,0,0,.946-.894,1.206,1.206,0,0,0-.344-.942c-.616-.674-1.226-1.353-1.838-2.031a.331.331,0,0,1-.017-.48.266.266,0,0,1,.459-.018q1.15,1.3,2.3,2.605a.9.9,0,0,0,1.387.064.368.368,0,0,0,.1-.149C323.56,418.83,323.883,418.727,324.129,418.53Z" transform="translate(-303.453 -407.089)" fill="#ddfbff"/>
          <path id="Path_247" data-name="Path 247" d="M220.144,462.2a1.155,1.155,0,0,1-.349.946q-.935.857-1.876,1.709a.8.8,0,0,1-.88.181.917.917,0,0,1-.575-.8,1.065,1.065,0,0,1,.357-.961c.6-.547,1.2-1.092,1.8-1.643a.851.851,0,0,1,.974-.225A.924.924,0,0,1,220.144,462.2Z" transform="translate(-207.292 -449.853)" fill="#ddfbff"/>
          <path id="Path_248" data-name="Path 248" d="M180.974,435.1a1.142,1.142,0,0,1-.367.847c-.473.43-.943.862-1.417,1.292a.839.839,0,0,1-.991.2,1.023,1.023,0,0,1-.524-.972,1.146,1.146,0,0,1,.387-.787q.695-.624,1.381-1.257a.837.837,0,0,1,.972-.222A.973.973,0,0,1,180.974,435.1Z" transform="translate(-170.267 -423.883)" fill="#ddfbff"/>
          <path id="Path_249" data-name="Path 249" d="M268.136,509.574a1.067,1.067,0,0,1,.306-.77c.25-.262.505-.518.752-.782a.828.828,0,0,1,.945-.276.92.92,0,0,1,.6.85,1.092,1.092,0,0,1-.328.894q-.372.384-.741.769a.817.817,0,0,1-.948.259.935.935,0,0,1-.584-.844A.953.953,0,0,1,268.136,509.574Z" transform="translate(-256.628 -494.107)" fill="#ddfbff"/>
          <path id="Path_250" data-name="Path 250" d="M131.643,432.013a1.07,1.07,0,0,1,.426-.883c.079-.061.159-.122.236-.186a.876.876,0,0,1,1.458.536,1.043,1.043,0,0,1-.325,1.016c-.108.1-.234.189-.35.284a.81.81,0,0,1-.872.156.931.931,0,0,1-.562-.773C131.646,432.113,131.646,432.063,131.643,432.013Z" transform="translate(-126.326 -420.614)" fill="#ddfbff"/>
        </g>
      </g>
    </g>
    <g id="YyxOH8.tif" transform="translate(-69.48 1569.166)">
      <g id="Group_151" data-name="Group 151" transform="translate(375.502 144.065)">
        <g id="Group_150" data-name="Group 150" transform="translate(0 0)">
          <path id="Path_316" data-name="Path 316" d="M371.564,209.281c.762-.439,1.414-1.033,2.138-1.525.237-.161.091-.288.009-.426-.424-.712-.852-1.422-1.3-2.173.889-.227,1.734-.441,2.578-.658a.339.339,0,0,1,.424.195,3.077,3.077,0,0,0,.345.517.463.463,0,0,1,.044.6,7.576,7.576,0,1,0,14.223,4.411,7.672,7.672,0,0,0-.709-4.179.63.63,0,0,1,.059-.74c.581-.817.573-.824,1.55-.574.535.137,1.069.278,1.661.432-.432.724-.836,1.441-1.282,2.13-.179.276-.124.4.121.571.664.468,1.309.962,2,1.475-.7.519-1.354,1.025-2.03,1.5-.24.169-.248.293-.1.532.434.686.84,1.389,1.29,2.141-.829.213-1.615.424-2.406.614-.263.063-.4.1-.329.459.164.807.241,1.631.359,2.481-.84-.129-1.623-.244-2.4-.373-.3-.05-.468-.012-.538.349-.131.676-.361,1.333-.49,2.01-.077.406-.207.329-.463.169-.6-.376-1.215-.73-1.826-1.09-.126-.074-.256-.216-.395-.014a23.829,23.829,0,0,0-1.493,2.105h-.208c-.388-.715-.945-1.31-1.4-1.98-.159-.236-.291-.26-.535-.1-.609.393-1.243.748-1.859,1.132-.225.14-.313.116-.374-.158-.15-.672-.374-1.331-.488-2.008-.076-.451-.283-.461-.641-.4-.663.117-1.339.171-2,.307-.363.075-.319-.093-.286-.315.107-.718.192-1.44.328-2.152.052-.272.009-.342-.263-.4-.815-.184-1.62-.413-2.471-.635.45-.749.878-1.459,1.3-2.17.082-.138.225-.264-.011-.426-.721-.5-1.383-1.075-2.137-1.525Z" transform="translate(-371.564 -197.842)" fill="#ddfbff"/>
          <path id="Path_318" data-name="Path 318" d="M424.753,142.724c-1,1.5-1.993,3-3,4.5q-3.595,5.325-7.2,10.643c-.165.244-.26.443-.508.04q-3.385-5.49-6.8-10.963a1.368,1.368,0,0,1-.082-.189l.09-.09c.876.861,1.757,1.718,2.628,2.584,1.314,1.307,2.632,2.611,3.925,3.939.3.3.456.329.762.006q4.445-4.7,8.919-9.365c.382-.4.778-.787,1.168-1.18Z" transform="translate(-403.439 -142.48)" fill="#ddfbff"/>
          <path id="Path_319" data-name="Path 319" d="M412.331,222.6a1.45,1.45,0,0,1,.389,1.552,5.781,5.781,0,1,0,11.239.166,1.4,1.4,0,0,1,.42-1.549,6.525,6.525,0,0,1-1.483,7.721,6.663,6.663,0,0,1-9.185-.028A6.55,6.55,0,0,1,412.331,222.6Z" transform="translate(-407.385 -214.064)" fill="#ddfbff"/>
          <path id="Path_320" data-name="Path 320" d="M431.338,148.051l.256.155c.593.355,1.2.694,1.774,1.071.27.176.4.119.574-.126.416-.6.864-1.169,1.286-1.761.142-.2.225-.2.369,0,.411.578.854,1.134,1.254,1.719.193.281.347.346.651.145.546-.363,1.13-.669,1.682-1.024.29-.186.447-.279.519.192a10.294,10.294,0,0,0,.414,1.653.557.557,0,0,1-.2.717.886.886,0,0,0-.17.2.767.767,0,0,1-1.142.263,7.236,7.236,0,0,0-6.77.166c-.248.129-.357.075-.552-.093a1.3,1.3,0,0,1-.472-1.7,7.617,7.617,0,0,0,.34-1.351C431.18,148.175,431.179,148.057,431.338,148.051Z" transform="translate(-424.479 -146.592)" fill="#ddfbff"/>
          <path id="Path_321" data-name="Path 321" d="M448.56,186.609a6.5,6.5,0,0,1,2.9.642c.219.1.282.167.09.393a.728.728,0,0,1-.991.261,5.545,5.545,0,0,0-4.24.07.823.823,0,0,1-.965-.441c-.056-.218.155-.207.253-.255A6.279,6.279,0,0,1,448.56,186.609Z" transform="translate(-437.623 -181.838)" fill="#ddfbff"/>
          <path id="Path_322" data-name="Path 322" d="M406.143,179.507l.156.156-.09.089-.112-.2Z" transform="translate(-402.481 -175.482)" fill="#ddfbff"/>
          <path id="Path_323" data-name="Path 323" d="M575.226,141.129c.022-.043.052-.089.1-.048.014.012-.018.077-.029.118Z" transform="translate(-553.899 -141.065)" fill="#ddfbff"/>
          <path id="Path_324" data-name="Path 324" d="M574.393,141.747l-.086.109-.093-.078.106-.1Z" transform="translate(-552.993 -141.613)" fill="#ddfbff"/>
          <path id="Path_325" data-name="Path 325" d="M405.716,179.062l-.045-.1.09.058Z" transform="translate(-402.1 -174.99)" fill="#ddfbff"/>
        </g>
      </g>
    </g>
    <g id="BPZetw.tif" transform="translate(136.735 1375.266)">
      <g id="Group_126" data-name="Group 126" transform="translate(128.908 172.841)">
        <g id="Group_125" data-name="Group 125">
          <path id="Path_234" data-name="Path 234" d="M132.984,196.783c-.1.09-.166.148-.228.211-.756.769-1.516,1.535-2.265,2.31-.183.19-.37.3-.615.152s-.231-.374-.161-.618q1.362-4.728,2.719-9.458c.008-.027.013-.054.019-.081a3.59,3.59,0,0,1-.5-.23,1.083,1.083,0,0,1-.5-.925c-.01-.309-.029-.619-.027-.928a.305.305,0,0,0-.247-.342c-.285-.09-.561-.207-.837-.322a1.168,1.168,0,0,1-.671-1.526c.128-.351.278-.7.39-1.052a.416.416,0,0,0-.07-.337c-.223-.265-.477-.5-.714-.757a1.131,1.131,0,0,1,.036-1.7c.168-.163.335-.33.515-.478a.237.237,0,0,0,.064-.337c-.11-.227-.2-.462-.3-.7a1.153,1.153,0,0,1,.569-1.5c.284-.142.575-.273.872-.387.182-.07.272-.159.248-.367-.029-.251-.027-.505-.041-.758a1.169,1.169,0,0,1,1.051-1.267c.363-.041.728-.076,1.093-.082.2,0,.271-.092.328-.26.093-.274.207-.542.315-.81a1.132,1.132,0,0,1,1.487-.684c.345.118.687.247,1.022.39a.307.307,0,0,0,.393-.084c.222-.228.459-.443.69-.662a1.217,1.217,0,0,1,1.78.038c.169.176.326.365.508.525a.336.336,0,0,0,.278.057c.31-.1.6-.259.916-.346a1.109,1.109,0,0,1,1.342.645,8.76,8.76,0,0,1,.358.823c.07.207.187.24.379.222a8.7,8.7,0,0,1,.871-.037,1.173,1.173,0,0,1,1.182,1.172c.009.328.021.657.054.983a.341.341,0,0,0,.165.235c.28.128.575.224.861.339a1.167,1.167,0,0,1,.7,1.58c-.129.341-.269.679-.379,1.026a.38.38,0,0,0,.062.31c.244.284.513.547.77.82a1.054,1.054,0,0,1-.04,1.532c-.243.233-.49.461-.74.7.126.3.249.58.365.865a1.152,1.152,0,0,1-.636,1.578c-.282.126-.57.24-.843.382a.335.335,0,0,0-.152.242c-.008.262.025.524.032.787a1.182,1.182,0,0,1-1.2,1.33c-.036,0-.073.008-.144.017.175.627.345,1.243.52,1.858q1.135,3.991,2.271,7.982c.067.234.069.46-.175.589a.473.473,0,0,1-.6-.151c-.746-.766-1.5-1.524-2.248-2.288a1.8,1.8,0,0,1-.176-.253l-.085.049-.577,2.581c-.065.292-.129.584-.195.876-.05.222-.123.42-.4.42a.455.455,0,0,1-.468-.4c-.277-.99-.562-1.978-.844-2.966l-1.829-6.4a1.285,1.285,0,0,1-2.033.222l-.757,2.631-1.855,6.439c-.01.036-.018.073-.03.108a.464.464,0,0,1-.447.362c-.253,0-.358-.186-.408-.4-.123-.518-.233-1.04-.349-1.56C133.277,198.1,133.135,197.462,132.984,196.783Zm-2.007-16.012a1.678,1.678,0,0,1-.195.3c-.242.249-.5.482-.748.723-.3.29-.3.389.014.682s.6.572.91.839a.554.554,0,0,1,.164.722c-.187.439-.351.887-.532,1.328a.306.306,0,0,0,.2.462c.418.163.832.338,1.247.507a.454.454,0,0,1,.315.449c.008.45.031.9.046,1.349.01.3.093.391.386.386.4-.006.806-.021,1.208-.047a.527.527,0,0,1,.579.382c.15.383.315.76.473,1.14a.328.328,0,0,0,.495.2c.351-.154.711-.289,1.055-.457a.467.467,0,0,1,.6.114c.255.262.522.512.772.779a.317.317,0,0,0,.527,0c.335-.328.681-.645,1.011-.978a.525.525,0,0,1,.613-.134c.437.165.875.329,1.31.5.285.112.4.072.521-.216.158-.38.324-.757.461-1.145a.563.563,0,0,1,.6-.408c.422,0,.844-.012,1.266-.021a.312.312,0,0,0,.347-.371c-.017-.412-.01-.826-.032-1.237a.51.51,0,0,1,.359-.563c.374-.147.744-.305,1.113-.464.311-.133.353-.241.225-.544-.149-.353-.3-.708-.451-1.058a.441.441,0,0,1,.114-.556q.423-.392.833-.8c.2-.2.2-.326-.008-.52-.335-.314-.667-.633-1.014-.933a.535.535,0,0,1-.163-.676c.177-.433.351-.867.524-1.3.121-.3.075-.414-.232-.543-.4-.166-.793-.333-1.193-.491a.446.446,0,0,1-.316-.445c-.01-.441-.032-.881-.045-1.321-.01-.347-.089-.421-.443-.411-.394.011-.788.01-1.181.033a.49.49,0,0,1-.538-.351c-.141-.357-.293-.709-.441-1.062s-.265-.413-.622-.262c-.336.143-.673.282-1,.432a.439.439,0,0,1-.557-.111c-.25-.267-.5-.53-.758-.793-.233-.242-.347-.247-.585-.02-.312.3-.629.591-.927.9a.587.587,0,0,1-.754.15c-.39-.181-.794-.33-1.192-.493-.342-.141-.429-.1-.569.251s-.308.724-.428,1.1a.565.565,0,0,1-.626.436c-.4,0-.806.026-1.209.041-.275.011-.387.119-.386.4q0,.549.019,1.1c.017.523,0,.56-.475.758-.345.145-.69.289-1.033.437a.325.325,0,0,0-.193.5c.156.34.3.686.444,1.031C130.912,180.555,130.935,180.646,130.976,180.771Zm.116,16.841.089.049a2.752,2.752,0,0,1,.189-.242c.523-.538,1.045-1.076,1.576-1.606.329-.329.684-.226.788.222.067.291.122.585.185.878q.177.819.358,1.637h.06l2.321-7.842c-.318.134-.565.244-.817.343a1.147,1.147,0,0,1-1.492-.584c-.127-.26-.24-.528-.353-.794-.07-.166-.12-.313-.365-.3s-.225.2-.264.329q-.876,3.014-1.74,6.032C131.447,196.359,131.271,196.986,131.093,197.613Zm8.98-7.157,2.326,8.1c.237-.847.412-1.679.587-2.511a.487.487,0,0,1,.338-.438.467.467,0,0,1,.49.193c.321.329.64.66.967.981.277.272.564.532.87.82l-2.419-8.421-.087,0a2.239,2.239,0,0,0-.106.2c-.111.278-.215.558-.327.835a1.131,1.131,0,0,1-1.551.678C140.822,190.762,140.487,190.622,140.073,190.456Z" transform="translate(-128.908 -172.841)" fill="#fff"/>
          <path id="Path_238" data-name="Path 238" d="M194.338,242.945a6.132,6.132,0,1,1,6.1-6.094A6.161,6.161,0,0,1,194.338,242.945Zm.009-11.385a5.266,5.266,0,1,0,5.226,5.365A5.332,5.332,0,0,0,194.347,231.561Z" transform="translate(-184.868 -227.421)" fill="#fff"/>
          <path id="Path_240" data-name="Path 240" d="M222.451,274.452c.121-.7.237-1.409.371-2.116a.58.58,0,0,0-.188-.613c-.512-.467-1.008-.955-1.487-1.456a.566.566,0,0,1-.144-.46.554.554,0,0,1,.378-.3c.691-.119,1.388-.206,2.084-.291a.491.491,0,0,0,.443-.309c.29-.629.607-1.244.9-1.869a.493.493,0,0,1,.436-.342.481.481,0,0,1,.451.32c.331.64.679,1.272,1,1.915a.449.449,0,0,0,.379.278c.705.092,1.412.176,2.112.3a.607.607,0,0,1,.413.3.558.558,0,0,1-.151.461c-.5.521-1.022,1.02-1.544,1.519a.417.417,0,0,0-.146.437q.211,1.088.363,2.186a.521.521,0,0,1-.163.426.577.577,0,0,1-.487.042c-.675-.322-1.33-.686-2-1.02a.451.451,0,0,0-.351,0c-.662.328-1.313.679-1.972,1.014A.454.454,0,0,1,222.451,274.452Zm.921-.721c.527-.27,1.011-.511,1.487-.766a.69.69,0,0,1,.714,0c.48.26.973.5,1.5.764-.055-.34-.109-.633-.15-.928-.178-1.258-.336-.924.547-1.838.224-.232.447-.465.7-.725-.612-.086-1.165-.182-1.722-.233a.6.6,0,0,1-.551-.391c-.221-.488-.464-.966-.715-1.485-.258.529-.5,1.015-.733,1.5a.606.606,0,0,1-.519.367c-.562.065-1.121.153-1.721.237.09.094.151.162.215.225q.523.511,1.047,1.019a.544.544,0,0,1,.177.55C223.534,272.579,223.464,273.133,223.372,273.732Z" transform="translate(-215.802 -261.405)" fill="#fff"/>
        </g>
      </g>
    </g>
    <g id="box" transform="translate(-286 1647)">
      <g id="boxBack" transform="translate(495.869 263.471)">
        <path id="Path_26" data-name="Path 26" d="M33.385-22.764l20.259,5.884Z" transform="translate(-13.229 22.764)" fill="#7fddea" stroke="#72c6d1" stroke-width="1"/>
        <path id="Path_77" data-name="Path 77" d="M-4479.834,8965.674v-22.23l20.217-5.742,20.09,5.975.331,22Z" transform="translate(4479.834 -8937.679)" stroke="#72c6d1" stroke-width="1" fill="url(#linear-gradient-6)"/>
      </g>
      <g id="boxFront" transform="translate(495.869 269.324)">
        <path id="Path_22" data-name="Path 22" d="M-1.08-2.317l20.5-5.542V19.922L-.883,25.4Z" transform="translate(21.15 7.961)" stroke="#72c6d1" stroke-width="1" fill="url(#linear-gradient-7)"/>
        <path id="Path_25" data-name="Path 25" d="M-1.436-4.295,19.028-9.808Z" transform="translate(21.441 9.919)" fill="#7fddea" stroke="#72c6d1" stroke-width="1"/>
        <path id="Path_23" data-name="Path 23" d="M34.166-15.417,54.423-9.791l.207,27.736L34.166,12.393Z" transform="translate(-34.166 15.417)" stroke="#72c6d1" stroke-width="1" opacity="0.997" fill="url(#linear-gradient-8)"/>
        <path id="Path_24" data-name="Path 24" d="M27.247-16.255l20.333,5.62Z" transform="translate(-27.155 16.284)" fill="#7fddea" stroke="#72c6d1" stroke-width="1"/>
      </g>
      <path id="Path_499" data-name="Path 499" d="M13498.867-2077.84l10.234,2.872,10.234,2.873" transform="translate(-12993 2344.162)" fill="none" stroke="#72c6d1" stroke-width="1"/>
    </g>
    <g id="box-2" data-name="box" transform="translate(-232 1639)">
      <g id="boxBack-2" data-name="boxBack" transform="translate(495.869 263.471)">
        <path id="Path_26-2" data-name="Path 26" d="M33.385-22.764l20.259,5.884Z" transform="translate(-13.229 22.764)" fill="#7fddea" stroke="#72c6d1" stroke-width="1"/>
        <path id="Path_77-2" data-name="Path 77" d="M-4479.834,8965.674v-22.23l20.217-5.742,20.09,5.975.331,22Z" transform="translate(4479.834 -8937.679)" stroke="#72c6d1" stroke-width="1" fill="url(#linear-gradient-9)"/>
      </g>
      <g id="boxFront-2" data-name="boxFront" transform="translate(495.869 269.324)">
        <path id="Path_22-2" data-name="Path 22" d="M-1.08-2.317l20.5-5.542V19.922L-.883,25.4Z" transform="translate(21.15 7.961)" stroke="#72c6d1" stroke-width="1" fill="url(#linear-gradient-10)"/>
        <path id="Path_25-2" data-name="Path 25" d="M-1.436-4.295,19.028-9.808Z" transform="translate(21.441 9.919)" fill="#7fddea" stroke="#72c6d1" stroke-width="1"/>
        <path id="Path_23-2" data-name="Path 23" d="M34.166-15.417,54.423-9.791l.207,27.736L34.166,12.393Z" transform="translate(-34.166 15.417)" stroke="#72c6d1" stroke-width="1" opacity="0.997" fill="url(#linear-gradient-11)"/>
        <path id="Path_24-2" data-name="Path 24" d="M27.247-16.255l20.333,5.62Z" transform="translate(-27.155 16.284)" fill="#7fddea" stroke="#72c6d1" stroke-width="1"/>
      </g>
      <path id="Path_499-2" data-name="Path 499" d="M13498.867-2077.84l10.234,2.872,10.234,2.873" transform="translate(-12993 2344.162)" fill="none" stroke="#72c6d1" stroke-width="1"/>
    </g>
    <g id="box-3" data-name="box" transform="translate(-254 1627)">
      <g id="boxBack-3" data-name="boxBack" transform="translate(495.869 263.471)">
        <path id="Path_26-3" data-name="Path 26" d="M33.385-22.764l20.259,5.884Z" transform="translate(-13.229 22.764)" fill="#7fddea" stroke="#72c6d1" stroke-width="1"/>
        <path id="Path_77-3" data-name="Path 77" d="M-4479.834,8965.674v-22.23l20.217-5.742,20.09,5.975.331,22Z" transform="translate(4479.834 -8937.679)" stroke="#72c6d1" stroke-width="1" fill="url(#linear-gradient-6)"/>
      </g>
      <g id="boxFront-3" data-name="boxFront" transform="translate(495.869 269.324)">
        <path id="Path_22-3" data-name="Path 22" d="M-1.08-2.317l20.5-5.542V19.922L-.883,25.4Z" transform="translate(21.15 7.961)" stroke="#72c6d1" stroke-width="1" fill="url(#linear-gradient-13)"/>
        <path id="Path_25-3" data-name="Path 25" d="M-1.436-4.295,19.028-9.808Z" transform="translate(21.441 9.919)" fill="#7fddea" stroke="#72c6d1" stroke-width="1"/>
        <path id="Path_23-3" data-name="Path 23" d="M34.166-15.417,54.423-9.791l.207,27.736L34.166,12.393Z" transform="translate(-34.166 15.417)" stroke="#72c6d1" stroke-width="1" opacity="0.997" fill="url(#linear-gradient-14)"/>
        <path id="Path_24-3" data-name="Path 24" d="M27.247-16.255l20.333,5.62Z" transform="translate(-27.155 16.284)" fill="#7fddea" stroke="#72c6d1" stroke-width="1"/>
      </g>
      <path id="Path_499-3" data-name="Path 499" d="M13498.867-2077.84l10.234,2.872,10.234,2.873" transform="translate(-12993 2344.162)" fill="none" stroke="#72c6d1" stroke-width="1"/>
    </g>
    <g id="box-4" data-name="box" transform="translate(-284 1619)">
      <g id="boxBack-4" data-name="boxBack" transform="translate(495.869 263.471)">
        <path id="Path_26-4" data-name="Path 26" d="M33.385-22.764l20.259,5.884Z" transform="translate(-13.229 22.764)" fill="#7fddea" stroke="#72c6d1" stroke-width="1"/>
        <path id="Path_77-4" data-name="Path 77" d="M-4479.834,8965.674v-22.23l20.217-5.742,20.09,5.975.331,22Z" transform="translate(4479.834 -8937.679)" stroke="#72c6d1" stroke-width="1" fill="url(#linear-gradient-6)"/>
      </g>
      <g id="boxFront-4" data-name="boxFront" transform="translate(495.869 269.324)">
        <path id="Path_22-4" data-name="Path 22" d="M-1.08-2.317l20.5-5.542V19.922L-.883,25.4Z" transform="translate(21.15 7.961)" stroke="#72c6d1" stroke-width="1" fill="url(#linear-gradient-16)"/>
        <path id="Path_25-4" data-name="Path 25" d="M-1.436-4.295,19.028-9.808Z" transform="translate(21.441 9.919)" fill="#7fddea" stroke="#72c6d1" stroke-width="1"/>
        <path id="Path_23-4" data-name="Path 23" d="M34.166-15.417,54.423-9.791l.207,27.736L34.166,12.393Z" transform="translate(-34.166 15.417)" stroke="#72c6d1" stroke-width="1" opacity="0.997" fill="url(#linear-gradient-17)"/>
        <path id="Path_24-4" data-name="Path 24" d="M27.247-16.255l20.333,5.62Z" transform="translate(-27.155 16.284)" fill="#7fddea" stroke="#72c6d1" stroke-width="1"/>
      </g>
      <path id="Path_499-4" data-name="Path 499" d="M13498.867-2077.84l10.234,2.872,10.234,2.873" transform="translate(-12993 2344.162)" fill="none" stroke="#72c6d1" stroke-width="1"/>
    </g>
    <g id="box-5" data-name="box" transform="translate(-252 1599)">
      <g id="boxBack-5" data-name="boxBack" transform="translate(495.869 263.471)">
        <path id="Path_26-5" data-name="Path 26" d="M33.385-22.764l20.259,5.884Z" transform="translate(-13.229 22.764)" fill="#7fddea" stroke="#72c6d1" stroke-width="1"/>
        <path id="Path_77-5" data-name="Path 77" d="M-4479.834,8965.674v-22.23l20.217-5.742,20.09,5.975.331,22Z" transform="translate(4479.834 -8937.679)" stroke="#72c6d1" stroke-width="1" fill="url(#linear-gradient-6)"/>
      </g>
      <g id="boxFront-5" data-name="boxFront" transform="translate(495.869 269.324)">
        <path id="Path_22-5" data-name="Path 22" d="M-1.08-2.317l20.5-5.542V19.922L-.883,25.4Z" transform="translate(21.15 7.961)" stroke="#72c6d1" stroke-width="1" fill="url(#linear-gradient-19)"/>
        <path id="Path_25-5" data-name="Path 25" d="M-1.436-4.295,19.028-9.808Z" transform="translate(21.441 9.919)" fill="#7fddea" stroke="#72c6d1" stroke-width="1"/>
        <path id="Path_23-5" data-name="Path 23" d="M34.166-15.417,54.423-9.791l.207,27.736L34.166,12.393Z" transform="translate(-34.166 15.417)" stroke="#72c6d1" stroke-width="1" opacity="0.997" fill="url(#linear-gradient-20)"/>
        <path id="Path_24-5" data-name="Path 24" d="M27.247-16.255l20.333,5.62Z" transform="translate(-27.155 16.284)" fill="#7fddea" stroke="#72c6d1" stroke-width="1"/>
      </g>
      <path id="Path_499-5" data-name="Path 499" d="M13498.867-2077.84l10.234,2.872,10.234,2.873" transform="translate(-12993 2344.162)" fill="none" stroke="#72c6d1" stroke-width="1"/>
    </g>
    <g id="box-6" data-name="box" transform="translate(-257 1653)">
      <g id="boxBack-6" data-name="boxBack" transform="translate(495.869 263.471)">
        <path id="Path_26-6" data-name="Path 26" d="M33.385-22.764l20.259,5.884Z" transform="translate(-13.229 22.764)" fill="#7fddea" stroke="#72c6d1" stroke-width="1"/>
        <path id="Path_77-6" data-name="Path 77" d="M-4479.834,8965.674v-22.23l20.217-5.742,20.09,5.975.331,22Z" transform="translate(4479.834 -8937.679)" stroke="#72c6d1" stroke-width="1" fill="url(#linear-gradient-6)"/>
      </g>
      <g id="boxFront-6" data-name="boxFront" transform="translate(495.869 269.324)">
        <path id="Path_22-6" data-name="Path 22" d="M-1.08-2.317l20.5-5.542V19.922L-.883,25.4Z" transform="translate(21.15 7.961)" stroke="#72c6d1" stroke-width="1" fill="url(#linear-gradient-22)"/>
        <path id="Path_25-6" data-name="Path 25" d="M-1.436-4.295,19.028-9.808Z" transform="translate(21.441 9.919)" fill="#7fddea" stroke="#72c6d1" stroke-width="1"/>
        <path id="Path_23-6" data-name="Path 23" d="M34.166-15.417,54.423-9.791l.207,27.736L34.166,12.393Z" transform="translate(-34.166 15.417)" stroke="#72c6d1" stroke-width="1" opacity="0.997" fill="url(#linear-gradient-23)"/>
        <path id="Path_24-6" data-name="Path 24" d="M27.247-16.255l20.333,5.62Z" transform="translate(-27.155 16.284)" fill="#7fddea" stroke="#72c6d1" stroke-width="1"/>
      </g>
      <path id="Path_499-6" data-name="Path 499" d="M13498.867-2077.84l10.234,2.872,10.234,2.873" transform="translate(-12993 2344.162)" fill="none" stroke="#72c6d1" stroke-width="1"/>
    </g>
    <g id="box-7" data-name="box" transform="translate(-287 1591)">
      <g id="boxBack-7" data-name="boxBack" transform="translate(495.869 263.471)">
        <path id="Path_26-7" data-name="Path 26" d="M33.385-22.764l20.259,5.884Z" transform="translate(-13.229 22.764)" fill="#7fddea" stroke="#72c6d1" stroke-width="1"/>
        <path id="Path_77-7" data-name="Path 77" d="M-4479.834,8965.674v-22.23l20.217-5.742,20.09,5.975.331,22Z" transform="translate(4479.834 -8937.679)" stroke="#72c6d1" stroke-width="1" fill="url(#linear-gradient-6)"/>
      </g>
      <g id="boxFront-7" data-name="boxFront" transform="translate(495.869 269.324)">
        <path id="Path_22-7" data-name="Path 22" d="M-1.08-2.317l20.5-5.542V19.922L-.883,25.4Z" transform="translate(21.15 7.961)" stroke="#72c6d1" stroke-width="1" fill="url(#linear-gradient-25)"/>
        <path id="Path_25-7" data-name="Path 25" d="M-1.436-4.295,19.028-9.808Z" transform="translate(21.441 9.919)" fill="#7fddea" stroke="#72c6d1" stroke-width="1"/>
        <path id="Path_23-7" data-name="Path 23" d="M34.166-15.417,54.423-9.791l.207,27.736L34.166,12.393Z" transform="translate(-34.166 15.417)" stroke="#72c6d1" stroke-width="1" opacity="0.997" fill="url(#linear-gradient-26)"/>
        <path id="Path_24-7" data-name="Path 24" d="M27.247-16.255l20.333,5.62Z" transform="translate(-27.155 16.284)" fill="#7fddea" stroke="#72c6d1" stroke-width="1"/>
      </g>
      <path id="Path_499-7" data-name="Path 499" d="M13498.867-2077.84l10.234,2.872,10.234,2.873" transform="translate(-12993 2344.162)" fill="none" stroke="#72c6d1" stroke-width="1"/>
    </g>
    <g id="box-8" data-name="box" transform="translate(-260 1625)">
      <g id="boxBack-8" data-name="boxBack" transform="translate(495.869 263.471)">
        <path id="Path_26-8" data-name="Path 26" d="M33.385-22.764l20.259,5.884Z" transform="translate(-13.229 22.764)" fill="#7fddea" stroke="#72c6d1" stroke-width="1"/>
        <path id="Path_77-8" data-name="Path 77" d="M-4479.834,8965.674v-22.23l20.217-5.742,20.09,5.975.331,22Z" transform="translate(4479.834 -8937.679)" stroke="#72c6d1" stroke-width="1" fill="url(#linear-gradient-6)"/>
      </g>
      <g id="boxFront-8" data-name="boxFront" transform="translate(495.869 269.324)">
        <path id="Path_22-8" data-name="Path 22" d="M-1.08-2.317l20.5-5.542V19.922L-.883,25.4Z" transform="translate(21.15 7.961)" stroke="#72c6d1" stroke-width="1" fill="url(#linear-gradient-28)"/>
        <path id="Path_25-8" data-name="Path 25" d="M-1.436-4.295,19.028-9.808Z" transform="translate(21.441 9.919)" fill="#7fddea" stroke="#72c6d1" stroke-width="1"/>
        <path id="Path_23-8" data-name="Path 23" d="M34.166-15.417,54.423-9.791l.207,27.736L34.166,12.393Z" transform="translate(-34.166 15.417)" stroke="#72c6d1" stroke-width="1" opacity="0.997" fill="url(#linear-gradient-17)"/>
        <path id="Path_24-8" data-name="Path 24" d="M27.247-16.255l20.333,5.62Z" transform="translate(-27.155 16.284)" fill="#7fddea" stroke="#72c6d1" stroke-width="1"/>
      </g>
      <path id="Path_499-8" data-name="Path 499" d="M13498.867-2077.84l10.234,2.872,10.234,2.873" transform="translate(-12993 2344.162)" fill="none" stroke="#72c6d1" stroke-width="1"/>
    </g>
    <g id="box-9" data-name="box" transform="translate(-222 1658)">
      <g id="boxBack-9" data-name="boxBack" transform="translate(495.869 263.471)">
        <path id="Path_26-9" data-name="Path 26" d="M33.385-22.764l20.259,5.884Z" transform="translate(-13.229 22.764)" fill="#7fddea" stroke="#72c6d1" stroke-width="1"/>
        <path id="Path_77-9" data-name="Path 77" d="M-4479.834,8965.674v-22.23l20.217-5.742,20.09,5.975.331,22Z" transform="translate(4479.834 -8937.679)" stroke="#72c6d1" stroke-width="1" fill="url(#linear-gradient-6)"/>
      </g>
      <g id="boxFront-9" data-name="boxFront" transform="translate(495.869 269.324)">
        <path id="Path_22-9" data-name="Path 22" d="M-1.08-2.317l20.5-5.542V19.922L-.883,25.4Z" transform="translate(21.15 7.961)" stroke="#72c6d1" stroke-width="1" fill="url(#linear-gradient-28)"/>
        <path id="Path_25-9" data-name="Path 25" d="M-1.436-4.295,19.028-9.808Z" transform="translate(21.441 9.919)" fill="#7fddea" stroke="#72c6d1" stroke-width="1"/>
        <path id="Path_23-9" data-name="Path 23" d="M34.166-15.417,54.423-9.791l.207,27.736L34.166,12.393Z" transform="translate(-34.166 15.417)" stroke="#72c6d1" stroke-width="1" opacity="0.997" fill="url(#linear-gradient-32)"/>
        <path id="Path_24-9" data-name="Path 24" d="M27.247-16.255l20.333,5.62Z" transform="translate(-27.155 16.284)" fill="#7fddea" stroke="#72c6d1" stroke-width="1"/>
      </g>
      <path id="Path_499-9" data-name="Path 499" d="M13498.867-2077.84l10.234,2.872,10.234,2.873" transform="translate(-12993 2344.162)" fill="none" stroke="#72c6d1" stroke-width="1"/>
    </g>
    <g id="UKKeJC.tif" transform="translate(163.519 1802.166)">
      <g id="Group_153" data-name="Group 153" transform="translate(220.481 4.006)">
        <g id="Group_152" data-name="Group 152" transform="translate(0 0)">
          <path id="Path_327" data-name="Path 327" d="M220.481,97.274c.19-.2.377-.394.571-.584q1.808-1.772,3.62-3.54c.376-.368.713-.275.842.231q.688,2.689,1.375,5.378c.131.511-.111.746-.622.607l-1.226-.333c-.017.616-.069,1.195-.041,1.77a8.392,8.392,0,0,0,.956,3.515,8.586,8.586,0,0,0,4.278,4,8.34,8.34,0,0,0,3.962.689,8.615,8.615,0,0,0,4.928-1.957,9.254,9.254,0,0,0,3.168-5.132,1.76,1.76,0,0,1,.1-.3.381.381,0,0,1,.47-.244c.685.181,1.368.368,2.047.569a.41.41,0,0,1,.278.523c-1.285,4.921-4.308,8.187-9.326,9.244a11,11,0,0,1-10.8-3.587,11.236,11.236,0,0,1-2.865-5.947,10.938,10.938,0,0,1,.023-3.8c.006-.031.006-.064.012-.129-.412-.115-.826-.236-1.243-.346a.7.7,0,0,1-.5-.335Z" transform="translate(-220.481 -88.698)" fill="#ddfbff"/>
          <path id="Path_328" data-name="Path 328" d="M390.081,204.676h2.992v1.007c-.07,0-.133.011-.2.011-1.283,0-2.567,0-3.85,0-.189,0-.242-.059-.262-.242a2.553,2.553,0,0,1,1.079-2.4c.45-.353.92-.681,1.372-1.033a1.087,1.087,0,0,0,.536-.993.961.961,0,0,0-1.493-.641,5.083,5.083,0,0,0-.685.58l-.821-.547a2.252,2.252,0,0,1,.707-.839,2.488,2.488,0,0,1,2.626-.159,1.913,1.913,0,0,1,.582,2.7,4.471,4.471,0,0,1-1.223,1.121c-.288.207-.584.4-.866.619A1.154,1.154,0,0,0,390.081,204.676Z" transform="translate(-380.579 -189.743)" fill="#ddfbff"/>
          <path id="Path_329" data-name="Path 329" d="M495.877,205.1h.826v.975h-.81v1.651h-1.159v-1.644h-3.012a1.5,1.5,0,0,1,.2-1.07c.832-1.17,1.63-2.364,2.435-3.554a.344.344,0,0,1,.333-.179c.386.012.774,0,1.184,0Zm-1.146-.007v-2.5l-1.771,2.5Z" transform="translate(-478.539 -191.791)" fill="#ddfbff"/>
          <path id="Path_330" data-name="Path 330" d="M672.377,201.425c0,.357-.129.515-.431.558-.534.076-1.069.139-1.6.206-.144.018-.287.043-.431.048a.425.425,0,0,1-.482-.4c-.027-.175-.046-.351-.062-.527-.03-.335.095-.51.423-.556.542-.077,1.085-.14,1.628-.207.152-.019.3-.042.456-.047a.372.372,0,0,1,.4.309C672.329,201.036,672.353,201.269,672.377,201.425Z" transform="translate(-647.565 -191.048)" fill="#ddfbff"/>
          <path id="Path_331" data-name="Path 331" d="M372.692,26.761c.153.115.307.174.368.285.345.627.675,1.263.995,1.9a.4.4,0,0,1-.184.559,5.184,5.184,0,0,1-.579.3.386.386,0,0,1-.54-.169c-.342-.637-.676-1.28-.992-1.931a.4.4,0,0,1,.035-.374C372.069,27.122,372.378,26.955,372.692,26.761Z" transform="translate(-364.386 -25.746)" fill="#ddfbff"/>
          <path id="Path_332" data-name="Path 332" d="M531.914,16.158c-.17-.057-.443-.129-.7-.239a.355.355,0,0,1-.2-.447c.2-.688.4-1.375.615-2.057a.4.4,0,0,1,.537-.277c.187.048.373.1.556.163a.422.422,0,0,1,.31.581c-.184.641-.377,1.281-.568,1.92C532.4,16.021,532.275,16.173,531.914,16.158Z" transform="translate(-515.92 -12.765)" fill="#ddfbff"/>
          <path id="Path_333" data-name="Path 333" d="M598.358,52.43a1.965,1.965,0,0,1-.162.317q-.617.79-1.248,1.569a.425.425,0,0,1-.672.083c-.155-.115-.31-.232-.453-.361a.4.4,0,0,1-.069-.6q.642-.832,1.309-1.644a.4.4,0,0,1,.6-.075,4.124,4.124,0,0,1,.49.392A1.633,1.633,0,0,1,598.358,52.43Z" transform="translate(-577.432 -49.395)" fill="#ddfbff"/>
          <path id="Path_334" data-name="Path 334" d="M456.253,5.857c.405-.009.538.109.577.483.061.592.114,1.185.182,1.777.056.485-.1.7-.573.7-.128,0-.256.033-.384.037a.436.436,0,0,1-.523-.436c-.072-.672-.133-1.345-.19-2.018a.437.437,0,0,1,.392-.494c.127-.019.256-.031.384-.044C456.174,5.859,456.23,5.858,456.253,5.857Z" transform="translate(-443.935 -5.856)" fill="#ddfbff"/>
          <path id="Path_335" data-name="Path 335" d="M647.216,118.3c-.108.137-.175.289-.291.359-.594.353-1.2.691-1.8,1.023a.414.414,0,0,1-.6-.161,5.437,5.437,0,0,1-.3-.524.413.413,0,0,1,.166-.6q.9-.522,1.806-1.02a.411.411,0,0,1,.6.161C646.94,117.771,647.065,118.021,647.216,118.3Z" transform="translate(-623.581 -111.891)" fill="#ddfbff"/>
        </g>
      </g>
    </g>
    <g id="sEpcOl" transform="translate(87.756 1723.861)">
      <g id="Group_155" data-name="Group 155" transform="translate(257.868 34.761)">
        <g id="Group_154" data-name="Group 154" transform="translate(0 0)">
          <path id="Path_337" data-name="Path 337" d="M295.723,65.594h4.456a2.4,2.4,0,0,1,1.745.717c1.269,1.258,2.526,2.527,3.79,3.79q1.8,1.8,3.6,3.6c1.374,1.374,2.756,2.739,4.116,4.127a2.513,2.513,0,0,1-.026,3.518c-1.268,1.283-2.549,2.553-3.824,3.829q-2.416,2.417-4.83,4.837a2.986,2.986,0,0,1-1.442.923,2.469,2.469,0,0,1-2.4-.664c-1.372-1.352-2.728-2.722-4.09-4.084L291.2,80.57c-.588-.588-1.183-1.171-1.764-1.766a2.438,2.438,0,0,1-.723-1.76q0-4.432,0-8.863a2.518,2.518,0,0,1,1.846-2.493,2.639,2.639,0,0,1,.709-.092c1.485-.008,2.971,0,4.456,0Zm6.99,13.3c-.284-.277-.548-.519-.793-.778a3.182,3.182,0,1,0-4.685,4.3q2.664,2.669,5.332,5.333c.039.039.08.074.126.117.047-.043.089-.079.127-.118q2.636-2.636,5.27-5.274a3.088,3.088,0,0,0,.9-2.83,3.144,3.144,0,0,0-3.006-2.615,3.08,3.08,0,0,0-2.38.95C303.3,78.282,303.011,78.587,302.713,78.893Zm-7.655-8.863a1.9,1.9,0,1,0-1.888,1.91A1.889,1.889,0,0,0,295.059,70.03Z" transform="translate(-288.713 -65.591)" fill="#ddfbff"/>
        </g>
      </g>
    </g>
  </g>
</svg>
