<svg xmlns="http://www.w3.org/2000/svg" xmlns:xlink="http://www.w3.org/1999/xlink" width="1660.98" height="733.287" viewBox="0 0 1660.98 733.287">
  <defs>
    <linearGradient id="linear-gradient" x1="0.5" x2="0.5" y2="1" gradientUnits="objectBoundingBox">
      <stop offset="0"/>
      <stop offset="0.414" stop-color="#3c3c3c"/>
      <stop offset="1" stop-color="#545454" stop-opacity="0"/>
    </linearGradient>
    <linearGradient id="linear-gradient-2" x1="0.5" x2="0.5" y2="1" gradientUnits="objectBoundingBox">
      <stop offset="0" stop-color="#fff"/>
      <stop offset="0.03" stop-color="#fff"/>
      <stop offset="0.916" stop-color="#fff"/>
      <stop offset="1" stop-color="#fff" stop-opacity="0"/>
    </linearGradient>
  </defs>
  <g id="Шар_3" transform="translate(14.98 -301.038)">
    <path id="Path_288" data-name="Path 288" d="M1570.113,1030.361S742.138,828.813,750.771,748.67s750.435-149.857,738.662-246.7S759.715,428.51,759.766,384.416c.922-30.967,214.716-33.4,213.365-52.75C971.477,295.109-14.98,302.639-14.98,302.639S828.6,309.25,828.16,331.666c-.841,20.357-224.957,11-231.181,52.75-.453,62.979,654.774,71.133,660.869,111.715,4.884,55.191-880.135,111.824-885.339,294.613,13.235,138.965,378.261,234.9,378.261,234.9Z" opacity="0.198" fill="url(#linear-gradient)"/>
    <path id="Path_267" data-name="Path 267" d="M1646,899" fill="none"/>
    <path id="Path_268" data-name="Path 268" d="M555,762s33-49,77-59h16s-61,27-76,59Z" fill="#fff"/>
    <path id="Path_269" data-name="Path 269" d="M730,670l120-30,11,4L748,672Z" fill="#fff"/>
    <path id="Path_270" data-name="Path 270" d="M960,618l11,3,90-22-7-4Z" fill="#fff"/>
    <path id="Path_271" data-name="Path 271" d="M1157,572l15,1,86-23-15-1Z" fill="#fff"/>
    <path id="Path_272" data-name="Path 272" d="M1342,518l10,2s51-29-4-47l-10,2S1398,488,1342,518Z" fill="#fff"/>
    <path id="Path_273" data-name="Path 273" d="M1241,461l13-2-69-9-3,3Z" fill="#fff"/>
    <path id="Path_274" data-name="Path 274" d="M1098,447v-4l-73-6v3Z" fill="#fff"/>
    <path id="Path_275" data-name="Path 275" d="M936.1,430.1l-65.2-7.2v2l64.2,7.2Z" fill="#fff"/>
    <path id="Path_276" data-name="Path 276" d="M803,413l-46-9-2,2,47,10Z" fill="#fff"/>
    <path id="Path_277" data-name="Path 277" d="M704,394s-39-16-16-23l2,1s-21,3,16,19Z" fill="#fff"/>
    <path id="Path_278" data-name="Path 278" d="M751,361l40-6-1-1-40,6Z" fill="#fff"/>
    <path id="Path_279" data-name="Path 279" d="M864,343s27.3-5.2,26.6-8.1l-3.6.1s7,2-23,7Z" fill="#fff"/>
    <path id="Path_280" data-name="Path 280" d="M847,323l-17-2h0l17,1Z" fill="#fff"/>
    <g id="Group_140" data-name="Group 140">
      <path id="Path_281" data-name="Path 281" d="M975.9,330.4a6.551,6.551,0,0,1-.5,2.5,8.8,8.8,0,0,1-.6,1,5.551,5.551,0,0,1-.6.8,12.681,12.681,0,0,1-2.6,2.2,30.7,30.7,0,0,1-5.1,2.6,80.61,80.61,0,0,1-10.2,3.3c-6.8,1.8-13.6,3.2-20.5,4.6-13.7,2.6-27.4,4.7-41.1,6.7-27.4,4.1-54.8,7.7-82,12.6-6.8,1.2-13.5,2.5-20.2,4a176.522,176.522,0,0,0-19.6,5.4,33.554,33.554,0,0,0-8.5,4.1,6.926,6.926,0,0,0-2,2.1v.3a3.63,3.63,0,0,0,.7.9,15.475,15.475,0,0,0,3.4,2.3c1.4.7,2.9,1.3,4.4,1.9a97.216,97.216,0,0,0,9.6,2.9c6.6,1.7,13.3,2.9,20.1,4.1q10.2,1.65,20.4,3c13.7,1.8,27.4,3.3,41.1,4.6,27.5,2.7,55.1,4.8,82.7,6.8s55.2,3.9,82.8,5.7c55.2,3.7,110.5,7.4,165.7,11.9,27.6,2.3,55.2,4.7,82.8,7.6s55.1,6.1,82.6,10.2c13.7,2.1,27.5,4.3,41.1,7,13.7,2.7,27.3,5.7,40.8,9.5a205.857,205.857,0,0,1,20.1,6.7,107.336,107.336,0,0,1,19.5,9.7,44.925,44.925,0,0,1,8.9,7.6,24.726,24.726,0,0,1,3.6,5.3,21.086,21.086,0,0,1,2,6.6,18.485,18.485,0,0,1,.1,3.3c0,1.1-.1,2.1-.2,3.2a31.748,31.748,0,0,1-1.4,6.1,37.729,37.729,0,0,1-5.6,10.5,61.309,61.309,0,0,1-7.6,8.4,92.781,92.781,0,0,1-8.5,7,157.857,157.857,0,0,1-18.2,11.4,337.94,337.94,0,0,1-38.4,17.4c-26.1,10.1-52.7,18.3-79.4,25.9-53.5,15-107.6,27.3-161.7,39.3-54.1,11.9-108.3,23.2-162.3,35.1-27,5.9-54,12-80.8,18.6-26.8,6.5-53.5,13.4-79.8,21.4-13.1,4-26.1,8.3-38.8,13.1-6.3,2.4-12.6,5-18.6,7.8a158.393,158.393,0,0,0-17.3,9.3,61.818,61.818,0,0,0-7.4,5.5,28.212,28.212,0,0,0-5.3,5.9,10.9,10.9,0,0,0-1.3,2.7,1.269,1.269,0,0,0-.1.6c0,.2-.1.4-.1.6a1.268,1.268,0,0,1-.1.6v.6a13.3,13.3,0,0,0,2,5.9,33.689,33.689,0,0,0,5.2,6.5,69.544,69.544,0,0,0,7,6.1,136.172,136.172,0,0,0,16.4,10.7,349.739,349.739,0,0,0,36.4,17.7c12.5,5.3,25.3,10.3,38.2,14.9,25.8,9.3,52.1,17.6,78.5,25.5,52.9,15.6,106.4,29.4,160,42.6,53.7,13.2,107.5,25.8,161.4,38.5s107.7,25.6,161.5,39.4c26.9,6.9,53.7,14.1,80.6,21.9,13.4,3.9,26.8,8.1,40.3,12.7a59.282,59.282,0,0,1,27.5,19.5l1.8,2.7a27.556,27.556,0,0,1,1.7,2.9l.7,1.6a7.581,7.581,0,0,1,.6,1.6,11.63,11.63,0,0,1,.4,1.8l.3,1.8h0l1.4,2.3-2.1-.6c-4.3-1.3-8.6-1-12.8-1h-38.5l-51.4-.1-102.7-.1H1171l-411-.5h0a1.666,1.666,0,0,0-1.2.6,7.415,7.415,0,0,0-1.4,2l-3.1,4.9c-.4.4-.9,1.1-1.3,1.2a2.079,2.079,0,0,1-1.1.1l-2.1-.2c-2.8-.4-5.6-.8-8.3-1.2-5.5-.9-11-2.1-16.4-3.4a313.607,313.607,0,0,1-31.7-9.7c-10.4-3.7-20.7-7.6-31-11.4s-20.6-7.6-30.8-11.5c-20.5-7.9-40.7-16.3-60.8-25.4-20-9-39.8-18.6-59.2-29a656.143,656.143,0,0,1-56.9-33.9c-18.4-12.4-36.2-26-52.2-42a176.935,176.935,0,0,1-22-26.5c-.8-1.2-1.6-2.4-2.4-3.7s-1.6-2.5-2.3-3.8c-1.4-2.6-2.9-5.2-4.1-7.9-1.3-2.7-2.4-5.5-3.5-8.4a88.37,88.37,0,0,1-2.5-8.8c-.3-1.5-.7-3-.9-4.5s-.5-3.1-.7-4.6l-.3-4.7a36.843,36.843,0,0,1,0-4.7,65.657,65.657,0,0,1,3.4-18.6,79.5,79.5,0,0,1,8-16.6A108.342,108.342,0,0,1,386,739.6a163.4,163.4,0,0,1,26-22.7,283.414,283.414,0,0,1,28.6-17.8A503.116,503.116,0,0,1,501,671.6c20.5-8,41.3-15,62.3-21.5,20.9-6.5,42-12.4,63.1-18,42.3-11.1,84.9-20.7,127.6-29.6s85.5-17,128.4-24.8,85.8-15.2,128.7-22.6c42.9-7.5,85.8-14.9,128.4-23.2,21.3-4.2,42.5-8.6,63.5-13.9,10.4-2.7,20.8-5.5,30.8-9.1a96.318,96.318,0,0,0,14.2-6.1,33.159,33.159,0,0,0,5.7-3.8,11.477,11.477,0,0,0,1.6-1.8c.1-.1.1-.2.2-.3,0-.1.1-.1.1-.2v.1c.1.1,0,.1.1.1s0-.1-.1-.1q0-.15-.3-.3a18.289,18.289,0,0,0-2.2-1.6,45.086,45.086,0,0,0-6.6-2.9,139.253,139.253,0,0,0-15.1-4.3c-10.4-2.4-21-4.2-31.7-5.9-21.4-3.3-42.9-5.9-64.5-8.3-43.2-4.7-86.5-8.6-129.9-12.5s-86.7-7.8-130.1-12c-43.3-4.3-86.7-9-129.9-15-21.6-3-43.2-6.4-64.6-10.7-10.7-2.1-21.4-4.5-32-7.3a210.434,210.434,0,0,1-31.4-10.5,63.207,63.207,0,0,1-14.7-8.7,22.179,22.179,0,0,1-5.9-7.2l-.5-1.1a5.639,5.639,0,0,1-.4-1.2,11.083,11.083,0,0,1-.5-2.5c-.1-.4,0-.9-.1-1.3v-1.3a13.1,13.1,0,0,1,.6-2.7,12.833,12.833,0,0,1,2.6-4.4,25.361,25.361,0,0,1,3.4-3.2,45.15,45.15,0,0,1,7.5-4.5,106.96,106.96,0,0,1,15.8-5.7,297.675,297.675,0,0,1,32.2-6.9c10.8-1.8,21.6-3.3,32.4-4.6,21.7-2.6,43.4-4.6,65-6.6,10.8-1,21.7-2,32.5-3.1s21.6-2.3,32.2-4.2a61.789,61.789,0,0,0,7.7-1.8,28.443,28.443,0,0,0,3.5-1.3,2.8,2.8,0,0,0,1.2-.8c.1-.1.1-.2.1-.1a.3.3,0,0,0,0,.4c.1.3,0-.1-.5-.3-.4-.3-.9-.5-1.4-.8a30.148,30.148,0,0,0-3.6-1.3q-3.75-1.05-7.8-1.8c-10.6-2-21.4-3.1-32.2-4.2-21.6-2-43.3-3.4-65.1-4.5-43.4-2.3-87-3.8-130.5-5-174-5-348.2-5.8-522.3-8.5-10.9-.2-21.8-.4-32.6-.7-5.4-.1-10.9-.3-16.3-.5s-10.9-.4-16.3-.9c-.7-.1-1.4-.1-2-.2-.3-.1-.7-.1-1-.2-.6-.1-.3-.7.1-.5,1.4-.1,2.7-.1,4.1-.2l8.2-.2,16.3-.2,32.6-.3,130.6-1q130.65-.9,261.2.2c87.1.6,174.1,1.6,261.2,3.8,43.5,1.1,87.1,2.5,130.6,4.7,21.8,1.1,43.5,2.4,65.2,4.3,10.9,1,21.7,2.1,32.6,3.6,5.4.8,10.9,1.6,16.3,2.8,2.7.6,5.4,1.3,8.2,2.2a25.284,25.284,0,0,1,4.2,1.8,13.8,13.8,0,0,1,2.3,1.6,4.493,4.493,0,0,1,1.1,1.5A4.9,4.9,0,0,1,975.9,330.4Zm-5.8.2a1.034,1.034,0,0,0,.1.4l-.1-.1a3.475,3.475,0,0,0-1.1-.7,20.461,20.461,0,0,0-3.3-1.4c-2.4-.8-5-1.5-7.5-2.1-5.2-1.2-10.5-2.1-15.8-2.8-10.7-1.6-21.5-2.7-32.3-3.7-21.6-2-43.3-3.4-65-4.7-43.4-2.4-86.9-4.1-130.4-5.5-87-2.7-174-4.2-261.1-5.3s-174.1-1.6-261.2-2q-65.25-.3-130.6,0l-32.6.3-16.3.2-8.2.2c-1.4,0-2.7.1-4.1.2-.5,0-.6,0-.1.2.3.1.7.1,1,.2a13.551,13.551,0,0,0,2,.2c5.4.5,10.9.6,16.3.8s10.9.3,16.3.4c10.9.2,21.8.4,32.6.5,43.5.6,87.1.9,130.6,1.2l130.6,1.1q65.25.6,130.6,1.5,65.25.9,130.6,2.3c43.5,1,87.1,2.3,130.6,4.3,21.8,1.1,43.5,2.3,65.2,4.2,10.9,1,21.7,2.1,32.6,4,2.7.5,5.4,1.1,8.2,1.8a33.082,33.082,0,0,1,4.1,1.4,11.249,11.249,0,0,1,2.1,1.2,4.981,4.981,0,0,1,1.1,1,3.867,3.867,0,0,1,1,1.8,3.91,3.91,0,0,1-.2,2.4,5.826,5.826,0,0,1-1.1,1.5,7.981,7.981,0,0,1-2.2,1.4,23.512,23.512,0,0,1-4.2,1.5,75.077,75.077,0,0,1-8.2,1.9c-10.8,2-21.7,3.2-32.5,4.4s-21.7,2.2-32.5,3.3c-21.7,2.1-43.3,4.3-64.8,7-10.8,1.4-21.5,2.9-32.2,4.8a301.11,301.11,0,0,0-31.6,7,94.751,94.751,0,0,0-14.9,5.5,38.6,38.6,0,0,0-6.5,3.9,11.54,11.54,0,0,0-4,5,6.1,6.1,0,0,0-.3,1.3V384a5.766,5.766,0,0,0,.3,1.4c.1.2.1.5.2.7l.3.7a15.655,15.655,0,0,0,4.5,5.2,60.759,60.759,0,0,0,13.4,7.7,209.267,209.267,0,0,0,30.5,10c10.4,2.7,21,4.9,31.7,7,21.3,4.1,42.8,7.3,64.3,10.1,43.1,5.7,86.4,10,129.7,14s86.7,7.5,130.1,11.1,86.8,7.1,130.2,11.5c21.7,2.2,43.4,4.6,65.1,7.8,10.8,1.6,21.7,3.4,32.5,5.8a141.377,141.377,0,0,1,16.3,4.5,58.917,58.917,0,0,1,8.4,3.6,23.135,23.135,0,0,1,4.4,3.2,4.261,4.261,0,0,1,1.1,1.2c.4.5.7.9,1.1,1.5a9.266,9.266,0,0,1,.9,2,11.21,11.21,0,0,1,.5,2.2,11.884,11.884,0,0,1-1.7,7.2,16.555,16.555,0,0,1-3.7,4.4,39.894,39.894,0,0,1-7.8,5.3,133.967,133.967,0,0,1-15.7,6.9c-10.5,3.8-21.1,6.8-31.7,9.6-21.2,5.6-42.6,10.2-64,14.6-42.8,8.7-85.6,16.5-128.5,24.3-42.8,7.8-85.7,15.5-128.4,23.6S799.4,607.7,757,616.8c-42.5,9.2-84.7,19.1-126.6,30.4-20.9,5.7-41.7,11.7-62.3,18.2-20.6,6.6-41,13.6-61,21.6a496.519,496.519,0,0,0-58.2,27,261.73,261.73,0,0,0-26.7,16.9,144.653,144.653,0,0,0-23,20.3c-6.7,7.5-12.1,15.7-14.9,24.5a47.86,47.86,0,0,0-2.4,13.4v3.4l.3,3.5c.1,1.2.4,2.3.5,3.5a18.628,18.628,0,0,0,.7,3.4c.5,2.3,1.3,4.6,2,6.8.9,2.2,1.7,4.5,2.8,6.7,1,2.2,2.2,4.4,3.4,6.6.6,1.1,1.3,2.1,2,3.2s1.3,2.1,2,3.2a162.237,162.237,0,0,0,19.8,23.5c14.9,14.7,31.9,27.5,49.6,39.3a637.109,637.109,0,0,0,55.4,32.5c19,10,38.5,19.3,58.2,28s39.7,16.9,59.9,24.5c10.1,3.8,20.2,7.6,30.5,11,10.2,3.4,20.6,6.4,31,9.3s20.7,5.8,30.9,8.9l15.3,4.8,7.6,2.4,1.9.6a1.382,1.382,0,0,1,.9.5,5.929,5.929,0,0,1,.7,1.6c.3,1.9.6,3.8.9,5.6a7.405,7.405,0,0,0,.6,2.3c.2.7.5.9.9,1l411,.5,205.5.2,102.7.1,51.4.1h38.5c4.3,0,8.6.3,12.8-1l-.7,1.7h-1.6a8.754,8.754,0,0,0-1.6.2c-.9.1-2,.2-2.9.3-1,.2-1.9.2-2.8.3s-1.8.2-2.8.3c-3.5.1-7.1.4-10.6.2-1.7-.1-3.4-.2-5.1-.4s-3.4-.4-5-.7a76.35,76.35,0,0,1-9.7-2.4c-12.7-4.2-25.9-8-39-11.7-26.4-7.4-53.1-14.4-79.8-21.2-53.5-13.8-107.2-27.2-160.7-41.3-53.6-14-107.1-28.4-160.5-43.6s-106.6-31-159.4-48.3c-13.2-4.4-26.4-8.8-39.5-13.5-13.1-4.6-26.2-9.4-39.3-14.5-13-5.1-26-10.4-38.8-16.1a397.44,397.44,0,0,1-37.9-19.3,151.94,151.94,0,0,1-18.1-12.3,85.719,85.719,0,0,1-8.5-7.6,51.006,51.006,0,0,1-7.6-9.8c-.5-1-1.1-2-1.6-3-.4-1.1-.9-2.1-1.3-3.3l-.5-1.8-.2-.9-.2-.9-.3-1.9a12.1,12.1,0,0,1-.1-1.9,13.355,13.355,0,0,1,0-2c.1-.7.1-1.3.2-2a14.154,14.154,0,0,1,.4-2c.2-.6.3-1.3.5-1.9a30.926,30.926,0,0,1,3.1-6.6,43.873,43.873,0,0,1,8.5-9.5,73.55,73.55,0,0,1,9.3-6.8,162.654,162.654,0,0,1,19.3-10.2c6.5-2.9,13.1-5.6,19.7-8,13.2-4.9,26.6-9.2,40-13.1,26.8-7.8,53.8-14.5,80.8-20.8s54.1-12.2,81.2-17.9c54.2-11.5,108.5-22.4,162.6-33.9q40.65-8.55,81-17.9c26.9-6.3,53.7-12.9,80.3-20.2s53-15.3,78.6-25.1a319.385,319.385,0,0,0,37.2-16.7,146.275,146.275,0,0,0,17-10.5,76.058,76.058,0,0,0,7.6-6.2,50.439,50.439,0,0,0,6.3-6.9,27.628,27.628,0,0,0,4.2-7.7,19.518,19.518,0,0,0,1-4,6.731,6.731,0,0,0,.1-2v-1.9a12.755,12.755,0,0,0-3.2-6.5,32.459,32.459,0,0,0-6.8-5.8,98.782,98.782,0,0,0-17.5-8.8c-6.2-2.5-12.7-4.6-19.2-6.5-13.1-3.8-26.5-6.8-39.9-9.5-13.5-2.7-27.1-5-40.7-7.1-27.3-4.2-54.7-7.5-82.2-10.5s-55-5.5-82.6-7.9c-55.1-4.7-110.3-8.6-165.5-12.6q-41.4-3-82.8-6.1c-27.6-2.2-55.2-4.4-82.8-7.3-13.8-1.4-27.6-3-41.4-4.9-6.9-.9-13.8-2-20.6-3.2-6.9-1.2-13.7-2.5-20.6-4.3-3.4-.9-6.8-1.9-10.3-3.2a37.367,37.367,0,0,1-5.1-2.2,22.153,22.153,0,0,1-5.1-3.5,10.677,10.677,0,0,1-2.3-3.3,7.18,7.18,0,0,1-.2-4.8,10.374,10.374,0,0,1,2.1-3.6,16.424,16.424,0,0,1,2.5-2.2,43.191,43.191,0,0,1,10.2-4.9,172.029,172.029,0,0,1,20.4-5.6c6.8-1.5,13.7-2.8,20.5-4,27.4-4.7,54.9-8.2,82.2-12.2,13.7-2,27.3-4,40.9-6.5,6.8-1.3,13.5-2.6,20.1-4.4a87.939,87.939,0,0,0,9.5-3,31.325,31.325,0,0,0,4.1-2,9.77,9.77,0,0,0,1.4-1.1C970.1,330.5,970,330.4,970.1,330.6Z" fill="url(#linear-gradient-2)"/>
    </g>
    <path id="Path_282" data-name="Path 282" d="M943.5,965.5l-115-44,21-2,122,46Z" fill="#fff" stroke="#fff" stroke-miterlimit="10" stroke-width="1"/>
    <path id="Path_283" data-name="Path 283" d="M701.5,873.5s-104-45-103-50l21,1c0,2,104,49,104,49Z" fill="#fff" stroke="#fff" stroke-miterlimit="10" stroke-width="1"/>
  </g>
</svg>
