<svg xmlns="http://www.w3.org/2000/svg" width="220" height="220" viewBox="0 0 220 220">
  <g id="Group_131" data-name="Group 131" transform="translate(-296 -5108)">
    <g id="tRkwyD" transform="translate(307.129 4954.865)">
      <g id="Group_128" data-name="Group 128" transform="translate(14.399 208.162)">
        <g id="Group_127" data-name="Group 127">
          <path id="Path_242" data-name="Path 242" d="M264.14,231.085c2.755,5.333,5.437,10.572,8.162,15.789q6.338,12.135,12.745,24.234a2.1,2.1,0,0,1-.052,2.318A58.614,58.614,0,0,1,273.288,287.3c-1.489,1.364-3.055,2.646-4.652,4.022-2.143-2.386-4.2-4.692-6.27-6.979Q245.29,265.525,228.2,246.718c-.445-.49-.931-.944-1.4-1.408-1.522-1.495-2.581-1.657-4.459-.649-3.924,2.105-7.826,4.251-11.766,6.327-4.428,2.333-8.884,4.611-13.334,6.9a11.489,11.489,0,0,1-5.474,1.516,4.922,4.922,0,0,1-4.994-3.881,7.12,7.12,0,0,1,2.329-7.606,205.892,205.892,0,0,1,33.26-22.469,19.218,19.218,0,0,1,10.91-2.583,18.054,18.054,0,0,1,7.431,2.308c2.969,1.7,5.845,3.554,8.766,5.333,1.225.745,2.433,1.526,3.7,2.183a8.193,8.193,0,0,0,7.843.017C262.027,232.192,263.03,231.661,264.14,231.085Z" transform="translate(-134.853 -218.407)" fill="#049aaf"/>
          <path id="Path_243" data-name="Path 243" d="M494,255.522c-.1,1.539-.518,2.5-1.556,3.05-3.049,1.63-6.094,3.269-9.178,4.833-1.588.805-3.359.061-4.318-1.76-1.869-3.547-3.695-7.118-5.535-10.68q-7.877-15.247-15.741-30.5a7.753,7.753,0,0,1-.785-2.158,2.993,2.993,0,0,1,1.731-3.161q4.139-2.205,8.294-4.383c2.146-1.13,3.89-.6,5.038,1.592,1.828,3.486,3.622,6.989,5.43,10.486q7.931,15.343,15.851,30.692A16.423,16.423,0,0,1,494,255.522Z" transform="translate(-324.06 -209.578)" fill="#049aaf"/>
          <path id="Path_244" data-name="Path 244" d="M14.4,256.143c.19-.666.333-1.35.576-2q8.136-21.635,16.294-43.261c.984-2.61,2.378-3.242,4.983-2.329,2.429.851,4.866,1.683,7.293,2.54,2.481.877,3.209,2.43,2.286,4.9q-2.843,7.594-5.709,15.179-5.306,14.094-10.627,28.183a6.6,6.6,0,0,1-1.083,1.9,2.727,2.727,0,0,1-3.191.856c-2.953-1.025-5.91-2.038-8.855-3.084A3.065,3.065,0,0,1,14.4,256.143Z" transform="translate(-14.399 -208.162)" fill="#049aaf"/>
          <path id="Path_245" data-name="Path 245" d="M100.469,225.44c-1.121,3.028-2.213,6.032-3.344,9.022Q91.21,250.1,85.256,265.725a1.616,1.616,0,0,0,.313,1.961c3.607,3.887,7.17,7.814,10.749,11.727.272.3.552.585.661.7l-2.732,2.921c-.678-.7-1.44-1.437-2.152-2.222q-4.975-5.48-9.926-10.982a4.373,4.373,0,0,1-.836-4.819q7.762-20.543,15.5-41.1a3.944,3.944,0,0,1,3.428-2.877c1.672-.156,2.731.772,3.769,2.036a7.843,7.843,0,0,0,5.816,2.738,14.2,14.2,0,0,0,7.288-1.894c2.592-1.313,5.1-2.789,7.687-4.115a19.7,19.7,0,0,1,9.712-2.569,11.2,11.2,0,0,1,6.381,2.177c.376.276.7.622,1.13,1.009-1.148.68-2.176,1.32-3.24,1.893a1.089,1.089,0,0,1-.883-.016,8.52,8.52,0,0,0-6.966-.5,64.007,64.007,0,0,0-6.566,2.832c-2.786,1.329-5.435,2.981-8.294,4.11C110.044,231.122,105.155,230,100.469,225.44Z" transform="translate(-60.984 -214.504)" fill="#049aaf"/>
          <path id="Path_246" data-name="Path 246" d="M363.137,429.715a8.319,8.319,0,0,1-1.974,7.961c-3.266,3.653-7.269,4.3-11.821,2.39-.353,3.611-1.643,6.707-4.708,8.771-3.15,2.121-6.426,2.026-9.833.2-.7,4.726-2.657,8.475-7.506,9.93a7.624,7.624,0,0,1-6.366-.987c.36-.544.742-1.078,1.077-1.641.317-.532.584-1.094.758-1.423a17.087,17.087,0,0,0,3.808-.049c2.264-.552,3.982-3.08,4.186-5.7a7.188,7.188,0,0,0-1.782-5.513q-5.487-6.286-10.955-12.588a2.5,2.5,0,0,1-.362-3.316c.81-1.163,1.763-1.23,2.709-.175q7.118,7.942,14.225,15.892c1.228,1.377,2.558,2.583,4.487,2.773,3.2.314,5.982-2.341,6.261-5.919a7.98,7.98,0,0,0-2.276-6.233c-4.076-4.46-8.113-8.954-12.162-13.438a2.189,2.189,0,0,1-.111-3.175,1.761,1.761,0,0,1,3.037-.119q7.61,8.613,15.2,17.239c2.689,3.039,6.614,3.21,9.18.423a2.435,2.435,0,0,0,.69-.984C359.372,431.7,361.515,431.015,363.137,429.715Z" transform="translate(-226.313 -354.001)" fill="#049aaf"/>
          <path id="Path_247" data-name="Path 247" d="M240.864,467.048c.014,2.982-.729,4.814-2.306,6.26q-6.187,5.674-12.412,11.308a5.259,5.259,0,0,1-5.824,1.2,6.065,6.065,0,0,1-3.8-5.279,7.049,7.049,0,0,1,2.363-6.359c3.977-3.617,7.964-7.224,11.909-10.876,1.89-1.749,3.957-2.541,6.444-1.492A6.112,6.112,0,0,1,240.864,467.048Z" transform="translate(-155.815 -385.353)" fill="#049aaf"/>
          <path id="Path_248" data-name="Path 248" d="M199.524,440.577a7.554,7.554,0,0,1-2.43,5.6c-3.128,2.847-6.244,5.708-9.377,8.549-2.169,1.966-4.379,2.4-6.558,1.33a6.772,6.772,0,0,1-3.466-6.432,7.585,7.585,0,0,1,2.559-5.206q4.6-4.129,9.138-8.319c1.883-1.746,3.972-2.578,6.435-1.472C198.4,435.785,199.337,438.028,199.524,440.577Z" transform="translate(-128.671 -366.313)" fill="#049aaf"/>
          <path id="Path_249" data-name="Path 249" d="M268.143,520.149a7.062,7.062,0,0,1,2.024-5.094c1.653-1.731,3.342-3.428,4.975-5.178,1.737-1.863,3.79-2.731,6.256-1.825,2.554.939,3.72,3.023,3.968,5.625a7.229,7.229,0,0,1-2.172,5.919q-2.461,2.539-4.907,5.091c-1.752,1.833-3.812,2.689-6.275,1.712-2.478-.984-3.592-3.024-3.866-5.588A6.255,6.255,0,0,1,268.143,520.149Z" transform="translate(-191.984 -417.797)" fill="#049aaf"/>
          <path id="Path_250" data-name="Path 250" d="M131.643,439.352a7.079,7.079,0,0,1,2.819-5.847c.526-.4,1.055-.8,1.56-1.234,4.126-3.509,8.791-.583,9.647,3.548a6.905,6.905,0,0,1-2.152,6.727c-.715.685-1.546,1.249-2.317,1.877a5.362,5.362,0,0,1-5.769,1.032,6.158,6.158,0,0,1-3.717-5.113C131.663,440.015,131.666,439.68,131.643,439.352Z" transform="translate(-96.456 -363.917)" fill="#049aaf"/>
        </g>
      </g>
    </g>
    <g id="Ellipse_42" data-name="Ellipse 42" transform="translate(296 5108)" fill="none" stroke="#049aaf" stroke-width="5">
      <circle cx="110" cy="110" r="110" stroke="none"/>
      <circle cx="110" cy="110" r="107.5" fill="none"/>
    </g>
  </g>
</svg>
