<svg xmlns="http://www.w3.org/2000/svg" width="56.163" height="56.163" viewBox="0 0 56.163 56.163">
  <path id="Icon_awesome-whatsapp-square" data-name="Icon awesome-whatsapp-square" d="M28.081,13.633a16.521,16.521,0,0,0-14,25.311l.389.627L12.8,45.663l6.256-1.642.6.364a16.479,16.479,0,0,0,8.412,2.307h.013A16.707,16.707,0,0,0,44.792,30.168a16.6,16.6,0,0,0-5.027-11.684A16.4,16.4,0,0,0,28.081,13.633ZM37.8,37.251c-.414,1.166-2.394,2.219-3.347,2.357-1.58.238-2.808.113-5.955-1.241-4.977-2.156-8.236-7.171-8.487-7.5a9.625,9.625,0,0,1-2.031-5.14,5.563,5.563,0,0,1,1.743-4.15,1.809,1.809,0,0,1,1.329-.627c.326,0,.664,0,.953.013s.715-.113,1.116.852c.414.99,1.4,3.435,1.529,3.686a.877.877,0,0,1,.038.865c-.953,1.906-1.968,1.83-1.454,2.708,1.918,3.3,3.836,4.438,6.757,5.9.5.251.79.213,1.078-.125s1.241-1.454,1.567-1.943.664-.414,1.116-.251,2.9,1.366,3.4,1.617.827.376.953.577a4.411,4.411,0,0,1-.3,2.394Zm12.348-35H6.017A6.019,6.019,0,0,0,0,8.267V52.4a6.019,6.019,0,0,0,6.017,6.017H50.145A6.019,6.019,0,0,0,56.163,52.4V8.267A6.019,6.019,0,0,0,50.145,2.25ZM28.069,50.039a19.862,19.862,0,0,1-9.5-2.42L8.023,50.39l2.821-10.3a19.917,19.917,0,1,1,37.3-9.916A20.065,20.065,0,0,1,28.069,50.039Z" transform="translate(0 -2.25)" fill="#049aaf"/>
</svg>
