<svg xmlns="http://www.w3.org/2000/svg" width="56.163" height="56.161" viewBox="0 0 56.163 56.161">
  <path id="Icon_awesome-linkedin" data-name="Icon awesome-linkedin" d="M52.151,2.25H4A4.029,4.029,0,0,0,0,6.3V54.362a4.029,4.029,0,0,0,4,4.049H52.151a4.04,4.04,0,0,0,4.012-4.049V6.3A4.04,4.04,0,0,0,52.151,2.25ZM16.974,50.388H8.65v-26.8h8.337v26.8ZM12.812,19.926A4.826,4.826,0,1,1,17.639,15.1,4.828,4.828,0,0,1,12.812,19.926ZM48.177,50.388H39.853V37.351c0-3.109-.063-7.108-4.325-7.108-4.338,0-5,3.385-5,6.882V50.388H22.2v-26.8h7.986v3.661H30.3a8.768,8.768,0,0,1,7.885-4.325c8.424,0,9.991,5.553,9.991,12.774Z" transform="translate(0 -2.25)" fill="#049aaf"/>
</svg>
